<?xml version="1.0" standalone="no"?>
<!DOCTYPE svg PUBLIC "-//W3C//DTD SVG 1.1//EN" "http://www.w3.org/Graphics/SVG/1.1/DTD/svg11.dtd" >
<svg xmlns="http://www.w3.org/2000/svg" xmlns:xlink="http://www.w3.org/1999/xlink" version="1.1">
<metadata>
Created by FontForge 20161013 at Fri Feb  5 12:27:43 2016
 By ,,,
(URW)++,Copyright 2014 by (URW)++ Design &#38; Development
</metadata>
<defs>
<font id="SBBWeb-Light" horiz-adv-x="2193" >
  <font-face 
    font-family="SBB Web Light"
    font-weight="300"
    font-stretch="normal"
    units-per-em="2048"
    panose-1="0 0 0 0 0 0 0 0 0 0"
    ascent="1638"
    descent="-410"
    x-height="1087"
    cap-height="1462"
    bbox="-311 -549 2417 2221"
    underline-thickness="95"
    underline-position="-337"
    unicode-range="U+0020-FB04"
  />
<missing-glyph horiz-adv-x="569" 
d="M57 0v1462h455v-1462h-455zM455 57v1348h-341v-1348h341z" />
    <glyph glyph-name="afii61352" unicode="Nr&#x2e;" horiz-adv-x="2129" 
d="M1290 1462v-1462h-155l-864 1247v-1247h-133v1462h154l865 -1255v1255h133zM1723 1065q144 0 233 -105q78 -93 78 -250q0 -166 -91 -261q-86 -90 -225 -90q-154 0 -240 105q-79 97 -79 248q0 148 75 242q88 111 249 111zM1715 984q-98 0 -158.5 -74.5t-60.5 -196.5
q0 -128 61 -201q60 -71 163 -71q96 0 154 66q65 74 65 204q0 124 -59 198q-59 75 -165 75zM1402 205h615v-95h-615v95z" />
    <glyph glyph-name="ff" unicode="ff" horiz-adv-x="1011" 
d="M677 1087v72q0 101 7.5 147t28.5 82q66 109 231 109q44 0 102 -8v-115q-52 8 -88 8q-102 0 -133 -57q-19 -34 -19 -150v-88h213v-112h-213v-975h-129v975h-381v-975h-129v975h-180v112h180v72q0 100 7.5 146.5t28.5 82.5q66 109 231 109q45 0 101 -8v-115q-51 8 -87 8
q-102 0 -133 -57q-19 -35 -19 -150v-88h381z" />
    <glyph glyph-name="fi" unicode="fi" horiz-adv-x="909" 
d="M828 1462v-208h-129v208h129zM828 1087v-1087h-129v1087h129zM516 1489v-115q-51 8 -87 8q-102 0 -133 -57q-19 -34 -19 -150v-88h213v-112h-213v-975h-129v975h-180v112h180v72q0 100 7.5 146.5t28.5 82.5q66 109 231 109q45 0 101 -8z" />
    <glyph glyph-name="fl" unicode="fl" horiz-adv-x="909" 
d="M828 1462v-1462h-129v1462h129zM516 1489v-115q-51 8 -87 8q-102 0 -133 -57q-19 -34 -19 -150v-88h213v-112h-213v-975h-129v975h-180v112h180v72q0 100 7.5 146.5t28.5 82.5q66 109 231 109q45 0 101 -8z" />
    <glyph glyph-name="ffi" unicode="ffi" horiz-adv-x="1473" 
d="M1348 1462v-208h-129v208h129zM1348 1087v-1087h-129v1087h129zM677 1087v72q0 101 7.5 147t28.5 82q66 109 231 109q44 0 102 -8v-115q-52 8 -88 8q-102 0 -133 -57q-19 -34 -19 -150v-88h213v-112h-213v-975h-129v975h-381v-975h-129v975h-180v112h180v72
q0 100 7.5 146.5t28.5 82.5q66 109 231 109q45 0 101 -8v-115q-51 8 -87 8q-102 0 -133 -57q-19 -35 -19 -150v-88h381z" />
    <glyph glyph-name="ffl" unicode="ffl" horiz-adv-x="1473" 
d="M1348 1462v-1462h-129v1462h129zM677 1087v72q0 101 7.5 147t28.5 82q66 109 231 109q44 0 102 -8v-115q-52 8 -88 8q-102 0 -133 -57q-19 -34 -19 -150v-88h213v-112h-213v-975h-129v975h-381v-975h-129v975h-180v112h180v72q0 100 7.5 146.5t28.5 82.5q66 109 231 109
q45 0 101 -8v-115q-51 8 -87 8q-102 0 -133 -57q-19 -35 -19 -150v-88h381z" />
    <glyph glyph-name=".notdef" horiz-adv-x="569" 
d="M57 0v1462h455v-1462h-455zM455 57v1348h-341v-1348h341z" />
    <glyph glyph-name="glyph1" horiz-adv-x="0" 
 />
    <glyph glyph-name="glyph2" horiz-adv-x="569" 
 />
    <glyph glyph-name="space" unicode=" " horiz-adv-x="569" 
 />
    <glyph glyph-name="exclam" unicode="!" horiz-adv-x="494" 
d="M317 1462v-429l-32 -666h-76l-31 667v428h139zM325 205v-205h-154v205h154z" />
    <glyph glyph-name="quotedbl" unicode="&#x22;" horiz-adv-x="758" 
d="M287 876h-101l-19 586h139zM572 876h-101l-19 586h139z" />
    <glyph glyph-name="numbersign" unicode="#" horiz-adv-x="1139" 
d="M762 504l-60 -431h-95l60 431h-255l-61 -431h-95l61 431h-271l13 94h271l34 242h-271l13 94h271l56 398h95l-56 -398h256l56 398h95l-56 -398h278l-13 -94h-278l-35 -242h278l-12 -94h-279zM715 840h-256l-34 -242h255z" />
    <glyph glyph-name="dollar" unicode="$" horiz-adv-x="1139" 
d="M534 1627h95v-178q180 -12 282 -93q136 -111 133 -305h-125q-8 273 -290 290v-553q135 -25 240 -73q100 -45 153.5 -133t53.5 -206q0 -236 -199 -349q-84 -48 -248 -59v-243l-95 -1v243q-211 4 -339 120q-130 117 -132 345l127 1q3 -176 77 -255q87 -92 267 -106v615
q-184 37 -277 105q-134 100 -134 274q0 102 48 187.5t135 135.5q90 52 228 60v178zM534 1343q-118 -4 -190 -60q-98 -75 -98 -208q0 -137 120 -209q48 -28 168 -57v534zM629 73q146 12 221 73q102 83 102 223q0 157 -133 232q-45 25 -190 68v-596z" />
    <glyph glyph-name="percent" unicode="%" horiz-adv-x="1821" 
d="M1369 1418l-804 -1418h-107l804 1418h107zM1374 749q150 0 233 -98t83 -276q0 -204 -91 -305q-86 -96 -234 -96q-169 0 -254 112q-72 95 -72 266q0 188 81 288q90 109 254 109zM1362 660q-111 0 -167 -93q-42 -70 -42 -211q0 -132 47 -208q54 -88 166 -88q101 0 156 79
t55 225q0 296 -215 296zM477 1455q152 0 235 -98t83 -278q0 -187 -87 -295q-83 -104 -241 -104q-175 0 -258 123q-66 99 -66 267q0 187 90 287q89 98 244 98zM466 1366q-102 0 -156 -78t-54 -227q0 -141 54.5 -217t154.5 -76q123 0 177 107q40 79 40 201q0 290 -216 290z
" />
    <glyph glyph-name="ampersand" unicode="&#x26;" horiz-adv-x="1251" 
d="M1099 646q-3 -80 -28 -176.5t-61 -160.5l263 -309h-164l-167 202q-155 -231 -427 -231q-193 0 -317 112q-121 110 -121 284q0 190 175 324q103 79 188 122q-98 118 -139 198.5t-41 155.5q0 129 91.5 211t236.5 82q133 0 219 -74q99 -85 99 -215q0 -110 -68.5 -201.5
t-218.5 -182.5l309 -380q43 118 50 239h121zM551 871q234 132 234 292q0 81 -57.5 136.5t-142.5 55.5q-89 0 -147 -53t-58 -133q0 -54 37 -119t134 -179zM509 730q-96 -56 -153 -101q-147 -115 -147 -259q0 -127 99 -213q91 -79 219 -79q204 0 342 213z" />
    <glyph glyph-name="quotesingle" unicode="'" horiz-adv-x="569" 
d="M336 876h-101l-19 586h139z" />
    <glyph glyph-name="parenleft" unicode="(" horiz-adv-x="494" 
d="M496 1462q-126 -201 -194 -443t-68 -491q0 -485 262 -920h-101q-130 215 -191 379q-100 270 -100 545q0 290 106 572q78 205 185 358h101z" />
    <glyph glyph-name="parenright" unicode=")" horiz-adv-x="494" 
d="M-2 -392q125 196 193.5 440.5t68.5 493.5q0 237 -68 475t-194 445h101q131 -216 191 -378q100 -270 100 -546q0 -290 -106 -572q-79 -208 -185 -358h-101z" />
    <glyph glyph-name="asterisk" unicode="*" horiz-adv-x="721" 
d="M667 1218l-240 -81l148 -201l-65 -48l-152 206l-150 -204l-69 49l150 198l-236 81l27 77l236 -84v251h85v-251l236 84z" />
    <glyph glyph-name="plus" unicode="+" horiz-adv-x="1229" 
d="M125 757h443v444h95v-444h443v-95h-443v-443h-95v443h-443v95z" />
    <glyph glyph-name="comma" unicode="," horiz-adv-x="569" 
d="M371 212v-151q0 -153 -41 -230.5t-140 -113.5v85q89 40 94 198h-81v212h168z" />
    <glyph glyph-name="hyphen" unicode="-" horiz-adv-x="758" 
d="M622 600v-117h-487v117h487z" />
    <glyph glyph-name="period" unicode="." horiz-adv-x="569" 
d="M369 219v-219h-168v219h168z" />
    <glyph glyph-name="slash" unicode="/" horiz-adv-x="682" 
d="M773 1462l-755 -1854h-110l760 1854h105z" />
    <glyph glyph-name="zero" unicode="0" horiz-adv-x="1139" 
d="M576 1449q183 0 307 -115q98 -90 143 -242.5t45 -390.5q0 -303 -84 -477q-61 -125 -167 -190t-249 -65q-253 0 -377.5 178.5t-124.5 542.5q0 334 91 512q125 247 416 247zM566 1338q-134 0 -221 -89q-143 -148 -143 -564q0 -242 60 -395q42 -106 133 -162q77 -48 175 -48
q184 0 276 156.5t92 468.5q0 633 -372 633z" />
    <glyph glyph-name="one" unicode="1" horiz-adv-x="1139" 
d="M706 1433v-1433h-136v1067h-54h-142h-116h-59v100q137 3 199.5 15.5t103.5 44.5q38 29 59 73t41 133h104z" />
    <glyph glyph-name="two" unicode="2" horiz-adv-x="1139" 
d="M1019 116v-116h-947q13 199 118 326q51 63 114.5 113t218.5 153q210 138 283.5 230.5t73.5 217.5q0 138 -93 222q-85 76 -223 76q-118 0 -200 -64q-66 -50 -96.5 -128.5t-33.5 -205.5h-127q-1 222 101 353q123 156 363 156q191 0 310 -101q132 -110 132 -307
q0 -182 -136 -325q-90 -95 -330 -250q-191 -123 -250 -192q-61 -71 -79 -158h801z" />
    <glyph glyph-name="three" unicode="3" horiz-adv-x="1139" 
d="M99 978q6 170 76 281q119 190 390 190q194 0 314 -102q119 -101 119 -269q0 -117 -65 -200t-178 -112q97 -20 164 -69q131 -97 131 -282q0 -200 -145 -330q-130 -116 -350 -116q-262 0 -396 166q-94 118 -94 293v33h125q0 -129 50 -217q50 -87 145 -128q84 -36 172 -36
q77 0 149 27t120 75q91 90 91 220q0 163 -126 245q-88 57 -253 57q-34 0 -69 -2v108q27 -1 57 -1q142 0 226 53q113 71 113 210q0 121 -83.5 193.5t-221.5 72.5q-158 0 -245 -92.5t-93 -267.5h-123z" />
    <glyph glyph-name="four" unicode="4" horiz-adv-x="1139" 
d="M1059 459v-108h-218v-351h-120v351h-662v122l672 960h110v-974h218zM721 459v785l-552 -785h552z" />
    <glyph glyph-name="five" unicode="5" horiz-adv-x="1139" 
d="M973 1418v-116h-624l-103 -494q119 145 327 145q181 0 306 -106q65 -56 107 -136q57 -111 57 -241q0 -209 -134 -352q-140 -149 -360 -149q-213 0 -342.5 121t-133.5 324h126q8 -106 51 -179q44 -74 124 -116t176 -42q171 0 274 128q86 107 86 256q0 158 -92 264
q-101 117 -271 117q-205 0 -319 -168l-114 6l142 738h717z" />
    <glyph glyph-name="six" unicode="6" horiz-adv-x="1139" 
d="M1032 1073h-129q-20 125 -100 195t-203 70q-260 0 -349 -311q-36 -126 -44 -343q57 120 161 185t239 65q200 0 332 -135q128 -130 128 -338q0 -213 -134 -350q-139 -142 -345 -142q-181 0 -309 106q-102 86 -149 229t-47 371q0 400 153 598q134 176 368 176
q182 0 293.5 -97.5t134.5 -278.5zM579 823q-160 0 -262 -122q-83 -99 -83 -243q0 -155 93 -262q100 -116 259 -116q163 0 262 120q86 103 86 252q0 152 -85 254q-99 117 -270 117z" />
    <glyph glyph-name="seven" unicode="7" horiz-adv-x="1139" 
d="M1027 1418v-117q-233 -241 -384 -554q-162 -342 -198 -747h-139q13 328 181 693.5t415 603.5h-799v121h924z" />
    <glyph glyph-name="eight" unicode="8" horiz-adv-x="1139" 
d="M368 773q-111 31 -172.5 112.5t-61.5 196.5q0 174 130 276q118 91 306 91q101 0 188 -29t141 -81q105 -100 105 -249q0 -118 -59 -198.5t-173 -118.5q99 -25 155 -68q136 -104 136 -291q0 -208 -138 -330q-130 -115 -356 -115q-233 0 -366 124q-126 119 -126 310
q0 143 76.5 240.5t214.5 129.5zM566 1338q-138 0 -221 -71.5t-83 -190.5q0 -117 82 -184q87 -72 227 -72q150 0 231 77q74 70 74 181q0 129 -87 196q-83 64 -223 64zM563 718q-158 0 -255.5 -86.5t-97.5 -226.5q0 -154 108 -244q97 -81 252 -81q180 0 274 100q86 92 86 225
q0 157 -111 238q-101 75 -256 75z" />
    <glyph glyph-name="nine" unicode="9" horiz-adv-x="1139" 
d="M108 344h125q15 -97 73 -163q89 -101 242 -101q142 0 233 98.5t126 288.5q19 104 20 283q-117 -264 -395 -264q-221 0 -352 157q-108 128 -108 317q0 220 146 361q134 128 333 128q200 0 328 -122q93 -89 134.5 -226t41.5 -354q0 -294 -74 -471q-64 -150 -175.5 -228.5
t-261.5 -78.5q-182 0 -300.5 102.5t-135.5 272.5zM543 1338q-149 0 -248 -113q-90 -103 -90 -259q0 -142 78 -243q96 -126 265 -126q165 0 264 117q86 102 86 250q0 156 -89 257q-103 117 -266 117z" />
    <glyph glyph-name="colon" unicode=":" horiz-adv-x="569" 
d="M369 219v-219h-168v219h168zM369 1056v-219h-168v219h168z" />
    <glyph glyph-name="semicolon" unicode=";" horiz-adv-x="569" 
d="M371 212v-151q0 -153 -41 -230.5t-140 -113.5v85q89 40 94 198h-81v212h168zM371 1056v-219h-168v219h168z" />
    <glyph glyph-name="less" unicode="&#x3c;" horiz-adv-x="1229" 
d="M1090 1232v-138l-803 -360l802 -362l1 -137l-951 439v121z" />
    <glyph glyph-name="equal" unicode="=" horiz-adv-x="1229" 
d="M125 914h981v-95h-981v95zM125 600h981v-95h-981v95z" />
    <glyph glyph-name="greater" unicode="&#x3e;" horiz-adv-x="1229" 
d="M140 235v138l802 361l-801 361l-1 137l950 -438v-121z" />
    <glyph glyph-name="question" unicode="?" horiz-adv-x="1100" 
d="M111 1009q4 181 69 286q58 95 158.5 146.5t226.5 51.5q201 0 319 -115q107 -105 107 -264q0 -140 -82 -247q-34 -45 -163 -168q-62 -59 -84 -91.5t-33 -82.5q-13 -55 -13 -161h-123q3 162 29 230q19 50 49.5 86.5t156.5 161.5q130 129 130 264q0 111 -72 187
q-81 86 -224 86q-190 0 -276 -150q-44 -76 -51 -220h-124zM630 205v-205h-154v205h154z" />
    <glyph glyph-name="at" unicode="@" horiz-adv-x="1638" 
d="M1434 370l79 -1q-61 -135 -179 -230q-215 -173 -485 -173q-223 0 -409 120q-179 115 -271 307q-75 156 -75 333q0 218 110 402q99 164 265 262q181 106 393 106q175 0 330 -76q183 -91 277 -257q76 -134 76 -295q0 -264 -197 -427q-142 -118 -281 -118q-65 0 -105.5 33
t-50.5 93q-119 -124 -249 -124q-118 0 -188 98q-48 68 -48 178q0 173 106 330q67 100 151 153.5t173 53.5q148 0 210 -145l40 110h101l-185 -540q-20 -60 -20 -98q0 -78 90 -78q115 0 230 114q150 148 150 362q0 254 -194 417q-175 147 -414 147q-199 0 -365 -102
q-148 -91 -234 -241q-93 -163 -93 -358q0 -286 191 -484q109 -112 256 -165q112 -41 232 -41q180 0 340 91.5t243 242.5zM942 644l52 145q29 79 29 126q0 65 -42 112t-100 47q-119 0 -223 -143q-55 -74 -87.5 -171t-32.5 -186q0 -81 33 -129q40 -56 109 -56q90 0 164 75
q52 53 98 180z" />
    <glyph glyph-name="A" unicode="A" horiz-adv-x="1290" 
d="M726 1467l584 -1467h-156l-176 460h-669l-180 -460h-149l591 1467h155zM935 573l-290 747l-294 -747h584z" />
    <glyph glyph-name="B" unicode="B" horiz-adv-x="1366" 
d="M147 1462h591q114 0 185.5 -13t128.5 -45q86 -46 134 -127.5t48 -179.5q0 -120 -68.5 -207t-186.5 -116q96 -20 149 -52q163 -98 163 -304q0 -171 -112 -284q-71 -71 -165.5 -102.5t-239.5 -31.5h-627v1462zM286 1342v-528h390q177 0 257 29q75 28 118.5 91t43.5 145
q0 164 -144 229q-74 34 -240 34h-425zM286 703v-583h436q212 0 303 56q127 78 127 240q0 172 -154 244q-92 43 -286 43h-426z" />
    <glyph glyph-name="C" unicode="C" horiz-adv-x="1442" 
d="M1376 560q-18 -218 -140 -372q-176 -222 -488 -222q-331 0 -516 245q-154 204 -154 518q0 338 191 556q185 211 491 211q290 0 462 -186q118 -127 136 -286h-138q-26 123 -110 211q-133 141 -355 141q-273 0 -421 -220q-117 -175 -117 -425q0 -260 115 -428
q149 -217 420 -217q205 0 333 124.5t154 349.5h137z" />
    <glyph glyph-name="D" unicode="D" horiz-adv-x="1403" 
d="M145 1462h509q159 0 268 -34.5t195 -112.5q113 -103 166 -266q45 -136 45 -291q0 -389 -205 -596q-89 -88 -192.5 -125t-265.5 -37h-520v1462zM284 1342v-1222h348q152 0 239 28t155 98q163 166 163 505q0 301 -155 458q-70 69 -160.5 101t-219.5 32h-370z" />
    <glyph glyph-name="E" unicode="E" horiz-adv-x="1214" 
d="M1161 1462v-120h-876v-525h820v-120h-820v-577h885v-120h-1024v1462h1015z" />
    <glyph glyph-name="F" unicode="F" horiz-adv-x="1100" 
d="M1078 1462v-120h-795v-525h708v-120h-708v-697h-139v1462h934z" />
    <glyph glyph-name="G" unicode="G" horiz-adv-x="1518" 
d="M1399 743v-743h-92l-29 273q-66 -146 -201 -226.5t-314 -80.5q-214 0 -376 105q-160 104 -243 297q-68 158 -68 349q0 347 198 570q187 209 497 209q289 0 463 -184q118 -124 145 -300h-135q-30 164 -159.5 264t-312.5 100q-273 0 -429 -208q-128 -172 -128 -449
q0 -264 129 -432q155 -201 428 -201q217 0 357 136q146 142 147 407h-501v114h624z" />
    <glyph glyph-name="H" unicode="H" horiz-adv-x="1442" 
d="M1298 1462v-1462h-139v706h-876v-706h-139v1462h139v-636h876v636h139z" />
    <glyph glyph-name="I" unicode="I" horiz-adv-x="455" 
d="M297 1462v-1462h-139v1462h139z" />
    <glyph glyph-name="J" unicode="J" horiz-adv-x="1024" 
d="M877 1477v-1045q0 -118 -14 -185.5t-51 -125.5q-34 -53 -68.5 -78.5t-94.5 -41.5q-100 -27 -200 -27q-128 0 -223 52t-139 145t-44 259q0 23 1 57h134v-15v-30q0 -148 33 -216q64 -132 253 -132q158 0 226 100q48 71 48 255v1028h139z" />
    <glyph glyph-name="K" unicode="K" horiz-adv-x="1327" 
d="M1324 1462l-659 -597l692 -865h-179l-612 770l-280 -254v-516h-139v1462h139v-786l852 786h186z" />
    <glyph glyph-name="L" unicode="L" horiz-adv-x="1100" 
d="M1108 120v-120h-962v1462h139v-1342h823z" />
    <glyph glyph-name="M" unicode="M" horiz-adv-x="1706" 
d="M1565 1462v-1462h-133v1279l-511 -1279h-126l-520 1261v-1261h-133v1462h191l526 -1289l514 1289h192z" />
    <glyph glyph-name="N" unicode="N" horiz-adv-x="1442" 
d="M1297 1462v-1462h-155l-864 1247v-1247h-133v1462h154l865 -1255v1255h133z" />
    <glyph glyph-name="O" unicode="O" horiz-adv-x="1518" 
d="M768 1496q295 0 489 -215q191 -211 191 -554q0 -303 -154 -505q-194 -256 -537 -256q-339 0 -533 256q-154 203 -154 507q0 347 189 552q197 215 509 215zM751 1376q-232 0 -388 -176q-154 -173 -154 -464q0 -275 131 -448q80 -105 204 -159q100 -43 215 -43
q240 0 393 171q157 175 157 470q0 291 -151 468q-154 181 -407 181z" />
    <glyph glyph-name="P" unicode="P" horiz-adv-x="1290" 
d="M147 1462h585q125 0 199 -16t134 -57q167 -111 167 -339q0 -232 -162 -346q-114 -81 -321 -81h-463v-623h-139v1462zM286 1342v-599h424q95 0 151.5 11.5t101.5 39.5q130 81 130 249q0 171 -126 249q-46 29 -101.5 39.5t-162.5 10.5h-417z" />
    <glyph glyph-name="Q" unicode="Q" horiz-adv-x="1518" 
d="M1439 -6l-71 -88l-230 175q-68 -53 -169.5 -84t-208.5 -31q-312 0 -507 221q-183 207 -183 540q0 340 191 554q192 215 497 215q316 0 507 -224q182 -213 182 -538q0 -176 -56 -327t-161 -255zM1127 231q181 196 181 504q0 268 -136 443q-155 198 -413 198
q-127 0 -235 -52.5t-183 -150.5q-132 -173 -132 -443q0 -268 122 -433q74 -100 189 -155.5t246 -55.5q152 0 266 78l-194 146l73 89z" />
    <glyph glyph-name="R" unicode="R" horiz-adv-x="1366" 
d="M145 1462h644q194 0 302 -66q171 -105 171 -327q0 -140 -74.5 -235t-211.5 -128q125 -21 187 -97q41 -51 53 -104.5t26 -256.5q9 -115 21 -164.5t40 -83.5h-158q-29 44 -36 202q-8 178 -25.5 250.5t-64.5 121.5q-41 42 -111.5 60.5t-194.5 18.5h-429v-653h-139v1462z
M284 1342v-576h412q208 0 299 53q128 73 128 240q0 170 -139 242q-80 41 -240 41h-460z" />
    <glyph glyph-name="S" unicode="S" horiz-adv-x="1290" 
d="M1164 1041h-134q-15 169 -111 248q-108 91 -296 91q-159 0 -253 -63q-111 -76 -111 -217q0 -124 89 -178q73 -45 305 -99q202 -48 260.5 -66t117.5 -52q180 -103 180 -307q0 -207 -166 -330q-139 -102 -385 -102q-274 0 -427 132q-75 65 -116 162t-41 208v16h134
q5 -167 81 -258q119 -143 379 -143q207 0 309 89q97 84 97 213q0 160 -171 232q-77 32 -322 89q-146 34 -213 58t-120 61q-127 88 -127 267q0 187 137 295.5t374 108.5q244 0 383 -119t147 -336z" />
    <glyph glyph-name="T" unicode="T" horiz-adv-x="1139" 
d="M1153 1462v-120h-513v-1342h-139v1342h-515v120h1167z" />
    <glyph glyph-name="U" unicode="U" horiz-adv-x="1403" 
d="M1271 1462v-876q0 -166 -22 -251q-48 -180 -186 -274.5t-353 -94.5q-357 0 -500 236q-43 72 -60.5 158.5t-17.5 230.5v871h139v-877q0 -128 15.5 -203.5t53.5 -134.5q105 -164 371 -164q255 0 353 158q37 59 52.5 138t15.5 208v875h139z" />
    <glyph glyph-name="V" unicode="V" horiz-adv-x="1214" 
d="M1236 1462l-543 -1462h-163l-548 1462h156l476 -1309l474 1309h148z" />
    <glyph glyph-name="W" unicode="W" horiz-adv-x="1858" 
d="M1853 1462l-405 -1462h-151l-375 1300l-369 -1300h-152l-403 1462h146l341 -1271l362 1271h159l367 -1272l341 1272h139z" />
    <glyph glyph-name="X" unicode="X" horiz-adv-x="1176" 
d="M1171 1462l-501 -710l528 -752h-167l-448 641l-451 -641h-159l530 752l-498 710h165l417 -599l428 599h156z" />
    <glyph glyph-name="Y" unicode="Y" horiz-adv-x="1251" 
d="M1275 1462l-579 -857v-605h-139v605l-581 857h167l487 -730l485 730h160z" />
    <glyph glyph-name="Z" unicode="Z" horiz-adv-x="1176" 
d="M1131 1462v-122l-961 -1220h981v-120h-1143v125l959 1217h-892v120h1056z" />
    <glyph glyph-name="bracketleft" unicode="[" horiz-adv-x="494" 
d="M487 1462v-102h-211v-1650h211v-102h-332v1854h332z" />
    <glyph glyph-name="backslash" unicode="\" horiz-adv-x="682" 
d="M-92 1462h105l760 -1854h-110z" />
    <glyph glyph-name="bracketright" unicode="]" horiz-adv-x="494" 
d="M7 -392v102h212v1650h-212v102h332v-1854h-332z" />
    <glyph glyph-name="asciicircum" unicode="^" horiz-adv-x="1229" 
d="M277 832h-134l393 633h158l393 -633h-135l-339 538z" />
    <glyph glyph-name="underscore" unicode="_" horiz-adv-x="1024" 
d="M-36 -148h1097v-95h-1097v95z" />
    <glyph glyph-name="grave" unicode="`" horiz-adv-x="379" 
d="M-57 1544h157l206 -291h-104z" />
    <glyph glyph-name="a" unicode="a" horiz-adv-x="1063" 
d="M1047 114v-105q-48 -17 -104 -17q-75 0 -105.5 45t-30.5 154q-50 -82 -105 -127q-119 -96 -295 -96q-153 0 -241 73q-103 84 -103 235q0 213 199 293q58 23 109.5 31.5t261.5 29.5q96 10 132 40t36 100q0 125 -67 180q-71 57 -208 57t-206.5 -61.5t-82.5 -194.5h-124
q8 177 119 272.5t308 95.5q216 0 321 -111q40 -41 53 -95t13 -174l-1 -317q1 -199 2.5 -235t7.5 -52q13 -29 62 -29q21 0 49 8zM801 589q-34 -29 -77.5 -40t-213.5 -35q-170 -23 -241 -74q-75 -52 -75 -152q0 -95 66 -151q67 -58 179 -58q158 0 260 96t102 246v168z" />
    <glyph glyph-name="b" unicode="b" horiz-adv-x="1176" 
d="M251 1462v-568q33 75 91 126q112 100 285 100q216 0 347 -159q125 -151 125 -414q0 -270 -135 -429q-128 -150 -342 -150q-281 0 -379 243v-211h-121v1462h129zM605 1008q-154 0 -252 -116q-105 -124 -105 -346t104 -348q98 -118 259 -118t256 121q102 131 102 342
q0 206 -89 330q-97 135 -275 135z" />
    <glyph glyph-name="c" unicode="c" horiz-adv-x="1063" 
d="M1004 389q-22 -150 -95 -250q-126 -171 -351 -171q-252 0 -384 196q-103 151 -103 370q0 282 147 440q135 145 345 145q184 0 298 -99t135 -276h-131q-19 101 -68 160q-82 103 -233 103q-188 0 -285 -154q-78 -124 -78 -309q0 -195 83 -320q96 -144 269 -144
q132 0 216.5 81t104.5 228h130z" />
    <glyph glyph-name="d" unicode="d" horiz-adv-x="1176" 
d="M1054 1462v-1462h-121v214q-35 -82 -85 -132q-117 -114 -294 -114q-227 0 -357 166q-122 157 -122 410q0 270 132 423t343 153q267 0 375 -223v565h129zM559 1008q-155 0 -252 -118q-102 -125 -102 -343q0 -199 88 -327q95 -140 272 -140q171 0 269 130q94 124 94 333
q0 221 -100 341q-102 124 -269 124z" />
    <glyph glyph-name="e" unicode="e" horiz-adv-x="1063" 
d="M1002 359q-20 -104 -63 -178q-126 -213 -386 -213q-239 0 -370 174q-116 154 -116 391q0 259 138 425q134 161 344 161q168 0 288 -107q93 -83 135.5 -203t41.5 -299l-817 1q3 -110 26 -182q80 -249 331 -249q128 0 210 71t114 208h124zM883 623q-7 137 -62 227
q-95 157 -275 157q-122 0 -211 -75q-112 -95 -137 -309h685z" />
    <glyph glyph-name="f" unicode="f" horiz-adv-x="530" 
d="M559 1489v-115q-51 8 -87 8q-102 0 -133 -57q-19 -34 -19 -150v-88h213v-112h-213v-975h-129v975h-180v112h180v72q0 100 7.5 146.5t28.5 82.5q66 109 231 109q45 0 101 -8z" />
    <glyph glyph-name="g" unicode="g" horiz-adv-x="1139" 
d="M1018 1087v-981q0 -124 -14.5 -199.5t-49.5 -136.5q-113 -195 -411 -195q-194 0 -307.5 86t-124.5 243h129q31 -220 305 -220q181 0 263 92.5t83 296.5l1 172q-33 -65 -64 -102q-110 -128 -302 -128q-218 0 -343 159q-115 147 -115 382q0 257 128 409q131 155 341 155
q241 0 360 -233v200h121zM537 1008q-168 0 -261 -141q-78 -118 -78 -299q0 -223 108 -340q92 -101 234 -101q175 0 273 144q77 114 77 309q0 103 -29.5 191t-82.5 142q-92 95 -241 95z" />
    <glyph glyph-name="h" unicode="h" horiz-adv-x="1100" 
d="M248 1462v-575q43 109 139.5 171t224.5 62q221 0 318 -161q52 -88 52 -258v-701h-130v683q0 151 -47 216q-73 103 -225 103q-94 0 -167.5 -44.5t-114.5 -126.5q-29 -57 -39.5 -120.5t-10.5 -181.5v-529h-129v1462h129z" />
    <glyph glyph-name="i" unicode="i" horiz-adv-x="379" 
d="M254 1462v-209h-129v209h129zM254 1087v-1087h-129v1087h129z" />
    <glyph glyph-name="j" unicode="j" horiz-adv-x="379" 
d="M256 1087v-1160q0 -115 -10 -170t-38 -94q-58 -80 -209 -80q-29 0 -62 6v109q18 1 72 1q73 0 95.5 43.5t22.5 180.5v1164h129zM256 1462v-209h-129v209h129z" />
    <glyph glyph-name="k" unicode="k" horiz-adv-x="1024" 
d="M1011 1087l-452 -396l483 -691h-161l-421 598l-210 -187v-411h-129v1462h129v-904l589 529h172z" />
    <glyph glyph-name="l" unicode="l" horiz-adv-x="379" 
d="M254 1462v-1462h-129v1462h129z" />
    <glyph glyph-name="m" unicode="m" horiz-adv-x="1706" 
d="M241 1086v-186q57 93 113 138q101 81 238 81q229 0 305 -211q47 84 100 127q103 84 250 84q184 0 277 -125q33 -46 47 -101.5t14 -144.5v-748h-129v711q0 129 -32 186q-60 104 -211 104q-179 0 -254 -149q-40 -79 -40 -230v-622h-129v707q0 125 -29 184
q-25 51 -79.5 80.5t-124.5 29.5q-87 0 -158 -43.5t-108 -120.5q-42 -86 -42 -242v-595h-129v1086h121z" />
    <glyph glyph-name="n" unicode="n" horiz-adv-x="1100" 
d="M240 1086v-201q46 83 87 123q110 111 287 111q142 0 238 -71q72 -53 100 -129t28 -220v-699h-129v656q0 181 -46 246q-68 99 -220 99q-143 0 -235 -93q-56 -58 -79 -139t-23 -226v-543h-129v1086h121z" />
    <glyph glyph-name="o" unicode="o" horiz-adv-x="1139" 
d="M578 1119q229 0 367 -171q124 -151 124 -408q0 -272 -143 -426q-136 -146 -355 -146q-242 0 -377 170q-125 157 -125 405q0 242 118 396q138 180 391 180zM566 1007q-159 0 -260 -122q-105 -125 -105 -340q0 -218 102 -343q100 -122 270 -122q162 0 258 114
q108 127 108 347q0 211 -97 337q-99 129 -276 129z" />
    <glyph glyph-name="p" unicode="p" horiz-adv-x="1176" 
d="M244 1087v-197q117 230 376 230q216 0 345 -156q134 -161 134 -424q0 -246 -121 -403q-130 -170 -352 -170q-133 0 -228 59t-146 173v-611h-129v1499h121zM601 1008q-167 0 -264 -132q-90 -123 -90 -334q0 -216 97 -337q101 -126 267 -126q173 0 269 139q89 127 89 320
q0 213 -97 342q-96 128 -271 128z" />
    <glyph glyph-name="q" unicode="q" horiz-adv-x="1176" 
d="M1053 1087v-1500h-129v612q-105 -232 -377 -232q-221 0 -349 164q-121 156 -121 407q0 273 139 433q128 149 344 149q193 0 302 -121q32 -36 70 -110v198h121zM561 1008q-161 0 -255 -125q-99 -131 -99 -344q0 -209 94 -334q97 -126 263 -126q168 0 267 128
q96 126 96 337t-93 335q-98 129 -273 129z" />
    <glyph glyph-name="r" unicode="r" horiz-adv-x="645" 
d="M647 1104v-137q-24 1 -33 1q-168 0 -270 -122q-54 -65 -73.5 -149.5t-19.5 -256.5v-440h-129v1086h121v-256q61 142 157 210q95 63 247 64z" />
    <glyph glyph-name="s" unicode="s" horiz-adv-x="985" 
d="M883 772h-127q-9 86 -40 133q-66 102 -244 102q-110 0 -174 -42q-75 -49 -75 -142q0 -59 31 -93q30 -33 82.5 -54t189.5 -53q198 -46 283 -103q52 -36 81.5 -94t29.5 -126q0 -75 -35 -142t-98 -111q-112 -79 -287 -79q-242 0 -357 146q-73 91 -77 242h125q8 -109 49 -166
q78 -110 262 -110q137 0 212 58q79 61 79 154q0 80 -62 125t-229 86q-139 34 -192 51t-94 40q-57 32 -88.5 89.5t-31.5 128.5q0 168 142 251q95 56 243 56q222 0 327 -127q65 -78 75 -220z" />
    <glyph glyph-name="t" unicode="t" horiz-adv-x="606" 
d="M544 1087v-112h-219v-685q0 -105 16 -134q26 -46 117 -46q40 0 86 7v-116q-61 -9 -115 -9q-159 0 -207 88q-17 31 -21.5 81t-4.5 196v618h-184v112h184v265h129v-265h219z" />
    <glyph glyph-name="u" unicode="u" horiz-adv-x="1100" 
d="M979 1087v-1087h-121v200q-120 -232 -370 -232q-90 0 -168.5 35t-126.5 97q-72 93 -72 286v701h129v-642q0 -153 26 -219q26 -64 90 -101q67 -39 150 -39q86 0 157 40t115 113q62 103 62 294v554h129z" />
    <glyph glyph-name="v" unicode="v" horiz-adv-x="948" 
d="M942 1087l-389 -1087h-139l-408 1087h139l344 -923l322 923h131z" />
    <glyph glyph-name="w" unicode="w" horiz-adv-x="1518" 
d="M1504 1087l-343 -1087h-140l-263 895l-258 -895h-143l-344 1087h141l273 -899l260 899h148l262 -898l273 898h134z" />
    <glyph glyph-name="x" unicode="x" horiz-adv-x="985" 
d="M944 1087l-376 -506l418 -581h-164l-336 474l-332 -474h-154l409 572l-378 515h163l296 -407l300 407h154z" />
    <glyph glyph-name="y" unicode="y" horiz-adv-x="948" 
d="M948 1087l-415 -1130q-76 -207 -117 -269q-66 -101 -196 -101q-43 0 -84 6l-28 4v119q57 -14 92 -14q60 0 99.5 36.5t71.5 120.5q31 85 36 95q20 37 20 46q0 4 -1 7l-425 1080h141l351 -914l323 914h132z" />
    <glyph glyph-name="z" unicode="z" horiz-adv-x="948" 
d="M885 1087v-93l-697 -882h727v-112h-885v110l686 867h-639v110h808z" />
    <glyph glyph-name="braceleft" unicode="{" horiz-adv-x="682" 
d="M284 533q67 -37 94 -93.5t27 -160.5v-353q0 -74 10.5 -111.5t38.5 -64.5q17 -17 56 -28.5t77 -11.5h24v-102h-24q-166 0 -234.5 74t-68.5 252v344q0 96 -28 142t-98 67v100q69 20 97.5 65.5t28.5 135.5v376q0 156 71 227t233 71h23v-102h-24q-99 0 -140.5 -47.5
t-41.5 -159.5v-371q0 -103 -26.5 -157.5t-94.5 -91.5z" />
    <glyph glyph-name="bar" unicode="|" horiz-adv-x="455" 
d="M160 1462h138v-1828h-138v1828z" />
    <glyph glyph-name="braceright" unicode="}" horiz-adv-x="682" 
d="M397 537q-67 37 -94 93.5t-27 160.5v353q0 74 -10.5 111.5t-38.5 64.5q-42 40 -133 40h-24v102h24q166 0 234.5 -74t68.5 -252v-344q0 -96 28 -142t98 -67v-100q-69 -20 -97.5 -65.5t-28.5 -135.5v-376q0 -156 -71 -227t-233 -71h-23v102h24q99 0 140.5 47.5t41.5 159.5
v371q0 104 26.5 158t94.5 91z" />
    <glyph glyph-name="asciitilde" unicode="~" horiz-adv-x="1229" 
d="M167 1285l-77 60q114 235 291 235q83 0 256 -89q92 -48 132.5 -62.5t79.5 -14.5q62 0 111 39t101 131l77 -59q-109 -234 -302 -234q-47 0 -95 18.5t-181 86.5q-118 60 -185 60q-59 0 -108 -40t-100 -131z" />
    <glyph glyph-name="nonbreakingspace" unicode="&#xa0;" horiz-adv-x="569" 
 />
    <glyph glyph-name="exclamdown" unicode="&#xa1;" horiz-adv-x="494" 
d="M178 0v429l32 666h76l31 -667v-428h-139zM171 1257v205h154v-205h-154z" />
    <glyph glyph-name="cent" unicode="&#xa2;" horiz-adv-x="1139" 
d="M1048 598q-21 -172 -131 -284q-107 -107 -277 -119v-220h-95v220q-187 19 -298 141q-138 153 -138 412q0 301 183 454q95 79 253 105v180h95v-180q179 -14 282 -112q103 -97 122 -252h-132q-19 110 -90 176.5t-182 79.5v-898q131 13 209 115q57 74 74 182h125zM545 1196
q-126 -23 -200 -111q-103 -123 -103 -332q0 -189 78 -305.5t225 -145.5v894z" />
    <glyph glyph-name="sterling" unicode="&#xa3;" horiz-adv-x="1139" 
d="M1054 971h-128q-2 134 -58 230q-39 68 -116.5 105.5t-177.5 37.5q-157 0 -248 -87q-86 -82 -86 -201q0 -97 74 -233q24 -44 39 -73h335v-95h-285q39 -82 39 -178q0 -130 -97 -255q-29 -37 -126 -130q81 40 124.5 52.5t101.5 12.5q54 0 93 -9t168 -53q49 -16 101 -16
q128 0 239 106l65 -97q-59 -60 -138.5 -93t-164.5 -33q-54 0 -90 8.5t-162 51.5q-94 32 -168 32q-58 0 -105.5 -18t-122.5 -69l-73 108q231 171 231 379q0 80 -50 201h-174v95h119q-63 110 -84.5 173t-21.5 138q0 188 155 303q122 91 314 91q230 0 354 -126t124 -358z" />
    <glyph glyph-name="currency" unicode="&#xa4;" horiz-adv-x="1139" 
d="M-21 262l200 203q-115 145 -115 315q0 162 115 311l-206 204l74 74l203 -203q153 117 319 117q168 0 317 -116l204 201l74 -73l-204 -202q115 -150 115 -315t-113 -312l204 -204l-73 -74l-204 204q-148 -115 -316 -115q-161 0 -318 114l-203 -203zM565 1167
q-155 0 -269 -115q-112 -112 -112 -273q0 -160 113 -273t273 -113q159 0 273 114q112 112 112 271q0 164 -112 275q-116 114 -278 114z" />
    <glyph glyph-name="yen" unicode="&#xa5;" horiz-adv-x="1139" 
d="M372 834l-341 584h144l394 -686l395 686h137l-341 -584h297v-88h-349l-82 -141v-108h388v-88h-388v-409h-120v409h-387v88h387v108l-82 141h-349v88h297z" />
    <glyph glyph-name="brokenbar" unicode="&#xa6;" horiz-adv-x="455" 
d="M160 1462h138v-725h-138v725zM160 336h138v-702h-138v702z" />
    <glyph glyph-name="section" unicode="&#xa7;" horiz-adv-x="1139" 
d="M935 1095h-125q-15 256 -250 256q-86 0 -145 -40q-78 -52 -78 -147t95 -166q28 -21 250 -148q208 -120 279 -195q86 -91 86 -207q0 -99 -59 -177.5t-164 -118.5q65 -58 92 -111t27 -125q0 -135 -102.5 -221.5t-263.5 -86.5q-221 0 -325 150q-60 87 -66 229h127
q13 -271 267 -271q112 0 176 61q58 56 58 133q0 59 -34 106t-116 103q-49 32 -314 187q-140 82 -199.5 160.5t-59.5 182.5t59.5 182.5t161.5 111.5q-102 96 -102 214q0 133 98.5 217t254.5 84q175 0 272.5 -94.5t99.5 -268.5zM386 880q-174 -79 -174 -220q0 -85 80 -157
q46 -41 266 -170q128 -75 187 -118q85 31 132 86.5t47 125.5q0 91 -80.5 162t-368.5 234q-56 32 -89 57z" />
    <glyph glyph-name="dieresis" unicode="&#xa8;" horiz-adv-x="379" 
d="M66 1462v-209h-129v209h129zM441 1462v-209h-129v209h129z" />
    <glyph glyph-name="copyright" unicode="&#xa9;" horiz-adv-x="1638" 
d="M1224 644q-11 -132 -87 -222q-108 -127 -299 -127q-202 0 -316 141q-94 116 -94 295q0 192 117 317q114 120 301 120q149 0 252 -78.5t116 -201.5h-99q-21 93 -93 145t-180 52q-160 0 -246 -120q-69 -95 -69 -233q0 -143 67 -235q87 -119 246 -119q123 0 196.5 68.5
t89.5 197.5h98zM830 1496q205 0 389 -113t281 -304q83 -165 83 -348q0 -215 -112 -399t-304 -282q-164 -84 -347 -84q-214 0 -398 112q-184 113 -282 305q-84 165 -84 347q0 217 113 402q110 181 305 281q163 83 356 83zM812 1421q-183 0 -347 -101q-164 -102 -251 -275
q-75 -148 -75 -314q0 -194 101 -361q101 -166 272 -254q146 -75 308 -75q192 0 356 102q163 102 250 275q74 147 74 311q0 197 -100 363q-98 164 -271 254q-143 75 -317 75z" />
    <glyph glyph-name="ordfeminine" unicode="&#xaa;" horiz-adv-x="637" 
d="M627 665v-74q-36 -11 -70 -11q-45 0 -66 23t-25 75q-81 -111 -241 -111q-97 0 -155 43q-66 50 -66 141q0 127 129 175q35 13 67.5 18t164.5 18q57 5 77.5 20t20.5 51q0 70 -39 99q-42 31 -126 31q-83 0 -123.5 -34t-48.5 -113h-91q5 109 74.5 167t197.5 58
q81 0 142.5 -26t84.5 -70q15 -28 17.5 -67t2.5 -245q1 -151 5 -162q6 -13 30 -13q15 0 38 7zM462 918q-51 -21 -105 -28q-145 -18 -189 -37q-67 -29 -67 -96q0 -52 40 -83t106 -31q94 0 154.5 53t60.5 135v87z" />
    <glyph glyph-name="guillemotleft" unicode="&#xab;" horiz-adv-x="872" 
d="M396 220l-275 260v125l275 257v-134l-193 -186l193 -182v-140zM726 222l-273 256v125l273 258v-134l-192 -186l192 -184v-135z" />
    <glyph glyph-name="logicalnot" unicode="&#xac;" horiz-adv-x="1229" 
d="M957 0v480h-817v122h951v-602h-134z" />
    <glyph glyph-name="uni00AD" unicode="&#xad;" horiz-adv-x="758" 
d="M622 600v-117h-487v117h487z" />
    <glyph glyph-name="registered" unicode="&#xae;" horiz-adv-x="1638" 
d="M508 1149h395q119 0 185 -38q107 -61 107 -190q0 -144 -144 -201q64 -19 96 -68q17 -28 22 -54.5t14 -135.5q5 -71 13.5 -97t32.5 -51h-117q-21 27 -25 121q-6 102 -15.5 139.5t-36.5 64.5q-43 42 -178 42h-249v-367h-100v835zM608 1066v-306h239q122 0 176 29
q72 38 72 126q0 151 -219 151h-268zM830 1496q205 0 389 -113t281 -304q83 -165 83 -348q0 -215 -112 -399t-304 -282q-164 -84 -347 -84q-214 0 -398 112q-184 113 -282 305q-84 165 -84 347q0 217 113 402q110 181 305 281q163 83 356 83zM812 1421q-183 0 -347 -101
q-164 -102 -251 -275q-75 -148 -75 -314q0 -194 101 -361q101 -166 272 -254q146 -75 308 -75q192 0 356 102q163 102 250 275q74 147 74 311q0 197 -100 363q-98 164 -271 254q-143 75 -317 75z" />
    <glyph glyph-name="macron" unicode="&#xaf;" horiz-adv-x="379" 
d="M477 1408v-92h-576v92h576z" />
    <glyph glyph-name="degree" unicode="&#xb0;" horiz-adv-x="819" 
d="M411 1456q130 0 223 -96q87 -90 87 -219t-92 -221q-90 -90 -218 -90q-139 0 -233 102q-81 89 -81 212q0 146 106 235q92 77 208 77zM407 1373q-86 0 -150 -60q-75 -71 -75 -170q0 -85 56 -151q67 -79 171 -79q95 0 161 67.5t66 163.5q0 93 -65 159q-69 70 -164 70z" />
    <glyph glyph-name="plusminus" unicode="&#xb1;" horiz-adv-x="1229" 
d="M125 867h443v443h95v-443h443v-95h-443v-443h-95v443h-443v95zM125 205h981v-95h-981v95z" />
    <glyph glyph-name="twosuperior" unicode="&#xb2;" horiz-adv-x="682" 
d="M645 668v-83h-603q9 120 62.5 188.5t221.5 174.5q128 80 173 133t45 124q0 77 -52 123t-137 46q-114 0 -165 -86q-30 -49 -32 -149h-94q1 115 41 183q74 131 254 131q120 0 196 -61q85 -67 85 -187q0 -98 -59.5 -168t-232.5 -176q-105 -65 -145.5 -104t-52.5 -89h495z
" />
    <glyph glyph-name="threesuperior" unicode="&#xb3;" horiz-adv-x="682" 
d="M50 1161q3 108 49 177q76 115 248 115q122 0 198 -62q77 -62 77 -164q0 -128 -127 -183q159 -45 159 -207q0 -121 -87 -195.5t-227 -74.5q-142 0 -226.5 75.5t-84.5 203.5q0 7 1 25h92q-1 -10 -1 -15q0 -67 30 -117q25 -43 76.5 -68t113.5 -25q94 0 155.5 52t61.5 131
q0 83 -58 127t-168 44q-24 0 -52 -2v79q39 -1 44 -1q97 0 149.5 38.5t52.5 109.5q0 69 -49.5 109.5t-133.5 40.5q-194 0 -202 -213h-91z" />
    <glyph glyph-name="acute" unicode="&#xb4;" horiz-adv-x="379" 
d="M437 1544l-259 -291h-104l205 291h158z" />
    <glyph glyph-name="mu" unicode="&#xb5;" horiz-adv-x="1100" 
d="M123 -380v1486h120v-638q0 -122 16 -179q26 -94 103.5 -153t174.5 -59q155 0 242 135q42 64 60 129t18 152v613h120v-1106h-120v226q-41 -108 -95 -163q-92 -94 -228 -94q-97 0 -166.5 42.5t-124.5 135.5v-527h-120z" />
    <glyph glyph-name="paragraph" unicode="&#xb6;" horiz-adv-x="1229" 
d="M535 -392v1080q-23 -1 -36 -1q-118 0 -214 57q-78 47 -124 133q-47 87 -47 194q0 108 47.5 197t129.5 136q100 58 283 58h510v-98h-96v-1756h-126v1756h-201v-1756h-126z" />
    <glyph glyph-name="glyph121" unicode="&#xb7;" horiz-adv-x="569" 
d="M369 650v-219h-168v219h168z" />
    <glyph glyph-name="cedilla" unicode="&#xb8;" horiz-adv-x="379" 
d="M256 0l-87 -115q43 8 73 8q73 0 117 -36.5t44 -98.5q0 -80 -60.5 -127.5t-162.5 -47.5q-84 0 -190 42l29 62q74 -33 146 -33q57 0 91 25t34 67q0 37 -30 60t-79 23q-36 0 -85 -18l-31 31l122 158h69z" />
    <glyph glyph-name="onesuperior" unicode="&#xb9;" horiz-adv-x="682" 
d="M409 1445v-860h-98v629h-27h-88h-72h-45l1 74q94 3 130.5 9.5t60.5 24.5q23 17 35.5 41.5t25.5 81.5h77z" />
    <glyph glyph-name="ordmasculine" unicode="&#xba;" horiz-adv-x="684" 
d="M348 1240q146 0 234 -100q78 -89 78 -238q0 -159 -91 -249q-86 -86 -225 -86q-154 0 -240 100q-79 92 -79 236q0 143 75 231q89 106 248 106zM341 1162q-98 0 -158.5 -71t-60.5 -187q0 -123 61 -191t163 -68q95 0 154 63q65 70 65 194q0 119 -59 189q-59 71 -165 71z" />
    <glyph glyph-name="guillemotright" unicode="&#xbb;" horiz-adv-x="872" 
d="M475 862l276 -260v-125l-276 -257v135l194 185l-194 182v140zM146 861l273 -257v-125l-273 -258v134l192 186l-192 185v135z" />
    <glyph glyph-name="onequarter" unicode="&#xbc;" horiz-adv-x="1708" 
d="M338 1445v-860h-98v629h-27h-88h-72h-45l1 74q94 3 130.5 9.5t60.5 24.5q23 17 35.5 41.5t25.5 81.5h77zM1260 1436l-867 -1436h-98l870 1436h95zM1641 285v-77h-135v-208h-89v208h-411v80l421 572h79v-575h135zM1417 285v442l-323 -442h323z" />
    <glyph glyph-name="onehalf" unicode="&#xbd;" horiz-adv-x="1708" 
d="M375 1445v-860h-98v629h-27h-88h-72h-45l1 74q94 3 130.5 9.5t60.5 24.5q23 17 35.5 41.5t25.5 81.5h77zM1297 1436l-867 -1436h-98l870 1436h95zM1661 83v-83h-603q9 120 62.5 188.5t221.5 174.5q128 80 173 133.5t45 124.5q0 77 -51.5 123t-137.5 46q-192 0 -197 -236
h-94q1 116 41 185q74 131 255 131q121 0 196 -61q85 -68 85 -188q0 -98 -59 -167.5t-234 -177.5q-106 -65 -145.5 -104t-52.5 -89h495z" />
    <glyph glyph-name="threequarters" unicode="&#xbe;" horiz-adv-x="1708" 
d="M-67 1161q3 108 49 177q76 115 248 115q122 0 198 -62q77 -62 77 -164q0 -128 -127 -183q159 -45 159 -207q0 -121 -87 -195.5t-227 -74.5q-142 0 -226.5 75.5t-84.5 203.5q0 7 1 25h92q-1 -10 -1 -15q0 -67 30 -117q25 -43 76.5 -68t113.5 -25q94 0 155.5 52t61.5 131
q0 83 -58 127t-168 44q-24 0 -52 -2v79q39 -1 44 -1q97 0 149.5 38.5t52.5 109.5q0 69 -49.5 109.5t-133.5 40.5q-194 0 -202 -213h-91zM1270 1436l-868 -1436h-98l870 1436h96zM1650 285v-77h-135v-208h-89v208h-411v80l421 572h79v-575h135zM1426 285v442l-323 -442h323z
" />
    <glyph glyph-name="questiondown" unicode="&#xbf;" horiz-adv-x="1100" 
d="M991 453q-5 -181 -70 -286q-58 -95 -158.5 -146.5t-225.5 -51.5q-201 0 -319 115q-107 105 -107 263q0 141 81 248q35 45 164 168q62 59 84 91.5t33 82.5q12 55 13 161h123q-2 -158 -29 -230q-19 -49 -49.5 -86t-156.5 -162q-130 -129 -130 -264q0 -111 72 -187
q81 -86 223 -86q191 0 277 150q43 76 51 220h124zM472 1257v205h154v-205h-154z" />
    <glyph glyph-name="Agrave" unicode="&#xc0;" horiz-adv-x="1290" 
d="M726 1467l584 -1467h-156l-176 460h-669l-180 -460h-149l591 1467h155zM935 573l-290 747l-294 -747h584zM352 1860h169l227 -276h-107z" />
    <glyph glyph-name="Aacute" unicode="&#xc1;" horiz-adv-x="1290" 
d="M726 1467l584 -1467h-156l-176 460h-669l-180 -460h-149l591 1467h155zM935 573l-290 747l-294 -747h584zM944 1860l-288 -276h-107l227 276h168z" />
    <glyph glyph-name="Acircumflex" unicode="&#xc2;" horiz-adv-x="1290" 
d="M726 1467l584 -1467h-156l-176 460h-669l-180 -460h-149l591 1467h155zM935 573l-290 747l-294 -747h584zM965 1584h-130l-195 199l-198 -199h-118l253 276h134z" />
    <glyph glyph-name="Atilde" unicode="&#xc3;" horiz-adv-x="1290" 
d="M726 1467l584 -1467h-156l-176 460h-669l-180 -460h-149l591 1467h155zM935 573l-290 747l-294 -747h584zM983 1823q-38 -199 -179 -199q-39 0 -75 12.5t-140 63.5q-38 18 -74 18q-74 0 -102 -102h-77q16 97 64.5 148t123.5 51q57 0 136 -40q73 -36 96 -44.5t49 -8.5
q73 0 98 101h80z" />
    <glyph glyph-name="Adieresis" unicode="&#xc4;" horiz-adv-x="1290" 
d="M726 1467l584 -1467h-156l-176 460h-669l-180 -460h-149l591 1467h155zM935 573l-290 747l-294 -747h584zM936 1821v-205h-139v205h139zM493 1821v-205h-139v205h139z" />
    <glyph glyph-name="Aring" unicode="&#xc5;" horiz-adv-x="1290" 
d="M726 1467l584 -1467h-156l-176 460h-669l-180 -460h-149l591 1467h155zM935 573l-290 747l-294 -747h584zM648 1967q91 0 154 -70q55 -60 55 -142q0 -94 -70 -158q-61 -54 -142 -54q-95 0 -158 70q-54 61 -54 144q0 91 70 155q60 55 145 55zM643 1882q-51 0 -88 -37.5
t-37 -89.5q0 -53 37 -90t90 -37t90 37.5t37 90.5t-37.5 89.5t-91.5 36.5z" />
    <glyph glyph-name="AE" unicode="&#xc6;" horiz-adv-x="1858" 
d="M1806 1462v-120h-756v-525h704v-120h-704v-577h764v-120h-903v478h-524l-245 -478h-160l764 1462h1060zM911 595v747h-85l-382 -747h467z" />
    <glyph glyph-name="Ccedilla" unicode="&#xc7;" horiz-adv-x="1442" 
d="M1376 560q-16 -224 -150 -386q-168 -202 -475 -207l-68 -90q49 9 74 9q69 0 115 -38.5t46 -95.5q0 -77 -62.5 -126t-162.5 -49q-83 0 -192 41l28 63q80 -34 151 -34q53 0 87 26.5t34 68.5q0 34 -29.5 57t-75.5 23q-35 0 -88 -18l-32 31l102 137q-255 18 -416 201
q-184 207 -184 553q0 330 179 544q190 226 502 226q288 0 460 -186q111 -119 138 -286h-139q-22 103 -95 192q-133 160 -364 160q-274 0 -427 -224q-116 -169 -116 -420q0 -262 118 -431q150 -215 416 -215q244 0 379 177q97 128 109 297h138z" />
    <glyph glyph-name="Egrave" unicode="&#xc8;" horiz-adv-x="1214" 
d="M1161 1462v-120h-876v-525h820v-120h-820v-577h885v-120h-1024v1462h1015zM383 1860h169l227 -276h-107z" />
    <glyph glyph-name="Eacute" unicode="&#xc9;" horiz-adv-x="1214" 
d="M1161 1462v-120h-876v-525h820v-120h-820v-577h885v-120h-1024v1462h1015zM925 1860l-288 -276h-107l227 276h168z" />
    <glyph glyph-name="Ecircumflex" unicode="&#xca;" horiz-adv-x="1214" 
d="M1161 1462v-120h-876v-525h820v-120h-820v-577h885v-120h-1024v1462h1015zM978 1584h-130l-195 199l-198 -199h-118l253 276h134z" />
    <glyph glyph-name="Edieresis" unicode="&#xcb;" horiz-adv-x="1214" 
d="M1161 1462v-120h-876v-525h820v-120h-820v-577h885v-120h-1024v1462h1015zM945 1821v-205h-139v205h139zM502 1821v-205h-139v205h139z" />
    <glyph glyph-name="Igrave" unicode="&#xcc;" horiz-adv-x="455" 
d="M297 1462v-1462h-139v1462h139zM-29 1860h161l191 -276h-100z" />
    <glyph glyph-name="Iacute" unicode="&#xcd;" horiz-adv-x="455" 
d="M297 1462v-1462h-139v1462h139zM484 1860l-252 -276h-100l191 276h161z" />
    <glyph glyph-name="Icircumflex" unicode="&#xce;" horiz-adv-x="455" 
d="M297 1462v-1462h-139v1462h139zM497 1584h-123l-151 199l-155 -199h-117l208 276h134z" />
    <glyph glyph-name="Idieresis" unicode="&#xcf;" horiz-adv-x="455" 
d="M297 1462v-1462h-139v1462h139zM430 1821v-205h-139v205h139zM163 1821v-205h-139v205h139z" />
    <glyph glyph-name="Eth" unicode="&#xd0;" horiz-adv-x="1403" 
d="M148 1462h509q159 0 267.5 -34.5t194.5 -112.5q114 -102 167 -266q45 -137 45 -291q0 -390 -206 -596q-88 -88 -192 -125t-265 -37h-520v709h-154v117h154v636zM287 1342v-516h438v-117h-438v-589h348q151 0 238.5 28t155.5 98q163 166 163 505q0 302 -155 458
q-70 69 -160.5 101t-220.5 32h-369z" />
    <glyph glyph-name="Ntilde" unicode="&#xd1;" horiz-adv-x="1442" 
d="M1297 1462v-1462h-155l-864 1247v-1247h-133v1462h154l865 -1255v1255h133zM1065 1823q-39 -199 -179 -199q-39 0 -75 12.5t-140 63.5q-38 18 -74 18q-75 0 -102 -102h-77q17 97 65 148t123 51q57 0 136 -40q74 -36 96.5 -44.5t48.5 -8.5q73 0 98 101h80z" />
    <glyph glyph-name="Ograve" unicode="&#xd2;" horiz-adv-x="1518" 
d="M768 1496q295 0 489 -215q191 -211 191 -554q0 -303 -154 -505q-194 -256 -537 -256q-339 0 -533 256q-154 203 -154 507q0 347 189 552q197 215 509 215zM751 1376q-232 0 -388 -176q-154 -173 -154 -464q0 -275 131 -448q80 -105 204 -159q100 -43 215 -43
q240 0 393 171q157 175 157 470q0 291 -151 468q-154 181 -407 181zM488 1860h168l227 -276h-107z" />
    <glyph glyph-name="Oacute" unicode="&#xd3;" horiz-adv-x="1518" 
d="M768 1496q295 0 489 -215q191 -211 191 -554q0 -303 -154 -505q-194 -256 -537 -256q-339 0 -533 256q-154 203 -154 507q0 347 189 552q197 215 509 215zM751 1376q-232 0 -388 -176q-154 -173 -154 -464q0 -275 131 -448q80 -105 204 -159q100 -43 215 -43
q240 0 393 171q157 175 157 470q0 291 -151 468q-154 181 -407 181zM1030 1860l-289 -276h-107l227 276h169z" />
    <glyph glyph-name="Ocircumflex" unicode="&#xd4;" horiz-adv-x="1518" 
d="M768 1496q295 0 489 -215q191 -211 191 -554q0 -303 -154 -505q-194 -256 -537 -256q-339 0 -533 256q-154 203 -154 507q0 347 189 552q197 215 509 215zM751 1376q-232 0 -388 -176q-154 -173 -154 -464q0 -275 131 -448q80 -105 204 -159q100 -43 215 -43
q240 0 393 171q157 175 157 470q0 291 -151 468q-154 181 -407 181zM1079 1584h-130l-195 199l-198 -199h-118l253 276h134z" />
    <glyph glyph-name="Otilde" unicode="&#xd5;" horiz-adv-x="1518" 
d="M768 1496q295 0 489 -215q191 -211 191 -554q0 -303 -154 -505q-194 -256 -537 -256q-339 0 -533 256q-154 203 -154 507q0 347 189 552q197 215 509 215zM751 1376q-232 0 -388 -176q-154 -173 -154 -464q0 -275 131 -448q80 -105 204 -159q100 -43 215 -43
q240 0 393 171q157 175 157 470q0 291 -151 468q-154 181 -407 181zM1104 1823q-37 -199 -179 -199q-39 0 -75 13t-140 63q-38 18 -74 18q-74 0 -102 -102h-77q17 97 65 148t123 51q57 0 136 -40q73 -36 96 -44.5t49 -8.5q73 0 99 101h79z" />
    <glyph glyph-name="Odieresis" unicode="&#xd6;" horiz-adv-x="1518" 
d="M768 1496q295 0 489 -215q191 -211 191 -554q0 -303 -154 -505q-194 -256 -537 -256q-339 0 -533 256q-154 203 -154 507q0 347 189 552q197 215 509 215zM751 1376q-232 0 -388 -176q-154 -173 -154 -464q0 -275 131 -448q80 -105 204 -159q100 -43 215 -43
q240 0 393 171q157 175 157 470q0 291 -151 468q-154 181 -407 181zM1050 1821v-205h-139v205h139zM607 1821v-205h-139v205h139z" />
    <glyph glyph-name="multiply" unicode="&#xd7;" horiz-adv-x="1229" 
d="M198 359l350 350l-350 349l67 67l350 -349l349 349l67 -67l-349 -349l349 -350l-67 -67l-349 349l-350 -349z" />
    <glyph glyph-name="Oslash" unicode="&#xd8;" horiz-adv-x="1518" 
d="M1290 1241q158 -211 158 -514t-154 -505q-194 -256 -537 -256q-272 0 -460 174l-153 -165l-74 66l158 176q-158 211 -158 514q0 342 189 550q194 215 499 215q277 0 464 -178l149 168l74 -68zM1191 1150l-802 -919q53 -44 97 -71q120 -74 272 -74q241 0 394 171
q157 175 157 469q0 253 -118 424zM324 313l805 913q-162 150 -370 150q-241 0 -396 -176q-154 -174 -154 -463q0 -251 115 -424z" />
    <glyph glyph-name="Ugrave" unicode="&#xd9;" horiz-adv-x="1403" 
d="M1271 1462v-876q0 -166 -22 -251q-48 -180 -186 -274.5t-353 -94.5q-357 0 -500 236q-43 72 -60.5 158.5t-17.5 230.5v871h139v-877q0 -128 15.5 -203.5t53.5 -134.5q105 -164 371 -164q255 0 353 158q37 59 52.5 138t15.5 208v875h139zM429 1860h169l227 -276h-108z" />
    <glyph glyph-name="Uacute" unicode="&#xda;" horiz-adv-x="1403" 
d="M1271 1462v-876q0 -166 -22 -251q-48 -180 -186 -274.5t-353 -94.5q-357 0 -500 236q-43 72 -60.5 158.5t-17.5 230.5v871h139v-877q0 -128 15.5 -203.5t53.5 -134.5q105 -164 371 -164q255 0 353 158q37 59 52.5 138t15.5 208v875h139zM964 1860l-289 -276h-107l227 276
h169z" />
    <glyph glyph-name="Ucircumflex" unicode="&#xdb;" horiz-adv-x="1403" 
d="M1271 1462v-876q0 -166 -22 -251q-48 -180 -186 -274.5t-353 -94.5q-357 0 -500 236q-43 72 -60.5 158.5t-17.5 230.5v871h139v-877q0 -128 15.5 -203.5t53.5 -134.5q105 -164 371 -164q255 0 353 158q37 59 52.5 138t15.5 208v875h139zM1022 1584h-130l-195 199
l-199 -199h-117l253 276h134z" />
    <glyph glyph-name="Udieresis" unicode="&#xdc;" horiz-adv-x="1403" 
d="M1271 1462v-876q0 -166 -22 -251q-48 -180 -186 -274.5t-353 -94.5q-357 0 -500 236q-43 72 -60.5 158.5t-17.5 230.5v871h139v-877q0 -128 15.5 -203.5t53.5 -134.5q105 -164 371 -164q255 0 353 158q37 59 52.5 138t15.5 208v875h139zM991 1821v-205h-139v205h139z
M548 1821v-205h-139v205h139z" />
    <glyph glyph-name="Yacute" unicode="&#xdd;" horiz-adv-x="1251" 
d="M1275 1462l-579 -857v-605h-139v605l-581 857h167l487 -730l485 730h160zM894 1860l-288 -276h-107l227 276h168z" />
    <glyph glyph-name="Thorn" unicode="&#xde;" horiz-adv-x="1290" 
d="M147 1462h139v-219h445q123 0 198 -16.5t135 -56.5q167 -111 167 -339q0 -232 -162 -346q-114 -81 -321 -81h-462v-404h-139v1462zM286 1123v-599h423q95 0 151.5 11.5t101.5 39.5q130 81 130 249q0 171 -126 249q-47 30 -101.5 40t-163.5 10h-415z" />
    <glyph glyph-name="germandbls" unicode="&#xdf;" horiz-adv-x="1100" 
d="M452 100q44 -5 75 -5q168 0 254 72q98 83 98 235q0 187 -128 269q-89 57 -273 57q-4 0 -26 -1v109h30q156 0 239 69q85 71 85 208q0 120 -77.5 194.5t-202.5 74.5q-153 0 -220 -97q-30 -43 -41.5 -100t-11.5 -159v-1026h-129v982q0 150 11.5 219.5t45.5 124.5
q50 81 141.5 125.5t208.5 44.5q177 0 288 -98q117 -104 117 -280q0 -125 -61 -210t-171 -114q80 -11 138 -48q78 -48 122.5 -139.5t44.5 -201.5q0 -192 -124 -306t-333 -114q-38 0 -100 4v111z" />
    <glyph glyph-name="agrave" unicode="&#xe0;" horiz-adv-x="1063" 
d="M1047 114v-105q-48 -17 -104 -17q-75 0 -105.5 45t-30.5 154q-50 -82 -105 -127q-119 -96 -295 -96q-153 0 -241 73q-103 84 -103 235q0 213 199 293q58 23 109.5 31.5t261.5 29.5q96 10 132 40t36 100q0 125 -67 180q-71 57 -208 57t-206.5 -61.5t-82.5 -194.5h-124
q8 177 119 272.5t308 95.5q216 0 321 -111q40 -41 53 -95t13 -174l-1 -317q1 -199 2.5 -235t7.5 -52q13 -29 62 -29q21 0 49 8zM801 589q-34 -29 -77.5 -40t-213.5 -35q-170 -23 -241 -74q-75 -52 -75 -152q0 -95 66 -151q67 -58 179 -58q158 0 260 96t102 246v168z
M299 1544h157l206 -291h-104z" />
    <glyph glyph-name="aacute" unicode="&#xe1;" horiz-adv-x="1063" 
d="M1047 114v-105q-48 -17 -104 -17q-75 0 -105.5 45t-30.5 154q-50 -82 -105 -127q-119 -96 -295 -96q-153 0 -241 73q-103 84 -103 235q0 213 199 293q58 23 109.5 31.5t261.5 29.5q96 10 132 40t36 100q0 125 -67 180q-71 57 -208 57t-206.5 -61.5t-82.5 -194.5h-124
q8 177 119 272.5t308 95.5q216 0 321 -111q40 -41 53 -95t13 -174l-1 -317q1 -199 2.5 -235t7.5 -52q13 -29 62 -29q21 0 49 8zM801 589q-34 -29 -77.5 -40t-213.5 -35q-170 -23 -241 -74q-75 -52 -75 -152q0 -95 66 -151q67 -58 179 -58q158 0 260 96t102 246v168z
M797 1544l-259 -291h-104l206 291h157z" />
    <glyph glyph-name="acircumflex" unicode="&#xe2;" horiz-adv-x="1063" 
d="M1047 114v-105q-48 -17 -104 -17q-75 0 -105.5 45t-30.5 154q-50 -82 -105 -127q-119 -96 -295 -96q-153 0 -241 73q-103 84 -103 235q0 213 199 293q58 23 109.5 31.5t261.5 29.5q96 10 132 40t36 100q0 125 -67 180q-71 57 -208 57t-206.5 -61.5t-82.5 -194.5h-124
q8 177 119 272.5t308 95.5q216 0 321 -111q40 -41 53 -95t13 -174l-1 -317q1 -199 2.5 -235t7.5 -52q13 -29 62 -29q21 0 49 8zM801 589q-34 -29 -77.5 -40t-213.5 -35q-170 -23 -241 -74q-75 -52 -75 -152q0 -95 66 -151q67 -58 179 -58q158 0 260 96t102 246v168z
M824 1253h-128l-160 216l-163 -216h-115l217 291h129z" />
    <glyph glyph-name="atilde" unicode="&#xe3;" horiz-adv-x="1063" 
d="M1047 114v-105q-48 -17 -104 -17q-75 0 -105.5 45t-30.5 154q-50 -82 -105 -127q-119 -96 -295 -96q-153 0 -241 73q-103 84 -103 235q0 213 199 293q58 23 109.5 31.5t261.5 29.5q96 10 132 40t36 100q0 125 -67 180q-71 57 -208 57t-206.5 -61.5t-82.5 -194.5h-124
q8 177 119 272.5t308 95.5q216 0 321 -111q40 -41 53 -95t13 -174l-1 -317q1 -199 2.5 -235t7.5 -52q13 -29 62 -29q21 0 49 8zM801 589q-34 -29 -77.5 -40t-213.5 -35q-170 -23 -241 -74q-75 -52 -75 -152q0 -95 66 -151q67 -58 179 -58q158 0 260 96t102 246v168z
M837 1461q-33 -200 -161 -200q-35 0 -67.5 13t-125.5 63q-34 19 -66 19q-65 0 -87 -103h-75q15 97 58.5 148.5t110.5 51.5q51 0 122 -40q67 -37 87 -45.5t44 -8.5q61 0 82 102h78z" />
    <glyph glyph-name="adieresis" unicode="&#xe4;" horiz-adv-x="1063" 
d="M1047 114v-105q-48 -17 -104 -17q-75 0 -105.5 45t-30.5 154q-50 -82 -105 -127q-119 -96 -295 -96q-153 0 -241 73q-103 84 -103 235q0 213 199 293q58 23 109.5 31.5t261.5 29.5q96 10 132 40t36 100q0 125 -67 180q-71 57 -208 57t-206.5 -61.5t-82.5 -194.5h-124
q8 177 119 272.5t308 95.5q216 0 321 -111q40 -41 53 -95t13 -174l-1 -317q1 -199 2.5 -235t7.5 -52q13 -29 62 -29q21 0 49 8zM801 589q-34 -29 -77.5 -40t-213.5 -35q-170 -23 -241 -74q-75 -52 -75 -152q0 -95 66 -151q67 -58 179 -58q158 0 260 96t102 246v168z
M418 1462v-209h-129v209h129zM793 1462v-209h-129v209h129z" />
    <glyph glyph-name="aring" unicode="&#xe5;" horiz-adv-x="1063" 
d="M1047 114v-105q-48 -17 -104 -17q-75 0 -105.5 45t-30.5 154q-50 -82 -105 -127q-119 -96 -295 -96q-153 0 -241 73q-103 84 -103 235q0 213 199 293q58 23 109.5 31.5t261.5 29.5q96 10 132 40t36 100q0 125 -67 180q-71 57 -208 57t-206.5 -61.5t-82.5 -194.5h-124
q8 177 119 272.5t308 95.5q216 0 321 -111q40 -41 53 -95t13 -174l-1 -317q1 -199 2.5 -235t7.5 -52q13 -29 62 -29q21 0 49 8zM801 589q-34 -29 -77.5 -40t-213.5 -35q-170 -23 -241 -74q-75 -52 -75 -152q0 -95 66 -151q67 -58 179 -58q158 0 260 96t102 246v168z
M549 1579q87 0 148 -68q53 -58 53 -136q0 -91 -68 -152q-58 -53 -136 -53q-92 0 -152 68q-53 58 -53 138q0 88 68 150q58 53 140 53zM543 1494q-48 0 -82.5 -35.5t-34.5 -83.5q0 -50 35 -85t84 -35q50 0 85 35t35 85t-35.5 84.5t-86.5 34.5z" />
    <glyph glyph-name="ae" unicode="&#xe6;" horiz-adv-x="1782" 
d="M1710 356q-28 -139 -104 -232q-128 -156 -352 -156q-296 0 -392 274q-49 -127 -172 -202t-281 -75q-154 0 -248.5 89t-94.5 235q0 152 106 239q84 69 315 92q234 23 270 47q25 17 34.5 39.5t9.5 64.5q0 121 -66 178.5t-205 57.5q-143 0 -215 -62.5t-83 -196.5h-124
q16 158 95 244q115 127 331 127q190 0 282 -83q49 -44 75 -140q36 79 95 130q107 93 272 93q226 0 353 -165q111 -144 111 -384q0 -21 -1 -54h-800q-1 -161 50 -261q90 -175 296 -175q254 0 319 276h124zM1592 623q-3 142 -63 237q-44 70 -115 108.5t-156 38.5
q-92 0 -167.5 -44t-118.5 -123q-42 -77 -54 -222zM800 586q-29 -26 -65 -36.5t-124 -19.5q-206 -19 -274 -44q-140 -50 -140 -194q0 -102 66.5 -162t180.5 -60q171 0 278 127q43 51 60.5 110.5t17.5 156.5v122z" />
    <glyph glyph-name="ccedilla" unicode="&#xe7;" horiz-adv-x="1063" 
d="M573 -32l-63 -83q43 8 73 8q73 0 117 -36.5t44 -98.5q0 -80 -60.5 -127.5t-161.5 -47.5q-85 0 -191 42l29 62q74 -33 146 -33q57 0 91 25t34 67q0 37 -30 60t-79 23q-36 0 -85 -18l-31 31l99 129q-158 16 -263 112q-171 159 -171 452q0 282 147 439q135 145 345 145
q184 0 298 -99t135 -276h-131q-19 101 -68 160q-82 103 -233 103q-188 0 -285 -153q-78 -124 -78 -310q0 -194 83 -320q96 -143 269 -143q132 0 216.5 81t104.5 227h130q-28 -193 -143 -305t-288 -116z" />
    <glyph glyph-name="egrave" unicode="&#xe8;" horiz-adv-x="1063" 
d="M1002 359q-20 -104 -63 -178q-126 -213 -386 -213q-239 0 -370 174q-116 154 -116 391q0 259 138 425q134 161 344 161q168 0 288 -107q93 -83 135.5 -203t41.5 -299l-817 1q3 -110 26 -182q80 -249 331 -249q128 0 210 71t114 208h124zM883 623q-7 137 -62 227
q-95 157 -275 157q-122 0 -211 -75q-112 -95 -137 -309h685zM299 1544h157l205 -291h-103z" />
    <glyph glyph-name="eacute" unicode="&#xe9;" horiz-adv-x="1063" 
d="M1002 359q-20 -104 -63 -178q-126 -213 -386 -213q-239 0 -370 174q-116 154 -116 391q0 259 138 425q134 161 344 161q168 0 288 -107q93 -83 135.5 -203t41.5 -299l-817 1q3 -110 26 -182q80 -249 331 -249q128 0 210 71t114 208h124zM883 623q-7 137 -62 227
q-95 157 -275 157q-122 0 -211 -75q-112 -95 -137 -309h685zM802 1544l-260 -291h-103l205 291h158z" />
    <glyph glyph-name="ecircumflex" unicode="&#xea;" horiz-adv-x="1063" 
d="M1002 359q-20 -104 -63 -178q-126 -213 -386 -213q-239 0 -370 174q-116 154 -116 391q0 259 138 425q134 161 344 161q168 0 288 -107q93 -83 135.5 -203t41.5 -299l-817 1q3 -110 26 -182q80 -249 331 -249q128 0 210 71t114 208h124zM883 623q-7 137 -62 227
q-95 157 -275 157q-122 0 -211 -75q-112 -95 -137 -309h685zM840 1253h-128l-159 216l-164 -216h-115l217 291h130z" />
    <glyph glyph-name="edieresis" unicode="&#xeb;" horiz-adv-x="1063" 
d="M1002 359q-20 -104 -63 -178q-126 -213 -386 -213q-239 0 -370 174q-116 154 -116 391q0 259 138 425q134 161 344 161q168 0 288 -107q93 -83 135.5 -203t41.5 -299l-817 1q3 -110 26 -182q80 -249 331 -249q128 0 210 71t114 208h124zM883 623q-7 137 -62 227
q-95 157 -275 157q-122 0 -211 -75q-112 -95 -137 -309h685zM429 1462v-209h-129v209h129zM805 1462v-209h-129v209h129z" />
    <glyph glyph-name="igrave" unicode="&#xec;" horiz-adv-x="379" 
d="M254 1087v-1087h-129v1087h129zM-64 1544h157l206 -291h-104z" />
    <glyph glyph-name="iacute" unicode="&#xed;" horiz-adv-x="379" 
d="M255 1087v-1087h-129v1087h129zM432 1544l-259 -291h-104l205 291h158z" />
    <glyph glyph-name="icircumflex" unicode="&#xee;" horiz-adv-x="379" 
d="M254 1087v-1087h-129v1087h129zM425 1249h-121l-115 215l-120 -215h-115l173 301h130z" />
    <glyph glyph-name="idieresis" unicode="&#xef;" horiz-adv-x="379" 
d="M254 1087v-1087h-129v1087h129zM382 1462v-209h-131v209h131zM128 1462v-209h-132v209h132z" />
    <glyph glyph-name="eth" unicode="&#xf0;" horiz-adv-x="1139" 
d="M442 1224l155 82l-54 89l78 53l74 -90l159 81l52 -80l-153 -83q169 -248 239.5 -415.5t70.5 -323.5q0 -246 -126 -403q-134 -166 -371 -166q-161 0 -281 82q-132 89 -188 266q-34 106 -34 229q0 273 151 432q135 143 343 143q65 0 104.5 -13t99.5 -55q-56 93 -113 170
l-161 -80zM560 1008q-159 0 -260 -122q-105 -126 -105 -341q0 -218 102 -343q100 -122 270 -122q162 0 258 114q108 127 108 347q0 211 -97 338q-99 129 -276 129z" />
    <glyph glyph-name="ntilde" unicode="&#xf1;" horiz-adv-x="1100" 
d="M240 1086v-201q46 83 87 123q110 111 287 111q142 0 238 -71q72 -53 100 -129t28 -220v-699h-129v656q0 181 -46 246q-68 99 -220 99q-143 0 -235 -93q-56 -58 -79 -139t-23 -226v-543h-129v1086h121zM836 1461q-33 -200 -161 -200q-35 0 -67.5 13t-125.5 63
q-34 19 -66 19q-65 0 -87 -103h-75q15 97 58.5 148.5t110.5 51.5q51 0 122 -40q67 -37 87 -45.5t44 -8.5q62 0 83 102h77z" />
    <glyph glyph-name="ograve" unicode="&#xf2;" horiz-adv-x="1139" 
d="M578 1119q229 0 367 -171q124 -151 124 -408q0 -272 -143 -426q-136 -146 -355 -146q-242 0 -377 170q-125 157 -125 405q0 242 118 396q138 180 391 180zM566 1007q-159 0 -260 -122q-105 -125 -105 -340q0 -218 102 -343q100 -122 270 -122q162 0 258 114
q108 127 108 347q0 211 -97 337q-99 129 -276 129zM327 1544h158l205 -291h-104z" />
    <glyph glyph-name="oacute" unicode="&#xf3;" horiz-adv-x="1139" 
d="M578 1119q229 0 367 -171q124 -151 124 -408q0 -272 -143 -426q-136 -146 -355 -146q-242 0 -377 170q-125 157 -125 405q0 242 118 396q138 180 391 180zM566 1007q-159 0 -260 -122q-105 -125 -105 -340q0 -218 102 -343q100 -122 270 -122q162 0 258 114
q108 127 108 347q0 211 -97 337q-99 129 -276 129zM811 1544l-259 -291h-104l205 291h158z" />
    <glyph glyph-name="ocircumflex" unicode="&#xf4;" horiz-adv-x="1139" 
d="M578 1119q229 0 367 -171q124 -151 124 -408q0 -272 -143 -426q-136 -146 -355 -146q-242 0 -377 170q-125 157 -125 405q0 242 118 396q138 180 391 180zM566 1007q-159 0 -260 -122q-105 -125 -105 -340q0 -218 102 -343q100 -122 270 -122q162 0 258 114
q108 127 108 347q0 211 -97 337q-99 129 -276 129zM852 1253h-128l-160 216l-163 -216h-115l217 291h130z" />
    <glyph glyph-name="otilde" unicode="&#xf5;" horiz-adv-x="1139" 
d="M578 1119q229 0 367 -171q124 -151 124 -408q0 -272 -143 -426q-136 -146 -355 -146q-242 0 -377 170q-125 157 -125 405q0 242 118 396q138 180 391 180zM566 1007q-159 0 -260 -122q-105 -125 -105 -340q0 -218 102 -343q100 -122 270 -122q162 0 258 114
q108 127 108 347q0 211 -97 337q-99 129 -276 129zM860 1461q-33 -200 -161 -200q-34 0 -67 13t-126 63q-34 19 -66 19q-65 0 -87 -103h-75q15 97 58.5 148.5t110.5 51.5q51 0 122 -40q68 -37 88 -45.5t43 -8.5q62 0 83 102h77z" />
    <glyph glyph-name="odieresis" unicode="&#xf6;" horiz-adv-x="1139" 
d="M578 1119q229 0 367 -171q124 -151 124 -408q0 -272 -143 -426q-136 -146 -355 -146q-242 0 -377 170q-125 157 -125 405q0 242 118 396q138 180 391 180zM566 1007q-159 0 -260 -122q-105 -125 -105 -340q0 -218 102 -343q100 -122 270 -122q162 0 258 114
q108 127 108 347q0 211 -97 337q-99 129 -276 129zM446 1462v-209h-129v209h129zM821 1462v-209h-129v209h129z" />
    <glyph glyph-name="divide" unicode="&#xf7;" horiz-adv-x="1229" 
d="M125 757h981v-95h-981v95zM618 1124q39 0 67 -28.5t28 -67.5q0 -40 -28 -68.5t-68 -28.5q-41 0 -69 28.5t-28 68.5t28.5 68t69.5 28zM618 487q39 0 67 -28.5t28 -67.5q0 -40 -28.5 -68.5t-67.5 -28.5q-41 0 -69 28.5t-28 68.5t28.5 68t69.5 28z" />
    <glyph glyph-name="oslash" unicode="&#xf8;" horiz-adv-x="1139" 
d="M967 913q35 -58 54 -106q44 -112 44 -267q0 -273 -143 -426q-136 -146 -354 -146q-201 0 -341 127l-116 -129l-68 65l124 138q-103 162 -103 376q0 242 118 394q139 180 382 180q208 0 342 -131l112 122l68 -64zM873 820l-560 -636q114 -104 256 -104q161 0 258 113
q108 127 108 348q0 155 -62 279zM258 263l563 636q-109 108 -256 108q-164 0 -265 -121q-106 -127 -106 -336q0 -170 64 -287z" />
    <glyph glyph-name="ugrave" unicode="&#xf9;" horiz-adv-x="1100" 
d="M979 1087v-1087h-121v200q-120 -232 -370 -232q-90 0 -168.5 35t-126.5 97q-72 93 -72 286v701h129v-642q0 -153 26 -219q26 -64 90 -101q67 -39 150 -39q86 0 157 40t115 113q62 103 62 294v554h129zM308 1544h158l205 -291h-104z" />
    <glyph glyph-name="uacute" unicode="&#xfa;" horiz-adv-x="1100" 
d="M979 1087v-1087h-121v200q-120 -232 -370 -232q-90 0 -168.5 35t-126.5 97q-72 93 -72 286v701h129v-642q0 -153 26 -219q26 -64 90 -101q67 -39 150 -39q86 0 157 40t115 113q62 103 62 294v554h129zM792 1544l-259 -291h-104l206 291h157z" />
    <glyph glyph-name="ucircumflex" unicode="&#xfb;" horiz-adv-x="1100" 
d="M979 1087v-1087h-121v200q-120 -232 -370 -232q-90 0 -168.5 35t-126.5 97q-72 93 -72 286v701h129v-642q0 -153 26 -219q26 -64 90 -101q67 -39 150 -39q86 0 157 40t115 113q62 103 62 294v554h129zM833 1253h-128l-160 216l-163 -216h-115l217 291h130z" />
    <glyph glyph-name="udieresis" unicode="&#xfc;" horiz-adv-x="1100" 
d="M979 1087v-1087h-121v200q-120 -232 -370 -232q-90 0 -168.5 35t-126.5 97q-72 93 -72 286v701h129v-642q0 -153 26 -219q26 -64 90 -101q67 -39 150 -39q86 0 157 40t115 113q62 103 62 294v554h129zM427 1462v-209h-129v209h129zM802 1462v-209h-129v209h129z" />
    <glyph glyph-name="yacute" unicode="&#xfd;" horiz-adv-x="948" 
d="M948 1087l-415 -1130q-76 -207 -117 -269q-66 -101 -196 -101q-43 0 -84 6l-28 4v119q57 -14 92 -14q60 0 99.5 36.5t71.5 120.5q31 85 36 95q20 37 20 46q0 4 -1 7l-425 1080h141l351 -914l323 914h132zM716 1544l-259 -291h-104l206 291h157z" />
    <glyph glyph-name="thorn" unicode="&#xfe;" horiz-adv-x="1176" 
d="M251 1462v-569q33 75 91 127q112 100 285 100q216 0 347 -159q125 -152 125 -412q0 -262 -125 -419q-129 -163 -345 -163q-134 0 -232 64t-146 183v-619h-129v1867h129zM605 1008q-154 0 -253 -116q-104 -124 -104 -346q0 -223 104 -349q98 -118 259 -118t256 121
q102 131 102 343q0 205 -89 330q-97 135 -275 135z" />
    <glyph glyph-name="ydieresis" unicode="&#xff;" horiz-adv-x="948" 
d="M948 1087l-415 -1130q-76 -207 -117 -269q-66 -101 -196 -101q-43 0 -84 6l-28 4v119q57 -14 92 -14q60 0 99.5 36.5t71.5 120.5q31 85 36 95q20 37 20 46q0 4 -1 7l-425 1080h141l351 -914l323 914h132zM351 1462v-209h-129v209h129zM727 1462v-209h-129v209h129z" />
    <glyph glyph-name="Amacron" unicode="&#x100;" horiz-adv-x="1290" 
d="M726 1467l584 -1467h-156l-176 460h-669l-180 -460h-149l591 1467h155zM935 573l-290 747l-294 -747h584zM977 1759v-92h-664v92h664z" />
    <glyph glyph-name="amacron" unicode="&#x101;" horiz-adv-x="1063" 
d="M1047 114v-105q-48 -17 -104 -17q-75 0 -105.5 45t-30.5 154q-50 -82 -105 -127q-119 -96 -295 -96q-153 0 -241 73q-103 84 -103 235q0 213 199 293q58 23 109.5 31.5t261.5 29.5q96 10 132 40t36 100q0 125 -67 180q-71 57 -208 57t-206.5 -61.5t-82.5 -194.5h-124
q8 177 119 272.5t308 95.5q216 0 321 -111q40 -41 53 -95t13 -174l-1 -317q1 -199 2.5 -235t7.5 -52q13 -29 62 -29q21 0 49 8zM801 589q-34 -29 -77.5 -40t-213.5 -35q-170 -23 -241 -74q-75 -52 -75 -152q0 -95 66 -151q67 -58 179 -58q158 0 260 96t102 246v168z
M829 1408v-92h-576v92h576z" />
    <glyph glyph-name="Abreve" unicode="&#x102;" horiz-adv-x="1290" 
d="M726 1467l584 -1467h-156l-176 460h-669l-180 -460h-149l591 1467h155zM935 573l-290 747l-294 -747h584zM941 1860q-14 -92 -52 -149q-80 -120 -248 -120q-126 0 -205 72.5t-87 196.5h80q13 -61 41 -98q60 -77 176 -77q175 0 215 175h80z" />
    <glyph glyph-name="abreve" unicode="&#x103;" horiz-adv-x="1063" 
d="M1047 114v-105q-48 -17 -104 -17q-75 0 -105.5 45t-30.5 154q-50 -82 -105 -127q-119 -96 -295 -96q-153 0 -241 73q-103 84 -103 235q0 213 199 293q58 23 109.5 31.5t261.5 29.5q96 10 132 40t36 100q0 125 -67 180q-71 57 -208 57t-206.5 -61.5t-82.5 -194.5h-124
q8 177 119 272.5t308 95.5q216 0 321 -111q40 -41 53 -95t13 -174l-1 -317q1 -199 2.5 -235t7.5 -52q13 -29 62 -29q21 0 49 8zM801 589q-34 -29 -77.5 -40t-213.5 -35q-170 -23 -241 -74q-75 -52 -75 -152q0 -95 66 -151q67 -58 179 -58q158 0 260 96t102 246v168z
M817 1501q-12 -91 -47 -151q-71 -122 -223 -122q-113 0 -184 73.5t-79 199.5h79q32 -179 192 -179q147 0 183 179h79z" />
    <glyph glyph-name="Aogonek" unicode="&#x104;" horiz-adv-x="1290" 
d="M1317 0q-66 -34 -108 -89.5t-42 -108.5q0 -54 54 -80q37 -17 81 -17q35 0 91 18v-77q-66 -22 -121 -22q-107 0 -165 53q-49 46 -49 111q0 116 167 212h-64l-176 460h-669l-180 -460h-149l591 1467h155zM942 573l-290 747l-294 -747h584z" />
    <glyph glyph-name="aogonek" unicode="&#x105;" horiz-adv-x="1063" 
d="M1054 9q-171 -91 -171 -207q0 -54 54 -80q37 -17 81 -17q35 0 90 18v-77q-65 -22 -121 -22q-106 0 -164 53q-49 46 -49 111q0 111 155 205q-64 8 -89.5 52.5t-25.5 145.5q-50 -82 -105 -127q-119 -96 -295 -96q-153 0 -241 73q-103 84 -103 235q0 213 199 293
q58 23 109.5 31.5t261.5 29.5q96 10 132 40t36 100q0 125 -67 180q-71 57 -208 57t-206.5 -61.5t-82.5 -194.5h-124q8 177 119 272.5t308 95.5q216 0 321 -111q40 -41 53 -95t13 -174l-1 -317q1 -199 2.5 -235t7.5 -52q13 -29 62 -29q21 0 49 8v-105zM808 589
q-34 -29 -77.5 -40t-213.5 -35q-170 -23 -241 -74q-75 -52 -75 -152q0 -95 66 -151q67 -58 179 -58q158 0 260 96t102 246v168z" />
    <glyph glyph-name="Cacute" unicode="&#x106;" horiz-adv-x="1442" 
d="M1376 560q-18 -218 -140 -372q-176 -222 -488 -222q-331 0 -516 245q-154 204 -154 518q0 338 191 556q185 211 491 211q290 0 462 -186q118 -127 136 -286h-138q-26 123 -110 211q-133 141 -355 141q-273 0 -421 -220q-117 -175 -117 -425q0 -260 115 -428
q149 -217 420 -217q205 0 333 124.5t154 349.5h137zM1046 1860l-289 -276h-107l227 276h169z" />
    <glyph glyph-name="cacute" unicode="&#x107;" horiz-adv-x="1063" 
d="M1004 389q-22 -150 -95 -250q-126 -171 -351 -171q-252 0 -384 196q-103 151 -103 370q0 282 147 440q135 145 345 145q184 0 298 -99t135 -276h-131q-19 101 -68 160q-82 103 -233 103q-188 0 -285 -154q-78 -124 -78 -309q0 -195 83 -320q96 -144 269 -144
q132 0 216.5 81t104.5 228h130zM815 1544l-259 -291h-104l206 291h157z" />
    <glyph glyph-name="Ccircumflex" unicode="&#x108;" horiz-adv-x="1442" 
d="M1376 560q-18 -218 -140 -372q-176 -222 -488 -222q-331 0 -516 245q-154 204 -154 518q0 338 191 556q185 211 491 211q290 0 462 -186q118 -127 136 -286h-138q-26 123 -110 211q-133 141 -355 141q-273 0 -421 -220q-117 -175 -117 -425q0 -260 115 -428
q149 -217 420 -217q205 0 333 124.5t154 349.5h137zM450 1584l255 276h134l252 -276h-117l-198 199l-195 -199h-131z" />
    <glyph glyph-name="ccircumflex" unicode="&#x109;" horiz-adv-x="1063" 
d="M1004 389q-22 -150 -95 -250q-126 -171 -351 -171q-252 0 -384 196q-103 151 -103 370q0 282 147 440q135 145 345 145q184 0 298 -99t135 -276h-131q-19 101 -68 160q-82 103 -233 103q-188 0 -285 -154q-78 -124 -78 -309q0 -195 83 -320q96 -144 269 -144
q132 0 216.5 81t104.5 228h130zM830 1253h-128l-160 216l-163 -216h-115l217 291h130z" />
    <glyph glyph-name="Cdotaccent" unicode="&#x10a;" horiz-adv-x="1442" 
d="M1376 560q-18 -218 -140 -372q-176 -222 -488 -222q-331 0 -516 245q-154 204 -154 518q0 338 191 556q185 211 491 211q290 0 462 -186q118 -127 136 -286h-138q-26 123 -110 211q-133 141 -355 141q-273 0 -421 -220q-117 -175 -117 -425q0 -260 115 -428
q149 -217 420 -217q205 0 333 124.5t154 349.5h137zM811 1821v-205h-139v205h139z" />
    <glyph glyph-name="cdotaccent" unicode="&#x10b;" horiz-adv-x="1063" 
d="M1004 389q-22 -150 -95 -250q-126 -171 -351 -171q-252 0 -384 196q-103 151 -103 370q0 282 147 440q135 145 345 145q184 0 298 -99t135 -276h-131q-19 101 -68 160q-82 103 -233 103q-188 0 -285 -154q-78 -124 -78 -309q0 -195 83 -320q96 -144 269 -144
q132 0 216.5 81t104.5 228h130zM632 1465v-209h-132v209h132z" />
    <glyph glyph-name="Ccaron" unicode="&#x10c;" horiz-adv-x="1442" 
d="M1376 560q-18 -218 -140 -372q-176 -222 -488 -222q-331 0 -516 245q-154 204 -154 518q0 338 191 556q185 211 491 211q290 0 462 -186q118 -127 136 -286h-138q-26 123 -110 211q-133 141 -355 141q-273 0 -421 -220q-117 -175 -117 -425q0 -260 115 -428
q149 -217 420 -217q205 0 333 124.5t154 349.5h137zM450 1860h131l195 -199l198 199h117l-252 -276h-134z" />
    <glyph glyph-name="ccaron" unicode="&#x10d;" horiz-adv-x="1063" 
d="M1004 389q-22 -150 -95 -250q-126 -171 -351 -171q-252 0 -384 196q-103 151 -103 370q0 282 147 440q135 145 345 145q184 0 298 -99t135 -276h-131q-19 101 -68 160q-82 103 -233 103q-188 0 -285 -154q-78 -124 -78 -309q0 -195 83 -320q96 -144 269 -144
q132 0 216.5 81t104.5 228h130zM290 1544h128l160 -217l164 217h115l-218 -291h-129z" />
    <glyph glyph-name="Dcaron" unicode="&#x10e;" horiz-adv-x="1403" 
d="M145 1462h509q159 0 268 -34.5t195 -112.5q113 -103 166 -266q45 -136 45 -291q0 -389 -205 -596q-89 -88 -192.5 -125t-265.5 -37h-520v1462zM284 1342v-1222h348q152 0 239 28t155 98q163 166 163 505q0 301 -155 458q-70 69 -160.5 101t-219.5 32h-370zM319 1860h130
l195 -199l198 199h117l-252 -276h-134z" />
    <glyph glyph-name="dcaron" unicode="&#x10f;" horiz-adv-x="1321" 
d="M1067 1462v-1462h-121v214q-35 -82 -85 -132q-117 -114 -294 -114q-227 0 -357 166q-122 157 -122 410q0 270 132 423t343 153q267 0 375 -223v565h129zM572 1008q-155 0 -252 -118q-102 -125 -102 -343q0 -199 88 -327q95 -140 272 -140q171 0 269 130q94 124 94 333
q0 221 -100 341q-102 124 -269 124zM1356 1462v-134q4 -197 -155 -238v66q42 21 60 51.5t23 90.5h-68v164h140z" />
    <glyph glyph-name="Dcroat" unicode="&#x110;" horiz-adv-x="1403" 
d="M148 1462h509q159 0 267.5 -34.5t194.5 -112.5q114 -102 167 -266q45 -137 45 -291q0 -390 -206 -596q-88 -88 -192 -125t-265 -37h-520v709h-154v117h154v636zM287 1342v-516h438v-117h-438v-589h348q151 0 238.5 28t155.5 98q163 166 163 505q0 302 -155 458
q-70 69 -160.5 101t-220.5 32h-369z" />
    <glyph glyph-name="dcroat" unicode="&#x111;" horiz-adv-x="1225" 
d="M938 1359v103h129v-103h146v-107h-146v-1251h-121v213q-35 -83 -85 -132q-116 -114 -293 -114q-228 0 -357 166q-122 157 -122 410q0 270 132 423q133 153 343 153q266 0 374 -223v355h-350v107h350zM572 1008q-154 0 -251 -118q-102 -125 -102 -343q0 -199 88 -327
q95 -140 271 -140q172 0 270 130q93 124 93 334q0 220 -99 340q-103 124 -270 124z" />
    <glyph glyph-name="Emacron" unicode="&#x112;" horiz-adv-x="1214" 
d="M1161 1462v-120h-876v-525h820v-120h-820v-577h885v-120h-1024v1462h1015zM986 1759v-92h-664v92h664z" />
    <glyph glyph-name="emacron" unicode="&#x113;" horiz-adv-x="1063" 
d="M1002 359q-20 -104 -63 -178q-126 -213 -386 -213q-239 0 -370 174q-116 154 -116 391q0 259 138 425q134 161 344 161q168 0 288 -107q93 -83 135.5 -203t41.5 -299l-817 1q3 -110 26 -182q80 -249 331 -249q128 0 210 71t114 208h124zM883 623q-7 137 -62 227
q-95 157 -275 157q-122 0 -211 -75q-112 -95 -137 -309h685zM838 1408v-92h-576v92h576z" />
    <glyph glyph-name="Ebreve" unicode="&#x114;" horiz-adv-x="1214" 
d="M1161 1462v-120h-876v-525h820v-120h-820v-577h885v-120h-1024v1462h1015zM950 1860q-14 -92 -52 -149q-80 -120 -247 -120q-127 0 -205.5 72.5t-87.5 196.5h81q12 -61 40 -98q60 -77 176 -77q175 0 215 175h80z" />
    <glyph glyph-name="ebreve" unicode="&#x115;" horiz-adv-x="1063" 
d="M1002 359q-20 -104 -63 -178q-126 -213 -386 -213q-239 0 -370 174q-116 154 -116 391q0 259 138 425q134 161 344 161q168 0 288 -107q93 -83 135.5 -203t41.5 -299l-817 1q3 -110 26 -182q80 -249 331 -249q128 0 210 71t114 208h124zM883 623q-7 137 -62 227
q-95 157 -275 157q-122 0 -211 -75q-112 -95 -137 -309h685zM807 1501q-12 -91 -47 -151q-71 -122 -223 -122q-113 0 -184 73.5t-79 199.5h79q32 -179 192 -179q147 0 183 179h79z" />
    <glyph glyph-name="Edotaccent" unicode="&#x116;" horiz-adv-x="1214" 
d="M1161 1462v-120h-876v-525h820v-120h-820v-577h885v-120h-1024v1462h1015zM723 1821v-205h-139v205h139z" />
    <glyph glyph-name="edotaccent" unicode="&#x117;" horiz-adv-x="1063" 
d="M1002 359q-20 -104 -63 -178q-126 -213 -386 -213q-239 0 -370 174q-116 154 -116 391q0 259 138 425q134 161 344 161q168 0 288 -107q93 -83 135.5 -203t41.5 -299l-817 1q3 -110 26 -182q80 -249 331 -249q128 0 210 71t114 208h124zM883 623q-7 137 -62 227
q-95 157 -275 157q-122 0 -211 -75q-112 -95 -137 -309h685zM616 1465v-209h-132v209h132z" />
    <glyph glyph-name="Eogonek" unicode="&#x118;" horiz-adv-x="1214" 
d="M1132 0q-65 -33 -107.5 -89t-42.5 -109q0 -44 37 -70.5t98 -26.5q35 0 91 18v-77q-66 -22 -122 -22q-106 0 -164 53q-49 46 -49 111q0 116 167 212h-932v1462h1015v-120h-876v-525h820v-120h-820v-577h885v-120z" />
    <glyph glyph-name="eogonek" unicode="&#x119;" horiz-adv-x="1063" 
d="M901 -277v-77q-66 -22 -122 -22q-105 0 -163 53q-49 46 -49 111q0 115 166 212q-80 -32 -179 -32q-240 0 -371 174q-116 154 -116 391q0 259 138 425q134 161 344 161q169 0 288 -107q93 -83 135.5 -203t41.5 -299l-816 1q2 -110 25 -182q80 -249 332 -249q127 0 209 71
t114 208h124q-28 -160 -133 -268q-121 -131 -157.5 -186t-36.5 -108q0 -40 38.5 -66t95.5 -26q36 0 92 18zM883 623q-6 137 -61 227q-96 157 -276 157q-122 0 -210 -75q-112 -95 -138 -309h685z" />
    <glyph glyph-name="Ecaron" unicode="&#x11a;" horiz-adv-x="1214" 
d="M1161 1462v-120h-876v-525h820v-120h-820v-577h885v-120h-1024v1462h1015zM334 1860h130l195 -199l198 199h118l-253 -276h-134z" />
    <glyph glyph-name="ecaron" unicode="&#x11b;" horiz-adv-x="1063" 
d="M1002 359q-20 -104 -63 -178q-126 -213 -386 -213q-239 0 -370 174q-116 154 -116 391q0 259 138 425q134 161 344 161q168 0 288 -107q93 -83 135.5 -203t41.5 -299l-817 1q3 -110 26 -182q80 -249 331 -249q128 0 210 71t114 208h124zM883 623q-7 137 -62 227
q-95 157 -275 157q-122 0 -211 -75q-112 -95 -137 -309h685zM269 1544h128l160 -217l164 217h115l-218 -291h-129z" />
    <glyph glyph-name="Gcircumflex" unicode="&#x11c;" horiz-adv-x="1518" 
d="M1399 743v-743h-92l-29 273q-66 -146 -201 -226.5t-314 -80.5q-214 0 -376 105q-160 104 -243 297q-68 158 -68 349q0 347 198 570q187 209 497 209q289 0 463 -184q118 -124 145 -300h-135q-30 164 -159.5 264t-312.5 100q-273 0 -429 -208q-128 -172 -128 -449
q0 -264 129 -432q155 -201 428 -201q217 0 357 136q146 142 147 407h-501v114h624zM446 1584l254 276h134l252 -276h-117l-198 199l-195 -199h-130z" />
    <glyph glyph-name="gcircumflex" unicode="&#x11d;" horiz-adv-x="1139" 
d="M1018 1087v-981q0 -124 -14.5 -199.5t-49.5 -136.5q-113 -195 -411 -195q-194 0 -307.5 86t-124.5 243h129q31 -220 305 -220q181 0 263 92.5t83 296.5l1 172q-33 -65 -64 -102q-110 -128 -302 -128q-218 0 -343 159q-115 147 -115 382q0 257 128 409q131 155 341 155
q241 0 360 -233v200h121zM537 1008q-168 0 -261 -141q-78 -118 -78 -299q0 -223 108 -340q92 -101 234 -101q175 0 273 144q77 114 77 309q0 103 -29.5 191t-82.5 142q-92 95 -241 95zM825 1253h-128l-159 216l-164 -216h-115l218 291h129z" />
    <glyph glyph-name="Gbreve" unicode="&#x11e;" horiz-adv-x="1518" 
d="M1399 743v-743h-92l-29 273q-66 -146 -201 -226.5t-314 -80.5q-214 0 -376 105q-160 104 -243 297q-68 158 -68 349q0 347 198 570q187 209 497 209q289 0 463 -184q118 -124 145 -300h-135q-30 164 -159.5 264t-312.5 100q-273 0 -429 -208q-128 -172 -128 -449
q0 -264 129 -432q155 -201 428 -201q217 0 357 136q146 142 147 407h-501v114h624zM1085 1860q-13 -91 -52 -149q-80 -120 -248 -120q-126 0 -205 72.5t-87 196.5h81q12 -61 40 -97q60 -78 176 -78q175 0 215 175h80z" />
    <glyph glyph-name="gbreve" unicode="&#x11f;" horiz-adv-x="1139" 
d="M1018 1087v-981q0 -124 -14.5 -199.5t-49.5 -136.5q-113 -195 -411 -195q-194 0 -307.5 86t-124.5 243h129q31 -220 305 -220q181 0 263 92.5t83 296.5l1 172q-33 -65 -64 -102q-110 -128 -302 -128q-218 0 -343 159q-115 147 -115 382q0 257 128 409q131 155 341 155
q241 0 360 -233v200h121zM537 1008q-168 0 -261 -141q-78 -118 -78 -299q0 -223 108 -340q92 -101 234 -101q175 0 273 144q77 114 77 309q0 103 -29.5 191t-82.5 142q-92 95 -241 95zM845 1501q-12 -91 -47 -151q-71 -122 -223 -122q-113 0 -184 73.5t-79 199.5h79
q32 -179 192 -179q147 0 183 179h79z" />
    <glyph glyph-name="Gdotaccent" unicode="&#x120;" horiz-adv-x="1518" 
d="M1399 743v-743h-92l-29 273q-66 -146 -201 -226.5t-314 -80.5q-214 0 -376 105q-160 104 -243 297q-68 158 -68 349q0 347 198 570q187 209 497 209q289 0 463 -184q118 -124 145 -300h-135q-30 164 -159.5 264t-312.5 100q-273 0 -429 -208q-128 -172 -128 -449
q0 -264 129 -432q155 -201 428 -201q217 0 357 136q146 142 147 407h-501v114h624zM828 1821v-205h-139v205h139z" />
    <glyph glyph-name="gdotaccent" unicode="&#x121;" horiz-adv-x="1139" 
d="M1018 1087v-981q0 -124 -14.5 -199.5t-49.5 -136.5q-113 -195 -411 -195q-194 0 -307.5 86t-124.5 243h129q31 -220 305 -220q181 0 263 92.5t83 296.5l1 172q-33 -65 -64 -102q-110 -128 -302 -128q-218 0 -343 159q-115 147 -115 382q0 257 128 409q131 155 341 155
q241 0 360 -233v200h121zM537 1008q-168 0 -261 -141q-78 -118 -78 -299q0 -223 108 -340q92 -101 234 -101q175 0 273 144q77 114 77 309q0 103 -29.5 191t-82.5 142q-92 95 -241 95zM608 1465v-209h-132v209h132z" />
    <glyph glyph-name="Gcommaaccent" unicode="&#x122;" horiz-adv-x="1518" 
d="M1399 743v-743h-92l-29 273q-66 -146 -201 -226.5t-314 -80.5q-214 0 -376 105q-160 104 -243 297q-68 158 -68 349q0 347 198 570q187 209 497 209q289 0 463 -184q118 -124 145 -300h-135q-30 164 -159.5 264t-312.5 100q-273 0 -429 -208q-128 -172 -128 -449
q0 -264 129 -432q155 -201 428 -201q217 0 357 136q146 142 147 407h-501v114h624zM844 -124v-134q4 -197 -155 -238v66q43 22 60.5 52t22.5 90h-68v164h140z" />
    <glyph glyph-name="gcommaaccent" unicode="&#x123;" horiz-adv-x="1139" 
d="M1018 1087v-981q0 -124 -14.5 -199.5t-49.5 -136.5q-113 -195 -411 -195q-194 0 -307.5 86t-124.5 243h129q31 -220 305 -220q181 0 263 92.5t83 296.5l1 172q-33 -65 -64 -102q-110 -128 -302 -128q-218 0 -343 159q-115 147 -115 382q0 257 128 409q131 155 341 155
q241 0 360 -233v200h121zM537 1008q-168 0 -261 -141q-78 -118 -78 -299q0 -223 108 -340q92 -101 234 -101q175 0 273 144q77 114 77 309q0 103 -29.5 191t-82.5 142q-92 95 -241 95zM499 1253v134q-4 197 155 238v-66q-42 -22 -60 -52.5t-23 -89.5h68v-164h-140z" />
    <glyph glyph-name="Hcircumflex" unicode="&#x124;" horiz-adv-x="1442" 
d="M1298 1462v-1462h-139v706h-876v-706h-139v1462h139v-636h876v636h139zM993 1584h-123l-151 199l-154 -199h-118l209 276h134z" />
    <glyph glyph-name="hcircumflex" unicode="&#x125;" horiz-adv-x="1100" 
d="M248 1462v-575q43 109 139.5 171t224.5 62q221 0 318 -161q52 -88 52 -258v-701h-130v683q0 151 -47 216q-73 103 -225 103q-94 0 -167.5 -44.5t-114.5 -126.5q-29 -57 -39.5 -120.5t-10.5 -181.5v-529h-129v1462h129zM658 1584h-130l-195 199l-199 -199h-117l252 276
h134z" />
    <glyph glyph-name="Hbar" unicode="&#x126;" horiz-adv-x="1442" 
d="M1297 1210h135v-92h-135v-1118h-139v706h-875v-706h-139v1118h-134v92h134v252h139v-252h875v252h139v-252zM283 1118v-292h875v292h-875z" />
    <glyph glyph-name="hbar" unicode="&#x127;" horiz-adv-x="1147" 
d="M293 1317h359v-92h-359v-338q43 109 139.5 171t223.5 62q222 0 319 -162q52 -86 52 -257v-701h-130v683q0 151 -47 216q-74 103 -225 103q-94 0 -167.5 -44.5t-114.5 -126.5q-29 -57 -39.5 -120.5t-10.5 -181.5v-529h-129v1225h-88v92h88v145h129v-145z" />
    <glyph glyph-name="Itilde" unicode="&#x128;" horiz-adv-x="455" 
d="M297 1462v-1462h-139v1462h139zM551 1823q-38 -199 -179 -199q-39 0 -75 13t-140 63q-38 18 -74 18q-74 0 -102 -102h-77q17 97 65 148t123 51q57 0 136 -40q73 -36 96 -44.5t49 -8.5q73 0 99 101h79z" />
    <glyph glyph-name="itilde" unicode="&#x129;" horiz-adv-x="379" 
d="M254 1087v-1087h-129v1087h129zM480 1461q-33 -200 -161 -200q-34 0 -67 13t-126 63q-34 19 -66 19q-65 0 -87 -103h-75q15 97 58.5 148.5t110.5 51.5q51 0 122 -40q68 -37 88 -45.5t43 -8.5q62 0 83 102h77z" />
    <glyph glyph-name="Imacron" unicode="&#x12a;" horiz-adv-x="455" 
d="M297 1462v-1462h-139v1462h139zM450 1759v-92h-445v92h445z" />
    <glyph glyph-name="imacron" unicode="&#x12b;" horiz-adv-x="379" 
d="M255 1087v-1087h-129v1087h129zM406 1408v-92h-432v92h432z" />
    <glyph glyph-name="Ibreve" unicode="&#x12c;" horiz-adv-x="455" 
d="M296 1462v-1462h-139v1462h139zM531 1860q-13 -91 -52 -149q-80 -120 -247 -120q-127 0 -206 72.5t-87 196.5h81q12 -61 40 -97q60 -78 176 -78q175 0 215 175h80z" />
    <glyph glyph-name="ibreve" unicode="&#x12d;" horiz-adv-x="380" 
d="M255 1087v-1087h-129v1087h129zM457 1501q-12 -91 -47 -151q-71 -122 -223 -122q-114 0 -184.5 73.5t-78.5 199.5h79q32 -179 192 -179q147 0 183 179h79z" />
    <glyph glyph-name="Iogonek" unicode="&#x12e;" horiz-adv-x="455" 
d="M307 0q-57 -79 -73.5 -114.5t-16.5 -79.5q0 -100 88 -100q27 0 71 15v-75q-53 -22 -96 -22q-87 0 -134 55q-39 45 -39 102q0 53 37.5 112.5t100.5 106.5h-77v1462h139v-1462z" />
    <glyph glyph-name="iogonek" unicode="&#x12f;" horiz-adv-x="379" 
d="M255 1087v-1087q-149 -94 -149 -198q0 -54 53 -80q38 -17 81 -17q35 0 91 18v-77q-66 -22 -122 -22q-105 0 -163 53q-49 46 -49 111q0 115 167 212h-38v1087h129zM255 1462v-209h-129v209h129z" />
    <glyph glyph-name="Idotaccent" unicode="&#x130;" horiz-adv-x="455" 
d="M297 1462v-1462h-139v1462h139zM295 1821v-205h-139v205h139z" />
    <glyph glyph-name="dotlessi" unicode="&#x131;" horiz-adv-x="379" 
d="M254 1087v-1087h-129v1087h129z" />
    <glyph glyph-name="IJ" unicode="&#x132;" horiz-adv-x="1489" 
d="M330 1462v-1462h-139v1462h139zM1308 1477v-1045q0 -118 -14 -185.5t-51 -125.5q-34 -53 -68.5 -78.5t-94.5 -41.5q-100 -27 -200 -27q-128 0 -223 52t-139 145t-44 259q0 23 1 57h134v-45q0 -148 33 -216q63 -132 253 -132q158 0 226 100q48 71 48 255v1028h139z" />
    <glyph glyph-name="ij" unicode="&#x133;" horiz-adv-x="764" 
d="M266 1462v-208h-129v208h129zM266 1087v-1087h-129v1087h129zM627 1087v-1160q0 -115 -10 -170t-38 -94q-58 -80 -209 -80q-29 0 -62 6v109q18 1 72 1q72 0 95 43.5t23 180.5v1164h129zM627 1462v-208h-129v208h129z" />
    <glyph glyph-name="Jcircumflex" unicode="&#x134;" horiz-adv-x="1024" 
d="M877 1477v-1045q0 -118 -14 -185.5t-51 -125.5q-34 -53 -68.5 -78.5t-94.5 -41.5q-100 -27 -200 -27q-128 0 -223 52t-139 145t-44 259q0 23 1 57h134v-15v-30q0 -148 33 -216q64 -132 253 -132q158 0 226 100q48 71 48 255v1028h139zM1077 1584h-123l-151 199l-155 -199
h-117l208 276h134z" />
    <glyph glyph-name="jcircumflex" unicode="&#x135;" horiz-adv-x="379" 
d="M255 1087v-1160q0 -115 -10 -170t-38 -94q-58 -80 -209 -80q-29 0 -62 6v109q18 1 72 1q72 0 95 43.5t23 180.5v1164h129zM470 1253h-128l-160 216l-163 -216h-115l217 291h130z" />
    <glyph glyph-name="Kcommaaccent" unicode="&#x136;" horiz-adv-x="1327" 
d="M1324 1462l-659 -597l692 -865h-179l-612 770l-280 -254v-516h-139v1462h139v-786l852 786h186zM749 -124v-134q4 -197 -155 -238v66q42 22 60 52.5t23 89.5h-68v164h140z" />
    <glyph glyph-name="kcommaaccent" unicode="&#x137;" horiz-adv-x="1024" 
d="M1011 1087l-452 -396l483 -691h-161l-421 598l-210 -187v-411h-129v1462h129v-904l589 529h172zM606 -124v-134q4 -197 -155 -238v66q42 22 60 52.5t23 89.5h-68v164h140z" />
    <glyph glyph-name="kgreenlandic" unicode="&#x138;" horiz-adv-x="1031" 
d="M993 1085l-502 -443l521 -642h-160l-450 557l-196 -177v-380h-124v1085h124v-558l617 558h170z" />
    <glyph glyph-name="Lacute" unicode="&#x139;" horiz-adv-x="1100" 
d="M1108 120v-120h-963v1462h139v-1342h824zM522 1860l-289 -276h-107l227 276h169z" />
    <glyph glyph-name="lacute" unicode="&#x13a;" horiz-adv-x="379" 
d="M254 1462v-1462h-129v1462h129zM460 1852l-259 -291h-104l205 291h158z" />
    <glyph glyph-name="Lcommaaccent" unicode="&#x13b;" horiz-adv-x="1100" 
d="M1108 120v-120h-962v1462h139v-1342h823zM687 -124v-134q4 -198 -155 -238v66q76 37 83 142h-68v164h140z" />
    <glyph glyph-name="lcommaaccent" unicode="&#x13c;" horiz-adv-x="379" 
d="M254 1462v-1462h-129v1462h129zM267 -124v-134q3 -197 -155 -238v66q42 22 59.5 52.5t23.5 89.5h-68v164h140z" />
    <glyph glyph-name="Lcaron" unicode="&#x13d;" horiz-adv-x="1100" 
d="M1108 120v-120h-962v1462h139v-1342h823zM703 1462v-134q3 -197 -155 -238v66q77 37 83 142h-68v164h140z" />
    <glyph glyph-name="lcaron" unicode="&#x13e;" horiz-adv-x="522" 
d="M256 1462v-1462h-129v1462h129zM540 1462v-134q4 -197 -155 -238v66q76 37 83 142h-68v164h140z" />
    <glyph glyph-name="Ldot" unicode="&#x13f;" horiz-adv-x="1100" 
d="M1108 126v-126h-962v1462h139v-1336h823zM895 832v-246h-183v246h183z" />
    <glyph glyph-name="ldot" unicode="&#x140;" horiz-adv-x="606" 
d="M251 1462v-1462h-129v1462h129zM595 815v-237h-182v237h182z" />
    <glyph glyph-name="Lslash" unicode="&#x141;" horiz-adv-x="1100" 
d="M139 729v733h139v-667l342 258v-139l-342 -257v-537h823v-120h-962v590l-154 -114v138z" />
    <glyph glyph-name="lslash" unicode="&#x142;" horiz-adv-x="379" 
d="M124 761v701h129v-634l139 108v-128l-139 -108v-700h-129v633l-137 -108v128z" />
    <glyph glyph-name="Nacute" unicode="&#x143;" horiz-adv-x="1442" 
d="M1297 1462v-1462h-155l-864 1247v-1247h-133v1462h154l865 -1255v1255h133zM991 1860l-289 -276h-107l227 276h169z" />
    <glyph glyph-name="nacute" unicode="&#x144;" horiz-adv-x="1100" 
d="M240 1086v-201q46 83 87 123q110 111 287 111q142 0 238 -71q72 -53 100 -129t28 -220v-699h-129v656q0 181 -46 246q-68 99 -220 99q-143 0 -235 -93q-56 -58 -79 -139t-23 -226v-543h-129v1086h121zM791 1544l-259 -291h-103l205 291h157z" />
    <glyph glyph-name="Ncommaaccent" unicode="&#x145;" horiz-adv-x="1442" 
d="M1297 1462v-1462h-155l-864 1247v-1247h-133v1462h154l865 -1255v1255h133zM757 -124v-134q4 -197 -155 -238v66q42 22 60 52.5t23 89.5h-68v164h140z" />
    <glyph glyph-name="ncommaaccent" unicode="&#x146;" horiz-adv-x="1100" 
d="M240 1086v-201q46 83 87 123q110 111 287 111q142 0 238 -71q72 -53 100 -129t28 -220v-699h-129v656q0 181 -46 246q-68 99 -220 99q-143 0 -235 -93q-56 -58 -79 -139t-23 -226v-543h-129v1086h121zM627 -124v-134q4 -198 -155 -238v66q43 22 60.5 52t22.5 90h-68v164
h140z" />
    <glyph glyph-name="Ncaron" unicode="&#x147;" horiz-adv-x="1442" 
d="M1297 1462v-1462h-155l-864 1247v-1247h-133v1462h154l865 -1255v1255h133zM401 1860h130l195 -199l199 199h117l-253 -276h-134z" />
    <glyph glyph-name="ncaron" unicode="&#x148;" horiz-adv-x="1100" 
d="M240 1086v-201q46 83 87 123q110 111 287 111q142 0 238 -71q72 -53 100 -129t28 -220v-699h-129v656q0 181 -46 246q-68 99 -220 99q-143 0 -235 -93q-56 -58 -79 -139t-23 -226v-543h-129v1086h121zM257 1544h128l160 -217l163 217h115l-217 -291h-130z" />
    <glyph glyph-name="napostrophe" unicode="&#x149;" horiz-adv-x="1137" 
d="M278 1087v-201q46 82 86 123q111 111 288 111q142 0 239 -71q72 -53 100 -129.5t28 -220.5v-699h-129v657q0 181 -46 246q-69 99 -221 99q-144 0 -235 -93q-57 -58 -79.5 -139.5t-22.5 -225.5v-544h-129v1087h121zM107 1434v-131q3 -194 -155 -235v67q42 21 59.5 50.5
t23.5 87.5h-68v161h140z" />
    <glyph glyph-name="Eng" unicode="&#x14a;" horiz-adv-x="1430" 
d="M277 1535v-279q62 109 121 165q156 149 401 149q193 0 322 -95q126 -93 158 -261q13 -69 13 -209v-1079q0 -118 -10.5 -174t-39.5 -95q-60 -82 -217 -82q-28 0 -62 6v113q30 -3 49 -3q57 0 84 13t41 46q16 40 16 172v1026q0 145 -15 224.5t-52 132.5q-36 52 -92 84
q-98 58 -230 58q-207 0 -339 -132q-82 -82 -115 -196.5t-33 -321.5v-797h-139v1535h139z" />
    <glyph glyph-name="eng" unicode="&#x14b;" horiz-adv-x="1183" 
d="M282 1087v-201q47 83 87 123q110 111 287 111q141 0 238 -71q72 -53 100 -129.5t28 -220.5v-771q0 -116 -10 -171t-38 -94q-58 -80 -209 -80q-30 0 -62 6v110q18 1 72 1q72 0 95 43t23 181v733q0 181 -46 246q-68 99 -220 99q-143 0 -235 -93q-56 -58 -79 -139t-23 -226
v-544h-129v1087h121z" />
    <glyph glyph-name="Omacron" unicode="&#x14c;" horiz-adv-x="1518" 
d="M768 1496q295 0 489 -215q191 -211 191 -554q0 -303 -154 -505q-194 -256 -537 -256q-339 0 -533 256q-154 203 -154 507q0 347 189 552q197 215 509 215zM751 1376q-232 0 -388 -176q-154 -173 -154 -464q0 -275 131 -448q80 -105 204 -159q100 -43 215 -43
q240 0 393 171q157 175 157 470q0 291 -151 468q-154 181 -407 181zM1091 1759v-92h-664v92h664z" />
    <glyph glyph-name="omacron" unicode="&#x14d;" horiz-adv-x="1139" 
d="M578 1119q229 0 367 -171q124 -151 124 -408q0 -272 -143 -426q-136 -146 -355 -146q-242 0 -377 170q-125 157 -125 405q0 242 118 396q138 180 391 180zM566 1007q-159 0 -260 -122q-105 -125 -105 -340q0 -218 102 -343q100 -122 270 -122q162 0 258 114
q108 127 108 347q0 211 -97 337q-99 129 -276 129zM857 1408v-92h-576v92h576z" />
    <glyph glyph-name="Obreve" unicode="&#x14e;" horiz-adv-x="1518" 
d="M768 1496q295 0 489 -215q191 -211 191 -554q0 -303 -154 -505q-194 -256 -537 -256q-339 0 -533 256q-154 203 -154 507q0 347 189 552q197 215 509 215zM751 1376q-232 0 -388 -176q-154 -173 -154 -464q0 -275 131 -448q80 -105 204 -159q100 -43 215 -43
q240 0 393 171q157 175 157 470q0 291 -151 468q-154 181 -407 181zM1055 1860q-14 -91 -52 -149q-81 -120 -248 -120q-126 0 -205 72.5t-87 196.5h80q13 -61 41 -98q60 -77 176 -77q175 0 215 175h80z" />
    <glyph glyph-name="obreve" unicode="&#x14f;" horiz-adv-x="1139" 
d="M578 1119q229 0 367 -171q124 -151 124 -408q0 -272 -143 -426q-136 -146 -355 -146q-242 0 -377 170q-125 157 -125 405q0 242 118 396q138 180 391 180zM566 1007q-159 0 -260 -122q-105 -125 -105 -340q0 -218 102 -343q100 -122 270 -122q162 0 258 114
q108 127 108 347q0 211 -97 337q-99 129 -276 129zM836 1501q-12 -91 -47 -151q-71 -122 -223 -122q-114 0 -184.5 73.5t-78.5 199.5h79q32 -179 192 -179q147 0 183 179h79z" />
    <glyph glyph-name="Ohungarumlaut" unicode="&#x150;" horiz-adv-x="1518" 
d="M768 1496q295 0 489 -215q191 -211 191 -554q0 -303 -154 -505q-194 -256 -537 -256q-339 0 -533 256q-154 203 -154 507q0 347 189 552q197 215 509 215zM751 1376q-232 0 -388 -176q-154 -173 -154 -464q0 -275 131 -448q80 -105 204 -159q100 -43 215 -43
q240 0 393 171q157 175 157 470q0 291 -151 468q-154 181 -407 181zM1208 1860l-238 -276h-97l176 276h159zM871 1860l-237 -276h-98l176 276h159z" />
    <glyph glyph-name="ohungarumlaut" unicode="&#x151;" horiz-adv-x="1139" 
d="M578 1119q229 0 367 -171q124 -151 124 -408q0 -272 -143 -426q-136 -146 -355 -146q-242 0 -377 170q-125 157 -125 405q0 242 118 396q138 180 391 180zM566 1007q-159 0 -260 -122q-105 -125 -105 -340q0 -218 102 -343q100 -122 270 -122q162 0 258 114
q108 127 108 347q0 211 -97 337q-99 129 -276 129zM959 1544l-211 -291h-96l157 291h150zM682 1544l-212 -291h-96l157 291h151z" />
    <glyph glyph-name="OE" unicode="&#x152;" horiz-adv-x="2200" 
d="M2138 1462v-120h-834v-525h756v-120h-756v-577h841v-120h-971v149q-173 -183 -422 -183q-323 0 -520 250q-159 203 -159 507q0 341 189 552q198 221 504 221q179 0 311 -78l97 -76v120h964zM1165 351v768q0 42 -18.5 75.5t-64.5 74.5q-120 107 -302 107q-274 0 -436 -210
q-132 -171 -132 -440q0 -286 155 -463t397 -177q208 0 334 128q67 69 67 137z" />
    <glyph glyph-name="oe" unicode="&#x153;" horiz-adv-x="1821" 
d="M1760 354q-30 -134 -98 -220q-131 -166 -356 -166q-300 0 -387 275q-30 -91 -85 -153q-110 -122 -302 -122q-229 0 -359 182q-103 146 -103 392q0 262 124 417q128 160 348 160q287 0 382 -255q111 255 386 255q219 0 340 -150t121 -421q0 -11 -1 -33h-791q-1 -25 -1 -33
q0 -148 67 -252q95 -150 272 -150q168 0 261 136q33 49 58 138h124zM1641 627q-9 153 -59 231q-94 149 -274 149q-92 0 -166 -44t-116 -123q-43 -81 -50 -213h665zM533 1007q-155 0 -242 -123q-91 -128 -91 -343q0 -209 85 -333q42 -60 109.5 -94t146.5 -34q173 0 253 143
q72 128 72 329q0 218 -85 337q-83 118 -248 118z" />
    <glyph glyph-name="Racute" unicode="&#x154;" horiz-adv-x="1366" 
d="M145 1462h644q194 0 302 -66q171 -105 171 -327q0 -140 -74.5 -235t-211.5 -128q125 -21 187 -97q41 -51 53 -104.5t26 -256.5q9 -115 21 -164.5t40 -83.5h-158q-29 44 -36 202q-8 178 -25.5 250.5t-64.5 121.5q-41 42 -111.5 60.5t-194.5 18.5h-429v-653h-139v1462z
M284 1342v-576h412q208 0 299 53q128 73 128 240q0 170 -139 242q-80 41 -240 41h-460zM927 1860l-289 -276h-107l227 276h169z" />
    <glyph glyph-name="racute" unicode="&#x155;" horiz-adv-x="645" 
d="M647 1104v-137q-24 1 -33 1q-168 0 -270 -122q-54 -65 -73.5 -149.5t-19.5 -256.5v-440h-129v1086h121v-256q61 142 157 210q95 63 247 64zM626 1544l-259 -291h-103l205 291h157z" />
    <glyph glyph-name="Rcommaaccent" unicode="&#x156;" horiz-adv-x="1366" 
d="M145 1462h644q194 0 302 -66q171 -105 171 -327q0 -140 -74.5 -235t-211.5 -128q125 -21 187 -97q41 -51 53 -104.5t26 -256.5q9 -115 21 -164.5t40 -83.5h-158q-29 44 -36 202q-8 178 -25.5 250.5t-64.5 121.5q-41 42 -111.5 60.5t-194.5 18.5h-429v-653h-139v1462z
M284 1342v-576h412q208 0 299 53q128 73 128 240q0 170 -139 242q-80 41 -240 41h-460zM748 -124v-134q4 -198 -155 -238v66q76 37 83 142h-68v164h140z" />
    <glyph glyph-name="rcommaaccent" unicode="&#x157;" horiz-adv-x="645" 
d="M647 1104v-137q-24 1 -33 1q-169 0 -271 -122q-54 -65 -73 -149.5t-19 -256.5v-440h-129v1086h121v-256q65 148 157 210q94 63 247 64zM258 -124v-134q3 -197 -155 -238v66q42 22 59.5 52.5t23.5 89.5h-68v164h140z" />
    <glyph glyph-name="Rcaron" unicode="&#x158;" horiz-adv-x="1366" 
d="M145 1462h644q194 0 302 -66q171 -105 171 -327q0 -140 -74.5 -235t-211.5 -128q125 -21 187 -97q41 -51 53 -104.5t26 -256.5q9 -115 21 -164.5t40 -83.5h-158q-29 44 -36 202q-8 178 -25.5 250.5t-64.5 121.5q-41 42 -111.5 60.5t-194.5 18.5h-429v-653h-139v1462z
M284 1342v-576h412q208 0 299 53q128 73 128 240q0 170 -139 242q-80 41 -240 41h-460zM335 1860h131l195 -199l198 199h117l-252 -276h-134z" />
    <glyph glyph-name="rcaron" unicode="&#x159;" horiz-adv-x="645" 
d="M647 1104v-137q-24 1 -33 1q-168 0 -270 -122q-54 -65 -73.5 -149.5t-19.5 -256.5v-440h-129v1086h121v-256q61 142 157 210q95 63 247 64zM82 1544h128l160 -217l163 217h115l-217 -291h-129z" />
    <glyph glyph-name="Sacute" unicode="&#x15a;" horiz-adv-x="1290" 
d="M1164 1041h-134q-15 169 -111 248q-108 91 -296 91q-159 0 -253 -63q-111 -76 -111 -217q0 -124 89 -178q73 -45 305 -99q202 -48 260.5 -66t117.5 -52q180 -103 180 -307q0 -207 -166 -330q-139 -102 -385 -102q-274 0 -427 132q-75 65 -116 162t-41 208v16h134
q5 -167 81 -258q119 -143 379 -143q207 0 309 89q97 84 97 213q0 160 -171 232q-77 32 -322 89q-146 34 -213 58t-120 61q-127 88 -127 267q0 187 137 295.5t374 108.5q244 0 383 -119t147 -336zM932 1860l-289 -276h-107l227 276h169z" />
    <glyph glyph-name="sacute" unicode="&#x15b;" horiz-adv-x="985" 
d="M883 772h-127q-9 86 -40 133q-66 102 -244 102q-110 0 -174 -42q-75 -49 -75 -142q0 -59 31 -93q30 -33 82.5 -54t189.5 -53q198 -46 283 -103q52 -36 81.5 -94t29.5 -126q0 -75 -35 -142t-98 -111q-112 -79 -287 -79q-242 0 -357 146q-73 91 -77 242h125q8 -109 49 -166
q78 -110 262 -110q137 0 212 58q79 61 79 154q0 80 -62 125t-229 86q-139 34 -192 51t-94 40q-57 32 -88.5 89.5t-31.5 128.5q0 168 142 251q95 56 243 56q222 0 327 -127q65 -78 75 -220zM754 1544l-259 -291h-104l205 291h158z" />
    <glyph glyph-name="Scircumflex" unicode="&#x15c;" horiz-adv-x="1290" 
d="M1164 1041h-134q-15 169 -111 248q-108 91 -296 91q-159 0 -253 -63q-111 -76 -111 -217q0 -124 89 -178q73 -45 305 -99q202 -48 260.5 -66t117.5 -52q180 -103 180 -307q0 -207 -166 -330q-139 -102 -385 -102q-274 0 -427 132q-75 65 -116 162t-41 208v16h134
q5 -167 81 -258q119 -143 379 -143q207 0 309 89q97 84 97 213q0 160 -171 232q-77 32 -322 89q-146 34 -213 58t-120 61q-127 88 -127 267q0 187 137 295.5t374 108.5q244 0 383 -119t147 -336zM337 1584l255 276h134l252 -276h-117l-198 199l-195 -199h-131z" />
    <glyph glyph-name="scircumflex" unicode="&#x15d;" horiz-adv-x="985" 
d="M883 772h-127q-9 86 -40 133q-66 102 -244 102q-110 0 -174 -42q-75 -49 -75 -142q0 -59 31 -93q30 -33 82.5 -54t189.5 -53q198 -46 283 -103q52 -36 81.5 -94t29.5 -126q0 -75 -35 -142t-98 -111q-112 -79 -287 -79q-242 0 -357 146q-73 91 -77 242h125q8 -109 49 -166
q78 -110 262 -110q137 0 212 58q79 61 79 154q0 80 -62 125t-229 86q-139 34 -192 51t-94 40q-57 32 -88.5 89.5t-31.5 128.5q0 168 142 251q95 56 243 56q222 0 327 -127q65 -78 75 -220zM790 1253h-128l-160 216l-163 -216h-115l217 291h130z" />
    <glyph glyph-name="Scedilla" unicode="&#x15e;" horiz-adv-x="1290" 
d="M641 -35l-64 -88q50 9 74 9q69 0 115 -38.5t46 -95.5q0 -77 -62.5 -126t-162.5 -49q-83 0 -192 41l28 63q81 -34 150 -34q54 0 88 26.5t34 67.5q0 36 -29.5 58.5t-75.5 22.5q-35 0 -88 -18l-32 31l99 132q-227 37 -336 132q-75 64 -116 161t-41 208v16h134
q5 -167 81 -258q119 -143 379 -143q207 0 309 89q97 84 97 213q0 160 -171 232q-77 32 -322 89q-146 34 -213 58t-120 61q-127 88 -127 267q0 187 137 295.5t374 108.5q244 0 383 -119t147 -336h-134q-15 169 -111 248q-108 91 -296 91q-159 0 -253 -63q-111 -76 -111 -217
q0 -124 89 -178q73 -45 305 -99q202 -48 260.5 -66t116.5 -52q181 -103 181 -307q0 -117 -57 -211.5t-162 -151.5q-125 -68 -351 -70z" />
    <glyph glyph-name="scedilla" unicode="&#x15f;" horiz-adv-x="985" 
d="M529 -31l-64 -84q43 8 73 8q74 0 118 -36.5t44 -98.5q0 -80 -60.5 -127.5t-162.5 -47.5q-85 0 -190 42l29 62q74 -33 146 -33q57 0 91 25t34 67q0 37 -30 60t-79 23q-36 0 -85 -18l-31 31l98 128q-384 30 -394 386h125q8 -108 49 -166q78 -109 262 -109q137 0 212 58
q79 61 79 154q0 80 -62 124.5t-229 85.5q-139 35 -192 52t-94 40q-57 32 -88.5 89t-31.5 128q0 168 142 251q95 56 243 56q222 0 327 -127q65 -78 75 -220h-127q-9 86 -40 133q-66 102 -244 102q-110 0 -174 -42q-75 -49 -75 -142q0 -59 31 -93q30 -33 82.5 -54t189.5 -53
q198 -46 283 -103q111 -76 111 -219q0 -142 -108 -233.5t-283 -98.5z" />
    <glyph glyph-name="Scaron" unicode="&#x160;" horiz-adv-x="1290" 
d="M1164 1041h-134q-15 169 -111 248q-108 91 -296 91q-159 0 -253 -63q-111 -76 -111 -217q0 -124 89 -178q73 -45 305 -99q202 -48 260.5 -66t117.5 -52q180 -103 180 -307q0 -207 -166 -330q-139 -102 -385 -102q-274 0 -427 132q-75 65 -116 162t-41 208v16h134
q5 -167 81 -258q119 -143 379 -143q207 0 309 89q97 84 97 213q0 160 -171 232q-77 32 -322 89q-146 34 -213 58t-120 61q-127 88 -127 267q0 187 137 295.5t374 108.5q244 0 383 -119t147 -336zM337 1860h131l195 -199l198 199h117l-252 -276h-134z" />
    <glyph glyph-name="scaron" unicode="&#x161;" horiz-adv-x="985" 
d="M883 772h-127q-9 86 -40 133q-66 102 -244 102q-110 0 -174 -42q-75 -49 -75 -142q0 -59 31 -93q30 -33 82.5 -54t189.5 -53q198 -46 283 -103q52 -36 81.5 -94t29.5 -126q0 -75 -35 -142t-98 -111q-112 -79 -287 -79q-242 0 -357 146q-73 91 -77 242h125q8 -109 49 -166
q78 -110 262 -110q137 0 212 58q79 61 79 154q0 80 -62 125t-229 86q-139 34 -192 51t-94 40q-57 32 -88.5 89.5t-31.5 128.5q0 168 142 251q95 56 243 56q222 0 327 -127q65 -78 75 -220zM210 1544h128l160 -217l163 217h115l-217 -291h-130z" />
    <glyph glyph-name="Tcommaaccent" unicode="&#x162;" horiz-adv-x="1139" 
d="M1153 1462v-120h-513v-1342h-139v1342h-515v120h1167zM647 -124v-134q4 -197 -155 -238v66q76 37 83 142h-68v164h140z" />
    <glyph glyph-name="tcommaaccent" unicode="&#x163;" horiz-adv-x="606" 
d="M544 1087v-112h-219v-685q0 -105 16 -134q26 -46 117 -46q40 0 86 7v-116q-61 -9 -115 -9q-159 0 -207 88q-17 31 -21.5 81t-4.5 196v618h-184v112h184v265h129v-265h219zM408 -124v-134q4 -197 -155 -238v66q42 22 60 52.5t23 89.5h-68v164h140z" />
    <glyph glyph-name="Tcaron" unicode="&#x164;" horiz-adv-x="1139" 
d="M1153 1462v-120h-513v-1342h-139v1342h-515v120h1167zM249 1860h130l195 -199l199 199h117l-252 -276h-134z" />
    <glyph glyph-name="tcaron" unicode="&#x165;" horiz-adv-x="680" 
d="M544 1087v-112h-219v-685q0 -105 16 -134q26 -46 117 -46q40 0 86 7v-116q-61 -9 -115 -9q-159 0 -207 88q-17 31 -21.5 81t-4.5 196v618h-184v112h184v265h129v-265h219zM618 1607v-134q4 -197 -155 -238v66q76 37 83 142h-68v164h140z" />
    <glyph glyph-name="Tbar" unicode="&#x166;" horiz-adv-x="1139" 
d="M1153 1535v-126h-513v-488h365v-123h-365v-798h-139v798h-366v123h366v488h-515v126h1167z" />
    <glyph glyph-name="tbar" unicode="&#x167;" horiz-adv-x="606" 
d="M546 1089v-112h-219v-211h197v-107h-197v-369q0 -105 16 -134q26 -46 117 -46q38 0 86 7v-116q-62 -9 -115 -9q-159 0 -207 89q-17 30 -21.5 80.5t-4.5 195.5v302h-162v107h162v211h-184v112h184v259h129v-259h219z" />
    <glyph glyph-name="Utilde" unicode="&#x168;" horiz-adv-x="1403" 
d="M1271 1462v-876q0 -166 -22 -251q-48 -180 -186 -274.5t-353 -94.5q-357 0 -500 236q-43 72 -60.5 158.5t-17.5 230.5v871h139v-877q0 -128 15.5 -203.5t53.5 -134.5q105 -164 371 -164q255 0 353 158q37 59 52.5 138t15.5 208v875h139zM1044 1823q-37 -199 -178 -199
q-39 0 -75.5 13t-139.5 63q-38 18 -75 18q-74 0 -102 -102h-77q17 97 65 148t124 51q56 0 135 -40q74 -36 96.5 -44.5t49.5 -8.5q72 0 98 101h79z" />
    <glyph glyph-name="utilde" unicode="&#x169;" horiz-adv-x="1100" 
d="M979 1087v-1087h-121v200q-120 -232 -370 -232q-90 0 -168.5 35t-126.5 97q-72 93 -72 286v701h129v-642q0 -153 26 -219q26 -64 90 -101q67 -39 150 -39q86 0 157 40t115 113q62 103 62 294v554h129zM841 1461q-33 -200 -161 -200q-34 0 -67 13t-126 63q-34 19 -66 19
q-65 0 -87 -103h-75q15 97 58.5 148.5t110.5 51.5q51 0 123 -40q67 -37 87 -45.5t43 -8.5q62 0 83 102h77z" />
    <glyph glyph-name="Umacron" unicode="&#x16a;" horiz-adv-x="1403" 
d="M1271 1462v-876q0 -166 -22 -251q-48 -180 -186 -274.5t-353 -94.5q-357 0 -500 236q-43 72 -60.5 158.5t-17.5 230.5v871h139v-877q0 -128 15.5 -203.5t53.5 -134.5q105 -164 371 -164q255 0 353 158q37 59 52.5 138t15.5 208v875h139zM1032 1759v-92h-664v92h664z" />
    <glyph glyph-name="umacron" unicode="&#x16b;" horiz-adv-x="1100" 
d="M979 1087v-1087h-121v200q-120 -232 -370 -232q-90 0 -168.5 35t-126.5 97q-72 93 -72 286v701h129v-642q0 -153 26 -219q26 -64 90 -101q67 -39 150 -39q86 0 157 40t115 113q62 103 62 294v554h129zM838 1408v-92h-576v92h576z" />
    <glyph glyph-name="Ubreve" unicode="&#x16c;" horiz-adv-x="1403" 
d="M1271 1462v-876q0 -166 -22 -251q-48 -180 -186 -274.5t-353 -94.5q-357 0 -500 236q-43 72 -60.5 158.5t-17.5 230.5v871h139v-877q0 -128 15.5 -203.5t53.5 -134.5q105 -164 371 -164q255 0 353 158q37 59 52.5 138t15.5 208v875h139zM998 1860q-14 -91 -52 -149
q-81 -120 -248 -120q-126 0 -205 72.5t-87 196.5h80q13 -61 41 -98q60 -77 176 -77q174 0 215 175h80z" />
    <glyph glyph-name="ubreve" unicode="&#x16d;" horiz-adv-x="1100" 
d="M979 1087v-1087h-121v200q-120 -232 -370 -232q-90 0 -168.5 35t-126.5 97q-72 93 -72 286v701h129v-642q0 -153 26 -219q26 -64 90 -101q67 -39 150 -39q86 0 157 40t115 113q62 103 62 294v554h129zM817 1501q-12 -91 -47 -151q-71 -122 -223 -122q-114 0 -184.5 73.5
t-78.5 199.5h79q32 -179 192 -179q147 0 183 179h79z" />
    <glyph glyph-name="Uring" unicode="&#x16e;" horiz-adv-x="1403" 
d="M1271 1462v-876q0 -166 -22 -251q-48 -180 -186 -274.5t-353 -94.5q-357 0 -500 236q-43 72 -60.5 158.5t-17.5 230.5v871h139v-877q0 -128 15.5 -203.5t53.5 -134.5q105 -164 371 -164q255 0 353 158q37 59 52.5 138t15.5 208v875h139zM705 1967q91 0 155 -70
q54 -60 54 -142q0 -95 -70 -158q-61 -54 -142 -54q-95 0 -158 70q-54 60 -54 144q0 91 70 155q60 55 145 55zM700 1882q-51 0 -88 -37.5t-37 -89.5q0 -53 37 -90t90 -37t90 37t37 91q0 53 -37.5 89.5t-91.5 36.5z" />
    <glyph glyph-name="uring" unicode="&#x16f;" horiz-adv-x="1100" 
d="M979 1087v-1087h-121v200q-120 -232 -370 -232q-90 0 -168.5 35t-126.5 97q-72 93 -72 286v701h129v-642q0 -153 26 -219q26 -64 90 -101q67 -39 150 -39q86 0 157 40t115 113q62 103 62 294v554h129zM553 1579q87 0 149 -68q53 -58 53 -136q0 -91 -68 -152
q-58 -53 -137 -53q-91 0 -152 68q-53 58 -53 138q0 89 68 150q58 53 140 53zM548 1494q-48 0 -83 -35.5t-35 -83.5q0 -50 35 -85t85 -35t85 35t35 85t-35.5 84.5t-86.5 34.5z" />
    <glyph glyph-name="Uhungarumlaut" unicode="&#x170;" horiz-adv-x="1403" 
d="M1271 1462v-876q0 -166 -22 -251q-48 -180 -186 -274.5t-353 -94.5q-357 0 -500 236q-43 72 -60.5 158.5t-17.5 230.5v871h139v-877q0 -128 15.5 -203.5t53.5 -134.5q105 -164 371 -164q255 0 353 158q37 59 52.5 138t15.5 208v875h139zM1136 1860l-237 -276h-98l176 276
h159zM800 1860l-238 -276h-98l177 276h159z" />
    <glyph glyph-name="uhungarumlaut" unicode="&#x171;" horiz-adv-x="1100" 
d="M979 1087v-1087h-121v200q-120 -232 -370 -232q-90 0 -168.5 35t-126.5 97q-72 93 -72 286v701h129v-642q0 -153 26 -219q26 -64 90 -101q67 -39 150 -39q86 0 157 40t115 113q62 103 62 294v554h129zM940 1544l-211 -291h-96l157 291h150zM663 1544l-212 -291h-96
l157 291h151z" />
    <glyph glyph-name="Uogonek" unicode="&#x172;" horiz-adv-x="1403" 
d="M1103 -277v-77q-66 -22 -121 -22q-106 0 -164 53q-49 46 -49 112q0 105 152 204q-123 -27 -217 -27q-351 0 -494 236q-43 72 -60.5 158.5t-17.5 230.5v871h139v-877q0 -128 15.5 -203.5t53.5 -134.5q105 -164 371 -164q255 0 354 158q36 59 51.5 137.5t15.5 208.5v875
h139v-876q0 -182 -30 -277q-25 -78 -62.5 -131.5t-113.5 -118.5q-101 -85 -144.5 -144.5t-43.5 -109.5q0 -57 55 -83q37 -17 80 -17q35 0 91 18z" />
    <glyph glyph-name="uogonek" unicode="&#x173;" horiz-adv-x="1100" 
d="M983 0q-151 -90 -151 -198q0 -54 54 -80q37 -17 81 -17q35 0 91 18v-77q-66 -22 -122 -22q-106 0 -164 53q-49 46 -49 111q0 115 167 212h-28v200q-120 -232 -370 -232q-90 0 -168.5 35t-126.5 97q-72 93 -72 286v701h129v-642q0 -153 26 -219q26 -64 90 -101
q67 -39 150 -39q86 0 157 40t115 113q62 103 62 294v554h129v-1087z" />
    <glyph glyph-name="Wcircumflex" unicode="&#x174;" horiz-adv-x="1858" 
d="M1853 1462l-405 -1462h-151l-375 1300l-369 -1300h-152l-403 1462h146l341 -1271l362 1271h159l367 -1272l341 1272h139zM1261 1584h-130l-195 199l-199 -199h-117l253 276h134z" />
    <glyph glyph-name="wcircumflex" unicode="&#x175;" horiz-adv-x="1518" 
d="M1504 1087l-343 -1087h-140l-263 895l-258 -895h-143l-344 1087h141l273 -899l260 899h148l262 -898l273 898h134zM1042 1253h-128l-160 216l-164 -216h-115l218 291h129z" />
    <glyph glyph-name="Ycircumflex" unicode="&#x176;" horiz-adv-x="1251" 
d="M1275 1462l-579 -857v-605h-139v605l-581 857h167l487 -730l485 730h160zM965 1584h-130l-195 199l-198 -199h-118l253 276h134z" />
    <glyph glyph-name="ycircumflex" unicode="&#x177;" horiz-adv-x="948" 
d="M948 1087l-415 -1130q-76 -207 -117 -269q-66 -101 -196 -101q-43 0 -84 6l-28 4v119q57 -14 92 -14q60 0 99.5 36.5t71.5 120.5q31 85 36 95q20 37 20 46q0 4 -1 7l-425 1080h141l351 -914l323 914h132zM786 1253h-128l-160 216l-163 -216h-115l217 291h130z" />
    <glyph glyph-name="Ydieresis" unicode="&#x178;" horiz-adv-x="1251" 
d="M1275 1462l-579 -857v-605h-139v605l-581 857h167l487 -730l485 730h160zM915 1821v-205h-139v205h139zM472 1821v-205h-139v205h139z" />
    <glyph glyph-name="Zacute" unicode="&#x179;" horiz-adv-x="1176" 
d="M1131 1462v-122l-961 -1220h981v-120h-1143v125l959 1217h-892v120h1056zM868 1860l-288 -276h-107l227 276h168z" />
    <glyph glyph-name="zacute" unicode="&#x17a;" horiz-adv-x="948" 
d="M885 1087v-93l-697 -882h727v-112h-885v110l686 867h-639v110h808zM714 1544l-259 -291h-104l206 291h157z" />
    <glyph glyph-name="Zdotaccent" unicode="&#x17b;" horiz-adv-x="1176" 
d="M1131 1462v-122l-961 -1220h981v-120h-1143v125l959 1217h-892v120h1056zM666 1821v-205h-139v205h139z" />
    <glyph glyph-name="zdotaccent" unicode="&#x17c;" horiz-adv-x="948" 
d="M885 1087v-93l-697 -882h727v-112h-885v110l686 867h-639v110h808zM539 1465v-209h-132v209h132z" />
    <glyph glyph-name="Zcaron" unicode="&#x17d;" horiz-adv-x="1176" 
d="M1131 1462v-122l-961 -1220h981v-120h-1143v125l959 1217h-892v120h1056zM281 1860h131l195 -199l198 199h117l-252 -276h-134z" />
    <glyph glyph-name="zcaron" unicode="&#x17e;" horiz-adv-x="948" 
d="M885 1087v-93l-697 -882h727v-112h-885v110l686 867h-639v110h808zM189 1544h128l160 -217l164 217h115l-218 -291h-129z" />
    <glyph glyph-name="longs" unicode="&#x17f;" horiz-adv-x="500" 
d="M296 0h-129v975h-180v112h180v72q0 100 7.5 146.5t28.5 82.5q66 109 231 109q45 0 101 -8v-115q-51 8 -87 8q-102 0 -133 -57q-19 -35 -19 -150v-1175z" />
    <glyph glyph-name="uni018F" unicode="&#x18f;" horiz-adv-x="1084" 
d="M121 999q24 111 72 193q154 267 472 267q295 0 453 -218q144 -199 144 -500q0 -332 -172 -544q-163 -202 -420 -202q-206 0 -352 134q-217 199 -218 613l1050 -1q-3 118 -12 177q-28 183 -133 305q-125 146 -342 146q-228 0 -353 -177q-57 -82 -84 -193h-105zM212 651
q8 -162 41 -251q59 -160 183 -243q105 -71 238 -71q195 0 324 141q117 128 145 351q3 21 9 73h-940z" />
    <glyph glyph-name="florin" unicode="&#x192;" horiz-adv-x="1139" 
d="M879 1000l-18 -102h-230l-160 -887q-23 -129 -49 -198t-68 -117q-42 -47 -94.5 -67.5t-130.5 -20.5q-50 0 -113 8l19 112q53 -7 85 -7q99 0 144 62.5t79 245.5l158 869h-208l19 102h207l23 127q32 169 85 237q83 106 251 106q55 0 123 -9l-22 -110q-56 8 -98 8
q-91 0 -138.5 -52.5t-71.5 -180.5l-24 -126h232z" />
    <glyph glyph-name="uni01C4" unicode="&#x1c4;" horiz-adv-x="2448" 
d="M138 1462h509q159 0 268 -34.5t195 -112.5q113 -103 166 -266q45 -136 45 -291q0 -389 -205 -596q-89 -88 -192.5 -125t-265.5 -37h-520v1462zM277 1342v-1222h348q152 0 239 28t155 98q163 166 163 505q0 301 -155 458q-70 69 -160.5 101t-219.5 32h-370zM2396 1462
v-122l-960 -1220h981v-120h-1144v125l959 1217h-891v120h1055zM1547 1860h130l195 -199l198 199h118l-253 -276h-134z" />
    <glyph glyph-name="uni01C5" unicode="&#x1c5;" horiz-adv-x="2302" 
d="M2277 1089v-96l-697 -881h726v-112h-884v110l686 867h-639v112h808zM1581 1550h128l160 -222l163 222h115l-217 -300h-130zM138 1462h509q159 0 268 -34.5t195 -112.5q113 -103 166 -266q45 -136 45 -291q0 -389 -205 -596q-89 -88 -192.5 -125t-265.5 -37h-520v1462z
M277 1342v-1222h348q152 0 239 28t155 98q163 166 163 505q0 301 -155 458q-70 69 -160.5 101t-219.5 32h-370z" />
    <glyph glyph-name="uni01C6" unicode="&#x1c6;" horiz-adv-x="2083" 
d="M1051 1462v-1461h-121v213q-31 -79 -84 -132q-116 -114 -294 -114q-228 0 -357 166q-122 157 -122 410q0 270 132 423t343 153q267 0 375 -223v565h128zM557 1008q-155 0 -252 -118q-102 -125 -102 -343q0 -199 88 -327q96 -140 272 -140q172 0 270 130q93 123 93 333
q0 222 -99 341q-103 124 -270 124zM2058 1087v-93l-698 -883h727v-110h-885v108l687 868h-640v110h809zM1361 1550h128l160 -222l164 222h115l-218 -300h-129z" />
    <glyph glyph-name="uni01C7" unicode="&#x1c7;" horiz-adv-x="2049" 
d="M1100 120v-120h-962v1462h139v-1342h823zM1934 1462v-1030q0 -118 -14 -185.5t-51 -125.5q-34 -53 -68.5 -78.5t-94.5 -41.5q-100 -27 -200 -27q-128 0 -223 52t-139 145t-44 259q0 23 1 57h134v-45q0 -149 33 -216q64 -132 253 -132q158 0 226 100q48 71 48 255v1013
h139z" />
    <glyph glyph-name="uni01C8" unicode="&#x1c8;" horiz-adv-x="1479" 
d="M1100 119v-120h-962v1463h139v-1343h823zM1353 1087v-1160q0 -115 -10 -170t-38 -94q-58 -80 -209 -80q-29 0 -62 6v109q18 1 72 1q72 0 95 43.5t23 180.5v1164h129zM1353 1462v-212h-129v212h129z" />
    <glyph glyph-name="uni01C9" unicode="&#x1c9;" horiz-adv-x="761" 
d="M255 1462v-1462h-129v1462h129zM635 1087v-1160q0 -115 -10 -170t-38 -94q-58 -80 -209 -80q-29 0 -62 6v109q18 1 72 1q72 0 95 43.5t23 180.5v1164h129zM635 1462v-212h-129v212h129z" />
    <glyph glyph-name="uni01CA" unicode="&#x1ca;" horiz-adv-x="2379" 
d="M1290 1462v-1462h-155l-864 1247v-1247h-133v1462h154l865 -1255v1255h133zM2264 1462v-1030q0 -118 -14 -185.5t-51 -125.5q-34 -53 -68.5 -78.5t-94.5 -41.5q-100 -27 -200 -27q-128 0 -223 52t-139 145t-44 259q0 23 1 57h134v-45q0 -149 33 -216q64 -132 253 -132
q158 0 226 100q48 71 48 255v1013h139z" />
    <glyph glyph-name="uni01CB" unicode="&#x1cb;" horiz-adv-x="1809" 
d="M1683 1087v-1160q0 -115 -10 -170t-38 -94q-58 -80 -209 -80q-29 0 -62 6v109q18 1 72 1q72 0 95 43.5t23 180.5v1164h129zM1683 1462v-212h-129v212h129zM1290 1462v-1462h-155l-864 1247v-1247h-133v1462h154l865 -1255v1255h133z" />
    <glyph glyph-name="uni01CC" unicode="&#x1cc;" horiz-adv-x="1486" 
d="M247 1087v-201q47 82 87 123q110 111 287 111q142 0 238 -71q72 -53 100 -129.5t28 -220.5v-699h-129v657q0 181 -46 246q-68 99 -220 99q-144 0 -235 -93q-56 -58 -79 -139.5t-23 -225.5v-544h-129v1087h121zM1360 1087v-1160q0 -115 -10 -170t-38 -94q-58 -80 -209 -80
q-29 0 -62 6v109q18 1 72 1q72 0 95 43.5t23 180.5v1164h129zM1360 1462v-212h-129v212h129z" />
    <glyph glyph-name="uni01CD" unicode="&#x1cd;" horiz-adv-x="1290" 
d="M726 1467l584 -1467h-156l-176 460h-669l-180 -460h-149l591 1467h155zM935 573l-290 747l-294 -747h584zM965 1860l-254 -276h-134l-253 276h118l198 -199l195 199h130z" />
    <glyph glyph-name="uni01CE" unicode="&#x1ce;" horiz-adv-x="1063" 
d="M1043 114v-105q-48 -17 -104 -17q-75 0 -105.5 45t-30.5 154q-50 -82 -105 -127q-119 -96 -295 -96q-153 0 -241 73q-103 84 -103 235q0 213 199 293q58 23 109.5 31.5t261.5 29.5q96 10 132 40t36 100q0 125 -67 180q-71 57 -208 57t-206.5 -61.5t-82.5 -194.5h-124
q8 177 119 272.5t308 95.5q216 0 321 -111q40 -41 53 -95t13 -174l-1 -317q1 -199 2.5 -235t7.5 -52q13 -29 62 -29q21 0 49 8zM797 589q-34 -29 -77.5 -40t-213.5 -35q-170 -23 -241 -74q-75 -52 -75 -152q0 -95 66 -151q67 -58 179 -58q158 0 260 96t102 246v168z
M268 1544h128l160 -217l164 217h115l-218 -291h-129z" />
    <glyph glyph-name="uni01CF" unicode="&#x1cf;" horiz-adv-x="455" 
d="M297 1462v-1462h-139v1462h139zM-93 1860h130l195 -199l199 199h117l-252 -276h-134z" />
    <glyph glyph-name="uni01D0" unicode="&#x1d0;" horiz-adv-x="380" 
d="M255 1109v-1109h-129v1109h129zM-93 1505h128l160 -217l163 217h115l-217 -291h-129z" />
    <glyph glyph-name="uni01D1" unicode="&#x1d1;" horiz-adv-x="1530" 
d="M774 1496q295 0 489 -215q191 -211 191 -554q0 -303 -154 -505q-194 -256 -537 -256q-339 0 -533 256q-154 203 -154 507q0 347 189 552q197 215 509 215zM757 1376q-232 0 -388 -176q-154 -173 -154 -464q0 -275 131 -448q80 -105 204 -159q100 -43 215 -43
q240 0 393 171q157 175 157 470q0 291 -151 468q-154 181 -407 181zM444 1860h131l195 -199l198 199h117l-252 -276h-134z" />
    <glyph glyph-name="uni01D2" unicode="&#x1d2;" horiz-adv-x="1146" 
d="M582 1120q229 0 367 -171q124 -152 124 -408q0 -273 -143 -427q-136 -146 -355 -146q-242 0 -377 170q-125 157 -125 405q0 243 118 397q138 180 391 180zM570 1008q-159 0 -260 -122q-105 -126 -105 -341q0 -218 102 -343q100 -122 270 -122q162 0 258 114
q108 127 108 348q0 210 -97 337q-99 129 -276 129zM290 1476h128l160 -212l163 212h115l-217 -286h-130z" />
    <glyph glyph-name="uni01D3" unicode="&#x1d3;" horiz-adv-x="1403" 
d="M1271 1462v-876q0 -166 -22 -251q-48 -180 -186 -274.5t-353 -94.5q-357 0 -500 236q-43 72 -60.5 158.5t-17.5 230.5v871h139v-877q0 -128 15.5 -203.5t53.5 -134.5q105 -164 371 -164q255 0 353 158q37 59 52.5 138t15.5 208v875h139zM381 1860h130l195 -199l199 199
h117l-252 -276h-134z" />
    <glyph glyph-name="uni01D4" unicode="&#x1d4;" horiz-adv-x="1104" 
d="M977 1087v-1087h-121v200q-120 -232 -370 -232q-90 0 -168.5 35t-126.5 97q-72 93 -72 286v701h129v-642q0 -153 26 -219q26 -64 90 -101q67 -39 150 -39q86 0 157 40t115 113q62 103 62 294v554h129zM265 1544h128l160 -217l163 217h115l-217 -291h-129z" />
    <glyph glyph-name="uni01DD" unicode="&#x1dd;" horiz-adv-x="1084" 
d="M86 743q20 106 63 181q126 217 386 217q240 0 370 -177q116 -159 116 -399q0 -264 -138 -433q-134 -164 -344 -164q-169 0 -288 109q-93 84 -135.5 206t-41.5 304l817 -2q-3 114 -26 188q-80 256 -332 256q-127 0 -209 -72.5t-114 -213.5h-124zM205 474q7 -140 62 -233
q95 -161 275 -161q122 0 211 77q112 97 137 317h-685z" />
    <glyph glyph-name="Gcaron" unicode="&#x1e6;" horiz-adv-x="1518" 
d="M1399 743v-743h-92l-29 273q-66 -146 -201 -226.5t-314 -80.5q-214 0 -376 105q-160 104 -243 297q-68 158 -68 349q0 347 198 570q187 209 497 209q289 0 463 -184q118 -124 145 -300h-135q-30 164 -159.5 264t-312.5 100q-273 0 -429 -208q-128 -172 -128 -449
q0 -264 129 -432q155 -201 428 -201q217 0 357 136q146 142 147 407h-501v114h624zM446 1860h130l195 -199l198 199h117l-252 -276h-134z" />
    <glyph glyph-name="gcaron" unicode="&#x1e7;" horiz-adv-x="1150" 
d="M1024 1087v-981q0 -124 -14.5 -199.5t-49.5 -136.5q-113 -195 -411 -195q-194 0 -307.5 86t-124.5 243h129q31 -220 305 -220q181 0 263 92.5t83 296.5l1 172q-33 -65 -64 -102q-110 -128 -302 -128q-218 0 -343 159q-115 147 -115 382q0 257 128 409q131 155 341 155
q241 0 360 -233v200h121zM543 1008q-168 0 -261 -141q-78 -118 -78 -299q0 -223 108 -340q92 -101 234 -101q175 0 273 144q77 114 77 309q0 103 -29.5 191t-82.5 142q-92 95 -241 95zM265 1544h128l160 -217l164 217h114l-217 -291h-129z" />
    <glyph glyph-name="uni01F4" unicode="&#x1f4;" horiz-adv-x="1518" 
d="M1405 743v-743h-92l-29 273q-66 -146 -201 -226.5t-314 -80.5q-214 0 -376 105q-160 104 -243 297q-68 158 -68 349q0 347 198 570q187 209 497 209q289 0 463 -184q118 -124 145 -300h-135q-30 164 -159.5 264t-312.5 100q-273 0 -429 -208q-128 -172 -128 -449
q0 -264 129 -432q155 -201 428 -201q217 0 357 136q146 142 147 407h-501v114h624zM1039 1860l-288 -276h-107l227 276h168z" />
    <glyph glyph-name="uni01F5" unicode="&#x1f5;" horiz-adv-x="1150" 
d="M1024 1087v-981q0 -124 -14.5 -199.5t-49.5 -136.5q-113 -195 -411 -195q-194 0 -307.5 86t-124.5 243h129q31 -220 305 -220q181 0 263 92.5t83 296.5l1 172q-33 -65 -64 -102q-110 -128 -302 -128q-218 0 -343 159q-115 147 -115 382q0 257 128 409q131 155 341 155
q241 0 360 -233v200h121zM543 1008q-168 0 -261 -141q-78 -118 -78 -299q0 -223 108 -340q92 -101 234 -101q175 0 273 144q77 114 77 309q0 103 -29.5 191t-82.5 142q-92 95 -241 95zM800 1544l-259 -291h-104l205 291h158z" />
    <glyph glyph-name="Aringacute" unicode="&#x1fa;" horiz-adv-x="1290" 
d="M726 1467l584 -1467h-156l-176 460h-669l-180 -460h-149l591 1467h155zM935 573l-290 747l-294 -747h584zM648 1923q91 0 154 -70q55 -60 55 -142q0 -94 -70 -158q-61 -54 -142 -54q-95 0 -158 70q-54 61 -54 144q0 91 70 155q60 55 145 55zM643 1838q-51 0 -88 -37.5
t-37 -89.5q0 -53 37 -90t90 -37t90 37.5t37 90.5t-37.5 89.5t-91.5 36.5zM859 2221l-288 -276h-108l228 276h168z" />
    <glyph glyph-name="aringacute" unicode="&#x1fb;" horiz-adv-x="1067" 
d="M1049 114v-105q-48 -17 -104 -17q-75 0 -105.5 45t-30.5 154q-50 -82 -105 -127q-118 -96 -295 -96q-153 0 -241 73q-103 84 -103 235q0 214 199 293q58 24 109.5 32.5t261.5 29.5q96 10 132 39.5t36 99.5q0 126 -67 181q-71 57 -209 57q-136 0 -205.5 -61.5
t-82.5 -194.5h-124q8 169 110 265q111 103 316 103q217 0 322 -111q40 -41 53 -95t13 -174l-1 -318q1 -199 2.5 -235t7.5 -52q13 -29 62 -29q21 0 49 8zM803 592q-34 -29 -76 -40t-215 -35q-171 -25 -241 -74q-75 -53 -75 -153q0 -97 66 -153q67 -58 179 -58q158 0 260 96.5
t102 245.5v171zM546 1575q87 0 148 -70q53 -60 53 -141q0 -94 -68 -158q-57 -54 -136 -54q-92 0 -153 70q-52 60 -52 143q0 92 68 155q58 55 140 55zM541 1486q-49 0 -83.5 -36t-34.5 -87q0 -50 35 -86t84 -36q50 0 85 36t35 87t-35.5 86.5t-85.5 35.5zM623 1788l-260 -285
h-103l205 285h158z" />
    <glyph glyph-name="AEacute" unicode="&#x1fc;" horiz-adv-x="1858" 
d="M1791 1462v-120h-756v-525h704v-120h-704v-577h764v-120h-903v478h-524l-245 -478h-160l764 1462h1060zM896 595v747h-85l-382 -747h467zM1334 1860l-288 -276h-108l227 276h169z" />
    <glyph glyph-name="aeacute" unicode="&#x1fd;" horiz-adv-x="1764" 
d="M1688 356q-28 -139 -104 -233q-128 -155 -352 -155q-296 0 -392 274q-49 -127 -172 -202t-281 -75q-154 0 -248.5 89t-94.5 234q0 153 106 240q85 70 315 92q234 23 270 48q25 17 34.5 39.5t9.5 63.5q0 117 -57 172q-66 65 -214 65q-143 0 -215 -62.5t-83 -196.5h-124
q16 158 95 244q115 127 331 127q190 0 282 -83q49 -44 75 -140q36 80 95 130q107 93 272 93q225 0 353 -165q111 -144 111 -385q0 -21 -1 -54h-800q-1 -161 50 -261q90 -175 296 -175q254 0 319 276h124zM1570 623q-3 143 -63 238q-44 70 -115.5 108.5t-155.5 38.5
q-92 0 -167.5 -44t-118.5 -123q-42 -77 -54 -223zM778 587q-30 -27 -65.5 -37.5t-122.5 -18.5q-206 -19 -274 -44q-140 -51 -140 -194q0 -100 63 -160q65 -63 183 -63q172 0 278 127q43 51 60.5 110.5t17.5 156.5v123zM1168 1476l-259 -285h-104l206 285h157z" />
    <glyph glyph-name="Oslashacute" unicode="&#x1fe;" horiz-adv-x="1530" 
d="M1296 1241q158 -211 158 -514t-154 -505q-194 -256 -537 -256q-272 0 -460 174l-153 -165l-74 66l158 176q-158 211 -158 514q0 342 189 550q194 215 499 215q277 0 464 -178l149 168l74 -68zM1197 1150l-802 -919q53 -44 97 -71q120 -74 272 -74q241 0 394 171
q157 175 157 469q0 253 -118 424zM330 313l805 913q-162 150 -370 150q-241 0 -396 -176q-154 -174 -154 -463q0 -251 115 -424zM1059 1860l-288 -276h-108l228 276h168z" />
    <glyph glyph-name="oslashacute" unicode="&#x1ff;" horiz-adv-x="1139" 
d="M972 914q53 -88 75.5 -173.5t22.5 -199.5q0 -273 -143 -427q-136 -146 -354 -146q-201 0 -341 127l-116 -129l-68 65l124 138q-103 161 -103 377q0 241 118 394q139 180 382 180q208 0 342 -131l112 123l68 -65zM878 821l-560 -637q113 -104 256 -104q161 0 258 113
q108 128 108 349q0 155 -62 279zM263 264l563 636q-110 108 -255 108q-165 0 -266 -121q-106 -127 -106 -337q0 -170 64 -286zM833 1476l-259 -285h-104l205 285h158z" />
    <glyph glyph-name="uni0200" unicode="&#x200;" horiz-adv-x="1290" 
d="M726 1467l584 -1467h-156l-176 460h-669l-180 -460h-149l591 1467h155zM935 573l-290 747l-294 -747h584zM208 1860h159l176 -276h-98zM544 1860h159l176 -276h-97z" />
    <glyph glyph-name="uni0201" unicode="&#x201;" horiz-adv-x="1063" 
d="M1043 114v-105q-48 -17 -104 -17q-75 0 -105.5 45t-30.5 154q-50 -82 -105 -127q-118 -96 -295 -96q-153 0 -241 73q-103 84 -103 235q0 214 199 293q58 24 109.5 32.5t261.5 29.5q96 10 132 39.5t36 99.5q0 126 -67 181q-71 57 -208 57t-206.5 -61.5t-82.5 -194.5h-124
q8 170 110 264q112 104 316 104q217 0 322 -111q40 -41 53 -95t13 -174l-1 -318q1 -199 2.5 -235t7.5 -52q13 -29 62 -29q21 0 49 8zM797 590q-34 -29 -76.5 -40t-214.5 -35q-171 -24 -241 -74q-75 -52 -75 -152q0 -96 66 -152q67 -58 179 -58q158 0 260 96.5t102 245.5v169
zM162 1476h150l158 -285h-97zM440 1476h150l158 -285h-97z" />
    <glyph glyph-name="Scommaaccent" unicode="&#x218;" horiz-adv-x="1290" 
d="M1164 1093h-134q-15 177 -110 261q-109 95 -296 95q-160 0 -254 -66q-111 -79 -111 -228q0 -130 89 -187q75 -49 305 -104q174 -42 248 -66t130 -57q180 -109 180 -323q0 -217 -166 -346q-139 -107 -385 -107q-274 0 -427 139q-75 67 -116 169t-41 218v17h134
q5 -174 81 -270q119 -150 379 -150q207 0 309 93q97 88 97 228q0 164 -171 239q-79 34 -322 94q-146 36 -213 60.5t-120 63.5q-127 92 -127 281q0 196 137.5 310t373.5 114q244 0 383 -125t147 -353zM701 -130v-141q4 -207 -155 -250v70q76 37 83 149h-68v172h140z" />
    <glyph glyph-name="scommaaccent" unicode="&#x219;" horiz-adv-x="985" 
d="M883 772h-127q-9 86 -40 133q-66 102 -244 102q-110 0 -174 -42q-75 -49 -75 -142q0 -59 31 -93q30 -33 82.5 -54t189.5 -53q198 -46 283 -103q52 -36 81.5 -94t29.5 -126q0 -75 -35 -142t-98 -111q-112 -79 -287 -79q-242 0 -357 146q-73 91 -77 242h125q8 -109 49 -166
q78 -110 262 -110q137 0 212 58q79 61 79 154q0 80 -62 125t-229 86q-139 34 -192 51t-94 40q-57 32 -88.5 89.5t-31.5 128.5q0 168 142 251q95 56 243 56q222 0 327 -127q65 -78 75 -220zM570 -124v-134q4 -197 -155 -238v66q42 22 60 52.5t23 89.5h-68v164h140z" />
    <glyph glyph-name="uni021A" unicode="&#x21a;" horiz-adv-x="1139" 
d="M1153 1462v-120h-513v-1342h-139v1342h-515v120h1167zM647 -124v-134q4 -197 -155 -238v66q76 37 83 142h-68v164h140z" />
    <glyph glyph-name="uni021B" unicode="&#x21b;" horiz-adv-x="606" 
d="M544 1087v-112h-219v-685q0 -105 16 -134q26 -46 117 -46q40 0 86 7v-116q-61 -9 -115 -9q-159 0 -207 88q-17 31 -21.5 81t-4.5 196v618h-184v112h184v265h129v-265h219zM408 -124v-134q4 -197 -155 -238v66q42 22 60 52.5t23 89.5h-68v164h140z" />
    <glyph glyph-name="uni0226" unicode="&#x226;" horiz-adv-x="1353" 
d="M757 1467l584 -1467h-156l-176 460h-669l-180 -460h-149l591 1467h155zM966 573l-290 747l-294 -747h584zM750 1821v-205h-139v205h139z" />
    <glyph glyph-name="uni0227" unicode="&#x227;" horiz-adv-x="1034" 
d="M1028 114v-105q-48 -17 -104 -17q-75 0 -105.5 45t-30.5 155q-50 -83 -105 -128q-119 -96 -295 -96q-153 0 -241 73q-103 84 -103 235q0 214 199 294q58 23 109.5 31.5t261.5 29.5q96 10 132 39.5t36 99.5q0 126 -67 181q-71 57 -209 57q-136 0 -205.5 -61.5
t-82.5 -194.5h-124q8 169 110 264q112 104 316 104q217 0 322 -111q40 -41 53 -95t13 -174l-1 -317q1 -200 2.5 -236t7.5 -52q13 -29 62 -29q21 0 49 8zM782 590q-34 -29 -77.5 -40t-213.5 -35t-241 -74q-75 -52 -75 -152q0 -96 66 -152q67 -58 179 -58q158 0 260 96.5
t102 245.5v169zM580 1509v-215h-132v215h132z" />
    <glyph glyph-name="uni0237" unicode="&#x237;" horiz-adv-x="381" 
d="M255 1087v-1160q0 -115 -10 -170t-38 -94q-58 -80 -209 -80q-29 0 -62 6v109q18 1 72 1q73 0 95.5 43.5t22.5 180.5v1164h129z" />
    <glyph glyph-name="uni0259" unicode="&#x259;" horiz-adv-x="1084" 
d="M86 743q20 106 63 181q126 217 386 217q240 0 370 -177q116 -159 116 -399q0 -264 -138 -433q-134 -164 -344 -164q-169 0 -288 109q-93 84 -135.5 206t-41.5 304l817 -2q-3 114 -26 188q-80 256 -332 256q-127 0 -209 -72.5t-114 -213.5h-124zM205 474q7 -140 62 -233
q95 -161 275 -161q122 0 211 77q112 97 137 317h-685z" />
    <glyph glyph-name="uni02BB" unicode="&#x2bb;" horiz-adv-x="414" 
d="M123 987v167q0 91 12 141t47 101q42 62 122 88v-87q-90 -46 -92 -196h79v-214h-168z" />
    <glyph glyph-name="afii57929" unicode="&#x2bc;" horiz-adv-x="414" 
d="M291 1462v-167q0 -91 -12 -141.5t-47 -100.5q-42 -62 -122 -88v87q50 30 70.5 74t21.5 122h-79v214h168z" />
    <glyph glyph-name="circumflex" unicode="&#x2c6;" horiz-adv-x="379" 
d="M478 1253h-128l-160 216l-163 -216h-115l217 291h130z" />
    <glyph glyph-name="caron" unicode="&#x2c7;" horiz-adv-x="379" 
d="M-102 1544h128l160 -217l163 217h115l-217 -291h-129z" />
    <glyph glyph-name="uni02C9" unicode="&#x2c9;" horiz-adv-x="379" 
d="M477 1408v-92h-576v92h576z" />
    <glyph glyph-name="breve" unicode="&#x2d8;" horiz-adv-x="379" 
d="M456 1501q-12 -91 -47 -151q-71 -122 -223 -122q-114 0 -184.5 73.5t-78.5 199.5h79q32 -179 192 -179q147 0 183 179h79z" />
    <glyph glyph-name="dotaccent" unicode="&#x2d9;" horiz-adv-x="379" 
d="M257 1465v-209h-132v209h132z" />
    <glyph glyph-name="ring" unicode="&#x2da;" horiz-adv-x="379" 
d="M194 1579q87 0 148 -68q53 -58 53 -136q0 -91 -68 -152q-58 -53 -136 -53q-91 0 -152 68q-53 58 -53 138q0 88 68 150q58 53 140 53zM188 1494q-48 0 -82.5 -35.5t-34.5 -83.5q0 -50 35 -85t84 -35q50 0 85 35t35 85t-35.5 84.5t-86.5 34.5z" />
    <glyph glyph-name="ogonek" unicode="&#x2db;" horiz-adv-x="379" 
d="M288 0h91q-149 -94 -149 -198q0 -54 53 -80q38 -17 81 -17q35 0 91 18v-77q-66 -22 -122 -22q-105 0 -163 53q-49 46 -49 111q0 115 167 212z" />
    <glyph glyph-name="tilde" unicode="&#x2dc;" horiz-adv-x="379" 
d="M479 1461q-33 -200 -161 -200q-34 0 -67 13t-126 63q-34 19 -66 19q-65 0 -87 -103h-75q15 97 58.5 148.5t110.5 51.5q51 0 122 -40q68 -37 88 -45.5t43 -8.5q62 0 83 102h77z" />
    <glyph glyph-name="hungarumlaut" unicode="&#x2dd;" horiz-adv-x="379" 
d="M566 1544l-211 -291h-96l157 291h150zM289 1544l-212 -291h-96l157 291h151z" />
    <glyph glyph-name="uni037E" unicode="&#x37e;" horiz-adv-x="569" 
d="M371 212v-151q0 -153 -41 -230.5t-140 -113.5v85q89 40 94 198h-81v212h168zM371 1056v-219h-168v219h168z" />
    <glyph glyph-name="uni0387" unicode="&#x387;" horiz-adv-x="569" 
d="M369 650v-219h-168v219h168z" />
    <glyph glyph-name="Gamma" unicode="&#x393;" horiz-adv-x="1087" 
d="M144 0v1462h949v-117h-812v-1345h-137z" />
    <glyph glyph-name="Theta" unicode="&#x398;" horiz-adv-x="1583" 
d="M1091 812v-94h-600v94h600zM811 1498q324 0 509 -245q163 -215 163 -551q0 -193 -78 -367q-90 -198 -288 -297q-145 -73 -322 -73q-199 0 -357 89q-189 106 -269 303q-70 170 -70 370q0 342 182 556q183 215 530 215zM796 1382q-307 0 -453 -235q-106 -169 -106 -421
q0 -317 163 -487q151 -159 398 -159q141 0 258 63q161 86 228 255q60 152 60 333q0 172 -63 325q-73 175 -213 258q-116 68 -272 68z" />
    <glyph glyph-name="Sigma" unicode="&#x3a3;" horiz-adv-x="1227" 
d="M84 0v116l532 625l-529 600v123h1042v-117h-870l525 -606l-526 -621h905v-120h-1079z" />
    <glyph glyph-name="Phi" unicode="&#x3a6;" horiz-adv-x="1445" 
d="M663 -22v182q-112 5 -177 21q-207 53 -322 226q-93 139 -93 324q0 221 131 375q128 150 332 185q45 8 129 11v182h118v-182q115 -5 184 -23q208 -54 321 -230q89 -138 89 -318q0 -216 -126 -369q-84 -101 -192 -148t-276 -54v-182h-118zM663 1190q-88 -5 -141.5 -19.5
t-109.5 -47.5q-108 -66 -164 -180q-46 -94 -46 -211q0 -175 101 -298q65 -80 148 -117.5t212 -46.5v920zM782 270q89 7 142.5 21.5t108.5 47.5q110 66 165 179q46 94 46 213q0 264 -210 392q-57 34 -110.5 48.5t-141.5 18.5v-920z" />
    <glyph glyph-name="uni03A9" unicode="&#x3a9;" horiz-adv-x="1532" 
d="M39 0v116h445q-173 98 -284 241q-147 189 -147 438q0 232 131 413q115 160 293 235q128 54 276 54q240 0 425 -141q140 -108 212 -266q62 -137 62 -294q0 -435 -431 -680h445v-116h-604v109q163 86 261 190q195 208 195 477q0 298 -220 481q-147 123 -343 123
q-198 0 -347 -123q-220 -181 -220 -482q0 -426 456 -666v-109h-605z" />
    <glyph glyph-name="alpha" unicode="&#x3b1;" horiz-adv-x="1290" 
d="M1243 1106l-206 -523l245 -583h-144l-176 453q-24 -53 -35 -80q-77 -177 -133 -254q-111 -152 -280 -152q-189 0 -308 170q-122 175 -122 418q0 214 98 375q123 205 339 205q206 0 330 -198q14 -22 110 -221l143 390h139zM922 583q-67 183 -120 274q-101 172 -257 172
q-155 0 -246 -151q-86 -142 -86 -326q0 -189 90 -331q91 -142 236 -142q168 0 273 219q24 50 110 285z" />
    <glyph glyph-name="delta" unicode="&#x3b4;" horiz-adv-x="1160" 
d="M935 1460v-112h-422l297 -253q95 -82 141.5 -140t74.5 -130q51 -134 51 -287q0 -247 -123 -400q-138 -171 -372 -171q-235 0 -374 174q-124 155 -124 405q0 186 73 321q126 233 385 233q40 0 107 -7l-321 269v98h607zM583 1017q-177 0 -276 -139q-95 -133 -95 -332
q0 -204 91 -336q46 -66 120.5 -104t159.5 -38q120 0 210 70q157 121 157 402q0 193 -83 325q-97 152 -284 152z" />
    <glyph glyph-name="epsilon" unicode="&#x3b5;" horiz-adv-x="995" 
d="M616 623v-86q-150 0 -196 -9q-95 -17 -144 -72q-55 -61 -55 -146q0 -109 85 -180q74 -63 204 -63q142 0 215 68t89 215h125q-11 -126 -63 -208q-111 -175 -374 -175q-200 0 -312 110q-94 92 -94 226q0 220 235 285q-68 17 -108 47q-97 72 -97 194q0 154 137 244
q93 62 230 62q225 0 339 -157q62 -85 65 -212l-124 -1q0 99 -33 155q-32 53 -95.5 84.5t-140.5 31.5q-101 0 -170 -52q-84 -64 -84 -169q0 -118 98 -166q54 -26 223 -26h45z" />
    <glyph glyph-name="pi" unicode="&#x3c0;" horiz-adv-x="1167" 
d="M164 0v995h-152v111h1100v-111h-150v-995h-128v995h-542v-995h-128z" />
    <glyph glyph-name="sigma" unicode="&#x3c3;" horiz-adv-x="1164" 
d="M1141 1103v-107h-252q68 -60 105 -118q86 -136 86 -342q0 -244 -122 -396q-139 -173 -376 -173t-374 175q-124 159 -124 407q0 253 135 415q141 170 367 170q87 0 171 -31h384zM585 1034q-178 0 -280 -145q-93 -133 -93 -338q0 -207 91 -340q46 -68 120.5 -106t160.5 -38
q122 0 213 71q156 121 156 411q0 197 -82 329q-49 78 -129 119q-73 37 -157 37z" />
    <glyph glyph-name="tau" unicode="&#x3c4;" horiz-adv-x="823" 
d="M838 1106v-114h-360v-992h-127v992h-364v114h851z" />
    <glyph glyph-name="phi1" unicode="&#x3d5;" horiz-adv-x="1191" 
d="M538 1132v330h115v-330q142 -9 246 -76q106 -70 167 -195q68 -140 68 -313q0 -254 -130 -411.5t-351 -171.5v-385h-115v385q-142 9 -246 76q-106 70 -167 194q-68 141 -68 313q0 255 130 413t351 171zM538 1035q-107 -8 -189 -69q-80 -61 -125 -174q-44 -109 -44 -244
q0 -211 96.5 -342t261.5 -144v973zM653 1035v-973q110 9 189 69q80 61 126 174q44 109 44 243q0 211 -97.5 343t-261.5 144z" />
    <glyph glyph-name="afii10104" unicode="&#x457;" horiz-adv-x="380" 
d="M255 1087v-1087h-129v1087h129zM383 1462v-209h-131v209h131zM129 1462v-209h-132v209h132z" />
    <glyph glyph-name="uni04D8" unicode="&#x4d8;" horiz-adv-x="1084" 
d="M121 999q24 111 72 193q154 267 472 267q295 0 453 -218q144 -199 144 -500q0 -332 -172 -544q-163 -202 -420 -202q-206 0 -352 134q-217 199 -218 613l1050 -1q-3 118 -12 177q-28 183 -133 305q-125 146 -342 146q-228 0 -353 -177q-57 -82 -84 -193h-105zM212 651
q8 -162 41 -251q59 -160 183 -243q105 -71 238 -71q195 0 324 141q117 128 145 351q3 21 9 73h-940z" />
    <glyph glyph-name="afii10846" unicode="&#x4d9;" horiz-adv-x="1084" 
d="M86 743q20 106 63 181q126 217 386 217q240 0 370 -177q116 -159 116 -399q0 -264 -138 -433q-134 -164 -344 -164q-169 0 -288 109q-93 84 -135.5 206t-41.5 304l817 -2q-3 114 -26 188q-80 256 -332 256q-127 0 -209 -72.5t-114 -213.5h-124zM205 474q7 -140 62 -233
q95 -161 275 -161q122 0 211 77q112 97 137 317h-685z" />
    <glyph glyph-name="uni1E1E" unicode="&#x1e1e;" horiz-adv-x="1100" 
d="M1086 1462v-120h-795v-525h708v-120h-708v-697h-139v1462h934zM717 1821v-205h-139v205h139z" />
    <glyph glyph-name="uni1E1F" unicode="&#x1e1f;" horiz-adv-x="530" 
d="M550 1442v-116q-52 8 -87 8q-102 0 -133 -58q-19 -34 -19 -150v-39h213v-112h-213v-975h-129v975h-180v112h180v24q0 99 7.5 145.5t28.5 82.5q66 110 231 110q46 0 101 -7zM403 1757v-215h-132v215h132z" />
    <glyph glyph-name="Wgrave" unicode="&#x1e80;" horiz-adv-x="1858" 
d="M1856 1462l-405 -1462h-151l-375 1300l-369 -1300h-152l-403 1462h146l341 -1271l362 1271h159l367 -1272l341 1272h139zM665 1860h168l227 -276h-107z" />
    <glyph glyph-name="wgrave" unicode="&#x1e81;" horiz-adv-x="1518" 
d="M1504 1087l-343 -1087h-140l-263 895l-258 -895h-143l-344 1087h141l273 -899l260 899h148l262 -898l273 898h134zM517 1544h157l205 -291h-103z" />
    <glyph glyph-name="Wacute" unicode="&#x1e82;" horiz-adv-x="1900" 
d="M1878 1462l-405 -1462h-151l-375 1300l-369 -1300h-152l-403 1462h146l341 -1271l362 1271h159l367 -1272l341 1272h139zM1214 1860l-288 -276h-107l227 276h168z" />
    <glyph glyph-name="wacute" unicode="&#x1e83;" horiz-adv-x="1518" 
d="M1504 1087l-343 -1087h-140l-263 895l-258 -895h-143l-344 1087h141l273 -899l260 899h148l262 -898l273 898h134zM1000 1544l-259 -291h-103l205 291h157z" />
    <glyph glyph-name="Wdieresis" unicode="&#x1e84;" horiz-adv-x="1858" 
d="M1853 1462l-405 -1462h-151l-375 1300l-369 -1300h-152l-403 1462h146l341 -1271l362 1271h159l367 -1272l341 1272h139zM1227 1821v-205h-139v205h139zM784 1821v-205h-139v205h139z" />
    <glyph glyph-name="wdieresis" unicode="&#x1e85;" horiz-adv-x="1487" 
d="M1489 1087l-343 -1087h-140l-263 895l-258 -895h-143l-344 1087h141l273 -899l260 899h148l262 -898l273 898h134zM620 1462v-209h-129v209h129zM996 1462v-209h-129v209h129z" />
    <glyph glyph-name="Ygrave" unicode="&#x1ef2;" horiz-adv-x="1251" 
d="M1277 1462l-579 -857v-605h-139v605l-581 857h167l487 -730l485 730h160zM363 1860h169l227 -276h-107z" />
    <glyph glyph-name="ygrave" unicode="&#x1ef3;" horiz-adv-x="948" 
d="M948 1087l-415 -1130q-76 -207 -117 -269q-66 -101 -196 -101q-43 0 -84 6l-28 4v119q57 -14 92 -14q60 0 99.5 36.5t71.5 120.5q31 85 36 95q20 37 20 46q0 4 -1 7l-425 1080h141l351 -914l323 914h132zM232 1544h158l205 -291h-103z" />
    <glyph glyph-name="uni2011" unicode="&#x2011;" horiz-adv-x="758" 
d="M622 600v-117h-487v117h487z" />
    <glyph glyph-name="figuredash" unicode="&#x2012;" horiz-adv-x="1024" 
d="M972 600v-117h-921v117h921z" />
    <glyph glyph-name="endash" unicode="&#x2013;" horiz-adv-x="1024" 
d="M972 600v-117h-921v117h921z" />
    <glyph glyph-name="emdash" unicode="&#x2014;" horiz-adv-x="2048" 
d="M1755 600v-117h-1462v117h1462z" />
    <glyph glyph-name="afii00208" unicode="&#x2015;" horiz-adv-x="2048" 
d="M1755 600v-117h-1462v117h1462z" />
    <glyph glyph-name="underscoredbl" unicode="&#x2017;" horiz-adv-x="1097" 
d="M0 -135h1097v-70h-1097v70zM0 -389h1097v-72h-1097v72z" />
    <glyph glyph-name="quoteleft" unicode="&#x2018;" horiz-adv-x="569" 
d="M195 987v167q0 91 12 141t47 101q42 62 122 88v-87q-90 -46 -92 -196h79v-214h-168z" />
    <glyph glyph-name="quoteright" unicode="&#x2019;" horiz-adv-x="569" 
d="M374 1462v-167q0 -91 -12 -141.5t-47 -100.5q-42 -62 -122 -88v87q50 30 70.5 74t21.5 122h-79v214h168z" />
    <glyph glyph-name="quotesinglbase" unicode="&#x201a;" horiz-adv-x="569" 
d="M374 214v-167q0 -91 -12 -141.5t-47 -100.5q-42 -63 -122 -89v88q90 47 92 196h-79v214h168z" />
    <glyph glyph-name="quotereversed" unicode="&#x201b;" horiz-adv-x="414" 
d="M110 1462h168v-214h-79q1 -78 22 -122.5t70 -73.5v-87q-93 30 -137 110.5t-44 219.5v167z" />
    <glyph glyph-name="quotedblleft" unicode="&#x201c;" horiz-adv-x="758" 
d="M450 996v176q0 245 174 312v-84q-51 -34 -69.5 -74.5t-20.5 -123.5h77v-206h-161zM136 996v176q0 245 174 312v-84q-51 -34 -69.5 -75.5t-20.5 -122.5h77v-206h-161z" />
    <glyph glyph-name="quotedblright" unicode="&#x201d;" horiz-adv-x="758" 
d="M308 1462v-176q0 -120 -44.5 -200.5t-129.5 -112.5v84q51 34 69.5 76t20.5 123h-77v206h161zM622 1462v-176q0 -120 -44.5 -200.5t-129.5 -112.5v84q51 34 69.5 75.5t20.5 123.5h-77v206h161z" />
    <glyph glyph-name="quotedblbase" unicode="&#x201e;" horiz-adv-x="758" 
d="M308 206v-176q0 -120 -44.5 -200.5t-129.5 -112.5v84q50 34 69 76t21 123h-77v206h161zM622 206v-176q0 -120 -44.5 -200.5t-129.5 -112.5v84q50 34 69 76t21 123h-77v206h161z" />
    <glyph glyph-name="dagger" unicode="&#x2020;" horiz-adv-x="1139" 
d="M1042 1010v-110h-416v-1292h-121v1292h-409v110h409v452h121v-452h416z" />
    <glyph glyph-name="daggerdbl" unicode="&#x2021;" horiz-adv-x="1139" 
d="M1042 1028v-110h-415v-738h415v-110h-415v-462h-121v462h-409v110h409v738h-409v110h409v434h121v-434h415z" />
    <glyph glyph-name="bullet" unicode="&#x2022;" horiz-adv-x="1024" 
d="M518 1052q120 0 208 -89q89 -90 89 -218q0 -127 -88 -217q-89 -90 -213 -90q-123 0 -212 89q-90 91 -90 218q0 130 90 218q90 89 216 89z" />
    <glyph glyph-name="ellipsis" unicode="&#x2026;" horiz-adv-x="2048" 
d="M735 219v-219h-168v219h168zM1108 219v-219h-168v219h168zM1481 219v-219h-168v219h168z" />
    <glyph glyph-name="perthousand" unicode="&#x2030;" horiz-adv-x="2275" 
d="M1162 671q154 0 233 -101q70 -89 70 -236q0 -172 -78.5 -264t-224.5 -92q-164 0 -242 101q-67 88 -67 242q0 178 85 266q80 84 224 84zM1157 586q-95 0 -144 -68.5t-49 -200.5q0 -254 196 -254q194 0 194 266q0 122 -44 183q-53 74 -153 74zM1899 673q145 0 225 -89.5
t80 -251.5q0 -167 -80.5 -260.5t-224.5 -93.5q-165 0 -243 103q-67 87 -67 241q0 180 86 266q84 85 224 85zM1893 588q-94 0 -145 -70t-51 -197q0 -124 51.5 -191t147.5 -67q194 0 194 265q0 260 -197 260zM390 1453q144 0 223.5 -90.5t79.5 -253.5q0 -164 -82.5 -258
t-227.5 -94q-154 0 -230 97q-74 94 -74 251q0 171 85 261q81 87 226 87zM383 1367q-92 0 -142.5 -70.5t-50.5 -197.5q0 -254 194 -254q94 0 145 67t51 193q0 118 -41 182q-52 80 -156 80zM1226 1418l-803 -1418h-107l803 1418h107z" />
    <glyph glyph-name="guilsinglleft" unicode="&#x2039;" horiz-adv-x="530" 
d="M381 221l-273 256v125l273 259v-134l-192 -187l192 -184v-135z" />
    <glyph glyph-name="guilsinglright" unicode="&#x203a;" horiz-adv-x="530" 
d="M149 861l273 -257v-125l-273 -258v134l192 186l-192 185v135z" />
    <glyph glyph-name="exclamdbl" unicode="&#x203c;" horiz-adv-x="921" 
d="M321 1462v-429l-32 -666h-76l-31 667v428h139zM329 205v-205h-154v205h154zM782 1462v-429l-32 -666h-76l-31 667v428h139zM789 205v-205h-153v205h153z" />
    <glyph glyph-name="uni203E" unicode="&#x203e;" horiz-adv-x="1097" 
d="M0 1706h1097v-95h-1097v95z" />
    <glyph glyph-name="slash.aalt" unicode="&#x2044;" horiz-adv-x="342" 
d="M655 1436l-868 -1436h-98l870 1436h96z" />
    <glyph glyph-name="franc" unicode="&#x20a3;" horiz-adv-x="1438" 
d="M1069 1418v-116h-795v-528h616v-116h-616v-658h-136v1418h931zM1473 790v-131q-21 1 -36 1q-165 0 -267 -118q-55 -63 -74 -144t-19 -248v-150h-129v774h121v-253q112 274 404 269z" />
    <glyph glyph-name="lira" unicode="&#x20a4;" horiz-adv-x="1146" 
d="M346 803h362v-95h-313q13 -26 20 -39q26 -49 34 -83h259v-95h-246v-7v-13q0 -125 -97 -250q-28 -36 -126 -129q80 40 124 52.5t102 12.5q54 0 93 -9t168 -53q49 -16 101 -16q129 0 239 106l65 -97q-60 -60 -139 -93t-164 -33q-54 0 -90 8.5t-162 51.5q-94 32 -168 32
q-58 0 -105.5 -18t-122.5 -69l-73 108q231 171 231 378q0 15 -2 38h-222v95h201q-6 18 -61 122h-140v95h89q-7 14 -11 20q-65 120 -65 238q0 188 155 303q122 91 314 91q230 0 354 -126t124 -358h-128q-2 134 -58 230q-39 68 -116.5 105.5t-177.5 37.5q-157 0 -248 -87
q-86 -82 -86 -200q0 -77 32 -148z" />
    <glyph glyph-name="peseta" unicode="&#x20a7;" horiz-adv-x="1997" 
d="M151 1418h418q123 0 196.5 -16.5t133.5 -56.5q165 -111 165 -339q0 -232 -160 -346q-113 -81 -318 -81h-306v-579h-129v1418zM280 1302v-607h272q94 0 151.5 11.5t101.5 39.5q130 83 130 253q0 173 -126 253q-46 29 -101.5 39.5t-163.5 10.5h-264zM1335 638v-78h-136
v-386q0 -62 13.5 -79t62.5 -17q22 0 60 3v-79q-44 -6 -80 -6q-101 0 -133 54q-17 29 -17 162v348h-115v78h115v190h94v-190h136zM1941 442h-93q-6 54 -24 80q-39 56 -146 56q-69 0 -108 -26t-39 -72q0 -43 34 -63t148 -45q125 -28 178 -61q72 -45 72 -132q0 -88 -74 -143
t-193 -55q-132 0 -203.5 61t-73.5 176h92q5 -67 29 -99q47 -61 157 -61q77 0 124.5 31.5t47.5 82.5q0 44 -36.5 67.5t-137.5 47.5q-137 31 -180 53q-78 40 -78 131q0 85 66.5 135t178.5 50q245 0 259 -214z" />
    <glyph glyph-name="Euro" unicode="&#x20ac;" horiz-adv-x="1139" 
d="M206 891q1 7 2 13q96 545 520 545q114 0 224 -37t197 -105l-48 -108q-123 83 -194 110q-91 35 -181 35q-320 0 -394 -441l-2 -12h633l-36 -88h-607q-5 -50 -5 -105q0 -23 1 -57l1 -10h537l-37 -88h-492q67 -465 407 -465q84 0 157 25t203 97v-132q-171 -99 -372 -99
q-447 0 -520 574h-178l35 88h136q0 8 -1 14v31q0 82 4 112q0 7 1 15h-175l36 88h148z" />
    <glyph glyph-name="uni2101" unicode="&#x2101;" horiz-adv-x="1836" 
d="M441 1427l326 -823h-90l-98 250h-370l-100 -250h-97l337 823h92zM550 934l-155 391l-157 -391h312zM1781 600h-85q-17 175 -215 175q-91 0 -142 -40.5t-51 -113.5q0 -67 48 -98q39 -24 165 -54q117 -29 144.5 -37.5t58.5 -27.5q98 -57 98 -168t-83 -174.5t-228 -63.5
q-152 0 -239 74q-88 76 -88 202q0 3 1 14h75q9 -210 246 -210q112 0 167 49q52 47 52 117q0 87 -92 127q-35 16 -174 50q-133 32 -179 65q-69 48 -69 146q0 103 77.5 163t210.5 60q140 0 218 -66t84 -189zM1507 1436l-868 -1436h-98l870 1436h96z" />
    <glyph glyph-name="afii61248" unicode="&#x2105;" horiz-adv-x="1836" 
d="M800 918q-11 -150 -109 -241.5t-247 -91.5q-187 0 -292 137q-87 114 -87 289q0 194 106 313t278 119q162 0 259 -105q69 -73 77 -160h-78q-19 85 -86.5 135t-165.5 50q-149 0 -229 -119q-64 -95 -64 -230q0 -140 62 -231q80 -118 227 -118q110 0 178.5 66t83.5 187h87z
M1413 856q166 0 275 -120q107 -119 107 -311q0 -170 -86 -284q-109 -143 -303 -143q-190 0 -299 144q-86 114 -86 284q0 195 106 310q111 120 286 120zM1404 776q-123 0 -205 -95q-81 -94 -81 -251q0 -148 70 -243q80 -109 220 -109q128 0 208 93q82 96 82 254t-80 254
q-81 97 -214 97zM1400 1436l-867 -1436h-98l870 1436h95z" />
    <glyph glyph-name="afii61289" unicode="&#x2113;" horiz-adv-x="1024" 
d="M490 538q-60 -319 -60 -417q0 -49 34 -49q30 0 61.5 39.5t49.5 100.5l63 -28q-76 -220 -213 -220q-67 0 -105.5 48t-38.5 132q0 64 18 249l-111 -98l-34 55q14 11 47 47q65 66 113 121q70 375 162 609q97 245 241 245q60 0 97 -45.5t37 -119.5q0 -178 -129 -387
q-70 -112 -232 -282zM508 652q8 9 18 20q128 140 191 305q52 135 52 228q0 32 -14.5 53t-36.5 21q-54 0 -89 -92q-56 -146 -121 -535z" />
    <glyph glyph-name="uni2117" unicode="&#x2117;" horiz-adv-x="1676" 
d="M574 1170h367q134 0 199 -44q100 -67 100 -205q0 -127 -73.5 -193t-214.5 -66h-278v-368h-100v876zM674 1087v-342h252q97 0 142 29q72 46 72 143t-70 142q-44 28 -147 28h-249zM849 1496q205 0 389 -113t281 -304q83 -165 83 -348q0 -215 -112 -399t-304 -282
q-164 -84 -347 -84q-214 0 -398 112q-184 113 -282 305q-84 165 -84 347q0 217 113 402q110 181 305 281q163 83 356 83zM831 1421q-183 0 -347 -101q-164 -102 -251 -275q-75 -148 -75 -314q0 -194 101 -361q101 -166 272 -254q146 -75 308 -75q192 0 356 102
q163 102 250 275q74 147 74 311q0 197 -100 363q-98 164 -271 254q-143 75 -317 75z" />
    <glyph glyph-name="trademark" unicode="&#x2122;" horiz-adv-x="2028" 
d="M907 1462v-82h-303v-751h-97v751h-303v82h703zM1824 1462v-833h-94v687l-289 -687h-83l-294 678v-678h-94v833h126l304 -710l298 710h126z" />
    <glyph glyph-name="Omega" unicode="&#x2126;" horiz-adv-x="1532" 
d="M82 0v116h424q-168 96 -276 234q-150 192 -150 444q0 234 126 414q111 160 282 235q123 54 264 54q230 0 407 -141q136 -108 205 -267q60 -137 60 -296q0 -271 -176 -475q-102 -118 -250 -202h424v-116h-566v109q155 86 248 190q187 209 187 476q0 299 -211 482
q-141 123 -326 123q-187 0 -330 -123q-211 -181 -211 -482q0 -424 436 -666v-109h-567z" />
    <glyph glyph-name="estimated" unicode="&#x212e;" horiz-adv-x="1229" 
d="M1090 513h-764v-217q31 -103 80 -147q80 -72 221 -72q245 0 342 214h90q-30 -96 -88 -164q-120 -140 -348 -140q-225 0 -351 146q-123 142 -123 389q0 261 136 407q131 141 341 141q173 0 296 -96q91 -70 128 -171.5t40 -289.5zM941 584v190q-18 50 -47 84
q-54 65 -117.5 93.5t-150.5 28.5q-140 0 -220 -85q-37 -39 -75 -121v-190h610z" />
    <glyph glyph-name="arrowleft" unicode="&#x2190;" horiz-adv-x="1462" 
d="M1433 797v-111h-1097q34 -42 74 -122.5t40 -106.5q0 -30 -31 -30q-19 0 -51 37q-116 134 -289 228q-50 28 -50 45q0 21 36 41q113 64 180.5 118t136.5 135q18 21 35 21q33 0 33 -32q0 -28 -33 -92.5t-81 -130.5h1097z" />
    <glyph glyph-name="arrowup" unicode="&#x2191;" horiz-adv-x="1468" 
d="M794 29h-117v1096q-41 -32 -122 -72.5t-106 -40.5q-30 0 -30 33q0 17 37 49q123 108 227 289q28 50 48 50q21 0 42 -36q3 -4 18 -27l21 -35q57 -92 99.5 -142.5t115.5 -112.5q21 -18 21 -35q0 -33 -33 -33q-26 0 -92 34t-129 79v-1096z" />
    <glyph glyph-name="arrowright" unicode="&#x2192;" horiz-adv-x="1462" 
d="M29 682v111h1096q-37 50 -75 127t-38 102q0 31 33 31q17 0 49 -37q115 -132 289 -227q50 -27 50 -45q0 -20 -36 -41q-114 -64 -181.5 -118.5t-135.5 -135.5q-18 -21 -35 -21q-33 0 -33 33q0 26 32.5 89.5t80.5 131.5h-1096z" />
    <glyph glyph-name="arrowdown" unicode="&#x2193;" horiz-adv-x="1462" 
d="M670 1433h117v-1096q43 33 123.5 73t105.5 40q30 0 30 -33q0 -17 -37 -49q-126 -110 -227 -289q-29 -50 -48 -50q-21 0 -43 36q-2 4 -17 28q-7 10 -21 34q-58 94 -100.5 143.5t-115.5 111.5q-21 18 -21 35q0 33 33 33q26 0 91.5 -33.5t129.5 -79.5v1096z" />
    <glyph glyph-name="arrowboth" unicode="&#x2194;" horiz-adv-x="1462" 
d="M334 680q48 -64 82 -129.5t34 -92.5q0 -32 -32 -32q-13 0 -20 5.5t-32 35.5q-56 66 -121 117t-180 118q-36 21 -36 40q0 18 50 46q176 96 289 228q32 37 50 37q32 0 32 -31q0 -26 -39.5 -104.5t-76.5 -126.5h791q-36 48 -74.5 127t-38.5 104q0 31 33 31q17 0 49 -37
q115 -133 289 -228q50 -27 50 -46t-36 -40q-118 -69 -183.5 -121.5t-133.5 -133.5q-18 -21 -35 -21q-33 0 -33 33q0 26 34 91.5t79 129.5h-791z" />
    <glyph glyph-name="arrowupdn" unicode="&#x2195;" horiz-adv-x="1462" 
d="M791 334q66 48 130.5 82t91.5 34q32 0 32 -33q0 -13 -5.5 -19.5t-35.5 -32.5q-100 -83 -195 -238q-15 -25 -21 -34q-14 -22 -26 -42q-13 -22 -35 -22q-18 0 -47 50q-102 181 -227 289q-37 32 -37 50q0 32 31 32q25 0 103.5 -40t123.5 -76v791q-44 -34 -123.5 -73.5
t-104.5 -39.5q-30 0 -30 33q0 17 37 49q125 109 227 289q29 50 48 50q21 0 42 -36q4 -7 18 -27q6 -11 21 -35q58 -94 100 -143.5t115 -111.5q21 -18 21 -35q0 -33 -33 -33q-26 0 -90 33t-131 80v-791z" />
    <glyph glyph-name="arrowupdnbse" unicode="&#x21a8;" horiz-adv-x="1462" 
d="M793 334q67 50 129.5 83t88.5 33q32 0 32 -33q0 -17 -21 -35q-70 -59 -112 -110t-99 -145q-14 -23 -21 -34q-15 -25 -25 -42q-14 -22 -35 -22q-19 0 -47 50q-102 180 -228 289q-37 32 -37 50q0 32 30 32q26 0 104.5 -40t123.5 -76v791q-43 -33 -123 -73t-104 -40
q-31 0 -31 33q0 17 37 49q126 110 228 289q28 50 47 50q22 0 43 -36q2 -4 17 -27q7 -12 21 -35q58 -95 99.5 -145t111.5 -110q21 -18 21 -35q0 -33 -33 -33q-25 0 -87 32.5t-130 80.5v-791zM441 -142h579v-102h-579v102z" />
    <glyph glyph-name="partialdiff" unicode="&#x2202;" horiz-adv-x="1047" 
d="M166 1365l16 108q172 -24 286 -74q266 -117 404 -391q113 -223 113 -492q0 -202 -84 -330q-70 -108 -185 -165q-94 -46 -199 -46q-167 0 -298 110q-67 56 -110 131q-65 115 -65 250q0 161 90 294q70 103 180 154q90 41 187 41q67 0 133.5 -20.5t110.5 -54.5
q34 -27 95 -106q-11 25 -70 177q-95 192 -258 290q-85 54 -159 80t-187 44zM525 853q-53 0 -114 -21t-104 -55q-54 -41 -92 -111q-51 -95 -51 -201q0 -169 117 -283q101 -100 235 -100q120 0 215 79q133 111 133 314q0 194 -119 296q-95 82 -220 82z" />
    <glyph glyph-name="emptyset" unicode="&#x2205;" horiz-adv-x="1463" 
d="M1030 1149q95 -85 138 -146q78 -110 78 -274q0 -151 -78 -275q-71 -114 -192 -178q-111 -60 -223 -60q-63 0 -181 25l-133 -264l-141 73l131 261q-92 84 -134 143q-78 111 -78 274q0 151 78 275q72 114 192 178q112 60 224 60q61 0 173 -22l136 272l145 -74zM958 1006
l-313 -621q65 -11 99 -11q149 0 255 117q88 98 88 237q0 104 -43 174q-26 42 -86 104zM502 456l309 618q-59 8 -92 8q-70 0 -138 -31t-118 -86q-88 -98 -88 -236q0 -84 26.5 -141t100.5 -132z" />
    <glyph glyph-name="Delta" unicode="&#x2206;" horiz-adv-x="1380" 
d="M28 0l595 1462h135l596 -1462h-1326zM201 116h978l-488 1203z" />
    <glyph glyph-name="product" unicode="&#x220f;" horiz-adv-x="1473" 
d="M67 1645h1336v-109h-163v-1975h163v-109h-455v109h171v1975h-768v-1975h169v-109h-453v109h164v1975h-164v109z" />
    <glyph glyph-name="summation" unicode="&#x2211;" horiz-adv-x="1260" 
d="M1230 1645v-489h-121l-11 366h-945l551 -929l-550 -1020h964l6 367h127v-488h-1243v142l541 999l-541 915v137h1222z" />
    <glyph glyph-name="minus" unicode="&#x2212;" horiz-adv-x="1229" 
d="M125 757h981v-95h-981v95z" />
    <glyph glyph-name="fraction" unicode="&#x2215;" horiz-adv-x="342" 
d="M655 1436l-868 -1436h-98l870 1436h96z" />
    <glyph glyph-name="uni2218" unicode="&#x2218;" horiz-adv-x="1056" 
d="M530 1052q120 0 208 -89q89 -90 89 -218q0 -127 -88 -216q-88 -90 -213 -90q-124 0 -212 89q-90 90 -90 217q0 131 89 218q91 89 217 89zM524 948q-80 0 -138 -58q-59 -60 -59 -144q0 -85 59 -144q58 -59 140 -59t140 59q58 60 58 143q0 85 -58 144t-142 59z" />
    <glyph glyph-name="periodcentered" unicode="&#x2219;" horiz-adv-x="569" 
d="M369 650v-219h-168v219h168z" />
    <glyph glyph-name="radical" unicode="&#x221a;" horiz-adv-x="1032" 
d="M1248 1813v-112h-435l-519 -1701h-138l-199 664h-171v112h251l188 -606l491 1643h532z" />
    <glyph glyph-name="infinity" unicode="&#x221e;" horiz-adv-x="1554" 
d="M779 676q-92 -136 -179 -196.5t-192 -60.5q-106 0 -183 51q-137 91 -137 279q0 174 128 264q85 60 194 60q197 0 366 -257q50 77 93 124q124 133 279 133q167 0 255 -122q63 -87 63 -207q0 -157 -100 -246q-90 -79 -217 -79q-108 0 -195.5 60.5t-174.5 196.5zM828 746
q42 -65 79 -109q108 -127 234 -127q105 0 168 76q54 65 54 160q0 125 -86 190q-62 47 -138 47q-87 0 -155.5 -52.5t-155.5 -184.5zM726 745q-41 64 -79 110q-109 127 -234 127q-105 0 -168 -76q-54 -64 -54 -160q0 -126 85 -190q63 -47 139 -47q87 0 155 52t156 184z" />
    <glyph glyph-name="intersection" unicode="&#x2229;" horiz-adv-x="1183" 
d="M1107 0h-132v704q0 219 -13 313t-52 155q-48 73 -127 118q-93 53 -192 53q-129 0 -236 -81q-59 -45 -90 -104.5t-45 -151.5q-13 -91 -13 -302v-704h-132v698q0 249 13 338q29 212 196 331q132 95 307 95q176 0 307 -95q167 -120 196 -331q13 -91 13 -338v-698z" />
    <glyph glyph-name="integral" unicode="&#x222b;" horiz-adv-x="1135" 
d="M222 -525l31 123q46 -22 84 -22q89 0 113 75q11 32 11 187v1399q2 158 4 190.5t13 69.5q21 68 84 108t150 40q55 0 127 -24l-31 -122q-45 22 -85 22q-89 0 -113 -75q-10 -34 -10 -154v-1430q0 -156 -7 -209.5t-32 -92.5q-30 -47 -96.5 -76t-145.5 -29q-48 0 -97 20z" />
    <glyph glyph-name="similar" unicode="&#x223c;" horiz-adv-x="1097" 
d="M102 406l-78 52q115 235 291 235q84 0 256 -88q92 -48 132.5 -62.5t79.5 -14.5q64 0 109.5 35t102.5 128l77 -53q-110 -233 -302 -233q-47 0 -96 18.5t-180 85.5q-118 60 -185 60q-60 0 -106.5 -36.5t-100.5 -126.5z" />
    <glyph glyph-name="uni2243" unicode="&#x2243;" horiz-adv-x="1097" 
d="M102 661l-78 52q115 235 291 235q84 0 256 -88q92 -48 132.5 -62.5t79.5 -14.5q64 0 109.5 35t102.5 128l77 -52q-110 -234 -302 -234q-47 0 -95.5 18.5t-180.5 85.5q-118 60 -185 60q-59 0 -106 -36.5t-101 -126.5zM73 484h950v-122h-950v122z" />
    <glyph glyph-name="approxequal" unicode="&#x2248;" horiz-adv-x="1214" 
d="M161 343l-78 53q115 235 291 235q84 0 256 -89q92 -48 132.5 -62.5t79.5 -14.5q64 0 109.5 35t102.5 128l77 -52q-110 -234 -302 -234q-47 0 -96 18.5t-180 86.5q-118 60 -185 60q-60 0 -106.5 -37t-100.5 -127zM161 661l-78 52q115 235 291 235q84 0 256 -88
q92 -48 132.5 -62.5t79.5 -14.5q64 0 109.5 35t102.5 128l77 -52q-110 -234 -302 -234q-47 0 -95.5 18.5t-180.5 85.5q-118 60 -185 60q-59 0 -106 -36.5t-101 -126.5z" />
    <glyph glyph-name="notequal" unicode="&#x2260;" horiz-adv-x="1214" 
d="M659 946l129 266l98 -36l-111 -230h308v-115h-358l-108 -228h465v-115h-511l-133 -276l-98 36l114 240h-323v115h369l109 228h-478v115h528z" />
    <glyph glyph-name="equivalence" unicode="&#x2261;" horiz-adv-x="1097" 
d="M73 1133h951v-122h-951v122zM73 792h951v-122h-951v122zM73 451h951v-122h-951v122z" />
    <glyph glyph-name="lessequal" unicode="&#x2264;" horiz-adv-x="1214" 
d="M1083 1280v-131l-799 -322l798 -321l1 -131l-951 392v121zM1083 311v-122h-951v122h951z" />
    <glyph glyph-name="greaterequal" unicode="&#x2265;" horiz-adv-x="1214" 
d="M132 375l1 131l798 321l-799 322v131l951 -392v-121zM132 189v122h951v-122h-951z" />
    <glyph glyph-name="dotmath" unicode="&#x22c5;" horiz-adv-x="569" 
d="M369 650v-219h-168v219h168z" />
    <glyph glyph-name="house" unicode="&#x2302;" horiz-adv-x="1652" 
d="M184 0v878l642 722l642 -722v-878h-1284zM301 113h1050v720l-525 591l-525 -591v-720z" />
    <glyph glyph-name="revlogicalnot" unicode="&#x2310;" horiz-adv-x="1097" 
d="M207 0h-134v602h951v-122h-817v-480z" />
    <glyph glyph-name="integraltp" unicode="&#x2320;" horiz-adv-x="1097" 
d="M618 -548h-139v1785q2 158 4 190.5t14 70.5q21 68 83.5 108t149.5 40q55 0 127 -25l-31 -122q-45 23 -85 23q-89 0 -112 -75q-11 -34 -11 -155v-1840z" />
    <glyph glyph-name="integralbt" unicode="&#x2321;" horiz-adv-x="1097" 
d="M478 1645h139v-1785q-1 -157 -3.5 -189.5t-14.5 -71.5q-20 -68 -83 -108t-149 -40q-56 0 -128 24l31 123q46 -23 85 -23q88 0 112 75q11 33 11 154v1841z" />
    <glyph glyph-name="SF100000" unicode="&#x2500;" 
d="M0 476v145h2193v-145h-2193z" />
    <glyph glyph-name="SF110000" unicode="&#x2502;" 
d="M1025 -548v2193h145v-2193h-145z" />
    <glyph glyph-name="SF010000" unicode="&#x250c;" 
d="M2193 621v-145h-1023v-1024h-145v1169h1168z" />
    <glyph glyph-name="SF030000" unicode="&#x2510;" 
d="M1025 476h-1025v145h1170v-1169h-145v1024z" />
    <glyph glyph-name="SF020000" unicode="&#x2514;" 
d="M1170 621h1023v-145h-1168v1169h145v-1024z" />
    <glyph glyph-name="SF040000" unicode="&#x2518;" 
d="M0 476v145h1025v1024h145v-1169h-1170z" />
    <glyph glyph-name="SF080000" unicode="&#x251c;" 
d="M1170 621h1023v-145h-1023v-1024h-145v2193h145v-1024z" />
    <glyph glyph-name="SF090000" unicode="&#x2524;" 
d="M1025 476h-1025v145h1025v1024h145v-2193h-145v1024z" />
    <glyph glyph-name="SF060000" unicode="&#x252c;" 
d="M1170 476v-1024h-145v1024h-1025v145h2193v-145h-1023z" />
    <glyph glyph-name="SF070000" unicode="&#x2534;" 
d="M1025 621v1024h145v-1024h1023v-145h-2193v145h1025z" />
    <glyph glyph-name="SF050000" unicode="&#x253c;" 
d="M1025 476h-1025v145h1025v1024h145v-1024h1023v-145h-1023v-1024h-145v1024z" />
    <glyph glyph-name="SF430000" unicode="&#x2550;" 
d="M0 332v145h2193v-145h-2193zM0 621v145h2193v-145h-2193z" />
    <glyph glyph-name="SF240000" unicode="&#x2551;" 
d="M880 -548v2193h145v-2193h-145zM1169 -548v2193h145v-2193h-145z" />
    <glyph glyph-name="SF510000" unicode="&#x2552;" 
d="M1025 -548v1314h1168v-145h-1023v-144h1023v-145h-1023v-880h-145z" />
    <glyph glyph-name="SF520000" unicode="&#x2553;" 
d="M1170 476h-145v-1024h-145v1169h1313v-145h-878v-1024h-145v1024z" />
    <glyph glyph-name="SF390000" unicode="&#x2554;" 
d="M1025 621v-1169h-145v1314h1313v-145h-1168zM1315 332v-880h-145v1025h1023v-145h-878z" />
    <glyph glyph-name="SF220000" unicode="&#x2555;" 
d="M1025 332h-1025v145h1025v144h-1025v145h1170v-1314h-145v880z" />
    <glyph glyph-name="SF210000" unicode="&#x2556;" 
d="M1025 476v-1024h-145v1024h-880v145h1315v-1169h-145v1024h-145z" />
    <glyph glyph-name="SF250000" unicode="&#x2557;" 
d="M1170 621h-1170v145h1315v-1314h-145v1169zM880 332h-880v145h1025v-1025h-145v880z" />
    <glyph glyph-name="SF500000" unicode="&#x2558;" 
d="M1025 1645h145v-879h1023v-145h-1023v-144h1023v-145h-1168v1313z" />
    <glyph glyph-name="SF490000" unicode="&#x2559;" 
d="M1170 621v1024h145v-1024h878v-145h-1313v1169h145v-1024h145z" />
    <glyph glyph-name="SF380000" unicode="&#x255a;" 
d="M1025 477h1168v-145h-1313v1313h145v-1168zM1315 766h878v-145h-1023v1024h145v-879z" />
    <glyph glyph-name="SF280000" unicode="&#x255b;" 
d="M1025 766v879h145v-1313h-1170v145h1025v144h-1025v145h1025z" />
    <glyph glyph-name="SF270000" unicode="&#x255c;" 
d="M1025 621h145v1024h145v-1169h-1315v145h880v1024h145v-1024z" />
    <glyph glyph-name="SF260000" unicode="&#x255d;" 
d="M1170 477v1168h145v-1313h-1315v145h1170zM880 766v879h145v-1024h-1025v145h880z" />
    <glyph glyph-name="SF360000" unicode="&#x255e;" 
d="M1025 1645h145v-879h1023v-145h-1023v-144h1023v-145h-1023v-880h-145v2193z" />
    <glyph glyph-name="SF370000" unicode="&#x255f;" 
d="M1315 476v-1024h-145v2193h145v-1024h878v-145h-878zM1025 -548h-145v2193h145v-2193z" />
    <glyph glyph-name="SF420000" unicode="&#x2560;" 
d="M880 -548v2193h145v-2193h-145zM1315 766h878v-145h-1023v1024h145v-879zM1315 332v-880h-145v1025h1023v-145h-878z" />
    <glyph glyph-name="SF190000" unicode="&#x2561;" 
d="M1025 766v879h145v-2193h-145v880h-1025v145h1025v144h-1025v145h1025z" />
    <glyph glyph-name="SF200000" unicode="&#x2562;" 
d="M880 476h-880v145h880v1024h145v-2193h-145v1024zM1170 -548v2193h145v-2193h-145z" />
    <glyph glyph-name="SF230000" unicode="&#x2563;" 
d="M1315 -548h-145v2193h145v-2193zM880 766v879h145v-1024h-1025v145h880zM880 332h-880v145h1025v-1025h-145v880z" />
    <glyph glyph-name="SF470000" unicode="&#x2564;" 
d="M0 766h2193v-145h-2193v145zM1025 332h-1025v145h2193v-145h-1023v-880h-145v880z" />
    <glyph glyph-name="SF480000" unicode="&#x2565;" 
d="M880 476h-880v145h2193v-145h-878v-1024h-145v1024h-145v-1024h-145v1024z" />
    <glyph glyph-name="SF410000" unicode="&#x2566;" 
d="M0 766h2193v-145h-2193v145zM1315 332v-880h-145v1025h1023v-145h-878zM880 332h-880v145h1025v-1025h-145v880z" />
    <glyph glyph-name="SF450000" unicode="&#x2567;" 
d="M0 332v145h2193v-145h-2193zM1025 766v879h145v-879h1023v-145h-2193v145h1025z" />
    <glyph glyph-name="SF460000" unicode="&#x2568;" 
d="M0 476v145h880v1024h145v-1024h145v1024h145v-1024h878v-145h-2193z" />
    <glyph glyph-name="SF400000" unicode="&#x2569;" 
d="M0 332v145h2193v-145h-2193zM1315 766h878v-145h-1023v1024h145v-879zM880 766v879h145v-1024h-1025v145h880z" />
    <glyph glyph-name="SF540000" unicode="&#x256a;" 
d="M1025 477v144h-1025v145h1025v879h145v-879h1023v-145h-1023v-144h1023v-145h-1023v-880h-145v880h-1025v145h1025z" />
    <glyph glyph-name="SF530000" unicode="&#x256b;" 
d="M880 476h-880v145h880v1024h145v-1024h145v1024h145v-1024h878v-145h-878v-1024h-145v1024h-145v-1024h-145v1024z" />
    <glyph glyph-name="SF440000" unicode="&#x256c;" 
d="M1315 766h878v-145h-1023v1024h145v-879zM880 766v879h145v-1024h-1025v145h880zM1315 332v-880h-145v1025h1023v-145h-878zM880 332h-880v145h1025v-1025h-145v880z" />
    <glyph glyph-name="upblock" unicode="&#x2580;" 
d="M0 548v1097h2193v-1097h-2193z" />
    <glyph glyph-name="dnblock" unicode="&#x2584;" 
d="M0 -548v1096h2193v-1096h-2193z" />
    <glyph glyph-name="block" unicode="&#x2588;" 
d="M0 -548v2193h2193v-2193h-2193z" />
    <glyph glyph-name="lfblock" unicode="&#x258c;" 
d="M0 -548v2193h1097v-2193h-1097z" />
    <glyph glyph-name="rtblock" unicode="&#x2590;" 
d="M1097 -548v2193h1097v-2193h-1097z" />
    <glyph glyph-name="ltshade" unicode="&#x2591;" 
d="M0 1645h219v-219h-219v219zM439 1645h219v-219h-219v219zM1755 1645h219v-219h-219v219zM877 1645h219v-219h-219v219zM1316 1645h219v-219h-219v219zM0 1206h219v-219h-219v219zM0 768h219v-219h-219v219zM0 329h219v-219h-219v219zM0 -110h219v-219h-219v219zM439 1206
h219v-219h-219v219zM439 768h219v-219h-219v219zM439 329h219v-219h-219v219zM439 -110h219v-219h-219v219zM877 1206h219v-219h-219v219zM877 768h219v-219h-219v219zM877 329h219v-219h-219v219zM877 -110h219v-219h-219v219zM1316 1206h219v-219h-219v219zM1316 768h219
v-219h-219v219zM1316 329h219v-219h-219v219zM1316 -110h219v-219h-219v219zM1755 1206h219v-219h-219v219zM1755 768h219v-219h-219v219zM1755 329h219v-219h-219v219zM1755 -110h219v-219h-219v219z" />
    <glyph glyph-name="shade" unicode="&#x2592;" 
d="M1974 -328h220v-220h-220v220h-219v-220h-220v220h-219v-220h-220v220h-219v-220h-219v220h-219v-220h-220v220h-219v219h219v-219h220v219h219v-219h219v219h219v-219h220v219h219v-219h220v219h219v219h-219v-219h-220v219h-219v-219h-220v219h-219v-219h-219v219h-219
v-219h-220v219h-219v220h219v-220h220v220h219v-220h219v220h219v-220h220v220h219v-220h220v220h219v219h-219v-219h-220v219h-219v-219h-220v219h-219v-219h-219v219h-219v-219h-220v219h-219v219h219v-219h220v219h219v-219h219v219h219v-219h220v219h219v-219h220v219
h219v219h-219v-219h-220v219h-219v-219h-220v219h-219v-219h-219v219h-219v-219h-220v219h-219v220h219v-220h220v220h219v-220h219v220h219v-220h220v220h219v-220h220v220h219v219h-219v-219h-220v219h-219v-219h-220v219h-219v-219h-219v219h-219v-219h-220v219h-219v219
h219v-219h220v219h219v-219h219v219h219v-219h220v219h219v-219h220v219h219v-219h220v-219h-220v-220h220v-219h-220v-219h220v-219h-220v-220h220v-219h-220v-219z" />
    <glyph glyph-name="dkshade" unicode="&#x2593;" 
d="M2193 -548h-2193v219h219v219h-219v219h219v220h-219v219h219v220h-219v219h219v220h-219v219h219v219h219v-219h220v219h219v-219h220v219h219v-219h220v219h219v-219h219v219h219v-2193zM1974 1207h-219v-220h219v220zM1536 1207h-220v-220h220v220zM1097 1207h-220
v-220h220v220zM658 1207h-220v-220h220v220zM1974 768h-219v-220h219v220zM1536 768h-220v-220h220v220zM1097 768h-220v-220h220v220zM658 768h-220v-220h220v220zM1974 329h-219v-220h219v220zM1536 329h-220v-220h220v220zM1097 329h-220v-220h220v220zM658 329h-220
v-220h220v220zM1974 -110h-219v-219h219v219zM1536 -110h-220v-219h220v219zM1097 -110h-220v-219h220v219zM658 -110h-220v-219h220v219z" />
    <glyph glyph-name="filledbox" unicode="&#x25a0;" horiz-adv-x="1462" 
d="M1462 0h-1462v1462h1462v-1462z" />
    <glyph glyph-name="filledrect" unicode="&#x25ac;" horiz-adv-x="1462" 
d="M1462 731v-731h-1462v731h1462z" />
    <glyph glyph-name="triagup" unicode="&#x25b2;" horiz-adv-x="1462" 
d="M1389 146h-1316l658 1231z" />
    <glyph glyph-name="triagrt" unicode="&#x25ba;" horiz-adv-x="1462" 
d="M1395 739l-1241 -439v877z" />
    <glyph glyph-name="triagdn" unicode="&#x25bc;" horiz-adv-x="1462" 
d="M73 1316h1316l-658 -1231z" />
    <glyph glyph-name="triaglf" unicode="&#x25c4;" horiz-adv-x="1462" 
d="M68 739l1241 438v-877z" />
    <glyph glyph-name="lozenge" unicode="&#x25ca;" horiz-adv-x="1214" 
d="M607 1520l570 -788l-570 -788l-569 788zM607 1248l-375 -516l375 -516l376 516z" />
    <glyph glyph-name="circle" unicode="&#x25cb;" horiz-adv-x="1462" 
d="M732 1293q236 0 403 -164q167 -163 167 -396q0 -231 -165 -395q-80 -81 -186 -124q-106 -44 -219 -44q-239 0 -406 167q-165 164 -165 404q0 152 84 285q82 132 227 206q122 61 260 61zM733 1191q-195 0 -334 -135q-136 -133 -136 -328q0 -185 135 -319
q138 -137 333 -137q196 0 334 137q135 135 135 324q0 91 -36 176.5t-101 147.5q-140 134 -330 134z" />
    <glyph glyph-name="invbullet" unicode="&#x25d8;" horiz-adv-x="1462" 
d="M0 0v1462h1462v-1462h-1462zM728 1038q-120 0 -209 -89q-89 -90 -89 -218t90 -218q88 -89 211 -89q125 0 213 90t88 216q0 131 -89 219q-90 89 -215 89z" />
    <glyph glyph-name="invcircle" unicode="&#x25d9;" horiz-adv-x="1462" 
d="M732 1192q193 0 330 -135q137 -134 137 -325q0 -190 -135 -325q-138 -137 -332 -137q-197 0 -334 137q-135 135 -135 332q0 87 36.5 172t99.5 145q141 136 333 136zM1462 0h-1462v1462h1462v-1462zM733 1292q-237 0 -406 -165q-166 -162 -166 -400q0 -151 83 -286
q83 -137 227 -209q123 -62 259 -62q161 0 300 84q137 83 210 226q61 119 61 252q0 159 -84 294q-82 132 -228 205q-120 61 -256 61z" />
    <glyph glyph-name="openbullet" unicode="&#x25e6;" horiz-adv-x="1056" 
d="M530 1052q120 0 208 -89q89 -90 89 -218q0 -127 -88 -216q-88 -90 -213 -90q-124 0 -212 89q-90 90 -90 217q0 131 89 218q91 89 217 89zM524 948q-80 0 -138 -58q-59 -60 -59 -144q0 -85 59 -144q58 -59 140 -59t140 59q58 60 58 143q0 85 -58 144t-142 59z" />
    <glyph glyph-name="smileface" unicode="&#x263a;" horiz-adv-x="1462" 
d="M526 1021q39 0 67 -28.5t28 -67.5q0 -40 -28 -68t-68 -28t-68.5 28.5t-28.5 68.5q0 39 29 67t69 28zM951 1022q39 0 67 -28.5t28 -68.5t-28.5 -68.5t-67.5 -28.5q-40 0 -68.5 28.5t-28.5 69.5q0 40 28.5 68t69.5 28zM1184 816q-9 -133 -33 -209.5t-78 -144.5
q-122 -153 -341 -153q-239 0 -361 181q-43 64 -62.5 133.5t-28.5 192.5q17 -72 35.5 -111.5t55.5 -82.5q134 -154 361 -154t361 154q37 43 55.5 82.5t35.5 111.5zM742 1426q178 0 336 -93q162 -95 254 -254q93 -160 93 -347q0 -186 -93 -348q-93 -161 -254 -254t-348 -93
q-186 0 -347 93q-162 93 -254 254q-93 162 -93 353q0 300 230 510q196 179 476 179zM722 1334q-154 0 -291 -81q-140 -83 -220 -221q-81 -139 -81 -300q0 -162 81 -302t220 -220q140 -81 301 -81t301 81t220 220q81 141 81 306q0 260 -199 443q-170 155 -413 155z" />
    <glyph glyph-name="invsmileface" unicode="&#x263b;" horiz-adv-x="1462" 
d="M742 1426q178 0 336 -93q162 -95 254 -254q93 -160 93 -347q0 -186 -93 -348q-93 -161 -254 -254t-348 -93q-186 0 -347 93q-162 93 -254 254q-93 162 -93 353q0 300 230 510q196 179 476 179zM522 1021q-38 0 -66 -28.5t-28 -67.5t28.5 -67.5t67.5 -28.5q40 0 68 28
t28 69q0 40 -28.5 67.5t-69.5 27.5zM948 1022q-39 0 -67 -28.5t-28 -68.5t28.5 -68.5t68.5 -28.5t68 28.5t28 69.5q0 40 -28.5 68t-69.5 28zM1184 816q-17 -72 -35.5 -111.5t-55.5 -82.5q-134 -154 -361 -154q-226 0 -361 154q-37 43 -55.5 82.5t-35.5 111.5
q10 -133 34 -209t77 -143q122 -152 341 -152q240 0 361 180q44 65 63 133.5t28 190.5z" />
    <glyph glyph-name="sun" unicode="&#x263c;" horiz-adv-x="1462" 
d="M349 1037l-163 162l77 77l164 -163q112 87 248 104v231h110v-231q142 -19 250 -104l163 163l78 -77l-164 -162q84 -108 103 -249h231v-113h-231q-17 -138 -103 -248l164 -163l-78 -77l-163 163q-111 -84 -250 -103v-231h-110v231q-126 14 -248 103l-164 -163l-77 77
l163 163q-86 108 -102 248h-231v113h231q19 139 102 249zM724 1082q-149 0 -253 -116q-89 -99 -89 -234q0 -156 115 -259q100 -90 233 -90q155 0 260 115q89 99 89 237q0 152 -116 257q-98 90 -239 90z" />
    <glyph glyph-name="female" unicode="&#x2640;" horiz-adv-x="1462" 
d="M677 689q-101 17 -178 73q-77 57 -120 142.5t-43 182.5q0 166 117 284q115 117 276 117q163 0 279 -116q118 -118 118 -285q0 -131 -77 -237q-98 -134 -270 -161v-230h360v-95h-360v-364h-102v364h-354v95h354v230zM728 1386q-116 0 -203 -86q-87 -87 -87 -211t88 -212
q86 -86 205 -86t206 87q86 87 86 210q0 127 -87 212q-88 86 -208 86z" />
    <glyph glyph-name="male" unicode="&#x2642;" horiz-adv-x="1462" 
d="M917 762q78 -105 78 -240q0 -166 -115 -283q-116 -118 -279 -118t-278 116q-118 119 -118 286t117 285q116 116 279 116q136 0 245 -86l331 330q-112 26 -232 89q-47 24 -47 50q0 27 30 27q12 0 43 -6q93 -19 183 -19q120 0 231 29q12 3 21 3q23 0 23 -23q0 -9 -11 -49
q-23 -84 -23 -196q0 -89 20 -180q7 -30 7 -43q0 -30 -27 -30q-14 0 -22.5 7.5t-28.5 38.5q-62 94 -94 229zM598 822q-118 0 -204 -87q-87 -87 -87 -212t87 -213q86 -87 206 -87q122 0 207 88q86 88 86 211q0 127 -86 213q-88 87 -209 87z" />
    <glyph glyph-name="spade" unicode="&#x2660;" horiz-adv-x="1462" 
d="M236 0v41q154 28 227 62t137 107q116 135 124 349q-19 -43 -29 -60q-37 -63 -105 -107q-86 -56 -185 -56q-105 0 -182 76q-84 82 -84 198q0 99 51 177q65 99 176 192q309 252 358 525q47 -133 70 -179q34 -70 92.5 -138t170.5 -169q123 -111 168 -166q99 -121 99 -245
q0 -96 -58 -168q-80 -101 -210 -101q-95 0 -168.5 53t-137.5 168q8 -127 38 -208.5t92 -147.5q51 -56 109.5 -86.5t160.5 -55.5q35 -8 95 -20v-41h-1009z" />
    <glyph glyph-name="club" unicode="&#x2663;" horiz-adv-x="1462" 
d="M1231 0h-999v41q195 35 275 91q109 76 157 184t52 285q-47 -82 -73 -115q-55 -69 -133 -112q-92 -52 -188 -52q-138 0 -234 110q-82 93 -82 223q0 138 90 235q81 87 200 87q45 0 72 -9t117 -53q-78 115 -78 218q0 131 96 223q94 91 229 91q131 0 224 -87q99 -93 99 -227
q0 -105 -77 -218q28 13 42 20q85 42 147 42q127 0 210 -99q80 -95 80 -223q0 -151 -105 -248q-92 -86 -216 -86q-80 0 -165 42.5t-141 109.5q-28 34 -84 128q4 -143 31 -230q39 -129 155 -221q51 -41 112 -63t187 -46v-41z" />
    <glyph glyph-name="heart" unicode="&#x2665;" horiz-adv-x="1462" 
d="M729 -23q-38 144 -105 262q-55 96 -99 160t-204 280q-118 161 -158 247t-40 180q0 128 84 213q82 82 200 82q164 0 262 -149q31 -46 60 -135q32 113 85 174q96 112 236 112q133 0 219 -99q71 -82 71 -187q0 -110 -53 -221.5t-188 -282.5q-312 -389 -370 -636z" />
    <glyph glyph-name="diamond" unicode="&#x2666;" horiz-adv-x="1462" 
d="M729 1520q80 -145 260.5 -399.5t297.5 -387.5q-52 -57 -286 -370q-143 -192 -272 -419q-49 102 -194 309t-334 448l-26 32q50 60 279 362q154 204 275 425z" />
    <glyph glyph-name="musicalnote" unicode="&#x266a;" horiz-adv-x="1462" 
d="M670 342v1120h102v-133q27 -35 147 -179q200 -238 200 -492q0 -204 -126 -356h-61q84 167 84 325q0 97 -34.5 182.5t-96.5 141.5q-54 50 -113 58v-667q0 -133 -64 -222q-41 -58 -105 -95q-77 -44 -165 -44q-70 0 -110.5 35.5t-40.5 97.5q0 54 30 110t77 91q72 52 158 52
q62 0 118 -25z" />
    <glyph glyph-name="musicalnotedbl" unicode="&#x266b;" horiz-adv-x="1462" 
d="M472 1414l835 -123v-978q0 -148 -63 -236q-45 -65 -117 -102.5t-149 -37.5q-71 0 -113 36t-42 97q0 55 29.5 109.5t77.5 90.5q71 53 160 53q60 0 117 -24v804l-635 96v-763q0 -148 -63 -236q-45 -65 -117 -102.5t-149 -37.5q-71 0 -113 36t-42 97q0 55 29.5 109.5
t77.5 90.5q71 53 160 53q60 0 117 -24v992z" />
    <glyph glyph-name="glyph172" horiz-adv-x="1139" 
 />
    <glyph glyph-name="glyph210" horiz-adv-x="569" 
 />
    <glyph glyph-name="Commaaccent" horiz-adv-x="1097" 
d="M626 -124v-134q3 -197 -155 -238v66q42 22 59.5 52.5t23.5 89.5h-68v164h140z" />
    <glyph glyph-name="Macron" horiz-adv-x="1097" 
d="M881 1759v-92h-664v92h664z" />
    <glyph glyph-name="Ogonek" horiz-adv-x="1097" 
d="M973 0h91q-149 -94 -149 -198q0 -54 53 -80q38 -17 81 -17q35 0 91 18v-77q-66 -22 -122 -22q-105 0 -163 53q-49 46 -49 111q0 115 167 212z" />
    <glyph glyph-name="Cedilla" horiz-adv-x="1097" 
d="M614 0l-91 -123q50 9 74 9q69 0 115 -38.5t46 -95.5q0 -77 -62.5 -126t-162.5 -49q-84 0 -192 41l28 63q81 -34 150 -34q54 0 88 26.5t34 67.5q0 36 -29.5 58.5t-75.5 22.5q-35 0 -88 -18l-32 31l123 165h75z" />
    <glyph glyph-name="Hungarumlaut" horiz-adv-x="1097" 
d="M982 1860l-237 -276h-98l176 276h159zM646 1860l-237 -276h-98l176 276h159z" />
    <glyph glyph-name="Tilde" horiz-adv-x="1097" 
d="M872 1823q-38 -199 -179 -199q-39 0 -75 13t-140 63q-38 18 -74 18q-74 0 -102 -102h-77q17 97 65 148t123 51q57 0 136 -40q73 -36 96 -44.5t49 -8.5q73 0 99 101h79z" />
    <glyph glyph-name="commareversed" horiz-adv-x="1097" 
d="M475 1253v134q-4 197 155 238v-66q-43 -22 -60.5 -52t-22.5 -90h68v-164h-140z" />
    <glyph glyph-name="dieresis.alt" horiz-adv-x="1097" 
d="M741 1462v-209h-131v209h131zM487 1462v-209h-132v209h132z" />
    <glyph glyph-name="comma.high" horiz-adv-x="1097" 
d="M845 1462v-134q3 -197 -155 -238v66q76 37 83 142h-68v164h140z" />
    <glyph glyph-name="commaaccent" horiz-adv-x="569" 
d="M364 -124v-134q3 -197 -155 -238v66q42 22 59.5 52.5t23.5 89.5h-68v164h140z" />
    <glyph glyph-name="percent.frac" horiz-adv-x="1837" 
d="M371 1455q180 0 259 -152q55 -105 55 -295q0 -183 -53 -287q-79 -154 -264 -154q-319 0 -319 431q0 202 57 308q80 149 265 149zM365 1375q-218 0 -218 -379q0 -348 221 -348q220 0 220 362q0 365 -223 365zM1400 1436l-868 -1436h-98l870 1436h96zM1474 870
q86 0 154 -39.5t106 -112.5q54 -105 54 -297q0 -181 -53 -284q-79 -155 -264 -155q-319 0 -319 433q0 455 322 455zM1468 790q-218 0 -218 -378q0 -349 221 -349q220 0 220 362q0 365 -223 365z" />
    <glyph glyph-name="Dieresis" horiz-adv-x="1097" 
d="M839 1821v-205h-139v205h139zM396 1821v-205h-139v205h139z" />
    <glyph glyph-name="Dotaccent" horiz-adv-x="1097" 
d="M617 1821v-205h-139v205h139z" />
    <glyph glyph-name="Ring" horiz-adv-x="1097" 
d="M551 1967q91 0 155 -70q54 -60 54 -142q0 -95 -70 -158q-61 -54 -142 -54q-95 0 -158 70q-54 61 -54 144q0 91 70 155q60 55 145 55zM546 1882q-51 0 -88 -37.5t-37 -89.5q0 -53 37 -90t90 -37t90 37.5t37 90.5t-37.5 89.5t-91.5 36.5z" />
    <glyph glyph-name="Acute" horiz-adv-x="1097" 
d="M849 1860l-289 -276h-107l227 276h169z" />
    <glyph glyph-name="Grave" horiz-adv-x="1097" 
d="M248 1860h168l228 -276h-108z" />
    <glyph glyph-name="Circumflex" horiz-adv-x="1097" 
d="M869 1584h-130l-195 199l-199 -199h-117l252 276h134z" />
    <glyph glyph-name="Caron" horiz-adv-x="1097" 
d="M228 1860h130l195 -199l199 199h117l-252 -276h-134z" />
    <glyph glyph-name="Breve" horiz-adv-x="1097" 
d="M844 1860q-13 -91 -52 -149q-80 -120 -247 -120q-127 0 -206 72.5t-87 196.5h81q12 -61 40 -98q60 -77 176 -77q175 0 215 175h80z" />
    <glyph glyph-name="Dieresis.alt" horiz-adv-x="1097" 
d="M751 1821v-205h-139v205h139zM484 1821v-205h-139v205h139z" />
    <glyph glyph-name="Comma.high" horiz-adv-x="1097" 
d="M853 1462v-134q3 -197 -155 -238v66q76 37 83 142h-68v164h140z" />
    </font>
</defs>
</svg>
