<?xml version="1.0" standalone="no"?>
<!DOCTYPE svg PUBLIC "-//W3C//DTD SVG 1.1//EN" "http://www.w3.org/Graphics/SVG/1.1/DTD/svg11.dtd" >
<svg xmlns="http://www.w3.org/2000/svg" xmlns:xlink="http://www.w3.org/1999/xlink" version="1.1">
<metadata>
Created by FontForge 20161013 at Fri Feb  5 12:28:22 2016
 By ,,,
(URW)++,Copyright 2014 by (URW)++ Design &#38; Development
</metadata>
<defs>
<font id="SBBWeb-Roman" horiz-adv-x="1139" >
  <font-face 
    font-family="SBB Web"
    font-weight="400"
    font-stretch="normal"
    units-per-em="2048"
    panose-1="0 0 0 0 0 0 0 0 0 0"
    ascent="1638"
    descent="-410"
    x-height="1092"
    cap-height="1462"
    bbox="-306 -548 2611 2223"
    underline-thickness="139"
    underline-position="-413"
    unicode-range="U+0020-FB04"
  />
<missing-glyph horiz-adv-x="569" 
d="M57 0v1462h455v-1462h-455zM455 57v1348h-341v-1348h341z" />
    <glyph glyph-name="afii61352" unicode="Nr&#x2e;" horiz-adv-x="2187" 
d="M1301 1462v-1462h-213l-778 1184l6 -1184h-185v1462h209l783 -1200l-7 1200h185zM1750 1026q148 0 240 -99q86 -94 86 -256q0 -178 -102 -275q-85 -80 -225 -80q-162 0 -252 103q-84 97 -84 252q0 149 76 242q93 113 261 113zM1743 920q-92 0 -147.5 -68t-55.5 -181
q0 -117 55 -183t153 -66q82 0 132 50q69 68 69 200q0 122 -60 188q-54 60 -146 60zM1419 183h686v-139h-686v139z" />
    <glyph glyph-name="ff" unicode="ff" horiz-adv-x="1077" 
d="M533 1092l153 -2q0 162 15 216q21 80 91.5 124t176.5 44q50 0 122 -8v-157q-53 11 -99 11q-80 0 -106 -29.5t-26 -118.5v-80h204v-150h-204v-942h-174v942h-356v-942h-174v942h-178v150l178 -2q0 162 15 216q21 80 91.5 124t176.5 44q48 0 122 -8v-157q-54 11 -100 11
q-79 0 -105 -29.5t-26 -118.5v-80h203z" />
    <glyph glyph-name="fi" unicode="fi" horiz-adv-x="1061" 
d="M938 1462v-220h-174v220h174zM938 1093v-1093h-174v1093h174zM591 1466v-157q-53 11 -99 11q-80 0 -106 -29.5t-26 -118.5v-80h204v-150h-204v-942h-174v942h-178v150l178 -2q0 162 15 216q21 80 91.5 124t176.5 44q50 0 122 -8z" />
    <glyph glyph-name="fl" unicode="fl" horiz-adv-x="1061" 
d="M938 1462v-1462h-174v1462h174zM591 1466v-157q-53 11 -99 11q-80 0 -106 -29.5t-26 -118.5v-80h204v-150h-204v-942h-174v942h-178v150l178 -2q0 162 15 216q21 80 91.5 124t176.5 44q50 0 122 -8z" />
    <glyph glyph-name="ffi" unicode="ffi" horiz-adv-x="1553" 
d="M533 1092l153 -2q0 162 15 216q21 80 91.5 124t176.5 44q50 0 122 -8v-157q-53 11 -99 11q-80 0 -106 -29.5t-26 -118.5v-80h204v-150h-204v-942h-174v942h-356v-942h-174v942h-178v150l178 -2q0 162 15 216q21 80 91.5 124t176.5 44q48 0 122 -8v-157q-54 11 -100 11
q-79 0 -105 -29.5t-26 -118.5v-80h203zM1433 1462v-220h-174v220h174zM1433 1093v-1093h-174v1093h174z" />
    <glyph glyph-name="ffl" unicode="ffl" horiz-adv-x="1567" 
d="M533 1092l158 -2q0 162 14 216q22 80 92.5 124t176.5 44q47 0 122 -8v-157q-55 11 -100 11q-79 0 -105 -29.5t-26 -118.5v-80h203v-150h-203v-942h-174v942h-361v-942h-174v942h-178v150l178 -2q0 162 15 216q21 80 91.5 124t176.5 44q48 0 122 -8v-157q-54 11 -100 11
q-79 0 -105 -29.5t-26 -118.5v-80h203zM1447 1462v-1462h-174v1462h174z" />
    <glyph glyph-name=".notdef" horiz-adv-x="569" 
d="M57 0v1462h455v-1462h-455zM455 57v1348h-341v-1348h341z" />
    <glyph glyph-name="glyph1" horiz-adv-x="0" 
 />
    <glyph glyph-name="glyph2" horiz-adv-x="569" 
 />
    <glyph glyph-name="space" unicode=" " horiz-adv-x="569" 
 />
    <glyph glyph-name="exclam" unicode="!" horiz-adv-x="530" 
d="M363 1462v-448l-50 -650h-95l-48 650v448h193zM373 206v-206h-215v206h215z" />
    <glyph glyph-name="quotedbl" unicode="&#x22;" horiz-adv-x="872" 
d="M665 874h-85l-29 588h144zM290 874h-84l-29 588h143z" />
    <glyph glyph-name="numbersign" unicode="#" 
d="M769 492l-58 -414h-115l58 414h-244l-58 -414h-116l59 414h-259l16 113h259l32 231h-259l16 113h259l54 382h115l-54 -382h244l54 382h115l-54 -382h269l-16 -113h-269l-32 -231h269l-16 -113h-269zM702 836h-244l-32 -231h244z" />
    <glyph glyph-name="dollar" unicode="$" 
d="M71 446h170q0 -304 275 -320v553q-153 26 -258 93q-160 101 -160 299q0 169 113.5 275.5t304.5 115.5v179h110v-179q190 -15 288 -112q106 -104 104 -274h-168q-16 237 -224 245v-501q126 -32 174.5 -49t90.5 -44q167 -108 167 -329q0 -228 -186 -347q-89 -57 -246 -66
v-220h-110v220q-225 14 -334 134q-112 124 -111 327zM626 126q116 1 190 72.5t74 183.5q0 115 -64 181.5t-200 91.5v-529zM516 1322q-97 -3 -152 -41q-98 -68 -98 -196q0 -100 61 -158t189 -80v475z" />
    <glyph glyph-name="percent" unicode="%" horiz-adv-x="2048" 
d="M1504 1500l-819 -1570h-140l823 1570h136zM1530 793q154 0 236 -100.5t82 -289.5q0 -432 -334 -432q-169 0 -253 112q-75 101 -75 284q0 202 80 308q89 118 264 118zM1517 676q-174 0 -174 -299q0 -290 175 -290t175 297q0 292 -176 292zM542 1459q156 0 238 -100.5
t82 -292.5q0 -210 -88 -323q-83 -106 -243 -106q-330 0 -330 414q0 197 88.5 302.5t252.5 105.5zM530 1340q-174 0 -174 -298q0 -288 175 -288q179 0 179 306q0 142 -44.5 211t-135.5 69z" />
    <glyph glyph-name="ampersand" unicode="&#x26;" horiz-adv-x="1290" 
d="M1136 693q-3 -87 -33 -195.5t-67 -167.5l285 -330h-227l-156 184q-27 -47 -96 -105q-131 -110 -330 -110q-211 0 -339 130q-107 110 -107 282q0 196 166 327q96 77 177 113q-84 101 -121.5 181.5t-37.5 159.5q0 137 95 223t246 86q144 0 235 -80q99 -87 99 -224
q0 -232 -268 -380l265 -323q44 123 48 229h166zM563 900q101 60 147 120t46 132q0 73 -48 126q-45 50 -119 50q-73 0 -122 -46t-49 -114q0 -71 64 -162q17 -24 81 -106zM504 709l-12 -6q-99 -57 -153 -109q-92 -90 -92 -206q0 -103 79 -186q79 -84 202 -84q93 0 166 43.5
t147 142.5z" />
    <glyph glyph-name="quotesingle" unicode="'" horiz-adv-x="569" 
d="M326 874h-84l-29 588h143z" />
    <glyph glyph-name="parenleft" unicode="(" horiz-adv-x="530" 
d="M550 1462q-132 -202 -202 -445.5t-70 -498.5q0 -244 70 -483t202 -447h-134l-9 15q-111 177 -152 257.5t-82 199.5q-76 224 -76 455q0 305 116 584q85 205 203 363h134z" />
    <glyph glyph-name="parenright" unicode=")" horiz-adv-x="530" 
d="M-20 -412q130 198 201 444t71 500q0 245 -69.5 482t-202.5 448h134q8 -14 75 -121q244 -390 244 -805q0 -305 -116 -585q-86 -207 -203 -363h-134z" />
    <glyph glyph-name="asterisk" unicode="*" horiz-adv-x="721" 
d="M673 1211l-224 -78l135 -185l-84 -63l-142 195l-135 -195l-91 63l133 185l-217 78l36 101l219 -83v233h111v-233l218 83z" />
    <glyph glyph-name="plus" unicode="+" horiz-adv-x="1229" 
d="M139 787h406v405h139v-405h406v-139h-406v-407h-139v407h-406v139z" />
    <glyph glyph-name="comma" unicode="," horiz-adv-x="569" 
d="M401 219v-131q0 -108 -13 -168t-47 -108q-61 -88 -174 -117v103q114 38 119 202h-119v219h234z" />
    <glyph glyph-name="hyphen" unicode="-" horiz-adv-x="797" 
d="M647 633v-175h-497v175h497z" />
    <glyph glyph-name="period" unicode="." horiz-adv-x="569" 
d="M404 228v-228h-240v228h240z" />
    <glyph glyph-name="slash" unicode="/" horiz-adv-x="682" 
d="M788 1462l-747 -1874h-148l753 1874h142z" />
    <glyph glyph-name="zero" unicode="0" 
d="M575 1462q196 0 315 -120q91 -91 128 -237t37 -413q0 -298 -70 -461q-54 -128 -158 -194t-251 -66q-314 0 -424 259q-68 160 -68 466q0 188 16 306t53 202q113 258 422 258zM564 1310q-198 0 -257 -199q-40 -135 -40 -410q0 -244 41 -376q30 -97 99.5 -149.5t165.5 -52.5
q129 0 202 95q52 68 74.5 181t22.5 308q0 268 -42 402q-63 201 -266 201z" />
    <glyph glyph-name="one" unicode="1" 
d="M733 1462v-1462h-190v1060h-108h-102h-112h-47v132q207 0 312 78q71 53 111 192h136z" />
    <glyph glyph-name="two" unicode="2" 
d="M1000 158v-158h-951q10 211 112 352q47 64 113.5 118.5t207.5 142.5q205 129 263 196q84 97 84 222q0 121 -79 202q-76 77 -201 77q-134 0 -206 -93t-79 -277h-175q-1 27 -1 37q0 106 36 201t101 160q124 124 333 124q193 0 315 -103q65 -55 102 -141t37 -185
q0 -187 -130 -325q-86 -90 -306 -222q-173 -104 -237 -169t-88 -159h749z" />
    <glyph glyph-name="three" unicode="3" 
d="M92 990q4 155 69 272q112 200 394 200q184 0 307 -101q121 -100 121 -278q0 -104 -52.5 -183.5t-148.5 -120.5q125 -31 195 -123t70 -224q0 -206 -143 -339q-131 -122 -359 -122q-311 0 -433 233q-53 102 -52 252h173q3 -110 47 -189q81 -144 268 -144q149 0 237 91
q79 81 79 199q0 131 -90 207q-47 40 -101.5 56.5t-139.5 16.5q-47 0 -87 -6v147q35 -3 60 -3q132 0 209 59q86 67 86 184q0 106 -70 171t-185 65q-131 0 -204.5 -83t-79.5 -237h-170z" />
    <glyph glyph-name="four" unicode="4" 
d="M1056 501v-146h-196v-355h-165v355h-638v162l661 945h142v-961h196zM695 501v696l-488 -696h488z" />
    <glyph glyph-name="five" unicode="5" 
d="M965 1435v-158h-589l-86 -434q95 115 292 115q192 0 318 -118q144 -133 144 -360q0 -222 -142 -367q-140 -142 -362 -142q-269 0 -398 186q-72 104 -73 235h177q6 -83 52 -149q38 -56 104 -88t141 -32q150 0 242 115q76 95 76 227q0 135 -78 234q-85 107 -244 107
q-180 0 -280 -141l-150 8l137 762h719z" />
    <glyph glyph-name="six" unicode="6" 
d="M1023 1084h-177q-35 228 -248 228t-299 -251q-33 -98 -47 -313q117 190 362 190q198 0 324 -129q124 -125 124 -336q0 -227 -134 -361q-140 -141 -342 -141q-184 0 -311 109q-124 107 -166 302q-30 136 -30 316q0 401 156 595q138 171 371 171q183 0 293 -100.5
t124 -279.5zM578 786q-146 0 -230 -112q-63 -85 -63 -209q0 -134 70 -230q82 -112 230 -112q143 0 223 105q71 94 71 226q0 140 -70 231q-79 101 -231 101z" />
    <glyph glyph-name="seven" unicode="7" 
d="M1042 1433v-154q-11 -14 -69 -80q-194 -222 -321.5 -534t-167.5 -665h-192q23 322 177.5 663.5t395.5 599.5h-763v170h940z" />
    <glyph glyph-name="eight" unicode="8" 
d="M337 781q-95 39 -147.5 119t-52.5 187q0 165 121 270q122 105 312 105q211 0 328 -120q102 -104 102 -246q0 -220 -200 -315q258 -91 258 -353q0 -213 -136 -337q-132 -120 -359 -120q-225 0 -359 130q-123 120 -123 311q0 202 145 310q55 41 111 59zM566 1310
q-109 0 -177.5 -65t-68.5 -168t69 -167t181 -64q121 0 187 72q60 65 60 160q0 112 -71 172q-70 60 -180 60zM563 704q-130 0 -214.5 -81.5t-84.5 -206.5q0 -139 97 -220q88 -73 206 -73q154 0 236 95q72 82 72 197q0 131 -85 209q-86 80 -227 80z" />
    <glyph glyph-name="nine" unicode="9" 
d="M102 354h172q12 -88 57 -141q76 -90 208 -90q125 0 200.5 87.5t110.5 271.5q17 92 18 213q-42 -65 -76 -96q-112 -103 -279 -103q-103 0 -192 40.5t-149 112.5q-103 127 -103 318q0 221 140 363q131 132 339 132q307 0 431 -281q68 -155 68 -433q0 -282 -76 -465
q-64 -153 -176 -232.5t-262 -79.5q-185 0 -303 105t-128 278zM538 1310q-127 0 -209 -97q-77 -91 -77 -241q0 -122 59 -210q78 -114 228 -114q143 0 227 102q71 85 71 217q0 152 -76 242q-85 101 -223 101z" />
    <glyph glyph-name="colon" unicode=":" horiz-adv-x="569" 
d="M404 228v-228h-240v228h240zM404 1060v-228h-240v228h240z" />
    <glyph glyph-name="semicolon" unicode=";" horiz-adv-x="569" 
d="M401 1060v-219h-234v219h234zM401 221v-139q0 -165 -45 -245q-62 -109 -189 -140v102q121 43 118 201h-118v221h234z" />
    <glyph glyph-name="less" unicode="&#x3c;" horiz-adv-x="1229" 
d="M1090 1272v-190l-748 -347l747 -348l1 -188l-951 455v163z" />
    <glyph glyph-name="equal" unicode="=" horiz-adv-x="1229" 
d="M139 621h951v-139h-951v139zM139 951h951v-139h-951v139z" />
    <glyph glyph-name="greater" unicode="&#x3e;" horiz-adv-x="1229" 
d="M140 199v190l747 347l-746 347l-1 189l950 -455v-164z" />
    <glyph glyph-name="question" unicode="?" 
d="M110 1012q7 186 73 288q61 94 162 145t227 51q203 0 323 -115q112 -106 112 -279q0 -143 -76 -246q-34 -47 -163 -173q-57 -55 -79.5 -91.5t-31.5 -90.5q-10 -54 -10 -140h-170q2 153 27 227q18 54 51.5 97t148.5 161q74 76 97 137q19 52 19 106q0 100 -55 168
q-66 83 -195 83q-267 0 -288 -328h-172zM667 208v-208h-216v208h216z" />
    <glyph glyph-name="at" unicode="@" horiz-adv-x="1638" 
d="M1394 383l116 -1q-37 -81 -76 -132t-106 -105q-214 -174 -485 -174q-220 0 -405 118q-177 112 -268 301q-73 152 -73 323q0 213 109 392q97 160 262 254q178 103 386 103q172 0 325 -74q178 -87 273 -247q79 -135 79 -295q0 -258 -198 -418q-140 -113 -279 -113
q-58 0 -101.5 28t-58.5 74q-112 -102 -232 -102q-124 0 -198 103q-50 70 -50 180q0 173 110 326q139 193 319 193q66 0 119.5 -29.5t83.5 -82.5l29 78l145 1l-183 -535q-19 -56 -19 -84q0 -56 66 -56q103 0 208 106q134 135 134 327q0 233 -182 385q-163 136 -388 136
q-186 0 -341 -94q-140 -84 -220 -224q-86 -149 -86 -331q0 -264 178 -448q102 -105 241 -155q107 -38 220 -38q168 0 317 84.5t229 225.5zM914 638l50 139q26 72 26 115q0 53 -33.5 91t-80.5 38q-104 0 -197 -128q-49 -67 -80 -160t-31 -172q0 -71 31.5 -112t86.5 -41
q77 0 139 66q47 50 89 164z" />
    <glyph glyph-name="A" unicode="A" horiz-adv-x="1327" 
d="M774 1468l572 -1468h-215l-163 449h-614l-167 -449h-204l574 1468h217zM911 605l-250 674l-251 -674h501z" />
    <glyph glyph-name="B" unicode="B" horiz-adv-x="1403" 
d="M156 1462h588q214 0 312 -49q90 -45 142.5 -130.5t52.5 -186.5q0 -107 -57.5 -190t-158.5 -122q82 -22 127 -53q154 -104 154 -303q0 -261 -215 -375q-101 -53 -266 -53h-679v1462zM349 1294v-455h348q143 0 211 19q68 20 108.5 77t40.5 133t-35 130t-98 77
q-53 19 -208 19h-367zM349 683v-515h386q200 0 269 35q118 60 118 218q0 178 -159 238q-62 24 -260 24h-354z" />
    <glyph glyph-name="C" unicode="C" horiz-adv-x="1479" 
d="M1398 551q-19 -222 -141 -373q-173 -212 -492 -212q-338 0 -522 239q-156 204 -156 524q0 344 200 564q184 203 493 203q301 0 474 -186q117 -128 132 -286h-194q-33 145 -143.5 226.5t-273.5 81.5q-262 0 -394 -213q-100 -162 -100 -388q0 -240 104 -400
q132 -201 390 -201q186 0 296.5 108.5t134.5 312.5h192z" />
    <glyph glyph-name="D" unicode="D" horiz-adv-x="1442" 
d="M159 1462h525q166 0 272 -32.5t193 -110.5q215 -192 215 -557q0 -391 -206 -600q-90 -92 -188 -127t-264 -35h-547v1462zM352 1294v-1126h316q149 0 225.5 24.5t137.5 91.5q138 154 138 470q0 284 -143 423q-63 62 -142.5 89.5t-195.5 27.5h-336z" />
    <glyph glyph-name="E" unicode="E" horiz-adv-x="1251" 
d="M1169 1462v-168h-820v-463h766v-156h-766v-507h831v-168h-1024v1462h1013z" />
    <glyph glyph-name="F" unicode="F" horiz-adv-x="1176" 
d="M1121 1462v-168h-768v-462h676v-156h-676v-676h-193v1462h961z" />
    <glyph glyph-name="G" unicode="G" horiz-adv-x="1554" 
d="M1428 772v-772h-123l-29 111q-12 45 -21 72q-175 -217 -470 -217q-351 0 -543 253q-155 205 -155 498q0 343 199 567q190 212 512 212q298 0 469 -176q127 -130 145 -307h-190q-21 144 -137.5 231.5t-286.5 87.5q-248 0 -389 -178q-128 -162 -128 -430q0 -246 117 -403
q141 -191 399 -191q199 0 328 126q126 124 130 360h-468v156h641z" />
    <glyph glyph-name="H" unicode="H" horiz-adv-x="1479" 
d="M1318 1462v-1462h-193v685h-772v-685h-193v1462h193v-609h772v609h193z" />
    <glyph glyph-name="I" unicode="I" horiz-adv-x="530" 
d="M362 1462v-1462h-193v1462h193z" />
    <glyph glyph-name="J" unicode="J" horiz-adv-x="1063" 
d="M903 1462v-990q0 -135 -11.5 -201t-43.5 -124q-103 -181 -366 -181q-296 0 -392 201q-45 95 -45 260q0 23 2 56h188q-1 -135 12 -192q38 -161 234 -161q137 0 190 89q39 65 39 251v992h193z" />
    <glyph glyph-name="K" unicode="K" horiz-adv-x="1366" 
d="M1349 1462l-618 -587l641 -875h-245l-532 743l-242 -230v-513h-193v1462h193v-725l742 725h254z" />
    <glyph glyph-name="L" unicode="L" 
d="M1129 168v-168h-970v1462h193v-1294h777z" />
    <glyph glyph-name="M" unicode="M" horiz-adv-x="1784" 
d="M1623 1462v-1462h-185l8 1243l-463 -1243h-169l-476 1205l8 -1205h-185v1462h264l475 -1239l455 1239h268z" />
    <glyph glyph-name="N" unicode="N" horiz-adv-x="1479" 
d="M1326 1462v-1462h-213l-778 1184l6 -1184h-185v1462h209l783 -1200l-7 1200h185z" />
    <glyph glyph-name="O" unicode="O" horiz-adv-x="1556" 
d="M791 1496q300 0 494 -211q193 -209 193 -551q0 -305 -150 -506q-95 -127 -237 -195q-141 -67 -314 -67q-353 0 -550 264q-148 199 -148 500q0 354 192 555q202 211 520 211zM772 1332q-214 0 -355 -156q-144 -159 -144 -441q0 -264 121 -421q75 -96 191 -145
q93 -39 196 -39q207 0 340 136q163 166 163 464q0 273 -140 439q-138 163 -372 163z" />
    <glyph glyph-name="P" unicode="P" horiz-adv-x="1327" 
d="M160 1462h582q127 0 201.5 -17t137.5 -61q168 -117 168 -342q0 -251 -170 -366q-64 -43 -133.5 -59t-195.5 -16h-397v-601h-193v1462zM353 1294v-537h372q159 0 232 53q98 73 98 221q0 153 -115 221q-41 24 -92 33t-150 9h-345z" />
    <glyph glyph-name="Q" unicode="Q" horiz-adv-x="1556" 
d="M1454 -2l-99 -122l-224 178q-153 -88 -355 -88q-315 0 -510 218q-187 209 -187 547q0 341 194 554q104 114 244 165q126 46 260 46q323 0 514 -219q187 -214 187 -543q0 -181 -56.5 -333t-160.5 -249zM1116 262q69 72 104 148q64 142 64 325q0 265 -139 432
q-137 165 -368 165q-229 0 -369 -168q-135 -161 -135 -428q0 -255 113 -411q67 -93 171.5 -144t226.5 -51q103 0 200 41l-161 129l101 121z" />
    <glyph glyph-name="R" unicode="R" horiz-adv-x="1403" 
d="M157 1462h668q184 0 288 -64q86 -53 131.5 -139t45.5 -195q0 -133 -64 -225t-186 -133q106 -22 161 -105q33 -50 42 -95.5t28 -252.5q17 -188 57 -232l18 -21h-221q-22 32 -29 77.5t-15 210.5q-12 237 -111 301q-69 45 -235 45h-385v-634h-193v1462zM350 1294v-504h364
q110 0 171 10t103 35q108 63 108 212q0 114 -68 179q-40 37 -99 52.5t-163 15.5h-416z" />
    <glyph glyph-name="S" unicode="S" horiz-adv-x="1327" 
d="M1194 1034h-186q-16 134 -84 204q-91 94 -282 94q-138 0 -220 -49q-109 -65 -109 -194q0 -105 78 -150t319 -96q148 -32 228.5 -59t137.5 -63q175 -113 175 -310q0 -207 -164 -334q-142 -111 -406 -111q-285 0 -443.5 135.5t-160.5 381.5h187q3 -142 73 -222
q114 -131 358 -131q179 0 270 75t91 192q0 73 -35 120t-118 84q-64 29 -269 77q-198 46 -250 62.5t-106 49.5q-151 91 -151 287q0 194 139 306.5t378 112.5q346 0 483 -217q62 -99 67 -245z" />
    <glyph glyph-name="T" unicode="T" horiz-adv-x="1176" 
d="M1177 1462v-168h-492v-1294h-193v1294h-491v168h1176z" />
    <glyph glyph-name="U" unicode="U" horiz-adv-x="1479" 
d="M1328 1462v-853q0 -196 -24 -280q-103 -363 -559 -363q-245 0 -381 94q-154 105 -194 296q-19 90 -19 256v850h193v-855q0 -140 10 -201.5t43 -119.5q88 -156 350 -156q251 0 334 145q31 55 42.5 125t11.5 207v855h193z" />
    <glyph glyph-name="V" unicode="V" horiz-adv-x="1251" 
d="M1259 1462l-523 -1462h-220l-522 1462h214l422 -1265l424 1265h205z" />
    <glyph glyph-name="W" unicode="W" horiz-adv-x="1896" 
d="M1877 1462l-390 -1462h-204l-341 1238l-336 -1238h-207l-379 1462h200l292 -1215l331 1215h212l331 -1214l297 1214h194z" />
    <glyph glyph-name="X" unicode="X" horiz-adv-x="1251" 
d="M1227 1462l-485 -709l514 -753h-235l-399 603l-405 -603h-221l515 753l-483 709h232l368 -563l381 563h218z" />
    <glyph glyph-name="Y" unicode="Y" horiz-adv-x="1327" 
d="M1326 1462l-564 -864v-598h-193v598l-569 864h233l438 -696l434 696h221z" />
    <glyph glyph-name="Z" unicode="Z" horiz-adv-x="1251" 
d="M1188 1462v-160l-913 -1134h935v-168h-1167v163l911 1131h-839v168h1073z" />
    <glyph glyph-name="bracketleft" unicode="[" horiz-adv-x="530" 
d="M532 1462v-137h-220v-1598h220v-139h-387v1874h387z" />
    <glyph glyph-name="backslash" unicode="\" horiz-adv-x="682" 
d="M-107 1462h142l753 -1874h-147z" />
    <glyph glyph-name="bracketright" unicode="]" horiz-adv-x="530" 
d="M-2 -412v139h220v1598h-220v137h387v-1874h-387z" />
    <glyph glyph-name="asciicircum" unicode="^" horiz-adv-x="1229" 
d="M308 814h-177l376 653h215l377 -653h-179l-307 522z" />
    <glyph glyph-name="underscore" unicode="_" horiz-adv-x="1024" 
d="M-36 -137h1097v-139h-1097v139z" />
    <glyph glyph-name="grave" unicode="`" horiz-adv-x="455" 
d="M-31 1535h215l152 -293h-121z" />
    <glyph glyph-name="a" unicode="a" horiz-adv-x="1100" 
d="M1069 147v-144q-62 -21 -123 -21q-71 0 -110 43t-41 122q-149 -179 -384 -179q-149 0 -237 74q-102 86 -102 235q0 215 199 297q51 21 97.5 29.5t229.5 31.5q106 14 146 44.5t40 99.5q0 191 -239 191q-126 0 -187 -52t-73 -169h-171q4 177 121.5 276t322.5 99
q225 0 331 -107q40 -41 56 -98t16 -159q0 -130 -6 -448l-1 -67q0 -60 15.5 -84.5t52.5 -24.5q21 0 47 11zM787 562q-37 -27 -79.5 -38.5t-154.5 -26.5q-94 -11 -135 -21t-78 -29q-89 -47 -89 -153q0 -85 56.5 -134t154.5 -49q88 0 166 40t125 109q34 50 34 152v150z" />
    <glyph glyph-name="b" unicode="b" horiz-adv-x="1214" 
d="M312 1462v-522q110 186 351 186q212 0 346 -156q131 -154 131 -418q0 -273 -140 -433q-133 -151 -348 -151q-248 0 -352 194v-162h-162v1462h174zM632 973q-135 0 -226 -101q-100 -110 -100 -328q0 -199 88 -309q90 -113 242 -113q148 0 233 112q93 122 93 314
q0 203 -94 318q-86 107 -236 107z" />
    <glyph glyph-name="c" unicode="c" horiz-adv-x="1100" 
d="M1038 398q-27 -204 -149 -317t-314 -113q-258 0 -394 186q-109 150 -109 377q0 295 157 453q138 140 353 140q194 0 311 -101t139 -287h-181q-18 92 -65 147q-76 88 -205 88q-174 0 -261 -144q-69 -114 -69 -282q0 -176 70 -287q87 -136 250 -136q119 0 194 72t95 204
h178z" />
    <glyph glyph-name="d" unicode="d" horiz-adv-x="1214" 
d="M1077 1462v-1462h-164v165q-48 -96 -137 -146.5t-211 -50.5q-217 0 -351 151q-139 157 -139 430q0 268 131 420q135 157 346 157q123 0 213 -48t138 -139v523h174zM573 973q-139 0 -226 -105q-94 -113 -94 -314q0 -198 93 -319q87 -113 236 -113q151 0 238 114
q87 111 87 308q0 220 -99 329q-91 100 -235 100z" />
    <glyph glyph-name="e" unicode="e" horiz-adv-x="1100" 
d="M1039 350q-83 -382 -464 -382q-257 0 -389 180q-112 153 -112 391q0 256 137 419q141 166 358 166q180 0 307 -112q93 -82 134.5 -203t40.5 -310h-798q12 -378 334 -378q111 0 177 54t104 175h171zM871 649q-9 111 -54 184q-85 138 -253 138q-131 0 -209.5 -82
t-99.5 -240h616z" />
    <glyph glyph-name="f" unicode="f" horiz-adv-x="606" 
d="M608 1466v-157q-53 11 -99 11q-80 0 -106 -29.5t-26 -118.5v-80h204v-150h-204v-942h-174v942h-178v150l178 -2q0 162 15 216q21 80 91.5 124t176.5 44q50 0 122 -8z" />
    <glyph glyph-name="g" unicode="g" horiz-adv-x="1176" 
d="M1046 1092v-981q0 -134 -16 -215t-56 -150q-65 -111 -194 -161q-103 -39 -226 -39q-220 0 -340 104q-88 77 -106 219h179q32 -180 273 -180q184 0 256 107q55 84 57 249l1 145q-34 -62 -64 -94q-102 -110 -276 -110q-208 0 -335 153t-127 403q0 266 135 426
q63 75 152 116t187 41q113 0 194 -46.5t144 -147.5v161h162zM554 971q-149 0 -231 -126q-73 -111 -73 -291q0 -111 30 -199.5t84 -138.5q83 -76 194 -76q157 0 241 133q72 114 72 299q0 101 -28.5 186t-79.5 135q-80 78 -209 78z" />
    <glyph glyph-name="h" unicode="h" 
d="M304 1462v-525q42 85 137 136t212 51q232 0 316 -164q40 -79 40 -251v-709h-174v686q0 144 -34 196q-58 88 -198 88q-92 0 -162 -44.5t-104 -124.5q-20 -48 -26.5 -104t-6.5 -185v-512h-174v1462h174z" />
    <glyph glyph-name="i" unicode="i" horiz-adv-x="455" 
d="M315 1462v-220h-174v220h174zM315 1092v-1092h-174v1092h174z" />
    <glyph glyph-name="j" unicode="j" horiz-adv-x="455" 
d="M317 1092v-1120q0 -156 -6.5 -209.5t-30.5 -96.5q-58 -106 -233 -106q-35 0 -78 8v150q36 -3 61 -3q84 0 100 44q13 35 13 212v1121h174zM317 1462v-220h-174v220h174z" />
    <glyph glyph-name="k" unicode="k" horiz-adv-x="1063" 
d="M1035 1092l-421 -392l451 -700h-221l-364 572l-167 -160v-412h-174v1462h174v-844l489 474h233z" />
    <glyph glyph-name="l" unicode="l" horiz-adv-x="455" 
d="M315 1462v-1462h-174v1462h174z" />
    <glyph glyph-name="m" unicode="m" horiz-adv-x="1747" 
d="M292 1090v-155q66 87 128 127q96 62 220 62q111 0 181.5 -46t111.5 -145q133 191 352 191q194 0 281 -137q51 -81 51 -234v-753h-174v686q0 131 -20 179q-44 105 -191 105q-104 0 -173 -60q-61 -52 -79.5 -116t-18.5 -219v-575h-174v698q0 157 -44 210q-51 62 -155 62
q-84 0 -152 -43.5t-101 -120.5q-31 -70 -31 -232v-574h-174v1090h162z" />
    <glyph glyph-name="n" unicode="n" 
d="M292 1090v-167q48 70 87 104q113 97 281 97q144 0 237 -76q64 -53 88 -127t24 -216v-705h-174v641q0 109 -7 157t-29 82q-57 90 -194 90q-133 0 -216 -91q-48 -52 -66.5 -128.5t-18.5 -225.5v-525h-174v1090h162z" />
    <glyph glyph-name="o" unicode="o" horiz-adv-x="1176" 
d="M597 1124q229 0 371 -161q133 -151 133 -416q0 -291 -158 -449q-130 -130 -349 -130q-251 0 -388 167q-131 159 -131 411q0 241 118 394q141 184 404 184zM586 970q-140 0 -230 -101q-103 -115 -103 -322q0 -210 100 -323q89 -102 241 -102q134 0 217 86q112 116 112 339
q0 206 -98 320q-89 103 -239 103z" />
    <glyph glyph-name="p" unicode="p" horiz-adv-x="1214" 
d="M299 1092v-159q43 64 78 95q110 97 276 97q209 0 338 -142q149 -163 149 -444q0 -256 -132 -415q-131 -157 -343 -157q-231 0 -354 185v-585h-174v1525h162zM629 971q-67 0 -129 -29t-104 -79q-92 -112 -92 -315q0 -213 102 -327q89 -100 232 -100q146 0 230 105
q94 119 94 312q0 205 -98 327q-85 106 -235 106z" />
    <glyph glyph-name="q" unicode="q" horiz-adv-x="1214" 
d="M1077 1092v-1525h-174v587q-122 -187 -357 -187q-210 0 -339 152q-132 155 -132 424q0 281 147 440q131 142 341 142q126 0 209.5 -45.5t142.5 -147.5v160h162zM574 972q-140 0 -224 -106q-97 -122 -97 -325q0 -199 93 -313q87 -107 232 -107q141 0 229 99
q102 114 102 330q0 203 -93 313q-91 109 -242 109z" />
    <glyph glyph-name="r" unicode="r" horiz-adv-x="682" 
d="M683 1124v-191q-37 3 -55 3q-140 0 -230 -95q-59 -62 -80 -149t-21 -271v-421h-174v1090h162v-224q113 266 398 258z" />
    <glyph glyph-name="s" unicode="s" horiz-adv-x="1024" 
d="M918 774h-175q-10 73 -38 111q-62 85 -219 85q-100 0 -157 -37q-61 -40 -61 -115q0 -66 53 -98t230 -73q125 -29 192.5 -54.5t117.5 -62.5q100 -75 100 -214q0 -158 -120 -253t-320 -95q-216 0 -332 96.5t-123 281.5h171q10 -90 48 -136q73 -88 236 -88q151 0 221 77
q40 44 40 102q0 70 -55 108t-212 77q-167 41 -212.5 55t-88.5 38q-58 32 -91 91.5t-33 133.5q0 174 148 261q102 59 256 59q240 0 350 -133q63 -78 74 -217z" />
    <glyph glyph-name="t" unicode="t" horiz-adv-x="645" 
d="M583 1093v-150h-211v-644q0 -101 16 -127q22 -37 104 -37q44 0 91 9v-153q-68 -9 -135 -9q-175 0 -225 95q-17 33 -20 73.5t-5 251.5v541h-178v150h178v251h174v-251h211z" />
    <glyph glyph-name="u" unicode="u" 
d="M1011 1092v-1092h-162v171q-131 -203 -368 -203q-188 0 -283 119q-70 90 -70 297v708h174v-642q0 -180 34 -237q55 -91 195 -91q179 0 264 161q42 79 42 282v527h174z" />
    <glyph glyph-name="v" unicode="v" horiz-adv-x="1024" 
d="M996 1092l-387 -1092h-187l-394 1092h193l303 -876l290 876h182z" />
    <glyph glyph-name="w" unicode="w" horiz-adv-x="1552" 
d="M1519 1092l-338 -1092h-186l-221 834l-212 -834h-189l-340 1092h193l240 -854l216 854h193l222 -846l240 846h182z" />
    <glyph glyph-name="x" unicode="x" horiz-adv-x="1061" 
d="M999 1092l-366 -501l410 -591h-223l-298 447l-293 -447h-212l398 577l-369 515h224l255 -369l263 369h211z" />
    <glyph glyph-name="y" unicode="y" horiz-adv-x="1024" 
d="M1008 1092l-390 -1057q-104 -283 -146 -351q-75 -124 -226 -124q-50 0 -102 12l-27 7v163q76 -23 113 -23q79 0 125 91q27 53 81 196l-420 1086h196l316 -865l296 865h184z" />
    <glyph glyph-name="z" unicode="z" horiz-adv-x="983" 
d="M913 1092v-119l-644 -823h670v-150h-895v135l633 809h-592v148h828z" />
    <glyph glyph-name="braceleft" unicode="{" horiz-adv-x="682" 
d="M287 523q67 -37 94 -93.5t27 -161.5v-311q0 -86 13.5 -130.5t46.5 -68.5q45 -32 149 -33v-137h-15q-134 0 -193 15t-100 60q-68 74 -68 250v332q0 96 -28 142.5t-98 66.5v146q69 20 97.5 65.5t28.5 135.5v363q0 157 71 227q43 42 102 56.5t189 14.5h14v-137
q-122 -4 -165.5 -52.5t-43.5 -179.5v-320q0 -104 -26.5 -158.5t-94.5 -91.5z" />
    <glyph glyph-name="bar" unicode="|" horiz-adv-x="455" 
d="M132 1462h191v-1828h-191v1828z" />
    <glyph glyph-name="braceright" unicode="}" horiz-adv-x="682" 
d="M396 526q-67 38 -94 94.5t-27 160.5v311q0 87 -13.5 131.5t-47.5 67.5q-45 32 -148 34v137h15q134 0 193.5 -15t99.5 -60q68 -75 68 -251v-332q0 -96 28 -142t98 -67v-146q-68 -19 -97 -65t-29 -135v-363q0 -158 -71 -228q-42 -41 -102 -55.5t-189 -14.5h-14v137
q122 4 165.5 52.5t43.5 179.5v320q0 104 26.5 158t94.5 91z" />
    <glyph glyph-name="asciitilde" unicode="~" horiz-adv-x="1229" 
d="M189 1265l-100 80q113 252 301 252q80 0 253 -85q91 -45 128 -58t72 -13q108 0 198 161l100 -80q-112 -250 -319 -250q-43 0 -87.5 16.5t-174.5 80.5q-116 57 -178 57q-103 0 -193 -161z" />
    <glyph glyph-name="nonbreakingspace" unicode="&#xa0;" horiz-adv-x="569" 
 />
    <glyph glyph-name="exclamdown" unicode="&#xa1;" horiz-adv-x="530" 
d="M169 0v448l50 652h95l48 -652v-448h-193zM157 1256v206h215v-206h-215z" />
    <glyph glyph-name="cent" unicode="&#xa2;" 
d="M1057 598q-16 -169 -132 -289q-108 -112 -279 -121v-220h-110v221q-185 9 -302 140q-137 153 -137 413q0 306 186 458q107 87 253 103v180h110v-180q184 -11 292 -115q101 -99 119 -259h-184q-16 96 -74.5 155t-152.5 73v-824q110 13 176 105q46 65 62 160h173zM536 1152
q-100 -15 -167 -100q-89 -113 -89 -305q0 -188 78 -298q38 -53 78.5 -79t99.5 -35v817z" />
    <glyph glyph-name="sterling" unicode="&#xa3;" 
d="M1076 996h-178q-6 103 -41 173q-32 65 -102.5 103t-161.5 38q-126 0 -206.5 -70t-80.5 -179q0 -84 49 -185l59 -113h340v-124h-281q24 -72 24 -122q0 -66 -19.5 -118t-68.5 -116q-38 -49 -90 -95q-39 -34 -57 -51q81 38 127.5 50.5t106.5 12.5q55 0 94 -8.5t159 -46.5
q38 -12 87 -12q108 0 196 73l87 -135q-50 -46 -127 -73t-158 -27q-56 0 -92.5 8t-139.5 42q-115 39 -196 39q-54 0 -95.5 -16t-116.5 -65l-95 145q83 61 123 109q101 121 101 251q0 73 -39 155h-192v124h128q-57 98 -76.5 158t-19.5 136q0 198 163 317q121 88 308 88
q299 0 425 -218q57 -100 56 -248z" />
    <glyph glyph-name="currency" unicode="&#xa4;" 
d="M22 310l120 121q-61 86 -86 158.5t-25 166.5q0 100 25.5 174t88.5 155l-125 123l93 96l126 -125q152 119 334 119q92 0 167.5 -26.5t157.5 -87.5l122 120l92 -96l-121 -118q65 -82 88 -147q32 -89 32 -186t-26 -170.5t-88 -155.5l121 -121l-93 -94l-121 121
q-79 -63 -144 -87q-94 -34 -191 -34q-96 0 -172.5 28t-160.5 93l-123 -121zM567 1149q-168 0 -286 -130q-101 -112 -101 -263q0 -176 130 -293q112 -101 263 -101q175 0 292 130q101 113 101 267q0 170 -130 289q-111 101 -269 101z" />
    <glyph glyph-name="yen" unicode="&#xa5;" 
d="M781 831h253v-124h-320l-55 -108v-123h331v-124h-331v-352h-175v352h-336v124h336v123l-57 108h-323v124h257l-321 602h201l336 -674l332 674h190z" />
    <glyph glyph-name="brokenbar" unicode="&#xa6;" horiz-adv-x="455" 
d="M132 1462h191v-737h-191v737zM132 336h191v-702h-191v702z" />
    <glyph glyph-name="section" unicode="&#xa7;" 
d="M948 1104h-172q-17 219 -210 219q-88 0 -141.5 -45.5t-53.5 -119.5q0 -84 91 -154q31 -24 260 -157q195 -115 260 -186q75 -83 75 -200q0 -208 -215 -307q65 -57 90.5 -110.5t25.5 -128.5q0 -142 -108 -234.5t-275 -92.5q-183 0 -292 101t-116 277h176q20 -231 238 -231
q96 0 151 56q48 48 48 114q0 72 -61.5 129.5t-264.5 173.5q-155 90 -206.5 124.5t-89.5 74.5q-87 92 -87 230q0 108 59.5 189t158.5 108q-94 96 -94 212q0 143 104.5 233t271.5 90q177 0 277 -97t100 -268zM385 847q-149 -66 -149 -195q0 -87 86 -154q51 -40 256 -157
q63 -35 161 -102q70 29 109.5 79.5t39.5 110.5q0 82 -68.5 141t-357.5 225q-50 28 -77 52z" />
    <glyph glyph-name="dieresis" unicode="&#xa8;" horiz-adv-x="455" 
d="M122 1462v-220h-174v220h174zM507 1462v-220h-174v220h174z" />
    <glyph glyph-name="copyright" unicode="&#xa9;" horiz-adv-x="1638" 
d="M1201 641q-14 -165 -117 -256.5t-274 -91.5q-208 0 -321 138q-96 116 -96 300q0 197 117.5 318t309.5 121q156 0 259 -78t115 -207h-136q-19 83 -82 128t-160 45q-151 0 -227 -115q-59 -88 -59 -211q0 -151 77 -239t209 -88q222 0 250 236h135zM830 1496q205 0 389 -113
t281 -304q83 -165 83 -348q0 -216 -112 -400q-112 -183 -304 -281q-164 -84 -347 -84q-214 0 -398 112t-282 305q-84 164 -84 347q0 217 112 402q111 181 306 281q163 83 356 83zM813 1389q-175 0 -331 -97q-157 -97 -240 -262q-71 -141 -71 -299q0 -185 96 -344
q96 -158 260 -243q138 -71 293 -71q183 0 339 97q155 97 238 263q71 141 71 297q0 186 -95 346q-94 156 -258 241q-137 72 -302 72z" />
    <glyph glyph-name="ordfeminine" unicode="&#xaa;" horiz-adv-x="774" 
d="M708 686v-96q-44 -15 -85 -15q-84 0 -102 83q-93 -91 -236 -91q-96 0 -154 44q-67 51 -67 140q0 129 131 178q44 17 208 36q65 7 88 22.5t23 51.5q0 103 -144 103q-78 0 -114.5 -29.5t-43.5 -97.5h-121q2 108 77 168t209 60q143 0 214 -63q48 -43 48 -154q0 -154 -2 -256
q-1 -30 -1 -39q0 -55 35 -55q13 0 37 10zM515 904q-31 -19 -140 -31q-94 -12 -131 -29q-52 -25 -52 -83q0 -46 33.5 -72.5t91.5 -26.5q117 0 178 81q20 26 20 81v80z" />
    <glyph glyph-name="guillemotleft" unicode="&#xab;" horiz-adv-x="948" 
d="M818 881v-177l-206 -156l206 -161v-174l-313 246v178zM419 882v-176l-212 -156l212 -161v-180l-319 253v175z" />
    <glyph glyph-name="logicalnot" unicode="&#xac;" horiz-adv-x="1229" 
d="M905 0v445h-766v167h951v-612h-185z" />
    <glyph glyph-name="uni00AD" unicode="&#xad;" horiz-adv-x="797" 
d="M647 633v-175h-497v175h497z" />
    <glyph glyph-name="registered" unicode="&#xae;" horiz-adv-x="1638" 
d="M482 1151h411q113 0 178 -37q111 -65 111 -197q0 -137 -125 -199q54 -21 81 -72q14 -26 18 -49.5t14 -132.5q10 -101 32 -124l28 -29h-162q-25 32 -29 108q-4 95 -12.5 135t-28.5 67q-34 45 -160 45h-220v-355h-136v840zM618 1036v-262h208q116 0 160 24q59 32 59 110
q0 69 -43.5 98.5t-144.5 29.5h-239zM830 1496q205 0 389 -113t281 -304q83 -165 83 -348q0 -216 -112 -400q-112 -183 -304 -281q-164 -84 -347 -84q-214 0 -398 112t-282 305q-84 164 -84 347q0 217 112 402q111 181 306 281q163 83 356 83zM813 1389q-175 0 -331 -97
q-157 -97 -240 -262q-71 -141 -71 -299q0 -185 96 -344q96 -158 260 -243q138 -71 293 -71q183 0 339 97q155 97 238 263q71 141 71 297q0 186 -95 346q-94 156 -258 241q-137 72 -302 72z" />
    <glyph glyph-name="macron" unicode="&#xaf;" horiz-adv-x="455" 
d="M537 1399v-120h-617v120h617z" />
    <glyph glyph-name="degree" unicode="&#xb0;" horiz-adv-x="819" 
d="M411 1462q135 0 232 -101q89 -92 89 -226q0 -133 -96 -228q-94 -93 -225 -93q-144 0 -241 106q-84 92 -84 218q0 152 110 244q95 80 215 80zM407 1364q-84 0 -147 -59q-73 -70 -73 -167q0 -83 54 -148q66 -78 168 -78q92 0 157 66.5t65 160.5q0 91 -63 156
q-68 69 -161 69z" />
    <glyph glyph-name="plusminus" unicode="&#xb1;" horiz-adv-x="1229" 
d="M139 787h406v405h139v-405h406v-139h-406v-392h-139v392h-406v139zM139 183h951v-139h-951v139z" />
    <glyph glyph-name="twosuperior" unicode="&#xb2;" horiz-adv-x="682" 
d="M649 692v-107h-614q6 128 62.5 205.5t214.5 170.5q129 76 163 114q51 56 51 127q0 70 -47 113.5t-122 43.5q-164 0 -172 -218h-124q-1 19 -1 27q0 134 83 215t220 81q124 0 203 -62q90 -71 90 -198q0 -114 -86 -198q-55 -54 -198 -134q-107 -59 -143.5 -91.5t-59.5 -88.5
h480z" />
    <glyph glyph-name="threesuperior" unicode="&#xb3;" horiz-adv-x="682" 
d="M40 1168q3 142 80.5 218t218.5 76q119 0 198 -61q79 -62 79 -171q0 -112 -112 -177q152 -54 152 -206q0 -125 -89 -202t-234 -77q-168 0 -254 104q-59 72 -59 174v23h123q3 -95 52.5 -145.5t138.5 -50.5q85 0 138.5 45.5t53.5 117.5q0 74 -52.5 115.5t-148.5 41.5
q-31 0 -62 -4v103q31 -2 46 -2q83 0 130 36t47 99q0 60 -42 96t-111 36q-166 0 -171 -189h-122z" />
    <glyph glyph-name="acute" unicode="&#xb4;" horiz-adv-x="455" 
d="M486 1535l-246 -293h-121l152 293h215z" />
    <glyph glyph-name="mu" unicode="&#xb5;" 
d="M128 -383v1489h164v-622q0 -113 13 -164q23 -89 94.5 -146t160.5 -57q145 0 222 131q65 111 65 257v601h164v-1106h-164v206q-37 -99 -86 -149q-83 -86 -205 -86q-88 0 -150.5 39.5t-113.5 127.5v-521h-164z" />
    <glyph glyph-name="paragraph" unicode="&#xb6;" horiz-adv-x="1229" 
d="M498 -412v1104q-20 -1 -32 -1q-117 0 -211 57q-79 47 -123 132q-45 87 -45 192q0 109 46 196.5t128 135.5q100 58 285 58h519v-117h-95v-1757h-142v1757h-188v-1757h-142z" />
    <glyph glyph-name="glyph121" unicode="&#xb7;" horiz-adv-x="569" 
d="M405 659v-228h-240v228h240z" />
    <glyph glyph-name="cedilla" unicode="&#xb8;" horiz-adv-x="455" 
d="M299 0l-91 -124q40 10 70 10q75 0 121 -36q55 -43 55 -112q0 -82 -69.5 -132t-182.5 -50q-91 0 -192 42l37 74q71 -27 140 -27q49 0 80 23t31 59q0 34 -28.5 57t-72.5 23q-30 0 -79 -16l-34 37l130 172h85z" />
    <glyph glyph-name="onesuperior" unicode="&#xb9;" horiz-adv-x="682" 
d="M506 1462v-877h-136v625h-60h-64h-70h-37v93q124 -1 182 34t85 125h100z" />
    <glyph glyph-name="ordmasculine" unicode="&#xba;" horiz-adv-x="786" 
d="M398 1243q149 0 240 -94q86 -89 86 -244q0 -170 -102 -262q-86 -76 -225 -76q-160 0 -251 98q-84 92 -84 240q0 142 76 230q92 108 260 108zM392 1142q-92 0 -147.5 -64.5t-55.5 -172.5q0 -111 55 -174t152 -63q82 0 133 48q68 65 68 190q0 110 -54.5 173t-150.5 63z" />
    <glyph glyph-name="guillemotright" unicode="&#xbb;" horiz-adv-x="948" 
d="M530 882l319 -255v-173l-319 -245v175l210 155l-210 163v180zM131 878l311 -247v-175l-311 -244v175l205 155l-205 160v176z" />
    <glyph glyph-name="onequarter" unicode="&#xbc;" horiz-adv-x="1708" 
d="M377 1462v-877h-136v625h-60h-64h-70h-37v93q124 -1 182 34t85 125h100zM1277 1445l-832 -1445h-123l836 1445h119zM1667 311v-102h-124v-209h-118v209h-402v107l420 561h100v-566h124zM1425 311v378l-286 -378h286z" />
    <glyph glyph-name="onehalf" unicode="&#xbd;" horiz-adv-x="1708" 
d="M399 1462v-877h-136v625h-60h-64h-70h-37v93q124 -1 182 34t85 125h100zM1299 1445l-832 -1445h-123l836 1445h119zM1679 107v-107h-614q6 128 63 206t214 170q129 76 171.5 124t42.5 117q0 70 -47 113.5t-121 43.5q-164 0 -173 -218h-124q-1 19 -1 27q0 134 83 214.5
t220 80.5q124 0 203 -62q90 -71 90 -198q0 -113 -86 -197q-53 -53 -198 -134q-107 -59 -143.5 -91.5t-59.5 -88.5h480z" />
    <glyph glyph-name="threequarters" unicode="&#xbe;" horiz-adv-x="1708" 
d="M17 1168q3 142 80.5 218t218.5 76q119 0 198 -61q79 -62 79 -171q0 -112 -112 -177q152 -54 152 -206q0 -125 -89 -202t-234 -77q-168 0 -254 104q-59 72 -59 174v23h123q3 -95 52.5 -145.5t138.5 -50.5q85 0 138.5 45.5t53.5 117.5q0 74 -52.5 115.5t-148.5 41.5
q-31 0 -62 -4v103q31 -2 46 -2q83 0 130 36t47 99q0 60 -42 96t-111 36q-166 0 -171 -189h-122zM1352 1445l-832 -1445h-123l836 1445h119zM1743 311v-102h-125v-209h-118v209h-402v107l420 561h100v-566h125zM1500 311v378l-286 -378h286z" />
    <glyph glyph-name="questiondown" unicode="&#xbf;" 
d="M1033 452q-5 -107 -21 -169.5t-52 -119.5q-61 -95 -162 -146t-227 -51q-204 0 -324 115q-111 107 -111 281q0 142 76 246q33 46 163 172q58 56 80 91.5t31 89.5q10 55 10 140h170q-2 -154 -27 -226q-18 -53 -52 -96.5t-148 -160.5q-75 -76 -97 -137q-19 -51 -19 -106
q0 -101 55 -169q67 -83 195 -83q135 0 206 81.5t82 247.5h172zM475 1254v208h216v-208h-216z" />
    <glyph glyph-name="Agrave" unicode="&#xc0;" horiz-adv-x="1327" 
d="M774 1468l572 -1468h-215l-163 449h-614l-167 -449h-204l574 1468h217zM911 605l-250 674l-251 -674h501zM364 1857h230l166 -278h-143z" />
    <glyph glyph-name="Aacute" unicode="&#xc1;" horiz-adv-x="1327" 
d="M774 1468l572 -1468h-215l-163 449h-614l-167 -449h-204l574 1468h217zM911 605l-250 674l-251 -674h501zM965 1857l-254 -278h-143l167 278h230z" />
    <glyph glyph-name="Acircumflex" unicode="&#xc2;" horiz-adv-x="1327" 
d="M774 1468l572 -1468h-215l-163 449h-614l-167 -449h-204l574 1468h217zM911 605l-250 674l-251 -674h501zM1002 1582h-199l-130 178l-138 -178h-179l212 272h218z" />
    <glyph glyph-name="Atilde" unicode="&#xc3;" horiz-adv-x="1327" 
d="M774 1468l572 -1468h-215l-163 449h-614l-167 -449h-204l574 1468h217zM911 605l-250 674l-251 -674h501zM1022 1841q-15 -110 -70 -170.5t-141 -60.5q-48 0 -138 34q-123 46 -157 46q-70 0 -97 -92h-98q13 109 69 168.5t146 59.5q42 0 76 -10t147 -55q30 -12 63 -12
q75 0 98 92h102z" />
    <glyph glyph-name="Adieresis" unicode="&#xc4;" horiz-adv-x="1327" 
d="M774 1468l572 -1468h-215l-163 449h-614l-167 -449h-204l574 1468h217zM911 605l-250 674l-251 -674h501zM984 1818v-202h-190v202h190zM534 1818v-202h-190v202h190z" />
    <glyph glyph-name="Aring" unicode="&#xc5;" horiz-adv-x="1327" 
d="M774 1468l572 -1468h-215l-163 449h-614l-167 -449h-204l574 1468h217zM911 605l-250 674l-251 -674h501zM670 2016q100 0 170 -77q60 -67 60 -156q0 -104 -77 -173q-67 -60 -157 -60q-104 0 -173 77q-60 66 -60 158q0 100 77 171q66 60 160 60zM661 1911
q-51 0 -88.5 -38t-37.5 -90q0 -53 37.5 -90.5t90.5 -37.5q55 0 93.5 37.5t38.5 91.5q0 52 -39 89.5t-95 37.5z" />
    <glyph glyph-name="AE" unicode="&#xc6;" horiz-adv-x="1896" 
d="M1828 1462v-168h-721v-463h679v-156h-679v-507h733v-168h-926v430h-503l-212 -430h-221l745 1462h1105zM914 586v712h-81l-345 -712h426z" />
    <glyph glyph-name="Ccedilla" unicode="&#xc7;" horiz-adv-x="1479" 
d="M1398 553q-19 -257 -183.5 -417t-417.5 -169l-68 -93q46 9 72 9q74 0 123 -40.5t49 -101.5q0 -84 -68 -136t-177 -52q-81 0 -199 42l35 77q71 -30 146 -30q48 0 76.5 23.5t28.5 61.5q0 34 -28.5 54.5t-74.5 20.5q-29 0 -78 -13l-33 37l107 141q-115 2 -223 49.5
t-188 130.5q-210 217 -210 581q0 342 197 563q182 205 503 205q291 0 463 -185q118 -125 135 -287h-195q-20 103 -101 189q-113 119 -307 119q-261 0 -400 -215q-101 -156 -101 -381q0 -244 108 -406q68 -102 161 -150q94 -48 228 -48q222 0 332 153q84 117 96 268h192z" />
    <glyph glyph-name="Egrave" unicode="&#xc8;" horiz-adv-x="1251" 
d="M1169 1462v-168h-820v-463h766v-156h-766v-507h831v-168h-1024v1462h1013zM415 1857h230l167 -278h-143z" />
    <glyph glyph-name="Eacute" unicode="&#xc9;" horiz-adv-x="1251" 
d="M1169 1462v-168h-820v-463h766v-156h-766v-507h831v-168h-1024v1462h1013zM958 1857l-254 -278h-142l166 278h230z" />
    <glyph glyph-name="Ecircumflex" unicode="&#xca;" horiz-adv-x="1251" 
d="M1169 1462v-168h-820v-463h766v-156h-766v-507h831v-168h-1024v1462h1013zM987 1582h-198l-130 178l-138 -178h-178l211 272h218z" />
    <glyph glyph-name="Edieresis" unicode="&#xcb;" horiz-adv-x="1251" 
d="M1169 1462v-168h-820v-463h766v-156h-766v-507h831v-168h-1024v1462h1013zM985 1818v-202h-190v202h190zM535 1818v-202h-190v202h190z" />
    <glyph glyph-name="Igrave" unicode="&#xcc;" horiz-adv-x="530" 
d="M362 1462v-1462h-193v1462h193zM-35 1857h230l167 -278h-143z" />
    <glyph glyph-name="Iacute" unicode="&#xcd;" horiz-adv-x="530" 
d="M362 1462v-1462h-193v1462h193zM566 1857l-254 -278h-142l166 278h230z" />
    <glyph glyph-name="Icircumflex" unicode="&#xce;" horiz-adv-x="530" 
d="M361 1462v-1462h-193v1462h193zM573 1582h-198l-116 178l-123 -178h-179l197 272h218z" />
    <glyph glyph-name="Idieresis" unicode="&#xcf;" horiz-adv-x="530" 
d="M362 1462v-1462h-193v1462h193zM520 1818v-202h-190v202h190zM201 1818v-202h-190v202h190z" />
    <glyph glyph-name="Eth" unicode="&#xd0;" horiz-adv-x="1442" 
d="M161 1462h525q165 0 272 -32.5t193 -110.5q112 -99 166 -254q49 -140 49 -303q0 -391 -206 -600q-90 -92 -188 -127t-265 -35h-546v688h-146v146h146v628zM354 1295v-461h380v-146h-380v-520h316q149 0 226 24.5t137 91.5q138 155 138 470q0 267 -121.5 404t-359.5 137
h-336z" />
    <glyph glyph-name="Ntilde" unicode="&#xd1;" horiz-adv-x="1479" 
d="M1106 1841q-15 -110 -70 -170.5t-141 -60.5q-48 0 -138 34q-123 46 -157 46q-69 0 -97 -92h-98q13 109 69 168.5t146 59.5q42 0 76 -10t147 -55q30 -12 62 -12q76 0 99 92h102zM1326 1462v-1462h-213l-778 1184l6 -1184h-185v1462h209l783 -1200l-7 1200h185z" />
    <glyph glyph-name="Ograve" unicode="&#xd2;" horiz-adv-x="1556" 
d="M791 1496q300 0 494 -211q193 -209 193 -551q0 -305 -150 -506q-95 -127 -237 -195q-141 -67 -314 -67q-353 0 -550 264q-148 199 -148 500q0 354 192 555q202 211 520 211zM772 1332q-214 0 -355 -156q-144 -159 -144 -441q0 -264 121 -421q75 -96 191 -145
q93 -39 196 -39q207 0 340 136q163 166 163 464q0 273 -140 439q-138 163 -372 163zM522 1857h230l167 -278h-143z" />
    <glyph glyph-name="Oacute" unicode="&#xd3;" horiz-adv-x="1556" 
d="M791 1496q300 0 494 -211q193 -209 193 -551q0 -305 -150 -506q-95 -127 -237 -195q-141 -67 -314 -67q-353 0 -550 264q-148 199 -148 500q0 354 192 555q202 211 520 211zM772 1332q-214 0 -355 -156q-144 -159 -144 -441q0 -264 121 -421q75 -96 191 -145
q93 -39 196 -39q207 0 340 136q163 166 163 464q0 273 -140 439q-138 163 -372 163zM1065 1857l-254 -278h-143l167 278h230z" />
    <glyph glyph-name="Ocircumflex" unicode="&#xd4;" horiz-adv-x="1556" 
d="M791 1496q300 0 494 -211q193 -209 193 -551q0 -305 -150 -506q-95 -127 -237 -195q-141 -67 -314 -67q-353 0 -550 264q-148 199 -148 500q0 354 192 555q202 211 520 211zM772 1332q-214 0 -355 -156q-144 -159 -144 -441q0 -264 121 -421q75 -96 191 -145
q93 -39 196 -39q207 0 340 136q163 166 163 464q0 273 -140 439q-138 163 -372 163zM1101 1582h-198l-130 178l-138 -178h-179l212 272h218z" />
    <glyph glyph-name="Otilde" unicode="&#xd5;" horiz-adv-x="1556" 
d="M791 1496q300 0 494 -211q193 -209 193 -551q0 -305 -150 -506q-95 -127 -237 -195q-141 -67 -314 -67q-353 0 -550 264q-148 199 -148 500q0 354 192 555q202 211 520 211zM772 1332q-214 0 -355 -156q-144 -159 -144 -441q0 -264 121 -421q75 -96 191 -145
q93 -39 196 -39q207 0 340 136q163 166 163 464q0 273 -140 439q-138 163 -372 163zM1144 1841q-16 -111 -70.5 -171t-140.5 -60q-49 0 -138 34q-123 46 -158 46q-69 0 -96 -92h-98q13 109 69 168.5t145 59.5q43 0 77 -10t147 -55q29 -12 63 -12q74 0 98 92h102z" />
    <glyph glyph-name="Odieresis" unicode="&#xd6;" horiz-adv-x="1556" 
d="M791 1496q300 0 494 -211q193 -209 193 -551q0 -305 -150 -506q-95 -127 -237 -195q-141 -67 -314 -67q-353 0 -550 264q-148 199 -148 500q0 354 192 555q202 211 520 211zM772 1332q-214 0 -355 -156q-144 -159 -144 -441q0 -264 121 -421q75 -96 191 -145
q93 -39 196 -39q207 0 340 136q163 166 163 464q0 273 -140 439q-138 163 -372 163zM1099 1818v-202h-190v202h190zM648 1818v-202h-190v202h190z" />
    <glyph glyph-name="multiply" unicode="&#xd7;" horiz-adv-x="1229" 
d="M204 404l313 313l-313 312l98 99l313 -313l313 313l98 -99l-313 -312l313 -313l-98 -98l-313 312l-313 -312z" />
    <glyph glyph-name="Oslash" unicode="&#xd8;" horiz-adv-x="1556" 
d="M236 237q-143 199 -143 496q0 345 193 552q196 211 507 211q271 0 453 -157l161 176l89 -83l-166 -182q57 -78 89 -148q74 -159 74 -367q0 -306 -150 -507q-95 -127 -238 -195q-140 -67 -313 -67q-279 0 -475 179l-168 -184l-88 84zM365 378l759 827q-129 127 -333 127
q-218 0 -359 -156q-145 -160 -145 -439q0 -206 78 -359zM1202 1108l-763 -829q151 -149 357 -149q204 0 340 136q163 163 163 466q0 215 -97 376z" />
    <glyph glyph-name="Ugrave" unicode="&#xd9;" horiz-adv-x="1479" 
d="M1328 1462v-853q0 -196 -24 -280q-103 -363 -559 -363q-245 0 -381 94q-154 105 -194 296q-19 90 -19 256v850h193v-855q0 -140 10 -201.5t43 -119.5q88 -156 350 -156q251 0 334 145q31 55 42.5 125t11.5 207v855h193zM468 1857h230l167 -278h-143z" />
    <glyph glyph-name="Uacute" unicode="&#xda;" horiz-adv-x="1479" 
d="M1328 1462v-853q0 -196 -24 -280q-103 -363 -559 -363q-245 0 -381 94q-154 105 -194 296q-19 90 -19 256v850h193v-855q0 -140 10 -201.5t43 -119.5q88 -156 350 -156q251 0 334 145q31 55 42.5 125t11.5 207v855h193zM1040 1857l-253 -278h-143l166 278h230z" />
    <glyph glyph-name="Ucircumflex" unicode="&#xdb;" horiz-adv-x="1479" 
d="M1328 1462v-853q0 -196 -24 -280q-103 -363 -559 -363q-245 0 -381 94q-154 105 -194 296q-19 90 -19 256v850h193v-855q0 -140 10 -201.5t43 -119.5q88 -156 350 -156q251 0 334 145q31 55 42.5 125t11.5 207v855h193zM1062 1582h-198l-130 178l-138 -178h-179l212 272
h218z" />
    <glyph glyph-name="Udieresis" unicode="&#xdc;" horiz-adv-x="1479" 
d="M1328 1462v-853q0 -196 -24 -280q-103 -363 -559 -363q-245 0 -381 94q-154 105 -194 296q-19 90 -19 256v850h193v-855q0 -140 10 -201.5t43 -119.5q88 -156 350 -156q251 0 334 145q31 55 42.5 125t11.5 207v855h193zM1060 1818v-202h-190v202h190zM609 1818v-202h-190
v202h190z" />
    <glyph glyph-name="Yacute" unicode="&#xdd;" horiz-adv-x="1327" 
d="M1326 1462l-564 -864v-598h-193v598l-569 864h233l438 -696l434 696h221zM964 1857l-254 -278h-143l167 278h230z" />
    <glyph glyph-name="Thorn" unicode="&#xde;" horiz-adv-x="1327" 
d="M160 1462h193v-218h389q127 0 201.5 -17t137.5 -61q168 -117 168 -345q0 -250 -170 -364q-65 -43 -134 -59t-195 -16h-397v-382h-193v1462zM353 1077v-540h372q159 0 231 53q98 72 98 220q0 156 -115 225q-40 24 -92 33t-149 9h-345z" />
    <glyph glyph-name="germandbls" unicode="&#xdf;" 
d="M462 133q39 -7 69 -7q152 0 234.5 69t82.5 197q0 160 -86.5 234.5t-271.5 74.5h-28v146q131 0 195 31q122 58 122 218q0 107 -64.5 171.5t-171.5 64.5q-146 0 -200 -97q-24 -44 -31.5 -97t-7.5 -177v-961h-174v929q0 176 12.5 251.5t53.5 137.5q52 80 143 123.5t208 43.5
q179 0 292 -98q118 -102 118 -280q0 -118 -57 -203.5t-153 -112.5q73 -14 126 -50q153 -107 153 -344q0 -193 -132 -307.5t-353 -114.5q-41 0 -79 8v150z" />
    <glyph glyph-name="agrave" unicode="&#xe0;" horiz-adv-x="1100" 
d="M1069 147v-144q-62 -21 -123 -21q-71 0 -110 43t-41 122q-149 -179 -384 -179q-149 0 -237 74q-102 86 -102 235q0 215 199 297q51 21 97.5 29.5t229.5 31.5q106 14 146 44.5t40 99.5q0 191 -239 191q-126 0 -187 -52t-73 -169h-171q4 177 121.5 276t322.5 99
q225 0 331 -107q40 -41 56 -98t16 -159q0 -130 -6 -448l-1 -67q0 -60 15.5 -84.5t52.5 -24.5q21 0 47 11zM787 562q-37 -27 -79.5 -38.5t-154.5 -26.5q-94 -11 -135 -21t-78 -29q-89 -47 -89 -153q0 -85 56.5 -134t154.5 -49q88 0 166 40t125 109q34 50 34 152v150z
M292 1535h216l152 -293h-121z" />
    <glyph glyph-name="aacute" unicode="&#xe1;" horiz-adv-x="1100" 
d="M1069 147v-144q-62 -21 -123 -21q-71 0 -110 43t-41 122q-149 -179 -384 -179q-149 0 -237 74q-102 86 -102 235q0 215 199 297q51 21 97.5 29.5t229.5 31.5q106 14 146 44.5t40 99.5q0 191 -239 191q-126 0 -187 -52t-73 -169h-171q4 177 121.5 276t322.5 99
q225 0 331 -107q40 -41 56 -98t16 -159q0 -130 -6 -448l-1 -67q0 -60 15.5 -84.5t52.5 -24.5q21 0 47 11zM787 562q-37 -27 -79.5 -38.5t-154.5 -26.5q-94 -11 -135 -21t-78 -29q-89 -47 -89 -153q0 -85 56.5 -134t154.5 -49q88 0 166 40t125 109q34 50 34 152v150z
M816 1535l-247 -293h-121l152 293h216z" />
    <glyph glyph-name="acircumflex" unicode="&#xe2;" horiz-adv-x="1100" 
d="M1069 147v-144q-62 -21 -123 -21q-71 0 -110 43t-41 122q-149 -179 -384 -179q-149 0 -237 74q-102 86 -102 235q0 215 199 297q51 21 97.5 29.5t229.5 31.5q106 14 146 44.5t40 99.5q0 191 -239 191q-126 0 -187 -52t-73 -169h-171q4 177 121.5 276t322.5 99
q225 0 331 -107q40 -41 56 -98t16 -159q0 -130 -6 -448l-1 -67q0 -60 15.5 -84.5t52.5 -24.5q21 0 47 11zM787 562q-37 -27 -79.5 -38.5t-154.5 -26.5q-94 -11 -135 -21t-78 -29q-89 -47 -89 -153q0 -85 56.5 -134t154.5 -49q88 0 166 40t125 109q34 50 34 152v150z
M864 1242h-176l-137 196l-145 -196h-157l211 293h189z" />
    <glyph glyph-name="atilde" unicode="&#xe3;" horiz-adv-x="1100" 
d="M1069 147v-144q-62 -21 -123 -21q-71 0 -110 43t-41 122q-149 -179 -384 -179q-149 0 -237 74q-102 86 -102 235q0 215 199 297q51 21 97.5 29.5t229.5 31.5q106 14 146 44.5t40 99.5q0 191 -239 191q-126 0 -187 -52t-73 -169h-171q4 177 121.5 276t322.5 99
q225 0 331 -107q40 -41 56 -98t16 -159q0 -130 -6 -448l-1 -67q0 -60 15.5 -84.5t52.5 -24.5q21 0 47 11zM787 562q-37 -27 -79.5 -38.5t-154.5 -26.5q-94 -11 -135 -21t-78 -29q-89 -47 -89 -153q0 -85 56.5 -134t154.5 -49q88 0 166 40t125 109q34 50 34 152v150z
M870 1484q-14 -110 -64 -170t-127 -60q-45 0 -126 34q-112 46 -143 46q-61 0 -85 -92h-92q12 109 63 168.5t132 59.5q38 0 69.5 -10t133.5 -56q27 -12 57 -12q66 0 86 92h96z" />
    <glyph glyph-name="adieresis" unicode="&#xe4;" horiz-adv-x="1100" 
d="M1069 147v-144q-62 -21 -123 -21q-71 0 -110 43t-41 122q-149 -179 -384 -179q-149 0 -237 74q-102 86 -102 235q0 215 199 297q51 21 97.5 29.5t229.5 31.5q106 14 146 44.5t40 99.5q0 191 -239 191q-126 0 -187 -52t-73 -169h-171q4 177 121.5 276t322.5 99
q225 0 331 -107q40 -41 56 -98t16 -159q0 -130 -6 -448l-1 -67q0 -60 15.5 -84.5t52.5 -24.5q21 0 47 11zM787 562q-37 -27 -79.5 -38.5t-154.5 -26.5q-94 -11 -135 -21t-78 -29q-89 -47 -89 -153q0 -85 56.5 -134t154.5 -49q88 0 166 40t125 109q34 50 34 152v150z
M441 1462v-220h-174v220h174zM826 1462v-220h-174v220h174z" />
    <glyph glyph-name="aring" unicode="&#xe5;" horiz-adv-x="1100" 
d="M1069 147v-144q-62 -21 -123 -21q-71 0 -110 43t-41 122q-149 -179 -384 -179q-149 0 -237 74q-102 86 -102 235q0 215 199 297q51 21 97.5 29.5t229.5 31.5q106 14 146 44.5t40 99.5q0 191 -239 191q-126 0 -187 -52t-73 -169h-171q4 177 121.5 276t322.5 99
q225 0 331 -107q40 -41 56 -98t16 -159q0 -130 -6 -448l-1 -67q0 -60 15.5 -84.5t52.5 -24.5q21 0 47 11zM787 562q-37 -27 -79.5 -38.5t-154.5 -26.5q-94 -11 -135 -21t-78 -29q-89 -47 -89 -153q0 -85 56.5 -134t154.5 -49q88 0 166 40t125 109q34 50 34 152v150z
M555 1613q95 0 161 -73q57 -64 57 -148q0 -99 -73 -165q-63 -57 -148 -57q-99 0 -165 73q-57 63 -57 150q0 96 73 163q63 57 152 57zM546 1519q-51 0 -88 -37.5t-37 -90.5t37 -90t91 -37q53 0 91.5 37.5t38.5 90.5q0 52 -39 89.5t-94 37.5z" />
    <glyph glyph-name="ae" unicode="&#xe6;" horiz-adv-x="1782" 
d="M1724 344q-29 -129 -108 -223q-128 -153 -359 -153q-273 0 -378 219q-126 -219 -430 -219q-182 0 -286 94q-91 83 -91 229q0 164 128 252q84 57 303 82q150 17 200 27.5t68 28.5q27 28 27 101q0 186 -242 186q-162 0 -229 -90q-32 -43 -40 -133h-171q17 161 99 247
q124 130 353 130q269 0 351 -152q51 73 139 112.5t199 39.5q224 0 350 -148.5t126 -412.5q0 -18 -1 -56h-769v-20q0 -116 43 -203q79 -161 265 -161q213 0 280 223h173zM1553 655q-6 118 -58 192q-39 57 -102.5 89t-136.5 32q-77 0 -144 -35.5t-104 -96.5q-36 -59 -48 -181
h593zM795 569q-35 -26 -73 -35.5t-184 -28.5q-163 -21 -225 -63.5t-62 -134.5q0 -93 59.5 -144.5t167.5 -51.5q140 0 235 83q82 70 82 198v177z" />
    <glyph glyph-name="ccedilla" unicode="&#xe7;" horiz-adv-x="1100" 
d="M604 -31l-68 -93q40 10 70 10q75 0 121 -36q55 -43 55 -112q0 -82 -69.5 -132t-182.5 -50q-91 0 -192 42l37 74q71 -27 140 -27q49 0 80 23t31 59q0 34 -29 57t-72 23q-32 0 -79 -16l-34 37l108 143q-158 12 -266 105q-182 156 -182 455q0 295 157 453q138 140 353 140
q194 0 311 -101t139 -287h-181q-18 92 -65 147q-76 88 -205 88q-174 0 -261 -144q-69 -114 -69 -282q0 -176 70 -287q87 -136 250 -136q119 0 194 72t95 204h178q-25 -192 -141.5 -307t-292.5 -122z" />
    <glyph glyph-name="egrave" unicode="&#xe8;" horiz-adv-x="1100" 
d="M1039 350q-83 -382 -464 -382q-257 0 -389 180q-112 153 -112 391q0 256 137 419q141 166 358 166q180 0 307 -112q93 -82 134.5 -203t40.5 -310h-798q12 -378 334 -378q111 0 177 54t104 175h171zM871 649q-9 111 -54 184q-85 138 -253 138q-131 0 -209.5 -82
t-99.5 -240h616zM294 1535h215l152 -293h-121z" />
    <glyph glyph-name="eacute" unicode="&#xe9;" horiz-adv-x="1100" 
d="M1039 350q-83 -382 -464 -382q-257 0 -389 180q-112 153 -112 391q0 256 137 419q141 166 358 166q180 0 307 -112q93 -82 134.5 -203t40.5 -310h-798q12 -378 334 -378q111 0 177 54t104 175h171zM871 649q-9 111 -54 184q-85 138 -253 138q-131 0 -209.5 -82
t-99.5 -240h616zM826 1535l-246 -293h-121l152 293h215z" />
    <glyph glyph-name="ecircumflex" unicode="&#xea;" horiz-adv-x="1100" 
d="M1039 350q-83 -382 -464 -382q-257 0 -389 180q-112 153 -112 391q0 256 137 419q141 166 358 166q180 0 307 -112q93 -82 134.5 -203t40.5 -310h-798q12 -378 334 -378q111 0 177 54t104 175h171zM871 649q-9 111 -54 184q-85 138 -253 138q-131 0 -209.5 -82
t-99.5 -240h616zM870 1242h-176l-137 196l-145 -196h-158l212 293h189z" />
    <glyph glyph-name="edieresis" unicode="&#xeb;" horiz-adv-x="1100" 
d="M1039 350q-83 -382 -464 -382q-257 0 -389 180q-112 153 -112 391q0 256 137 419q141 166 358 166q180 0 307 -112q93 -82 134.5 -203t40.5 -310h-798q12 -378 334 -378q111 0 177 54t104 175h171zM871 649q-9 111 -54 184q-85 138 -253 138q-131 0 -209.5 -82
t-99.5 -240h616zM462 1462v-220h-174v220h174zM847 1462v-220h-174v220h174z" />
    <glyph glyph-name="igrave" unicode="&#xec;" horiz-adv-x="455" 
d="M315 1092v-1092h-174v1092h174zM-36 1535h215l152 -293h-121z" />
    <glyph glyph-name="iacute" unicode="&#xed;" horiz-adv-x="455" 
d="M315 1092v-1092h-174v1092h174zM497 1535l-246 -293h-121l152 293h215z" />
    <glyph glyph-name="icircumflex" unicode="&#xee;" horiz-adv-x="455" 
d="M315 1092v-1092h-174v1092h174zM536 1242h-177l-137 196l-145 -196h-157l212 293h188z" />
    <glyph glyph-name="idieresis" unicode="&#xef;" horiz-adv-x="455" 
d="M316 1092v-1092h-174v1092h174zM464 1450v-208h-186v208h186zM179 1450v-208h-186v208h186z" />
    <glyph glyph-name="eth" unicode="&#xf0;" horiz-adv-x="1176" 
d="M446 1233l165 72l-50 79l122 53l52 -76l182 81l49 -107l-169 -74l143 -232q90 -146 123 -244q38 -114 38 -244q0 -257 -135 -412q-140 -161 -375 -161q-257 0 -397 181q-119 155 -119 393q0 273 154 433q137 143 342 143q64 0 155 -21l-60 104l-172 -71zM587 966
q-139 0 -230 -101q-103 -114 -103 -320q0 -209 100 -322q89 -101 241 -101q134 0 217 86q112 116 112 337q0 206 -98 318q-89 103 -239 103z" />
    <glyph glyph-name="ntilde" unicode="&#xf1;" 
d="M292 1090v-167q48 70 87 104q113 97 281 97q144 0 237 -76q64 -53 88 -127t24 -216v-705h-174v641q0 109 -7 157t-29 82q-57 90 -194 90q-133 0 -216 -91q-48 -52 -66.5 -128.5t-18.5 -225.5v-525h-174v1090h162zM888 1484q-14 -110 -64 -170t-127 -60q-45 0 -126 34
q-112 46 -143 46q-61 0 -85 -92h-92q12 109 63 168.5t132 59.5q38 0 69.5 -10t133.5 -56q27 -12 57 -12q66 0 86 92h96z" />
    <glyph glyph-name="ograve" unicode="&#xf2;" horiz-adv-x="1176" 
d="M597 1124q229 0 371 -161q133 -151 133 -416q0 -291 -158 -449q-130 -130 -349 -130q-251 0 -388 167q-131 159 -131 411q0 241 118 394q141 184 404 184zM586 970q-140 0 -230 -101q-103 -115 -103 -322q0 -210 100 -323q89 -102 241 -102q134 0 217 86q112 116 112 339
q0 206 -98 320q-89 103 -239 103zM327 1535h215l152 -293h-121z" />
    <glyph glyph-name="oacute" unicode="&#xf3;" horiz-adv-x="1176" 
d="M597 1124q229 0 371 -161q133 -151 133 -416q0 -291 -158 -449q-130 -130 -349 -130q-251 0 -388 167q-131 159 -131 411q0 241 118 394q141 184 404 184zM586 970q-140 0 -230 -101q-103 -115 -103 -322q0 -210 100 -323q89 -102 241 -102q134 0 217 86q112 116 112 339
q0 206 -98 320q-89 103 -239 103zM864 1535l-246 -293h-121l152 293h215z" />
    <glyph glyph-name="ocircumflex" unicode="&#xf4;" horiz-adv-x="1176" 
d="M597 1124q229 0 371 -161q133 -151 133 -416q0 -291 -158 -449q-130 -130 -349 -130q-251 0 -388 167q-131 159 -131 411q0 241 118 394q141 184 404 184zM586 970q-140 0 -230 -101q-103 -115 -103 -322q0 -210 100 -323q89 -102 241 -102q134 0 217 86q112 116 112 339
q0 206 -98 320q-89 103 -239 103zM896 1242h-176l-138 196l-145 -196h-157l212 293h189z" />
    <glyph glyph-name="otilde" unicode="&#xf5;" horiz-adv-x="1176" 
d="M597 1124q229 0 371 -161q133 -151 133 -416q0 -291 -158 -449q-130 -130 -349 -130q-251 0 -388 167q-131 159 -131 411q0 241 118 394q141 184 404 184zM586 970q-140 0 -230 -101q-103 -115 -103 -322q0 -210 100 -323q89 -102 241 -102q134 0 217 86q112 116 112 339
q0 206 -98 320q-89 103 -239 103zM907 1484q-14 -110 -64 -170t-127 -60q-45 0 -126 34q-112 46 -143 46q-61 0 -85 -92h-92q12 109 63 168.5t132 59.5q38 0 69.5 -10t133.5 -56q27 -12 57 -12q66 0 86 92h96z" />
    <glyph glyph-name="odieresis" unicode="&#xf6;" horiz-adv-x="1176" 
d="M597 1124q229 0 371 -161q133 -151 133 -416q0 -291 -158 -449q-130 -130 -349 -130q-251 0 -388 167q-131 159 -131 411q0 241 118 394q141 184 404 184zM586 970q-140 0 -230 -101q-103 -115 -103 -322q0 -210 100 -323q89 -102 241 -102q134 0 217 86q112 116 112 339
q0 206 -98 320q-89 103 -239 103zM483 1462v-220h-174v220h174zM868 1462v-220h-174v220h174z" />
    <glyph glyph-name="divide" unicode="&#xf7;" horiz-adv-x="1229" 
d="M615 1180q47 0 82 -35.5t35 -83.5q0 -49 -35 -84t-84 -35q-50 0 -84.5 35t-34.5 85q0 49 35.5 83.5t85.5 34.5zM616 493q48 0 83 -35.5t35 -84.5q0 -50 -35 -85t-85 -35t-85 35t-35 86q0 50 35.5 84.5t86.5 34.5zM139 787h951v-139h-951v139z" />
    <glyph glyph-name="oslash" unicode="&#xf8;" horiz-adv-x="1176" 
d="M183 176q-102 155 -102 374q0 239 118 391q141 184 395 184q199 0 330 -111l116 134l81 -79l-121 -137q108 -155 108 -386q0 -290 -158 -448q-131 -130 -348 -130q-209 0 -345 119l-123 -141l-80 80zM305 315l509 572q-87 85 -219 85q-143 0 -233 -101
q-103 -115 -103 -317q0 -142 46 -239zM880 793l-512 -577q93 -94 234 -94q134 0 216 86q112 116 112 338q0 143 -50 247z" />
    <glyph glyph-name="ugrave" unicode="&#xf9;" 
d="M1011 1092v-1092h-162v171q-131 -203 -368 -203q-188 0 -283 119q-70 90 -70 297v708h174v-642q0 -180 34 -237q55 -91 195 -91q179 0 264 161q42 79 42 282v527h174zM310 1535h216l152 -293h-121z" />
    <glyph glyph-name="uacute" unicode="&#xfa;" 
d="M1011 1092v-1092h-162v171q-131 -203 -368 -203q-188 0 -283 119q-70 90 -70 297v708h174v-642q0 -180 34 -237q55 -91 195 -91q179 0 264 161q42 79 42 282v527h174zM841 1535l-246 -293h-121l152 293h215z" />
    <glyph glyph-name="ucircumflex" unicode="&#xfb;" 
d="M1011 1092v-1092h-162v171q-131 -203 -368 -203q-188 0 -283 119q-70 90 -70 297v708h174v-642q0 -180 34 -237q55 -91 195 -91q179 0 264 161q42 79 42 282v527h174zM882 1242h-176l-137 196l-145 -196h-157l211 293h189z" />
    <glyph glyph-name="udieresis" unicode="&#xfc;" 
d="M1011 1092v-1092h-162v171q-131 -203 -368 -203q-188 0 -283 119q-70 90 -70 297v708h174v-642q0 -180 34 -237q55 -91 195 -91q179 0 264 161q42 79 42 282v527h174zM469 1462v-220h-174v220h174zM854 1462v-220h-174v220h174z" />
    <glyph glyph-name="yacute" unicode="&#xfd;" horiz-adv-x="1024" 
d="M1008 1092l-390 -1057q-104 -283 -146 -351q-75 -124 -226 -124q-50 0 -102 12l-27 7v163q76 -23 113 -23q79 0 125 91q27 53 81 196l-420 1086h196l316 -865l296 865h184zM781 1535l-246 -293h-121l152 293h215z" />
    <glyph glyph-name="thorn" unicode="&#xfe;" horiz-adv-x="1214" 
d="M311 1462v-523q119 188 343 188q208 0 337 -142q149 -163 149 -444q0 -256 -132 -413q-131 -157 -343 -157q-232 0 -354 183v-576h-174v1884h174zM628 973q-143 0 -232 -109q-92 -110 -92 -313q0 -217 101 -327q91 -100 232 -100q147 0 231 105q94 119 94 311
q0 205 -98 327q-85 106 -236 106z" />
    <glyph glyph-name="ydieresis" unicode="&#xff;" horiz-adv-x="1024" 
d="M1008 1092l-390 -1057q-104 -283 -146 -351q-75 -124 -226 -124q-50 0 -102 12l-27 7v163q76 -23 113 -23q79 0 125 91q27 53 81 196l-420 1086h196l316 -865l296 865h184zM406 1462v-220h-174v220h174zM792 1462v-220h-174v220h174z" />
    <glyph glyph-name="Amacron" unicode="&#x100;" horiz-adv-x="1327" 
d="M774 1468l572 -1468h-215l-163 449h-614l-167 -449h-204l574 1468h217zM911 605l-250 674l-251 -674h501zM1009 1768v-126h-690v126h690z" />
    <glyph glyph-name="amacron" unicode="&#x101;" horiz-adv-x="1100" 
d="M1069 147v-144q-62 -21 -123 -21q-71 0 -110 43t-41 122q-149 -179 -384 -179q-149 0 -237 74q-102 86 -102 235q0 215 199 297q51 21 97.5 29.5t229.5 31.5q106 14 146 44.5t40 99.5q0 191 -239 191q-126 0 -187 -52t-73 -169h-171q4 177 121.5 276t322.5 99
q225 0 331 -107q40 -41 56 -98t16 -159q0 -130 -6 -448l-1 -67q0 -60 15.5 -84.5t52.5 -24.5q21 0 47 11zM787 562q-37 -27 -79.5 -38.5t-154.5 -26.5q-94 -11 -135 -21t-78 -29q-89 -47 -89 -153q0 -85 56.5 -134t154.5 -49q88 0 166 40t125 109q34 50 34 152v150z
M875 1399v-120h-617v120h617z" />
    <glyph glyph-name="Abreve" unicode="&#x102;" horiz-adv-x="1327" 
d="M774 1468l572 -1468h-215l-163 449h-614l-167 -449h-204l574 1468h217zM911 605l-250 674l-251 -674h501zM983 1872q-10 -105 -59 -172q-87 -118 -264 -118q-179 0 -263 121q-48 69 -51 169h102q39 -150 221 -150q89 0 138.5 35.5t73.5 114.5h102z" />
    <glyph glyph-name="abreve" unicode="&#x103;" horiz-adv-x="1100" 
d="M1069 147v-144q-62 -21 -123 -21q-71 0 -110 43t-41 122q-149 -179 -384 -179q-149 0 -237 74q-102 86 -102 235q0 215 199 297q51 21 97.5 29.5t229.5 31.5q106 14 146 44.5t40 99.5q0 191 -239 191q-126 0 -187 -52t-73 -169h-171q4 177 121.5 276t322.5 99
q225 0 331 -107q40 -41 56 -98t16 -159q0 -130 -6 -448l-1 -67q0 -60 15.5 -84.5t52.5 -24.5q21 0 47 11zM787 562q-37 -27 -79.5 -38.5t-154.5 -26.5q-94 -11 -135 -21t-78 -29q-89 -47 -89 -153q0 -85 56.5 -134t154.5 -49q88 0 166 40t125 109q34 50 34 152v150z
M848 1512q-13 -118 -48 -173q-73 -118 -252 -118q-189 0 -253 140q-26 56 -30 151h99q10 -70 37 -103q48 -58 160 -58q86 0 128.5 36t59.5 125h99z" />
    <glyph glyph-name="Aogonek" unicode="&#x104;" horiz-adv-x="1327" 
d="M1353 0q-122 -90 -122 -177q0 -47 40.5 -77t103.5 -30q35 0 88 16l1 -95q-70 -22 -126 -22q-110 0 -174 55q-58 50 -58 125q0 104 136 205h-104l-163 449h-614l-167 -449h-204l574 1468h217zM918 605l-250 674l-251 -674h501z" />
    <glyph glyph-name="aogonek" unicode="&#x105;" horiz-adv-x="1100" 
d="M1141 -268l1 -95q-70 -22 -126 -22q-110 0 -174 55q-58 50 -58 126q0 101 120 192q-101 29 -104 159q-149 -179 -384 -179q-149 0 -237 74q-102 86 -102 235q0 215 199 297q51 21 97.5 29.5t229.5 31.5q106 14 146 44.5t40 99.5q0 191 -239 191q-126 0 -187 -52t-73 -169
h-171q4 177 121.5 276t322.5 99q225 0 331 -108q40 -40 56 -97.5t16 -159.5q0 -130 -6 -448l-1 -67q0 -60 15.5 -84.5t52.5 -24.5q21 0 47 12v-144q-58 -18 -96 -51q-69 -58 -69 -129q0 -47 40.5 -77t103.5 -30q35 0 88 16zM792 562q-37 -27 -79.5 -38.5t-154.5 -26.5
q-94 -11 -135 -21t-78 -29q-89 -47 -89 -153q0 -85 56.5 -134t154.5 -49q88 0 166 40t125 109q34 50 34 152v150z" />
    <glyph glyph-name="Cacute" unicode="&#x106;" horiz-adv-x="1479" 
d="M1398 551q-19 -222 -141 -373q-173 -212 -492 -212q-338 0 -522 239q-156 204 -156 524q0 344 200 564q184 203 493 203q301 0 474 -186q117 -128 132 -286h-194q-33 145 -143.5 226.5t-273.5 81.5q-262 0 -394 -213q-100 -162 -100 -388q0 -240 104 -400
q132 -201 390 -201q186 0 296.5 108.5t134.5 312.5h192zM1032 1857l-253 -278h-143l166 278h230z" />
    <glyph glyph-name="cacute" unicode="&#x107;" horiz-adv-x="1100" 
d="M1038 398q-27 -204 -149 -317t-314 -113q-258 0 -394 186q-109 150 -109 377q0 295 157 453q138 140 353 140q194 0 311 -101t139 -287h-181q-18 92 -65 147q-76 88 -205 88q-174 0 -261 -144q-69 -114 -69 -282q0 -176 70 -287q87 -136 250 -136q119 0 194 72t95 204
h178zM834 1535l-247 -293h-121l152 293h216z" />
    <glyph glyph-name="Ccircumflex" unicode="&#x108;" horiz-adv-x="1479" 
d="M1398 551q-19 -222 -141 -373q-173 -212 -492 -212q-338 0 -522 239q-156 204 -156 524q0 344 200 564q184 203 493 203q301 0 474 -186q117 -128 132 -286h-194q-33 145 -143.5 226.5t-273.5 81.5q-262 0 -394 -213q-100 -162 -100 -388q0 -240 104 -400
q132 -201 390 -201q186 0 296.5 108.5t134.5 312.5h192zM439 1582l215 272h218l212 -272h-179l-138 178l-130 -178h-198z" />
    <glyph glyph-name="ccircumflex" unicode="&#x109;" horiz-adv-x="1100" 
d="M1038 398q-27 -204 -149 -317t-314 -113q-258 0 -394 186q-109 150 -109 377q0 295 157 453q138 140 353 140q194 0 311 -101t139 -287h-181q-18 92 -65 147q-76 88 -205 88q-174 0 -261 -144q-69 -114 -69 -282q0 -176 70 -287q87 -136 250 -136q119 0 194 72t95 204
h178zM882 1242h-176l-137 196l-145 -196h-157l211 293h189z" />
    <glyph glyph-name="Cdotaccent" unicode="&#x10a;" horiz-adv-x="1479" 
d="M1398 551q-19 -222 -141 -373q-173 -212 -492 -212q-338 0 -522 239q-156 204 -156 524q0 344 200 564q184 203 493 203q301 0 474 -186q117 -128 132 -286h-194q-33 145 -143.5 226.5t-273.5 81.5q-262 0 -394 -213q-100 -162 -100 -388q0 -240 104 -400
q132 -201 390 -201q186 0 296.5 108.5t134.5 312.5h192zM875 1818v-202h-190v202h190z" />
    <glyph glyph-name="cdotaccent" unicode="&#x10b;" horiz-adv-x="1100" 
d="M1038 398q-27 -204 -149 -317t-314 -113q-258 0 -394 186q-109 150 -109 377q0 295 157 453q138 140 353 140q194 0 311 -101t139 -287h-181q-18 92 -65 147q-76 88 -205 88q-174 0 -261 -144q-69 -114 -69 -282q0 -176 70 -287q87 -136 250 -136q119 0 194 72t95 204
h178zM661 1462v-220h-174v220h174z" />
    <glyph glyph-name="Ccaron" unicode="&#x10c;" horiz-adv-x="1479" 
d="M1398 551q-19 -222 -141 -373q-173 -212 -492 -212q-338 0 -522 239q-156 204 -156 524q0 344 200 564q184 203 493 203q301 0 474 -186q117 -128 132 -286h-194q-33 145 -143.5 226.5t-273.5 81.5q-262 0 -394 -213q-100 -162 -100 -388q0 -240 104 -400
q132 -201 390 -201q186 0 296.5 108.5t134.5 312.5h192zM439 1854h198l130 -178l138 178h179l-212 -272h-218z" />
    <glyph glyph-name="ccaron" unicode="&#x10d;" horiz-adv-x="1100" 
d="M1038 398q-27 -204 -149 -317t-314 -113q-258 0 -394 186q-109 150 -109 377q0 295 157 453q138 140 353 140q194 0 311 -101t139 -287h-181q-18 92 -65 147q-76 88 -205 88q-174 0 -261 -144q-69 -114 -69 -282q0 -176 70 -287q87 -136 250 -136q119 0 194 72t95 204
h178zM884 1535l-212 -293h-191l-216 293h176l140 -197l145 197h158z" />
    <glyph glyph-name="Dcaron" unicode="&#x10e;" horiz-adv-x="1442" 
d="M159 1462h525q166 0 272 -32.5t193 -110.5q215 -192 215 -557q0 -391 -206 -600q-90 -92 -188 -127t-264 -35h-547v1462zM352 1294v-1126h316q149 0 225.5 24.5t137.5 91.5q138 154 138 470q0 284 -143 423q-63 62 -142.5 89.5t-195.5 27.5h-336zM344 1854h199l130 -178
l137 178h179l-211 -272h-218z" />
    <glyph glyph-name="dcaron" unicode="&#x10f;" horiz-adv-x="1337" 
d="M1085 1462v-1462h-164v165q-48 -96 -137 -146.5t-211 -50.5q-217 0 -351 151q-139 157 -139 430q0 268 131 420q135 157 346 157q123 0 213 -48t138 -139v523h174zM581 973q-139 0 -226 -105q-94 -113 -94 -314q0 -198 93 -319q87 -113 236 -113q151 0 238 114
q87 111 87 308q0 220 -99 329q-91 100 -235 100zM1423 1462v-142q0 -226 -190 -246v73q92 22 101 134h-101v181h190z" />
    <glyph glyph-name="Dcroat" unicode="&#x110;" horiz-adv-x="1442" 
d="M161 1462h525q165 0 272 -32.5t193 -110.5q112 -99 166 -254q49 -140 49 -303q0 -391 -206 -600q-90 -92 -188 -127t-265 -35h-546v688h-146v146h146v628zM354 1295v-461h380v-146h-380v-520h316q149 0 226 24.5t137 91.5q138 155 138 470q0 267 -121.5 404t-359.5 137
h-336z" />
    <glyph glyph-name="dcroat" unicode="&#x111;" horiz-adv-x="1235" 
d="M917 1355v107h173v-107h146v-131h-146v-1222h-162v163q-105 -197 -349 -197q-216 0 -350 152q-139 156 -139 429q0 269 131 420q135 157 345 157q123 0 213.5 -48t137.5 -139v285h-339v131h339zM588 973q-140 0 -227 -105q-94 -114 -94 -314q0 -197 93 -319
q87 -113 236 -113q151 0 239 114q87 112 87 308q0 220 -100 329q-91 100 -234 100z" />
    <glyph glyph-name="Emacron" unicode="&#x112;" horiz-adv-x="1251" 
d="M1169 1462v-168h-820v-463h766v-156h-766v-507h831v-168h-1024v1462h1013zM1010 1768v-126h-690v126h690z" />
    <glyph glyph-name="emacron" unicode="&#x113;" horiz-adv-x="1100" 
d="M1039 350q-83 -382 -464 -382q-257 0 -389 180q-112 153 -112 391q0 256 137 419q141 166 358 166q180 0 307 -112q93 -82 134.5 -203t40.5 -310h-798q12 -378 334 -378q111 0 177 54t104 175h171zM871 649q-9 111 -54 184q-85 138 -253 138q-131 0 -209.5 -82
t-99.5 -240h616zM871 1399v-120h-617v120h617z" />
    <glyph glyph-name="Ebreve" unicode="&#x114;" horiz-adv-x="1251" 
d="M1169 1462v-168h-820v-463h766v-156h-766v-507h831v-168h-1024v1462h1013zM982 1872q-11 -105 -59 -172q-86 -118 -264 -118q-179 0 -263 121q-48 69 -51 169h102q39 -150 221 -150q89 0 138.5 35t73.5 115h102z" />
    <glyph glyph-name="ebreve" unicode="&#x115;" horiz-adv-x="1100" 
d="M1039 350q-83 -382 -464 -382q-257 0 -389 180q-112 153 -112 391q0 256 137 419q141 166 358 166q180 0 307 -112q93 -82 134.5 -203t40.5 -310h-798q12 -378 334 -378q111 0 177 54t104 175h171zM871 649q-9 111 -54 184q-85 138 -253 138q-131 0 -209.5 -82
t-99.5 -240h616zM853 1512q-12 -118 -47 -173q-73 -118 -252 -118q-189 0 -253 140q-26 56 -30 151h99q10 -70 37 -103q48 -58 160 -58q86 0 128 36t60 125h98z" />
    <glyph glyph-name="Edotaccent" unicode="&#x116;" horiz-adv-x="1251" 
d="M1169 1462v-168h-820v-463h766v-156h-766v-507h831v-168h-1024v1462h1013zM760 1818v-202h-190v202h190z" />
    <glyph glyph-name="edotaccent" unicode="&#x117;" horiz-adv-x="1100" 
d="M1039 350q-83 -382 -464 -382q-257 0 -389 180q-112 153 -112 391q0 256 137 419q141 166 358 166q180 0 307 -112q93 -82 134.5 -203t40.5 -310h-798q12 -378 334 -378q111 0 177 54t104 175h171zM871 649q-9 111 -54 184q-85 138 -253 138q-131 0 -209.5 -82
t-99.5 -240h616zM649 1462v-220h-174v220h174z" />
    <glyph glyph-name="Eogonek" unicode="&#x118;" horiz-adv-x="1251" 
d="M1171 1462v-168h-820v-463h766v-156h-766v-507h831v-168q-122 -89 -122 -177q0 -47 40 -77t105 -30q35 0 87 16l1 -95q-69 -22 -127 -22q-110 0 -173 55q-58 50 -58 125q0 105 136 205h-913v1462h1013z" />
    <glyph glyph-name="eogonek" unicode="&#x119;" horiz-adv-x="1100" 
d="M901 -268l1 -95q-71 -22 -126 -22q-110 0 -174 55q-58 50 -58 126q0 95 100 176q-33 -4 -69 -4q-257 0 -389 180q-112 153 -112 391q0 256 137 419q141 166 358 166q180 0 307 -112q93 -82 134.5 -203t40.5 -310h-798q12 -378 334 -378q111 0 177 54t104 175h171
q-26 -120 -77 -194t-153 -143q-140 -93 -140 -190q0 -47 40.5 -77t103.5 -30q35 0 88 16zM871 649q-9 111 -54 184q-85 138 -253 138q-131 0 -209.5 -82t-99.5 -240h616z" />
    <glyph glyph-name="Ecaron" unicode="&#x11a;" horiz-adv-x="1251" 
d="M1169 1462v-168h-820v-463h766v-156h-766v-507h831v-168h-1024v1462h1013zM343 1854h198l130 -178l137 178h179l-211 -272h-218z" />
    <glyph glyph-name="ecaron" unicode="&#x11b;" horiz-adv-x="1100" 
d="M1039 350q-83 -382 -464 -382q-257 0 -389 180q-112 153 -112 391q0 256 137 419q141 166 358 166q180 0 307 -112q93 -82 134.5 -203t40.5 -310h-798q12 -378 334 -378q111 0 177 54t104 175h171zM871 649q-9 111 -54 184q-85 138 -253 138q-131 0 -209.5 -82
t-99.5 -240h616zM871 1535l-212 -293h-190l-216 293h176l140 -197l145 197h157z" />
    <glyph glyph-name="Gcircumflex" unicode="&#x11c;" horiz-adv-x="1554" 
d="M1428 772v-772h-123l-29 111q-12 45 -21 72q-175 -217 -470 -217q-351 0 -543 253q-155 205 -155 498q0 343 199 567q190 212 512 212q298 0 469 -176q127 -130 145 -307h-190q-21 144 -137.5 231.5t-286.5 87.5q-248 0 -389 -178q-128 -162 -128 -430q0 -246 117 -403
q141 -191 399 -191q199 0 328 126q126 124 130 360h-468v156h641zM460 1582l216 272h218l212 -272h-179l-138 178l-130 -178h-199z" />
    <glyph glyph-name="gcircumflex" unicode="&#x11d;" horiz-adv-x="1176" 
d="M1046 1092v-981q0 -134 -16 -215t-56 -150q-65 -111 -194 -161q-103 -39 -226 -39q-220 0 -340 104q-88 77 -106 219h179q32 -180 273 -180q184 0 256 107q55 84 57 249l1 145q-34 -62 -64 -94q-102 -110 -276 -110q-208 0 -335 153t-127 403q0 266 135 426
q63 75 152 116t187 41q113 0 194 -46.5t144 -147.5v161h162zM554 971q-149 0 -231 -126q-73 -111 -73 -291q0 -111 30 -199.5t84 -138.5q83 -76 194 -76q157 0 241 133q72 114 72 299q0 101 -28.5 186t-79.5 135q-80 78 -209 78zM867 1242h-177l-137 196l-145 -196h-157
l212 293h188z" />
    <glyph glyph-name="Gbreve" unicode="&#x11e;" horiz-adv-x="1554" 
d="M1428 772v-772h-123l-29 111q-12 45 -21 72q-175 -217 -470 -217q-351 0 -543 253q-155 205 -155 498q0 343 199 567q190 212 512 212q298 0 469 -176q127 -130 145 -307h-190q-21 144 -137.5 231.5t-286.5 87.5q-248 0 -389 -178q-128 -162 -128 -430q0 -246 117 -403
q141 -191 399 -191q199 0 328 126q126 124 130 360h-468v156h641zM1111 1872q-11 -105 -60 -172q-86 -118 -264 -118t-263 121q-48 69 -50 169h102q39 -150 221 -150q88 0 137.5 35t74.5 115h102z" />
    <glyph glyph-name="gbreve" unicode="&#x11f;" horiz-adv-x="1176" 
d="M1046 1092v-981q0 -134 -16 -215t-56 -150q-65 -111 -194 -161q-103 -39 -226 -39q-220 0 -340 104q-88 77 -106 219h179q32 -180 273 -180q184 0 256 107q55 84 57 249l1 145q-34 -62 -64 -94q-102 -110 -276 -110q-208 0 -335 153t-127 403q0 266 135 426
q63 75 152 116t187 41q113 0 194 -46.5t144 -147.5v161h162zM554 971q-149 0 -231 -126q-73 -111 -73 -291q0 -111 30 -199.5t84 -138.5q83 -76 194 -76q157 0 241 133q72 114 72 299q0 101 -28.5 186t-79.5 135q-80 78 -209 78zM876 1512q-12 -118 -47 -173
q-73 -118 -252 -118q-189 0 -253 140q-26 56 -30 151h99q10 -70 37 -103q48 -58 160 -58q86 0 128 36t60 125h98z" />
    <glyph glyph-name="Gdotaccent" unicode="&#x120;" horiz-adv-x="1554" 
d="M1428 772v-772h-123l-29 111q-12 45 -21 72q-175 -217 -470 -217q-351 0 -543 253q-155 205 -155 498q0 343 199 567q190 212 512 212q298 0 469 -176q127 -130 145 -307h-190q-21 144 -137.5 231.5t-286.5 87.5q-248 0 -389 -178q-128 -162 -128 -430q0 -246 117 -403
q141 -191 399 -191q199 0 328 126q126 124 130 360h-468v156h641zM880 1818v-202h-190v202h190z" />
    <glyph glyph-name="gdotaccent" unicode="&#x121;" horiz-adv-x="1176" 
d="M1046 1092v-981q0 -134 -16 -215t-56 -150q-65 -111 -194 -161q-103 -39 -226 -39q-220 0 -340 104q-88 77 -106 219h179q32 -180 273 -180q184 0 256 107q55 84 57 249l1 145q-34 -62 -64 -94q-102 -110 -276 -110q-208 0 -335 153t-127 403q0 266 135 426
q63 75 152 116t187 41q113 0 194 -46.5t144 -147.5v161h162zM554 971q-149 0 -231 -126q-73 -111 -73 -291q0 -111 30 -199.5t84 -138.5q83 -76 194 -76q157 0 241 133q72 114 72 299q0 101 -28.5 186t-79.5 135q-80 78 -209 78zM646 1462v-220h-174v220h174z" />
    <glyph glyph-name="Gcommaaccent" unicode="&#x122;" horiz-adv-x="1554" 
d="M1428 772v-772h-123l-29 111q-12 45 -21 72q-175 -217 -470 -217q-351 0 -543 253q-155 205 -155 498q0 343 199 567q190 212 512 212q298 0 469 -176q127 -130 145 -307h-190q-21 144 -137.5 231.5t-286.5 87.5q-248 0 -389 -178q-128 -162 -128 -430q0 -246 117 -403
q141 -191 399 -191q199 0 328 126q126 124 130 360h-468v156h641zM858 -132v-142q0 -226 -190 -246v73q91 22 101 134h-101v181h190z" />
    <glyph glyph-name="gcommaaccent" unicode="&#x123;" horiz-adv-x="1176" 
d="M1046 1092v-981q0 -134 -16 -215t-56 -150q-65 -111 -194 -161q-103 -39 -226 -39q-220 0 -340 104q-88 77 -106 219h179q32 -180 273 -180q184 0 256 107q55 84 57 249l1 145q-34 -62 -64 -94q-102 -110 -276 -110q-208 0 -335 153t-127 403q0 266 135 426
q63 75 152 116t187 41q113 0 194 -46.5t144 -147.5v161h162zM554 971q-149 0 -231 -126q-73 -111 -73 -291q0 -111 30 -199.5t84 -138.5q83 -76 194 -76q157 0 241 133q72 114 72 299q0 101 -28.5 186t-79.5 135q-80 78 -209 78zM464 1243v142q0 226 190 247v-74
q-90 -22 -101 -134h101v-181h-190z" />
    <glyph glyph-name="Hcircumflex" unicode="&#x124;" horiz-adv-x="1479" 
d="M1318 1462v-1462h-193v685h-772v-685h-193v1462h193v-609h772v609h193zM1046 1582h-198l-116 178l-123 -178h-179l197 272h218z" />
    <glyph glyph-name="hcircumflex" unicode="&#x125;" 
d="M304 1462v-525q42 85 137 136t213 51q231 0 315 -164q40 -79 40 -251v-709h-174v686q0 144 -34 196q-58 88 -198 88q-92 0 -162 -44.5t-104 -124.5q-20 -48 -26.5 -104t-6.5 -185v-512h-174v1462h174zM647 1582h-198l-130 178l-138 -178h-179l212 272h218z" />
    <glyph glyph-name="Hbar" unicode="&#x126;" horiz-adv-x="1479" 
d="M1314 1248h139v-126h-139v-1122h-193v685h-772v-685h-193v1122h-130v126h130v214h193v-214h772v214h193v-214zM349 1122v-269h772v269h-772z" />
    <glyph glyph-name="hbar" unicode="&#x127;" horiz-adv-x="1159" 
d="M328 1332h352v-120h-352v-275q42 86 137 136.5t212 50.5q232 0 316 -164q40 -79 40 -251v-709h-174v686q0 144 -34 196q-58 88 -199 88q-91 0 -161.5 -44.5t-103.5 -124.5q-20 -48 -26.5 -104t-6.5 -185v-512h-174v1212h-91v120h91v130h174v-130z" />
    <glyph glyph-name="Itilde" unicode="&#x128;" horiz-adv-x="530" 
d="M362 1462v-1462h-193v1462h193zM615 1841q-14 -110 -69 -170.5t-141 -60.5q-49 0 -138 34q-123 46 -158 46q-69 0 -96 -92h-98q13 109 69 168.5t145 59.5q43 0 77 -10t146 -55q30 -12 63 -12q76 0 99 92h101z" />
    <glyph glyph-name="itilde" unicode="&#x129;" horiz-adv-x="455" 
d="M316 1092v-1092h-174v1092h174zM547 1484q-14 -110 -63.5 -170t-127.5 -60q-45 0 -126 34q-112 46 -143 46q-61 0 -84 -92h-93q12 109 63 168.5t133 59.5q37 0 68.5 -10t133.5 -56q27 -12 57 -12q66 0 86 92h96z" />
    <glyph glyph-name="Imacron" unicode="&#x12a;" horiz-adv-x="530" 
d="M362 1462v-1462h-193v1462h193zM530 1768v-126h-529v126h529z" />
    <glyph glyph-name="imacron" unicode="&#x12b;" horiz-adv-x="455" 
d="M315 1092v-1092h-174v1092h174zM462 1399v-120h-470v120h470z" />
    <glyph glyph-name="Ibreve" unicode="&#x12c;" horiz-adv-x="530" 
d="M361 1462v-1462h-193v1462h193zM590 1872q-10 -105 -59 -172q-86 -118 -264 -118q-179 0 -263 121q-48 69 -51 169h102q40 -150 221 -150q89 0 138.5 35t73.5 115h102z" />
    <glyph glyph-name="ibreve" unicode="&#x12d;" horiz-adv-x="455" 
d="M314 1092v-1092h-174v1092h174zM518 1512q-13 -118 -47 -173q-74 -118 -252 -118q-190 0 -253 140q-26 56 -30 151h99q10 -70 37 -103q48 -58 159 -58q86 0 128.5 36t60.5 125h98z" />
    <glyph glyph-name="Iogonek" unicode="&#x12e;" horiz-adv-x="530" 
d="M150 1462h193v-1462q-53 -24 -84 -71t-31 -104q0 -107 115 -107q39 0 81 14l1 -95q-62 -22 -112 -22q-93 0 -150.5 51.5t-57.5 136.5q0 113 121 197h-76v1462z" />
    <glyph glyph-name="iogonek" unicode="&#x12f;" horiz-adv-x="455" 
d="M307 0q-74 -48 -108 -89.5t-34 -85.5q0 -48 40 -78.5t105 -30.5q34 0 88 16l1 -95q-71 -22 -127 -22q-110 0 -174 55q-58 50 -58 125q0 57 30.5 102.5t106.5 102.5h-44v1092h174v-1092zM307 1462v-220h-174v220h174z" />
    <glyph glyph-name="Idotaccent" unicode="&#x130;" horiz-adv-x="530" 
d="M362 1462v-1462h-193v1462h193zM361 1818v-202h-190v202h190z" />
    <glyph glyph-name="dotlessi" unicode="&#x131;" horiz-adv-x="455" 
d="M315 1092v-1092h-174v1092h174z" />
    <glyph glyph-name="IJ" unicode="&#x132;" horiz-adv-x="1597" 
d="M373 1462v-1462h-193v1462h193zM1430 1462v-990q0 -135 -11.5 -201t-43.5 -124q-103 -181 -366 -181q-296 0 -392 201q-45 95 -45 260q0 23 2 56h188q-1 -135 12 -192q38 -161 234 -161q137 0 190 89q39 65 39 251v992h193z" />
    <glyph glyph-name="ij" unicode="&#x133;" horiz-adv-x="881" 
d="M321 1462v-220h-174v220h174zM321 1092v-1092h-174v1092h174zM745 1092v-1120q0 -156 -6.5 -209.5t-30.5 -96.5q-58 -106 -233 -106q-35 0 -78 8v150q36 -3 61 -3q84 0 100 44q13 35 13 212v1121h174zM745 1462v-220h-174v220h174z" />
    <glyph glyph-name="Jcircumflex" unicode="&#x134;" horiz-adv-x="1063" 
d="M903 1462v-990q0 -135 -11.5 -201t-43.5 -124q-103 -181 -366 -181q-296 0 -392 201q-45 95 -45 260q0 23 2 56h188q-1 -135 12 -192q38 -161 234 -161q137 0 190 89q39 65 39 251v992h193zM1122 1582h-198l-116 178l-123 -178h-179l197 272h218z" />
    <glyph glyph-name="jcircumflex" unicode="&#x135;" horiz-adv-x="455" 
d="M317 1092v-1120q0 -156 -6.5 -209.5t-30.5 -96.5q-58 -106 -233 -106q-35 0 -78 8v150q36 -3 61 -3q84 0 100 44q13 35 13 212v1121h174zM545 1242h-177l-137 196l-145 -196h-157l212 293h188z" />
    <glyph glyph-name="Kcommaaccent" unicode="&#x136;" horiz-adv-x="1366" 
d="M1349 1462l-618 -587l641 -875h-245l-532 743l-242 -230v-513h-193v1462h193v-725l742 725h254zM813 -117v-142q0 -226 -190 -247v74q91 21 100 134h-100v181h190z" />
    <glyph glyph-name="kcommaaccent" unicode="&#x137;" horiz-adv-x="1063" 
d="M1035 1092l-421 -392l451 -700h-221l-364 572l-167 -160v-412h-174v1462h174v-844l489 474h233zM649 -132v-142q0 -226 -190 -246v73q92 22 101 134h-101v181h190z" />
    <glyph glyph-name="kgreenlandic" unicode="&#x138;" horiz-adv-x="1065" 
d="M1045 1093l-474 -438l487 -655h-210l-394 541l-169 -160v-381h-166v1093h166v-515l540 515h220z" />
    <glyph glyph-name="Lacute" unicode="&#x139;" 
d="M1129 168v-168h-970v1462h193v-1294h777zM564 1857l-254 -278h-143l167 278h230z" />
    <glyph glyph-name="lacute" unicode="&#x13a;" horiz-adv-x="455" 
d="M315 1462v-1462h-174v1462h174zM521 1845l-246 -292h-121l152 292h215z" />
    <glyph glyph-name="Lcommaaccent" unicode="&#x13b;" 
d="M1129 168v-168h-970v1462h193v-1294h777zM749 -117v-142q0 -226 -190 -247v74q92 21 101 134h-101v181h190z" />
    <glyph glyph-name="lcommaaccent" unicode="&#x13c;" horiz-adv-x="455" 
d="M315 1462v-1462h-174v1462h174zM323 -132v-142q0 -226 -190 -246v73q92 22 101 134h-101v181h190z" />
    <glyph glyph-name="Lcaron" unicode="&#x13d;" 
d="M1129 168v-168h-970v1462h193v-1294h777zM873 1462v-157q0 -88 -11.5 -134t-42.5 -79q-45 -50 -151 -63v74q74 19 93 53q22 36 22 110h-115v196h205z" />
    <glyph glyph-name="lcaron" unicode="&#x13e;" horiz-adv-x="575" 
d="M317 1462v-1462h-174v1462h174zM650 1462v-142q0 -226 -190 -246v73q92 22 101 134h-101v181h190z" />
    <glyph glyph-name="Ldot" unicode="&#x13f;" 
d="M1129 177v-177h-970v1462h193v-1285h777zM975 839v-258h-259v258h259z" />
    <glyph glyph-name="ldot" unicode="&#x140;" horiz-adv-x="713" 
d="M312 1462v-1462h-174v1462h174zM724 825v-258h-259v258h259z" />
    <glyph glyph-name="Lslash" unicode="&#x141;" 
d="M144 739v723h193v-617l307 232v-172l-307 -231v-506h776v-168h-969v568l-131 -99v171z" />
    <glyph glyph-name="lslash" unicode="&#x142;" horiz-adv-x="455" 
d="M141 755v707h174v-605l130 101v-163l-130 -103v-692h-174v591l-130 -102v165z" />
    <glyph glyph-name="Nacute" unicode="&#x143;" horiz-adv-x="1479" 
d="M1042 1857l-254 -278h-143l166 278h231zM1326 1462v-1462h-213l-778 1184l6 -1184h-185v1462h209l783 -1200l-7 1200h185z" />
    <glyph glyph-name="nacute" unicode="&#x144;" 
d="M292 1090v-167q48 70 87 104q113 97 281 97q144 0 237 -76q64 -53 88 -127t24 -216v-705h-174v641q0 109 -7 157t-29 82q-57 90 -194 90q-133 0 -216 -91q-48 -52 -66.5 -128.5t-18.5 -225.5v-525h-174v1090h162zM814 1535l-246 -293h-121l152 293h215z" />
    <glyph glyph-name="Ncommaaccent" unicode="&#x145;" horiz-adv-x="1479" 
d="M821 -117v-142q0 -226 -190 -247v74q91 21 101 134h-101v181h190zM1326 1462v-1462h-213l-778 1184l6 -1184h-185v1462h209l783 -1200l-7 1200h185z" />
    <glyph glyph-name="ncommaaccent" unicode="&#x146;" 
d="M292 1090v-167q48 70 87 104q113 97 281 97q144 0 237 -76q64 -53 88 -127t24 -216v-705h-174v641q0 109 -7 157t-29 82q-57 90 -194 90q-133 0 -216 -91q-48 -52 -66.5 -128.5t-18.5 -225.5v-525h-174v1090h162zM664 -132v-142q0 -226 -190 -246v73q91 22 101 134h-101
v181h190z" />
    <glyph glyph-name="Ncaron" unicode="&#x147;" horiz-adv-x="1479" 
d="M426 1854h198l130 -178l138 178h179l-212 -272h-218zM1326 1462v-1462h-213l-778 1184l6 -1184h-185v1462h209l783 -1200l-7 1200h185z" />
    <glyph glyph-name="ncaron" unicode="&#x148;" 
d="M292 1090v-167q48 70 87 104q113 97 281 97q144 0 237 -76q64 -53 88 -127t24 -216v-705h-174v641q0 109 -7 157t-29 82q-57 90 -194 90q-133 0 -216 -91q-48 -52 -66.5 -128.5t-18.5 -225.5v-525h-174v1090h162zM879 1535l-212 -293h-191l-216 293h176l140 -197l145 197
h158z" />
    <glyph glyph-name="napostrophe" unicode="&#x149;" horiz-adv-x="1314" 
d="M466 1090v-167q48 70 87 103q113 98 281 98q144 0 237 -77q64 -52 88 -126t24 -216v-705h-174v641q0 109 -7.5 157t-28.5 82q-57 90 -193 90q-134 0 -217 -90q-48 -53 -66.5 -129.5t-18.5 -225.5v-525h-174v1090h162zM236 1434v-142q0 -221 -190 -241v73q92 22 101 129
h-101v181h190z" />
    <glyph glyph-name="Eng" unicode="&#x14a;" horiz-adv-x="1418" 
d="M323 1535v-228q65 92 119 136q155 128 381 128q197 0 318 -100q83 -69 115 -167.5t32 -287.5v-1044q0 -160 -7 -214t-33 -98q-62 -108 -249 -108q-36 0 -78 8v154q34 -7 61 -7q53 0 76.5 16t30.5 56q6 39 6 192v960q0 151 -11 222.5t-42 117.5q-30 46 -75 74
q-88 54 -209 54q-194 0 -313 -126q-69 -73 -95.5 -180t-26.5 -315v-778h-193v1535h193z" />
    <glyph glyph-name="eng" unicode="&#x14b;" horiz-adv-x="1186" 
d="M315 1092v-167q48 69 87 103q113 97 281 97q145 0 237 -76q64 -52 88 -126.5t24 -216.5v-734q0 -153 -6.5 -207.5t-30.5 -97.5q-58 -106 -233 -106q-36 0 -78 8v150q37 -3 59 -3q82 0 98.5 36.5t16.5 218.5v671q0 109 -7 157t-29 82q-58 90 -193 90q-134 0 -217 -90
q-48 -53 -66.5 -129.5t-18.5 -225.5v-526h-174v1092h162z" />
    <glyph glyph-name="Omacron" unicode="&#x14c;" horiz-adv-x="1556" 
d="M791 1496q300 0 494 -211q193 -209 193 -551q0 -305 -150 -506q-95 -127 -237 -195q-141 -67 -314 -67q-353 0 -550 264q-148 199 -148 500q0 354 192 555q202 211 520 211zM772 1332q-214 0 -355 -156q-144 -159 -144 -441q0 -264 121 -421q75 -96 191 -145
q93 -39 196 -39q207 0 340 136q163 166 163 464q0 273 -140 439q-138 163 -372 163zM1124 1768v-126h-690v126h690z" />
    <glyph glyph-name="omacron" unicode="&#x14d;" horiz-adv-x="1176" 
d="M597 1124q229 0 371 -161q133 -151 133 -416q0 -291 -158 -449q-130 -130 -349 -130q-251 0 -388 167q-131 159 -131 411q0 241 118 394q141 184 404 184zM586 970q-140 0 -230 -101q-103 -115 -103 -322q0 -210 100 -323q89 -102 241 -102q134 0 217 86q112 116 112 339
q0 206 -98 320q-89 103 -239 103zM897 1399v-120h-617v120h617z" />
    <glyph glyph-name="Obreve" unicode="&#x14e;" horiz-adv-x="1556" 
d="M791 1496q300 0 494 -211q193 -209 193 -551q0 -305 -150 -506q-95 -127 -237 -195q-141 -67 -314 -67q-353 0 -550 264q-148 199 -148 500q0 354 192 555q202 211 520 211zM772 1332q-214 0 -355 -156q-144 -159 -144 -441q0 -264 121 -421q75 -96 191 -145
q93 -39 196 -39q207 0 340 136q163 166 163 464q0 273 -140 439q-138 163 -372 163zM1097 1872q-10 -105 -59 -172q-86 -118 -264 -118q-179 0 -263 121q-47 69 -51 169h103q38 -150 221 -150q88 0 138 35.5t73 114.5h102z" />
    <glyph glyph-name="obreve" unicode="&#x14f;" horiz-adv-x="1176" 
d="M597 1124q229 0 371 -161q133 -151 133 -416q0 -291 -158 -449q-130 -130 -349 -130q-251 0 -388 167q-131 159 -131 411q0 241 118 394q141 184 404 184zM586 970q-140 0 -230 -101q-103 -115 -103 -322q0 -210 100 -323q89 -102 241 -102q134 0 217 86q112 116 112 339
q0 206 -98 320q-89 103 -239 103zM879 1512q-12 -118 -47 -173q-74 -118 -252 -118q-189 0 -253 140q-26 56 -30 151h99q10 -70 37 -103q48 -58 159 -58q86 0 128.5 36t60.5 125h98z" />
    <glyph glyph-name="Ohungarumlaut" unicode="&#x150;" horiz-adv-x="1556" 
d="M791 1496q300 0 494 -211q193 -209 193 -551q0 -305 -150 -506q-95 -127 -237 -195q-141 -67 -314 -67q-353 0 -550 264q-148 199 -148 500q0 354 192 555q202 211 520 211zM772 1332q-214 0 -355 -156q-144 -159 -144 -441q0 -264 121 -421q75 -96 191 -145
q93 -39 196 -39q207 0 340 136q163 166 163 464q0 273 -140 439q-138 163 -372 163zM1197 1857l-196 -278h-129l123 278h202zM860 1857l-195 -278h-129l123 278h201z" />
    <glyph glyph-name="ohungarumlaut" unicode="&#x151;" horiz-adv-x="1176" 
d="M597 1124q229 0 371 -161q133 -151 133 -416q0 -291 -158 -449q-130 -130 -349 -130q-251 0 -388 167q-131 159 -131 411q0 241 118 394q141 184 404 184zM586 970q-140 0 -230 -101q-103 -115 -103 -322q0 -210 100 -323q89 -102 241 -102q134 0 217 86q112 116 112 339
q0 206 -98 320q-89 103 -239 103zM964 1535l-173 -293h-109l96 293h186zM672 1535l-173 -293h-110l97 293h186z" />
    <glyph glyph-name="OE" unicode="&#x152;" horiz-adv-x="2200" 
d="M2107 1462v-168h-783v-463h717v-156h-717v-507h794v-168h-974v149q-155 -177 -401 -177q-322 0 -508 242q-158 205 -158 513q0 339 189 550q191 213 490 213q137 0 231 -37.5t159 -117.5v127h961zM1131 437v593q0 74 -9.5 105t-44.5 71q-108 121 -299 121
q-249 0 -391 -193q-116 -159 -116 -398q0 -271 141 -440q131 -160 351 -160q204 0 317 138q51 62 51 163z" />
    <glyph glyph-name="oe" unicode="&#x153;" horiz-adv-x="1825" 
d="M1758 347q-26 -129 -101 -218q-136 -161 -361 -161q-143 0 -235 54t-142 167q-29 -72 -85 -122q-109 -99 -283 -99q-231 0 -368 177q-111 144 -111 402q0 260 124 413q133 164 364 164q265 0 367 -195q117 195 367 195q243 0 371 -175q105 -144 105 -404v-43h-769
q-1 -17 -1 -26q0 -84 24 -151q74 -204 283 -204q207 0 279 226h172zM1589 652q-6 115 -48 182q-41 65 -106.5 101t-141.5 36q-128 0 -206.5 -84.5t-89.5 -234.5h592zM549 971q-132 0 -209 -99q-90 -116 -90 -326q0 -196 77 -309q37 -54 98 -85t130 -31q101 0 173 62
q56 48 87.5 147t31.5 229q0 213 -83 318q-75 94 -215 94z" />
    <glyph glyph-name="Racute" unicode="&#x154;" horiz-adv-x="1403" 
d="M157 1462h668q184 0 288 -64q86 -53 131.5 -139t45.5 -195q0 -133 -64 -225t-186 -133q106 -22 161 -105q33 -50 42 -95.5t28 -252.5q17 -188 57 -232l18 -21h-221q-22 32 -29 77.5t-15 210.5q-12 237 -111 301q-69 45 -235 45h-385v-634h-193v1462zM350 1294v-504h364
q110 0 171 10t103 35q108 63 108 212q0 114 -68 179q-40 37 -99 52.5t-163 15.5h-416zM954 1857l-254 -278h-143l167 278h230z" />
    <glyph glyph-name="racute" unicode="&#x155;" horiz-adv-x="682" 
d="M683 1124v-191q-37 3 -55 3q-140 0 -230 -95q-59 -62 -80 -149t-21 -271v-421h-174v1090h162v-224q113 266 398 258zM648 1535l-246 -293h-121l152 293h215z" />
    <glyph glyph-name="Rcommaaccent" unicode="&#x156;" horiz-adv-x="1403" 
d="M157 1462h668q184 0 288 -64q86 -53 131.5 -139t45.5 -195q0 -133 -64 -225t-186 -133q106 -22 161 -105q33 -50 42 -95.5t28 -252.5q17 -188 57 -232l18 -21h-221q-22 32 -29 77.5t-15 210.5q-12 237 -111 301q-69 45 -235 45h-385v-634h-193v1462zM350 1294v-504h364
q110 0 171 10t103 35q108 63 108 212q0 114 -68 179q-40 37 -99 52.5t-163 15.5h-416zM821 -117v-142q0 -226 -190 -247v74q91 21 101 134h-101v181h190z" />
    <glyph glyph-name="rcommaaccent" unicode="&#x157;" horiz-adv-x="682" 
d="M683 1124v-191q-37 3 -55 3q-140 0 -230 -95q-59 -62 -80 -149t-21 -271v-421h-174v1090h162v-224q113 266 398 258zM304 -132v-142q0 -226 -190 -246v73q92 22 101 134h-101v181h190z" />
    <glyph glyph-name="Rcaron" unicode="&#x158;" horiz-adv-x="1403" 
d="M157 1462h668q184 0 288 -64q86 -53 131.5 -139t45.5 -195q0 -133 -64 -225t-186 -133q106 -22 161 -105q33 -50 42 -95.5t28 -252.5q17 -188 57 -232l18 -21h-221q-22 32 -29 77.5t-15 210.5q-12 237 -111 301q-69 45 -235 45h-385v-634h-193v1462zM350 1294v-504h364
q110 0 171 10t103 35q108 63 108 212q0 114 -68 179q-40 37 -99 52.5t-163 15.5h-416zM360 1854h198l130 -178l138 178h179l-212 -272h-218z" />
    <glyph glyph-name="rcaron" unicode="&#x159;" horiz-adv-x="682" 
d="M684 1124v-191q-37 3 -55 3q-140 0 -230 -95q-59 -62 -80 -149t-21 -271v-421h-174v1090h162v-224q113 266 398 258zM691 1535l-212 -293h-190l-216 293h176l139 -197l146 197h157z" />
    <glyph glyph-name="Sacute" unicode="&#x15a;" horiz-adv-x="1327" 
d="M1194 1034h-186q-16 134 -84 204q-91 94 -282 94q-138 0 -220 -49q-109 -65 -109 -194q0 -105 78 -150t319 -96q148 -32 228.5 -59t137.5 -63q175 -113 175 -310q0 -207 -164 -334q-142 -111 -406 -111q-285 0 -443.5 135.5t-160.5 381.5h187q3 -142 73 -222
q114 -131 358 -131q179 0 270 75t91 192q0 73 -35 120t-118 84q-64 29 -269 77q-198 46 -250 62.5t-106 49.5q-151 91 -151 287q0 194 139 306.5t378 112.5q346 0 483 -217q62 -99 67 -245zM937 1857l-253 -278h-143l166 278h230z" />
    <glyph glyph-name="sacute" unicode="&#x15b;" horiz-adv-x="1024" 
d="M918 774h-175q-10 73 -38 111q-62 85 -219 85q-100 0 -157 -37q-61 -40 -61 -115q0 -66 53 -98t230 -73q125 -29 192.5 -54.5t117.5 -62.5q100 -75 100 -214q0 -158 -120 -253t-320 -95q-216 0 -332 96.5t-123 281.5h171q10 -90 48 -136q73 -88 236 -88q151 0 221 77
q40 44 40 102q0 70 -55 108t-212 77q-167 41 -212.5 55t-88.5 38q-58 32 -91 91.5t-33 133.5q0 174 148 261q102 59 256 59q240 0 350 -133q63 -78 74 -217zM770 1535l-246 -293h-121l152 293h215z" />
    <glyph glyph-name="Scircumflex" unicode="&#x15c;" horiz-adv-x="1327" 
d="M1194 1034h-186q-16 134 -84 204q-91 94 -282 94q-138 0 -220 -49q-109 -65 -109 -194q0 -105 78 -150t319 -96q148 -32 228.5 -59t137.5 -63q175 -113 175 -310q0 -207 -164 -334q-142 -111 -406 -111q-285 0 -443.5 135.5t-160.5 381.5h187q3 -142 73 -222
q114 -131 358 -131q179 0 270 75t91 192q0 73 -35 120t-118 84q-64 29 -269 77q-198 46 -250 62.5t-106 49.5q-151 91 -151 287q0 194 139 306.5t378 112.5q346 0 483 -217q62 -99 67 -245zM329 1582l215 272h218l212 -272h-179l-138 178l-130 -178h-198z" />
    <glyph glyph-name="scircumflex" unicode="&#x15d;" horiz-adv-x="1024" 
d="M918 774h-175q-10 73 -38 111q-62 85 -219 85q-100 0 -157 -37q-61 -40 -61 -115q0 -66 53 -98t230 -73q125 -29 192.5 -54.5t117.5 -62.5q100 -75 100 -214q0 -158 -120 -253t-320 -95q-216 0 -332 96.5t-123 281.5h171q10 -90 48 -136q73 -88 236 -88q151 0 221 77
q40 44 40 102q0 70 -55 108t-212 77q-167 41 -212.5 55t-88.5 38q-58 32 -91 91.5t-33 133.5q0 174 148 261q102 59 256 59q240 0 350 -133q63 -78 74 -217zM821 1242h-177l-137 196l-145 -196h-157l212 293h188z" />
    <glyph glyph-name="Scedilla" unicode="&#x15e;" horiz-adv-x="1327" 
d="M714 -33l-68 -93q46 9 72 9q74 0 123.5 -40.5t49.5 -101.5q0 -84 -68 -136t-178 -52q-81 0 -199 42l35 77q71 -30 147 -30q47 0 76 23.5t29 61.5q0 33 -28.5 54t-73.5 21q-30 0 -80 -13l-33 37l107 142q-261 15 -403.5 149t-144.5 366h187q3 -142 73 -222
q114 -131 358 -131q180 0 270 75q91 75 91 191q0 74 -35 120.5t-118 84.5q-64 29 -269 77q-198 46 -250 62.5t-106 49.5q-151 91 -151 287q0 194 138.5 306.5t378.5 112.5q346 0 483 -217q62 -99 67 -245h-186q-16 134 -84 204q-91 94 -282 94q-138 0 -220 -49
q-109 -65 -109 -194q0 -105 78 -150q79 -45 319 -96q148 -32 228.5 -58.5t137.5 -63.5q175 -112 175 -310q0 -116 -56.5 -212.5t-159.5 -156.5q-116 -68 -321 -75z" />
    <glyph glyph-name="scedilla" unicode="&#x15f;" horiz-adv-x="1024" 
d="M557 -30l-68 -94q40 10 70 10q75 0 121 -36q55 -43 55 -112q0 -82 -69.5 -132t-182.5 -50q-91 0 -192 42l37 74q71 -27 140 -27q49 0 80 23t31 59q0 34 -28.5 57t-72.5 23q-31 0 -79 -16l-34 37l108 142q-395 32 -407 376h171q10 -90 48 -136q73 -88 236 -88
q151 0 221 77q40 44 40 102q0 70 -55 108t-212 76q-167 42 -212.5 56t-88.5 38q-58 32 -91 91.5t-33 133.5q0 174 148 261q102 59 256 59q240 0 350 -133q63 -78 74 -217h-175q-10 73 -38 111q-62 85 -219 85q-100 0 -157 -37q-61 -40 -61 -115q0 -66 53 -98t230 -73
q125 -29 192.5 -54.5t117.5 -62.5q100 -75 100 -213t-98 -233q-105 -102 -306 -114z" />
    <glyph glyph-name="Scaron" unicode="&#x160;" horiz-adv-x="1327" 
d="M1194 1034h-186q-16 134 -84 204q-91 94 -282 94q-138 0 -220 -49q-109 -65 -109 -194q0 -105 78 -150t319 -96q148 -32 228.5 -59t137.5 -63q175 -113 175 -310q0 -207 -164 -334q-142 -111 -406 -111q-285 0 -443.5 135.5t-160.5 381.5h187q3 -142 73 -222
q114 -131 358 -131q179 0 270 75t91 192q0 73 -35 120t-118 84q-64 29 -269 77q-198 46 -250 62.5t-106 49.5q-151 91 -151 287q0 194 139 306.5t378 112.5q346 0 483 -217q62 -99 67 -245zM329 1854h198l130 -178l138 178h179l-212 -272h-218z" />
    <glyph glyph-name="scaron" unicode="&#x161;" horiz-adv-x="1024" 
d="M918 774h-175q-10 73 -38 111q-62 85 -219 85q-100 0 -157 -37q-61 -40 -61 -115q0 -66 53 -98t230 -73q125 -29 192.5 -54.5t117.5 -62.5q100 -75 100 -214q0 -158 -120 -253t-320 -95q-216 0 -332 96.5t-123 281.5h171q10 -90 48 -136q73 -88 236 -88q151 0 221 77
q40 44 40 102q0 70 -55 108t-212 77q-167 41 -212.5 55t-88.5 38q-58 32 -91 91.5t-33 133.5q0 174 148 261q102 59 256 59q240 0 350 -133q63 -78 74 -217zM810 1535l-212 -293h-190l-216 293h176l139 -197l146 197h157z" />
    <glyph glyph-name="Tcommaaccent" unicode="&#x162;" horiz-adv-x="1176" 
d="M1177 1462v-168h-492v-1294h-193v1294h-491v168h1176zM684 -117v-142q0 -226 -190 -247v74q91 21 101 134h-101v181h190z" />
    <glyph glyph-name="tcommaaccent" unicode="&#x163;" horiz-adv-x="645" 
d="M583 1093v-150h-211v-644q0 -101 16 -127q22 -37 104 -37q44 0 91 9v-153q-68 -9 -135 -9q-175 0 -225 95q-17 33 -20 73.5t-5 251.5v541h-178v150h178v251h174v-251h211zM476 -132v-142q0 -226 -190 -246v73q91 22 101 134h-101v181h190z" />
    <glyph glyph-name="Tcaron" unicode="&#x164;" horiz-adv-x="1176" 
d="M1177 1462v-168h-492v-1294h-193v1294h-491v168h1176zM266 1854h199l130 -178l137 178h179l-211 -272h-218z" />
    <glyph glyph-name="tcaron" unicode="&#x165;" horiz-adv-x="743" 
d="M583 1093v-150h-211v-644q0 -101 16 -127q22 -37 104 -37q44 0 91 9v-153q-68 -9 -135 -9q-175 0 -225 95q-17 33 -20 73.5t-5 251.5v541h-178v150h178v251h174v-251h211zM693 1628v-142q0 -226 -190 -247v74q91 22 101 134h-101v181h190z" />
    <glyph glyph-name="Tbar" unicode="&#x166;" horiz-adv-x="1176" 
d="M1177 1462v-177h-492v-437h337v-153h-337v-695h-193v695h-336v153h336v437h-491v177h1176z" />
    <glyph glyph-name="tbar" unicode="&#x167;" horiz-adv-x="645" 
d="M583 1093v-150h-211v-205h189v-134h-189v-305q0 -101 16 -127q22 -37 104 -37q43 0 91 9v-153q-68 -9 -135 -9q-175 0 -225 95q-17 33 -20 73.5t-5 250.5v203h-163v134h163v205h-178v150h178v251h174v-251h211z" />
    <glyph glyph-name="Utilde" unicode="&#x168;" horiz-adv-x="1479" 
d="M1328 1462v-853q0 -196 -24 -280q-103 -363 -559 -363q-245 0 -381 94q-154 105 -194 296q-19 90 -19 256v850h193v-855q0 -140 10 -201.5t43 -119.5q88 -156 350 -156q251 0 334 145q31 55 42.5 125t11.5 207v855h193zM1090 1841q-15 -110 -70 -170.5t-140 -60.5
q-49 0 -138 34q-124 46 -158 46q-70 0 -97 -92h-98q13 109 69 168.5t146 59.5q42 0 76 -10t147 -55q30 -12 63 -12q75 0 98 92h102z" />
    <glyph glyph-name="utilde" unicode="&#x169;" 
d="M1011 1092v-1092h-162v171q-131 -203 -368 -203q-188 0 -283 119q-70 90 -70 297v708h174v-642q0 -180 34 -237q55 -91 195 -91q179 0 264 161q42 79 42 282v527h174zM888 1484q-14 -110 -63.5 -170t-127.5 -60q-44 0 -126 34q-112 46 -142 46q-62 0 -85 -92h-93
q12 109 63 168.5t133 59.5q37 0 68.5 -10t133.5 -56q27 -12 57 -12q66 0 87 92h95z" />
    <glyph glyph-name="Umacron" unicode="&#x16a;" horiz-adv-x="1479" 
d="M1328 1462v-853q0 -196 -24 -280q-103 -363 -559 -363q-245 0 -381 94q-154 105 -194 296q-19 90 -19 256v850h193v-855q0 -140 10 -201.5t43 -119.5q88 -156 350 -156q251 0 334 145q31 55 42.5 125t11.5 207v855h193zM1085 1768v-126h-691v126h691z" />
    <glyph glyph-name="umacron" unicode="&#x16b;" 
d="M1011 1092v-1092h-162v171q-131 -203 -368 -203q-188 0 -283 119q-70 90 -70 297v708h174v-642q0 -180 34 -237q55 -91 195 -91q179 0 264 161q42 79 42 282v527h174zM878 1399v-120h-617v120h617z" />
    <glyph glyph-name="Ubreve" unicode="&#x16c;" horiz-adv-x="1479" 
d="M1328 1462v-853q0 -196 -24 -280q-103 -363 -559 -363q-245 0 -381 94q-154 105 -194 296q-19 90 -19 256v850h193v-855q0 -140 10 -201.5t43 -119.5q88 -156 350 -156q251 0 334 145q31 55 42.5 125t11.5 207v855h193zM1058 1872q-10 -105 -59 -172q-86 -118 -264 -118
q-179 0 -263 121q-48 69 -51 169h103q38 -150 221 -150q88 0 138 35.5t73 114.5h102z" />
    <glyph glyph-name="ubreve" unicode="&#x16d;" 
d="M1011 1092v-1092h-162v171q-131 -203 -368 -203q-188 0 -283 119q-70 90 -70 297v708h174v-642q0 -180 34 -237q55 -91 195 -91q179 0 264 161q42 79 42 282v527h174zM861 1512q-13 -118 -47 -173q-74 -118 -253 -118q-189 0 -253 140q-25 56 -29 151h98q10 -70 37 -103
q49 -58 160 -58q86 0 128.5 36t59.5 125h99z" />
    <glyph glyph-name="Uring" unicode="&#x16e;" horiz-adv-x="1479" 
d="M1328 1462v-853q0 -196 -24 -280q-103 -363 -559 -363q-245 0 -381 94q-154 105 -194 296q-19 90 -19 256v850h193v-855q0 -140 10 -201.5t43 -119.5q88 -156 350 -156q251 0 334 145q31 55 42.5 125t11.5 207v855h193zM742 2016q99 0 169 -77q60 -67 60 -156
q0 -104 -77 -173q-66 -60 -156 -60q-104 0 -173 77q-60 66 -60 158q0 100 77 171q66 60 160 60zM733 1911q-52 0 -89 -37.5t-37 -90.5q0 -54 37 -91t91 -37t92.5 37.5t38.5 91.5q0 52 -39 89.5t-94 37.5z" />
    <glyph glyph-name="uring" unicode="&#x16f;" 
d="M1011 1092v-1092h-162v171q-131 -203 -368 -203q-188 0 -283 119q-70 90 -70 297v708h174v-642q0 -180 34 -237q55 -91 195 -91q179 0 264 161q42 79 42 282v527h174zM573 1613q95 0 161 -73q57 -64 57 -148q0 -99 -73 -165q-63 -57 -148 -57q-99 0 -165 73
q-57 63 -57 150q0 96 73 163q63 57 152 57zM564 1519q-51 0 -88 -37.5t-37 -90.5t37 -90t90 -37q54 0 92.5 37.5t38.5 90.5t-39 90t-94 37z" />
    <glyph glyph-name="Uhungarumlaut" unicode="&#x170;" horiz-adv-x="1479" 
d="M1328 1462v-853q0 -196 -24 -280q-103 -363 -559 -363q-245 0 -381 94q-154 105 -194 296q-19 90 -19 256v850h193v-855q0 -140 10 -201.5t43 -119.5q88 -156 350 -156q251 0 334 145q31 55 42.5 125t11.5 207v855h193zM1158 1857l-196 -278h-129l123 278h202zM821 1857
l-195 -278h-129l123 278h201z" />
    <glyph glyph-name="uhungarumlaut" unicode="&#x171;" 
d="M1011 1092v-1092h-162v171q-131 -203 -368 -203q-188 0 -283 119q-70 90 -70 297v708h174v-642q0 -180 34 -237q55 -91 195 -91q179 0 264 161q42 79 42 282v527h174zM936 1535l-173 -293h-109l96 293h186zM644 1535l-174 -293h-109l97 293h186z" />
    <glyph glyph-name="Uogonek" unicode="&#x172;" horiz-adv-x="1479" 
d="M1135 1462h193v-853q0 -148 -10.5 -218.5t-42.5 -140.5q-32 -69 -74.5 -116.5t-125.5 -106.5q-58 -42 -79 -60q-63 -56 -63 -129q0 -47 40.5 -77t103.5 -30q34 0 87 16l1 -96q-69 -21 -126 -21q-110 0 -174 55q-58 50 -58 130q0 48 22.5 84.5t80.5 82.5
q-105 -16 -182 -16q-350 0 -494 228q-47 75 -65 166t-18 252v850h193v-855q0 -140 10 -201.5t43 -119.5q88 -156 350 -156q251 0 334 145q31 55 42.5 125t11.5 207v855z" />
    <glyph glyph-name="uogonek" unicode="&#x173;" 
d="M1022 0q-123 -88 -123 -177q0 -47 40.5 -77t103.5 -30q34 0 88 16l1 -95q-70 -22 -126 -22q-110 0 -174 55q-58 50 -58 125q0 56 31 102.5t106 102.5h-51v171q-131 -203 -368 -203q-188 0 -283 119q-70 90 -70 297v708h174v-642q0 -180 34 -237q55 -91 195 -91
q179 0 264 161q42 79 42 282v527h174v-1092z" />
    <glyph glyph-name="Wcircumflex" unicode="&#x174;" horiz-adv-x="1896" 
d="M1877 1462l-390 -1462h-204l-341 1238l-336 -1238h-207l-379 1462h200l292 -1215l331 1215h212l331 -1214l297 1214h194zM1286 1582h-198l-130 178l-138 -178h-179l212 272h218z" />
    <glyph glyph-name="wcircumflex" unicode="&#x175;" horiz-adv-x="1552" 
d="M1519 1092l-338 -1092h-186l-221 834l-212 -834h-189l-340 1092h193l240 -854l216 854h193l222 -846l240 846h182zM1084 1242h-176l-138 196l-145 -196h-157l212 293h189z" />
    <glyph glyph-name="Ycircumflex" unicode="&#x176;" horiz-adv-x="1327" 
d="M1326 1462l-564 -864v-598h-193v598l-569 864h233l438 -696l434 696h221zM994 1582h-199l-130 178l-138 -178h-179l212 272h218z" />
    <glyph glyph-name="ycircumflex" unicode="&#x177;" horiz-adv-x="1024" 
d="M1008 1092l-390 -1057q-104 -283 -146 -351q-75 -124 -226 -124q-50 0 -102 12l-27 7v163q76 -23 113 -23q79 0 125 91q27 53 81 196l-420 1086h196l316 -865l296 865h184zM820 1242h-176l-138 196l-145 -196h-157l212 293h188z" />
    <glyph glyph-name="Ydieresis" unicode="&#x178;" horiz-adv-x="1327" 
d="M1326 1462l-564 -864v-598h-193v598l-569 864h233l438 -696l434 696h221zM989 1818v-202h-190v202h190zM539 1818v-202h-190v202h190z" />
    <glyph glyph-name="Zacute" unicode="&#x179;" horiz-adv-x="1251" 
d="M1188 1462v-160l-913 -1134h935v-168h-1167v163l911 1131h-839v168h1073zM926 1857l-253 -278h-143l166 278h230z" />
    <glyph glyph-name="zacute" unicode="&#x17a;" horiz-adv-x="983" 
d="M913 1092v-119l-644 -823h670v-150h-895v135l633 809h-592v148h828zM760 1535l-246 -293h-121l152 293h215z" />
    <glyph glyph-name="Zdotaccent" unicode="&#x17b;" horiz-adv-x="1251" 
d="M1188 1462v-160l-913 -1134h935v-168h-1167v163l911 1131h-839v168h1073zM742 1818v-202h-190v202h190z" />
    <glyph glyph-name="zdotaccent" unicode="&#x17c;" horiz-adv-x="983" 
d="M913 1092v-119l-644 -823h670v-150h-895v135l633 809h-592v148h828zM603 1462v-220h-174v220h174z" />
    <glyph glyph-name="Zcaron" unicode="&#x17d;" horiz-adv-x="1251" 
d="M1188 1462v-160l-913 -1134h935v-168h-1167v163l911 1131h-839v168h1073zM325 1854h198l130 -178l138 178h179l-212 -272h-217z" />
    <glyph glyph-name="zcaron" unicode="&#x17e;" horiz-adv-x="983" 
d="M913 1092v-119l-644 -823h670v-150h-895v135l633 809h-592v148h828zM805 1535l-212 -293h-190l-216 293h176l140 -197l145 197h157z" />
    <glyph glyph-name="longs" unicode="&#x17f;" horiz-adv-x="547" 
d="M561 1466v-157q-55 12 -100 12q-79 0 -105 -29.5t-26 -119.5v-1172h-174v942h-178v150l178 -1q0 161 15 215q21 80 91.5 124t176.5 44q48 0 122 -8z" />
    <glyph glyph-name="uni018F" unicode="&#x18f;" horiz-adv-x="1108" 
d="M120 1055q114 462 582 462q332 0 497 -232q145 -204 145 -514q0 -335 -177 -551t-456 -216q-229 0 -390 144q-116 104 -170 259t-54 388h1064q-3 102 -12 157q-25 170 -116 278q-118 138 -339 138q-159 0 -252.5 -73t-149.5 -240h-172zM279 650q11 -140 39 -215
q56 -145 173 -219q98 -63 227 -63q172 0 288 111q117 113 146 320q2 18 9 66h-882z" />
    <glyph glyph-name="florin" unicode="&#x192;" 
d="M884 1000l-23 -124h-211l-147 -864q-26 -150 -52 -220t-74 -119q-46 -46 -102.5 -65.5t-142.5 -19.5q-48 0 -121 6l25 159q45 -4 76 -4q101 0 141 48.5t67 202.5l152 876h-187l22 124h187l30 144q17 94 32 137t44 84q46 66 114 95.5t172 29.5q52 0 116 -7l-30 -158
q-48 13 -90 13q-81 0 -119.5 -43.5t-63.5 -162.5l-30 -132h215z" />
    <glyph glyph-name="uni01C4" unicode="&#x1c4;" horiz-adv-x="2645" 
d="M131 1462h525q166 0 272 -32.5t193 -110.5q215 -192 215 -557q0 -391 -206 -600q-90 -92 -188 -127t-264 -35h-547v1462zM324 1294v-1126h316q149 0 225.5 24.5t137.5 91.5q138 154 138 470q0 284 -143 423q-63 62 -142.5 89.5t-195.5 27.5h-336zM2589 1462v-160
l-913 -1134h935v-168h-1167v163l911 1131h-839v168h1073zM1727 1854h198l130 -178l138 178h179l-212 -272h-218z" />
    <glyph glyph-name="uni01C5" unicode="&#x1c5;" horiz-adv-x="2327" 
d="M2304 1094v-121l-644 -824h670v-149h-895v134l633 810h-592v150h828zM2199 1551l-212 -301h-191l-215 301h176l139 -201l146 201h157zM131 1462h525q166 0 272 -32.5t193 -110.5q215 -192 215 -557q0 -391 -206 -600q-90 -92 -188 -127t-264 -35h-547v1462zM324 1294
v-1126h316q149 0 225.5 24.5t137.5 91.5q138 154 138 470q0 284 -143 423q-63 62 -142.5 89.5t-195.5 27.5h-336z" />
    <glyph glyph-name="uni01C6" unicode="&#x1c6;" horiz-adv-x="2109" 
d="M1071 1462v-1462h-164v165q-48 -96 -137 -146.5t-211 -50.5q-217 0 -351 151q-139 157 -139 430q0 268 131 420q135 157 346 157q123 0 213 -48t138 -139v523h174zM567 973q-139 0 -226 -105q-94 -113 -94 -314q0 -198 93 -319q87 -113 236 -113q151 0 238 114
q87 111 87 308q0 220 -99 329q-91 100 -235 100zM2086 1094v-121l-644 -822h670v-151h-895v136l633 808h-592v150h828zM1981 1551l-212 -302h-190l-216 302h176l139 -201l146 201h157z" />
    <glyph glyph-name="uni01C7" unicode="&#x1c7;" horiz-adv-x="2069" 
d="M1100 168v-168h-970v1462h193v-1294h777zM1959 1462v-990q0 -135 -11.5 -201t-43.5 -124q-103 -181 -366 -181q-296 0 -392 201q-45 95 -45 260q0 21 2 56h188v-18v-35q0 -144 41 -209q58 -91 205 -91q137 0 190 89q39 65 39 251v992h193z" />
    <glyph glyph-name="uni01C8" unicode="&#x1c8;" horiz-adv-x="1518" 
d="M1100 166v-168h-970v1464h193v-1296h777zM1398 1092v-1120q0 -156 -6.5 -209.5t-30.5 -96.5q-58 -106 -233 -106q-35 0 -78 8v150q36 -3 61 -3q84 0 100 44q13 35 13 212v1121h174zM1398 1462v-220h-174v220h174z" />
    <glyph glyph-name="uni01C9" unicode="&#x1c9;" horiz-adv-x="828" 
d="M294 1462v-1462h-174v1462h174zM708 1092v-1120q0 -156 -6.5 -209.5t-30.5 -96.5q-58 -106 -233 -106q-35 0 -78 8v150q36 -3 61 -3q84 0 100 44q13 35 13 212v1121h174zM708 1462v-220h-174v220h174z" />
    <glyph glyph-name="uni01CA" unicode="&#x1ca;" horiz-adv-x="2396" 
d="M1301 1462v-1462h-213l-778 1184l6 -1184h-185v1462h209l783 -1200l-7 1200h185zM2286 1462v-990q0 -135 -11.5 -201t-43.5 -124q-103 -181 -366 -181q-296 0 -392 201q-45 95 -45 260q0 25 2 56h188v-18v-35q0 -144 41 -209q58 -91 205 -91q137 0 190 89q39 65 39 251
v992h193z" />
    <glyph glyph-name="uni01CB" unicode="&#x1cb;" horiz-adv-x="1845" 
d="M1725 1092v-1120q0 -156 -6.5 -209.5t-30.5 -96.5q-58 -106 -233 -106q-35 0 -78 8v150q36 -3 61 -3q84 0 100 44q13 35 13 212v1121h174zM1725 1462v-220h-174v220h174zM1301 1462v-1462h-213l-778 1184l6 -1184h-185v1462h209l783 -1200l-7 1200h185z" />
    <glyph glyph-name="uni01CC" unicode="&#x1cc;" horiz-adv-x="1526" 
d="M282 1092v-167q48 70 87 104q113 97 281 97q145 0 237 -76q64 -52 88 -126.5t24 -217.5v-706h-174v642q0 109 -7 157.5t-29 82.5q-57 90 -193 90q-134 0 -217 -91q-48 -52 -66.5 -129t-18.5 -226v-526h-174v1092h162zM1406 1092v-1120q0 -156 -6.5 -209.5t-30.5 -96.5
q-58 -106 -233 -106q-35 0 -78 8v150q36 -3 61 -3q84 0 100 44q13 34 13 212v1121h174zM1406 1462v-220h-174v220h174z" />
    <glyph glyph-name="uni01CD" unicode="&#x1cd;" horiz-adv-x="1327" 
d="M773 1468l572 -1468h-215l-163 449h-614l-167 -449h-204l574 1468h217zM910 605l-250 674l-251 -674h501zM1001 1854l-216 -272h-218l-212 272h179l138 -178l130 178h199z" />
    <glyph glyph-name="uni01CE" unicode="&#x1ce;" horiz-adv-x="1100" 
d="M1063 147v-144q-62 -21 -123 -21q-71 0 -110 43t-41 122q-149 -179 -384 -179q-149 0 -237 74q-102 86 -102 235q0 215 199 297q51 21 97.5 29.5t229.5 31.5q106 14 146 44.5t40 99.5q0 191 -239 191q-126 0 -187 -52t-73 -169h-171q4 177 121.5 276t322.5 99
q225 0 331 -107q40 -41 56 -98t16 -159q0 -130 -6 -448l-1 -67q0 -60 15.5 -84.5t52.5 -24.5q21 0 47 11zM781 562q-37 -27 -79.5 -38.5t-154.5 -26.5q-94 -11 -135 -21t-78 -29q-89 -47 -89 -153q0 -85 56.5 -134t154.5 -49q88 0 166 40t125 109q34 50 34 152v150z
M869 1535l-212 -293h-190l-216 293h176l139 -197l146 197h157z" />
    <glyph glyph-name="uni01CF" unicode="&#x1cf;" horiz-adv-x="453" 
d="M323 1462v-1462h-193v1462h193zM-96 1854h198l130 -178l138 178h179l-212 -272h-218z" />
    <glyph glyph-name="uni01D0" unicode="&#x1d0;" horiz-adv-x="455" 
d="M314 1113v-1113h-174v1113h174zM536 1506l-212 -292h-190l-216 292h176l139 -196l146 196h157z" />
    <glyph glyph-name="uni01D1" unicode="&#x1d1;" horiz-adv-x="1556" 
d="M791 1496q300 0 494 -211q193 -209 193 -551q0 -305 -150 -506q-95 -127 -237 -195q-141 -67 -314 -67q-353 0 -550 264q-148 199 -148 500q0 354 192 555q202 211 520 211zM772 1332q-214 0 -355 -156q-144 -159 -144 -441q0 -264 121 -421q75 -96 191 -145
q93 -39 196 -39q207 0 340 136q163 166 163 464q0 273 -140 439q-138 163 -372 163zM456 1854h198l131 -178l137 178h179l-211 -272h-218z" />
    <glyph glyph-name="uni01D2" unicode="&#x1d2;" horiz-adv-x="1176" 
d="M597 1126q229 0 371 -161q133 -151 133 -417q0 -291 -158 -450q-130 -130 -349 -130q-251 0 -388 167q-131 160 -131 412q0 241 118 395q140 184 404 184zM586 972q-139 0 -230 -101q-103 -115 -103 -323q0 -210 100 -324q89 -102 240 -102q135 0 218 86q112 117 112 340
q0 207 -98 320q-89 104 -239 104zM902 1478l-212 -288h-190l-216 288h176l139 -192l146 192h157z" />
    <glyph glyph-name="uni01D3" unicode="&#x1d3;" horiz-adv-x="1479" 
d="M1328 1462v-853q0 -196 -24 -280q-103 -363 -559 -363q-245 0 -381 94q-154 105 -194 296q-19 90 -19 256v850h193v-855q0 -140 10 -201.5t43 -119.5q88 -156 350 -156q251 0 334 145q31 55 42.5 125t11.5 207v855h193zM417 1854h198l131 -178l137 178h179l-211 -272
h-218z" />
    <glyph glyph-name="uni01D4" unicode="&#x1d4;" horiz-adv-x="1116" 
d="M996 1092v-1092h-162v171q-131 -203 -368 -203q-188 0 -283 119q-70 90 -70 297v708h174v-642q0 -180 34 -237q55 -91 195 -91q179 0 264 161q42 79 42 282v527h174zM864 1535l-212 -293h-191l-215 293h176l139 -197l146 197h157z" />
    <glyph glyph-name="uni01DD" unicode="&#x1dd;" horiz-adv-x="1108" 
d="M82 757q82 388 464 388q257 0 389 -183q112 -156 112 -398q0 -259 -137 -427q-139 -169 -359 -169q-179 0 -306 114q-94 83 -135 206t-40 315h797q-11 388 -329 388q-114 0 -180.5 -54.5t-104.5 -179.5h-171zM250 453q9 -114 54 -190q84 -142 252 -142q131 0 209.5 84.5
t99.5 247.5h-615z" />
    <glyph glyph-name="Gcaron" unicode="&#x1e6;" horiz-adv-x="1554" 
d="M1433 772v-772h-123l-29 111q-12 45 -21 72q-175 -217 -470 -217q-351 0 -543 253q-155 205 -155 498q0 343 199 567q190 212 512 212q298 0 469 -176q127 -130 145 -307h-190q-21 144 -137.5 231.5t-286.5 87.5q-248 0 -389 -178q-128 -162 -128 -430q0 -246 117 -403
q141 -191 399 -191q199 0 328 126q126 124 130 360h-468v156h641zM465 1854h199l130 -178l138 178h179l-212 -272h-218z" />
    <glyph glyph-name="gcaron" unicode="&#x1e7;" horiz-adv-x="1176" 
d="M1049 1092v-981q0 -134 -16 -215t-56 -150q-65 -111 -194 -161q-103 -39 -226 -39q-220 0 -340 104q-88 77 -106 219h179q32 -180 273 -180q184 0 256 107q55 84 57 249l1 145q-34 -62 -64 -94q-102 -110 -276 -110q-208 0 -335 153t-127 403q0 266 135 426
q63 75 152 116t187 41q113 0 194 -46.5t144 -147.5v161h162zM557 971q-149 0 -231 -126q-73 -111 -73 -291q0 -111 30 -199.5t84 -138.5q83 -76 194 -76q157 0 241 133q72 114 72 299q0 101 -28.5 186t-79.5 135q-80 78 -209 78zM871 1535l-212 -293h-190l-216 293h176
l139 -197l146 197h157z" />
    <glyph glyph-name="uni01F4" unicode="&#x1f4;" horiz-adv-x="1554" 
d="M1433 772v-772h-123l-29 111q-12 45 -21 72q-175 -217 -470 -217q-351 0 -543 253q-155 205 -155 498q0 343 199 567q190 212 512 212q298 0 469 -176q127 -130 145 -307h-190q-21 144 -137.5 231.5t-286.5 87.5q-248 0 -389 -178q-128 -162 -128 -430q0 -246 117 -403
q141 -191 399 -191q199 0 328 126q126 124 130 360h-468v156h641zM1084 1857l-254 -278h-143l167 278h230z" />
    <glyph glyph-name="uni01F5" unicode="&#x1f5;" horiz-adv-x="1176" 
d="M1049 1092v-981q0 -134 -16 -215t-56 -150q-65 -111 -194 -161q-103 -39 -226 -39q-220 0 -340 104q-88 77 -106 219h179q32 -180 273 -180q184 0 256 107q55 84 57 249l1 145q-34 -62 -64 -94q-102 -110 -276 -110q-208 0 -335 153t-127 403q0 266 135 426
q63 75 152 116t187 41q113 0 194 -46.5t144 -147.5v161h162zM557 971q-149 0 -231 -126q-73 -111 -73 -291q0 -111 30 -199.5t84 -138.5q83 -76 194 -76q157 0 241 133q72 114 72 299q0 101 -28.5 186t-79.5 135q-80 78 -209 78zM836 1535l-247 -293h-121l152 293h216z" />
    <glyph glyph-name="Aringacute" unicode="&#x1fa;" horiz-adv-x="1327" 
d="M773 1468l572 -1468h-215l-163 449h-614l-167 -449h-204l574 1468h217zM910 605l-250 674l-251 -674h501zM669 1963q100 0 170 -77q60 -67 60 -156q0 -104 -77 -173q-67 -60 -157 -60q-104 0 -173 77q-60 66 -60 158q0 100 77 171q66 60 160 60zM660 1858
q-51 0 -88.5 -38t-37.5 -90q0 -53 37.5 -90.5t90.5 -37.5q55 0 93.5 37.5t38.5 91.5q0 52 -39 89.5t-95 37.5zM779 2223l-254 -278h-143l167 278h230z" />
    <glyph glyph-name="aringacute" unicode="&#x1fb;" horiz-adv-x="1051" 
d="M1038 147v-144q-61 -21 -122 -21q-72 0 -111 43t-41 122q-149 -179 -384 -179q-149 0 -237 74q-102 87 -102 236q0 216 199 298q51 21 97.5 29.5t229.5 31.5q106 14 146 45t40 100q0 191 -240 191q-125 0 -186 -52.5t-73 -169.5h-171q4 176 121.5 275.5t322.5 99.5
q106 0 193.5 -28.5t137.5 -78.5q41 -42 56.5 -99.5t15.5 -167.5q0 -202 -6 -439q-1 -51 -1 -68q0 -60 15.5 -84.5t52.5 -24.5q21 0 47 11zM756 566q-36 -27 -78.5 -39t-155.5 -26q-94 -12 -135 -22t-78 -29q-89 -48 -89 -155q0 -85 56.5 -134.5t154.5 -49.5q88 0 166 40
t125 109q34 50 34 152v154zM517 1606q95 0 161 -76q57 -65 57 -153q0 -101 -73 -170q-63 -59 -148 -59q-99 0 -165 76q-57 65 -57 155q0 99 73 168q63 59 152 59zM508 1508q-51 0 -88 -38.5t-37 -92.5q0 -55 37 -93t90 -38q55 0 93 38.5t38 93.5q0 54 -39 92t-94 38z
M536 1782l-246 -287h-121l152 287h215z" />
    <glyph glyph-name="AEacute" unicode="&#x1fc;" horiz-adv-x="1874" 
d="M1808 1462v-168h-721v-463h679v-156h-679v-507h733v-168h-926v430h-503l-212 -430h-221l745 1462h1105zM894 586v712h-81l-345 -712h426zM1327 1857l-254 -278h-142l166 278h230z" />
    <glyph glyph-name="aeacute" unicode="&#x1fd;" horiz-adv-x="1764" 
d="M1693 344q-29 -129 -108 -223q-128 -153 -359 -153q-273 0 -378 220q-126 -220 -430 -220q-183 0 -286 94q-91 83 -91 229q0 166 128 253q84 58 303 82q149 17 199.5 28t68.5 29q27 28 27 101q0 186 -242 186q-162 0 -229 -91q-32 -42 -40 -133h-171q17 161 99 248
q124 130 353 130q269 0 351 -154q107 154 338 154q224 0 350 -149t126 -413q0 -18 -1 -56h-769v-20q0 -118 43 -204q79 -161 265 -161q214 0 280 223h173zM1522 656q-6 118 -58 192q-39 57 -102.5 89.5t-136.5 32.5q-78 0 -144 -35.5t-104 -97.5q-36 -59 -48 -181h593z
M764 571q-34 -27 -72 -36.5t-185 -28.5q-162 -21 -224.5 -64t-62.5 -135q0 -93 59.5 -144.5t167.5 -51.5q139 0 235 83q82 70 82 199v178zM1207 1470l-246 -286h-121l152 286h215z" />
    <glyph glyph-name="Oslashacute" unicode="&#x1fe;" horiz-adv-x="1556" 
d="M221 237q-143 199 -143 496q0 345 193 552q196 211 507 211q271 0 453 -157l161 176l89 -83l-166 -182q57 -78 89 -148q74 -159 74 -367q0 -306 -150 -507q-95 -127 -238 -195q-140 -67 -313 -67q-279 0 -475 179l-168 -184l-88 84zM350 378l759 827q-129 127 -333 127
q-218 0 -359 -156q-145 -160 -145 -439q0 -206 78 -359zM1187 1108l-763 -829q151 -149 357 -149q204 0 340 136q163 163 163 466q0 215 -97 376zM1053 1857l-254 -278h-143l167 278h230z" />
    <glyph glyph-name="oslashacute" unicode="&#x1ff;" horiz-adv-x="1176" 
d="M174 176q-102 155 -102 373q0 240 118 392q141 184 395 184q199 0 330 -110l116 134l81 -79l-121 -138q108 -154 108 -386q0 -290 -158 -448q-130 -130 -347 -130q-209 0 -346 119l-123 -141l-80 80zM296 315l509 573q-87 84 -218 84q-144 0 -234 -101
q-103 -115 -103 -317q0 -142 46 -239zM871 793l-512 -577q92 -94 234 -94q134 0 216 86q112 116 112 338q0 143 -50 247zM868 1470l-246 -286h-121l152 286h215z" />
    <glyph glyph-name="uni0200" unicode="&#x200;" horiz-adv-x="1327" 
d="M773 1468l572 -1468h-215l-163 449h-614l-167 -449h-204l574 1468h217zM910 605l-250 674l-251 -674h501zM266 1857h201l123 -278h-129zM602 1857h201l123 -278h-129z" />
    <glyph glyph-name="uni0201" unicode="&#x201;" horiz-adv-x="1100" 
d="M1063 147v-144q-61 -21 -122 -21q-72 0 -111 43t-41 122q-149 -179 -384 -179q-149 0 -237 74q-102 87 -102 236q0 216 199 298q51 21 97.5 29.5t229.5 31.5q106 14 146 45t40 100q0 191 -240 191q-125 0 -186 -52.5t-73 -169.5h-171q4 166 114 269q113 106 330 106
q106 0 193.5 -28.5t137.5 -78.5q41 -42 56.5 -99.5t15.5 -167.5q0 -203 -6 -439q-1 -51 -1 -68q0 -60 15.5 -84.5t52.5 -24.5q21 0 47 11zM781 563q-36 -26 -79 -38t-155 -26q-95 -12 -135.5 -22t-77.5 -29q-89 -47 -89 -153q0 -86 56.5 -135t154.5 -49q88 0 166 40t125 109
q34 50 34 152v151zM210 1470h186l97 -286h-110zM502 1470h187l96 -286h-109z" />
    <glyph glyph-name="Scommaaccent" unicode="&#x218;" horiz-adv-x="1327" 
d="M1194 1086h-186q-16 141 -83 214q-92 99 -283 99q-138 0 -220 -51q-109 -69 -109 -204q0 -111 78 -158t319 -101q152 -34 230 -61.5t136 -66.5q175 -118 175 -325q0 -217 -164 -351q-142 -116 -405 -116q-286 0 -444.5 142t-160.5 400h187q3 -148 73 -232
q114 -138 358 -138q179 0 270 79q91 78 91 201q0 76 -35 125.5t-118 88.5q-62 30 -269 81q-202 50 -252 66.5t-104 50.5q-151 97 -151 302q0 204 139 322t378 118q346 0 483 -228q62 -103 67 -257zM761 -139v-149q0 -238 -190 -259v77q91 24 101 141h-101v190h190z" />
    <glyph glyph-name="scommaaccent" unicode="&#x219;" horiz-adv-x="1024" 
d="M918 774h-175q-10 73 -38 111q-62 85 -219 85q-100 0 -157 -37q-61 -40 -61 -115q0 -66 53 -98t230 -73q125 -29 192.5 -54.5t117.5 -62.5q100 -75 100 -214q0 -158 -120 -253t-320 -95q-216 0 -332 96.5t-123 281.5h171q10 -90 48 -136q73 -88 236 -88q151 0 221 77
q40 44 40 102q0 70 -55 108t-212 77q-167 41 -212.5 55t-88.5 38q-58 32 -91 91.5t-33 133.5q0 174 148 261q102 59 256 59q240 0 350 -133q63 -78 74 -217zM608 -132v-142q0 -226 -190 -246v73q91 22 101 134h-101v181h190z" />
    <glyph glyph-name="uni021A" unicode="&#x21a;" horiz-adv-x="1176" 
d="M1177 1462v-168h-492v-1294h-193v1294h-491v168h1176zM684 -117v-142q0 -226 -190 -247v74q91 21 101 134h-101v181h190z" />
    <glyph glyph-name="uni021B" unicode="&#x21b;" horiz-adv-x="645" 
d="M583 1093v-150h-211v-644q0 -101 16 -127q22 -37 104 -37q44 0 91 9v-153q-68 -9 -135 -9q-175 0 -225 95q-17 33 -20 73.5t-5 251.5v541h-178v150h178v251h174v-251h211zM476 -132v-142q0 -226 -190 -246v73q91 22 101 134h-101v181h190z" />
    <glyph glyph-name="uni0226" unicode="&#x226;" horiz-adv-x="1374" 
d="M797 1468l572 -1468h-215l-163 449h-614l-167 -449h-204l574 1468h217zM934 605l-250 674l-251 -674h501zM783 1818v-202h-190v202h190z" />
    <glyph glyph-name="uni0227" unicode="&#x227;" horiz-adv-x="1100" 
d="M1063 147v-144q-62 -21 -122 -21q-72 0 -111 43t-41 122q-149 -179 -384 -179q-150 0 -237 74q-102 87 -102 236q0 216 199 298q51 21 97.5 29.5t229.5 32.5q107 13 146.5 44t39.5 100q0 191 -240 191q-125 0 -186 -52.5t-73 -169.5h-171q4 166 114 269q113 106 330 106
q106 0 193.5 -28.5t137.5 -78.5q41 -42 56.5 -99.5t15.5 -166.5q0 -203 -6 -440q-1 -51 -1 -68q0 -60 15.5 -84.5t52.5 -24.5q21 0 47 11zM781 563q-37 -27 -79.5 -38.5t-154.5 -25.5q-95 -12 -135.5 -22t-77.5 -29q-89 -47 -89 -153q0 -86 56.5 -135t154.5 -49
q89 0 166.5 40t124.5 109q34 50 34 152v151zM648 1423v-203h-187v203h187z" />
    <glyph glyph-name="uni0237" unicode="&#x237;" horiz-adv-x="414" 
d="M294 1092v-1120q0 -156 -6.5 -209.5t-30.5 -96.5q-58 -106 -233 -106q-35 0 -78 8v150q36 -3 61 -3q84 0 100 44q13 35 13 212v1121h174z" />
    <glyph glyph-name="uni0259" unicode="&#x259;" horiz-adv-x="1108" 
d="M82 757q82 388 464 388q257 0 389 -183q112 -156 112 -398q0 -259 -137 -427q-139 -169 -359 -169q-179 0 -306 114q-94 83 -135 206t-40 315h797q-11 388 -329 388q-114 0 -180.5 -54.5t-104.5 -179.5h-171zM250 453q9 -114 54 -190q84 -142 252 -142q131 0 209.5 84.5
t99.5 247.5h-615z" />
    <glyph glyph-name="uni02BB" unicode="&#x2bb;" horiz-adv-x="477" 
d="M121 961v161q0 99 17 158.5t59 110.5q57 69 158 93v-101q-115 -36 -119 -201h119v-221h-234z" />
    <glyph glyph-name="afii57929" unicode="&#x2bc;" horiz-adv-x="477" 
d="M355 1462v-161q0 -99 -17 -158.5t-59 -111.5q-57 -68 -158 -92v101q113 37 119 201h-119v221h234z" />
    <glyph glyph-name="circumflex" unicode="&#x2c6;" horiz-adv-x="455" 
d="M535 1242h-177l-137 196l-145 -196h-157l212 293h188z" />
    <glyph glyph-name="caron" unicode="&#x2c7;" horiz-adv-x="455" 
d="M536 1535l-212 -293h-190l-216 293h176l139 -197l146 197h157z" />
    <glyph glyph-name="uni02C9" unicode="&#x2c9;" horiz-adv-x="455" 
d="M537 1399v-120h-617v120h617z" />
    <glyph glyph-name="breve" unicode="&#x2d8;" horiz-adv-x="455" 
d="M518 1512q-13 -118 -47 -173q-74 -118 -252 -118q-190 0 -253 140q-26 56 -30 151h99q10 -70 37 -103q48 -58 159 -58q86 0 128.5 36t60.5 125h98z" />
    <glyph glyph-name="dotaccent" unicode="&#x2d9;" horiz-adv-x="455" 
d="M314 1462v-220h-174v220h174z" />
    <glyph glyph-name="ring" unicode="&#x2da;" horiz-adv-x="455" 
d="M231 1613q95 0 161 -73q57 -64 57 -148q0 -99 -73 -165q-63 -57 -149 -57q-98 0 -164 73q-57 63 -57 150q0 96 73 163q63 57 152 57zM222 1519q-51 0 -88 -37.5t-37 -90.5t37 -90t90 -37q55 0 93 37.5t38 90.5t-39 90t-94 37z" />
    <glyph glyph-name="ogonek" unicode="&#x2db;" horiz-adv-x="455" 
d="M318 0h110q-122 -91 -122 -177q0 -47 40.5 -77t104.5 -30q34 0 87 16l1 -95q-70 -22 -126 -22q-110 0 -174 55q-58 50 -58 126q0 103 137 204z" />
    <glyph glyph-name="tilde" unicode="&#x2dc;" horiz-adv-x="455" 
d="M551 1484q-14 -110 -63.5 -170t-127.5 -60q-45 0 -126 34q-112 46 -143 46q-61 0 -84 -92h-93q12 109 63 168.5t133 59.5q37 0 68.5 -10t133.5 -56q27 -12 57 -12q66 0 86 92h96z" />
    <glyph glyph-name="hungarumlaut" unicode="&#x2dd;" horiz-adv-x="455" 
d="M539 1535l-173 -293h-110l97 293h186zM246 1535l-173 -293h-109l96 293h186z" />
    <glyph glyph-name="uni037E" unicode="&#x37e;" horiz-adv-x="569" 
d="M401 1060v-219h-234v219h234zM401 221v-139q0 -165 -45 -245q-62 -109 -189 -140v102q121 43 118 201h-118v221h234z" />
    <glyph glyph-name="uni0387" unicode="&#x387;" horiz-adv-x="569" 
d="M405 659v-228h-240v228h240z" />
    <glyph glyph-name="Gamma" unicode="&#x393;" horiz-adv-x="1108" 
d="M140 0v1462h973v-159h-784v-1303h-189z" />
    <glyph glyph-name="Theta" unicode="&#x398;" horiz-adv-x="1589" 
d="M1078 823v-124h-567v124h567zM815 1498q325 0 514 -244q167 -215 167 -551q0 -196 -81 -370q-92 -197 -292 -296q-147 -73 -324 -73q-199 0 -359 89q-192 107 -274 303q-72 171 -72 372q0 344 187 556q189 214 534 214zM799 1340q-279 0 -417 -220q-97 -156 -97 -394
q0 -298 150 -457q139 -148 366 -148q132 0 241 60q146 80 207 237q56 144 56 314q0 162 -59 306q-66 161 -197 239q-108 63 -250 63z" />
    <glyph glyph-name="Sigma" unicode="&#x3a3;" horiz-adv-x="1232" 
d="M81 0v157l505 583l-500 557v165h1060v-160h-820l491 -562l-494 -575h856v-165h-1098z" />
    <glyph glyph-name="Phi" unicode="&#x3a6;" horiz-adv-x="1487" 
d="M663 -24v179q-194 11 -314 78q-142 80 -217 227q-61 121 -61 271q0 222 131 377q83 98 189.5 144t271.5 55v179h160v-179q112 -6 179 -24q211 -54 325 -231q90 -139 90 -321q0 -218 -127 -372q-128 -154 -336 -191q-46 -8 -131 -13v-179h-160zM663 1154
q-141 -12 -227 -67q-96 -61 -145 -164q-41 -86 -41 -191q0 -157 90 -271q58 -74 132 -109t191 -45v847zM824 307q141 13 227 68q187 118 187 357q0 236 -186 355q-90 58 -228 66v-846z" />
    <glyph glyph-name="uni03A9" unicode="&#x3a9;" horiz-adv-x="1532" 
d="M26 0v158h417q-396 234 -396 641q0 225 126 402q114 160 291 238q133 59 289 59q252 0 443 -153q134 -108 202 -259q60 -134 60 -286q0 -408 -396 -642h417v-158h-623v147q154 80 244 181q172 195 172 441q0 272 -193 444q-140 125 -325 125q-187 0 -328 -125
q-193 -171 -193 -443q0 -408 416 -623v-147h-623z" />
    <glyph glyph-name="alpha" unicode="&#x3b1;" horiz-adv-x="1320" 
d="M1272 1106l-209 -528l246 -578h-200l-151 404q-25 -49 -36 -73q-53 -110 -74.5 -147t-57.5 -81q-113 -137 -274 -137q-190 0 -311 169q-127 176 -127 423q0 214 101 375q128 204 346 204q204 0 324 -180q2 -4 108 -201l125 350h190zM909 578q-59 167 -110 255
q-93 161 -240 161q-141 0 -225 -136q-80 -132 -80 -306q0 -176 83 -306t217 -130q156 0 254 200q23 47 101 262z" />
    <glyph glyph-name="delta" unicode="&#x3b4;" horiz-adv-x="1174" 
d="M958 1533v-151h-496l356 -283q170 -135 226 -276q53 -134 53 -287q0 -247 -129 -401q-141 -168 -380 -168q-237 0 -380 172q-130 156 -130 406q0 182 74 315q67 122 159 173.5t243 51.5q17 0 60 -1l-403 321v128h747zM590 977q-162 0 -251 -126q-87 -124 -87 -307
q0 -188 83 -311q41 -62 109.5 -97t146.5 -35q164 0 252 129q81 120 81 307q0 181 -76 302q-87 138 -258 138z" />
    <glyph glyph-name="epsilon" unicode="&#x3b5;" horiz-adv-x="1012" 
d="M625 634v-112h-55q-114 0 -180 -21q-60 -18 -96 -68.5t-36 -115.5q0 -99 77 -162q68 -56 188 -56q181 0 242 128q23 47 35 126h170q-13 -130 -74 -216q-121 -171 -384 -171q-205 0 -322 109q-101 93 -101 233q0 214 227 281q-66 21 -106 54q-90 74 -90 185q0 155 139 246
q96 63 242 63q226 0 352 -151q75 -89 80 -222h-170q-1 89 -34 140q-30 47 -86.5 74.5t-124.5 27.5q-90 0 -153 -47q-77 -57 -77 -152q0 -108 90 -150q49 -23 247 -23z" />
    <glyph glyph-name="pi" unicode="&#x3c0;" horiz-adv-x="1167" 
d="M137 0v958h-148v148h1147v-148h-147v-958h-176v958h-501v-958h-175z" />
    <glyph glyph-name="sigma" unicode="&#x3c3;" horiz-adv-x="1181" 
d="M1165 1103v-143h-238q68 -68 98 -117q76 -123 76 -311q0 -241 -128 -394q-143 -171 -382 -171q-240 0 -383 174q-130 158 -130 409q0 257 144 421q144 165 369 165q88 0 173 -33h401zM593 1003q-165 0 -257 -136q-84 -125 -84 -314q0 -194 82 -318q41 -63 110 -99
t148 -36q112 0 195 66q141 112 141 385q0 187 -75 309q-44 71 -116 108q-67 35 -144 35z" />
    <glyph glyph-name="tau" unicode="&#x3c4;" horiz-adv-x="850" 
d="M869 1106v-153h-353v-953h-174v953h-358v153h885z" />
    <glyph glyph-name="phi1" unicode="&#x3d5;" horiz-adv-x="1258" 
d="M551 1133v408h155v-408q140 -9 246 -74q113 -70 177 -196q73 -141 73 -315q0 -251 -135 -410.5t-361 -174.5v-379h-155v379q-140 9 -246 74q-113 70 -177 196q-73 141 -73 315q0 251 135 410.5t361 174.5zM551 1004q-104 -8 -180 -72q-71 -59 -110.5 -160t-39.5 -224
q0 -196 89.5 -319.5t240.5 -136.5v912zM706 1004v-912q105 9 180 72q71 59 110.5 160t39.5 224q0 196 -89.5 320t-240.5 136z" />
    <glyph glyph-name="afii10104" unicode="&#x457;" horiz-adv-x="414" 
d="M295 1092v-1092h-174v1092h174zM443 1450v-208h-186v208h186zM158 1450v-208h-186v208h186z" />
    <glyph glyph-name="uni04D8" unicode="&#x4d8;" horiz-adv-x="1108" 
d="M120 1055q114 462 582 462q332 0 497 -232q145 -204 145 -514q0 -335 -177 -551t-456 -216q-229 0 -390 144q-116 104 -170 259t-54 388h1064q-3 102 -12 157q-25 170 -116 278q-118 138 -339 138q-159 0 -252.5 -73t-149.5 -240h-172zM279 650q11 -140 39 -215
q56 -145 173 -219q98 -63 227 -63q172 0 288 111q117 113 146 320q2 18 9 66h-882z" />
    <glyph glyph-name="afii10846" unicode="&#x4d9;" horiz-adv-x="1108" 
d="M82 757q82 388 464 388q257 0 389 -183q112 -156 112 -398q0 -259 -137 -427q-139 -169 -359 -169q-179 0 -306 114q-94 83 -135 206t-40 315h797q-11 388 -329 388q-114 0 -180.5 -54.5t-104.5 -179.5h-171zM250 453q9 -114 54 -190q84 -142 252 -142q131 0 209.5 84.5
t99.5 247.5h-615z" />
    <glyph glyph-name="uni1E1E" unicode="&#x1e1e;" horiz-adv-x="1176" 
d="M1130 1462v-168h-768v-462h676v-156h-676v-676h-193v1462h961zM766 1818v-202h-190v202h190z" />
    <glyph glyph-name="uni1E1F" unicode="&#x1e1f;" horiz-adv-x="606" 
d="M510 1757v-204h-187v204h187zM615 1466v-157q-53 11 -99 11q-80 0 -106 -29.5t-26 -118.5v-80h204v-150h-204v-942h-174v942h-178v150l178 -2q0 162 15 216q21 80 91.5 124t176.5 44q50 0 122 -8z" />
    <glyph glyph-name="Wgrave" unicode="&#x1e80;" horiz-adv-x="1892" 
d="M1875 1462l-390 -1462h-204l-341 1238l-336 -1238h-207l-379 1462h200l292 -1215l331 1215h212l331 -1214l297 1214h194zM682 1857h230l166 -278h-142z" />
    <glyph glyph-name="wgrave" unicode="&#x1e81;" horiz-adv-x="1552" 
d="M1519 1092l-338 -1092h-186l-221 834l-212 -834h-189l-340 1092h193l240 -854l216 854h193l222 -846l240 846h182zM531 1535h216l151 -293h-120z" />
    <glyph glyph-name="Wacute" unicode="&#x1e82;" horiz-adv-x="1892" 
d="M1875 1462l-390 -1462h-204l-341 1238l-336 -1238h-207l-379 1462h200l292 -1215l331 1215h212l331 -1214l297 1214h194zM1211 1857l-254 -278h-143l167 278h230z" />
    <glyph glyph-name="wacute" unicode="&#x1e83;" horiz-adv-x="1552" 
d="M1519 1092l-338 -1092h-186l-221 834l-212 -834h-189l-340 1092h193l240 -854l216 854h193l222 -846l240 846h182zM1021 1535l-246 -293h-121l152 293h215z" />
    <glyph glyph-name="Wdieresis" unicode="&#x1e84;" horiz-adv-x="1892" 
d="M1875 1462l-390 -1462h-204l-341 1238l-336 -1238h-207l-379 1462h200l292 -1215l331 1215h212l331 -1214l297 1214h194zM1277 1818v-202h-190v202h190zM826 1818v-202h-190v202h190z" />
    <glyph glyph-name="wdieresis" unicode="&#x1e85;" horiz-adv-x="1552" 
d="M1519 1092l-338 -1092h-186l-221 834l-212 -834h-189l-340 1092h193l240 -854l216 854h193l222 -846l240 846h182zM671 1462v-220h-174v220h174zM1056 1462v-220h-174v220h174z" />
    <glyph glyph-name="Ygrave" unicode="&#x1ef2;" horiz-adv-x="1327" 
d="M1326 1462l-564 -864v-598h-193v598l-569 864h233l438 -696l434 696h221zM399 1857h230l166 -278h-143z" />
    <glyph glyph-name="ygrave" unicode="&#x1ef3;" horiz-adv-x="1024" 
d="M1008 1092l-390 -1057q-104 -283 -146 -351q-75 -124 -226 -124q-50 0 -102 12l-27 7v163q76 -23 113 -23q79 0 125 91q27 53 81 196l-420 1086h196l316 -865l296 865h184zM267 1535h216l151 -293h-120z" />
    <glyph glyph-name="uni2011" unicode="&#x2011;" horiz-adv-x="797" 
d="M647 633v-175h-497v175h497z" />
    <glyph glyph-name="figuredash" unicode="&#x2012;" horiz-adv-x="1024" 
d="M950 633v-175h-877v175h877z" />
    <glyph glyph-name="endash" unicode="&#x2013;" horiz-adv-x="1024" 
d="M950 633v-175h-877v175h877z" />
    <glyph glyph-name="emdash" unicode="&#x2014;" horiz-adv-x="2048" 
d="M1767 633v-175h-1486v175h1486z" />
    <glyph glyph-name="afii00208" unicode="&#x2015;" horiz-adv-x="2048" 
d="M1767 633v-175h-1486v175h1486z" />
    <glyph glyph-name="underscoredbl" unicode="&#x2017;" horiz-adv-x="1097" 
d="M0 -129h1097v-88h-1097v88zM0 -385h1097v-89h-1097v89z" />
    <glyph glyph-name="quoteleft" unicode="&#x2018;" horiz-adv-x="569" 
d="M169 961v161q0 99 17 158.5t59 110.5q57 69 158 93v-101q-115 -36 -119 -201h119v-221h-234z" />
    <glyph glyph-name="quoteright" unicode="&#x2019;" horiz-adv-x="569" 
d="M401 1462v-161q0 -99 -17 -158.5t-59 -111.5q-57 -68 -158 -92v101q113 37 119 201h-119v221h234z" />
    <glyph glyph-name="quotesinglbase" unicode="&#x201a;" horiz-adv-x="569" 
d="M401 221v-161q0 -99 -17 -159t-59 -111q-57 -69 -158 -93v102q113 37 119 201h-119v221h234z" />
    <glyph glyph-name="quotereversed" unicode="&#x201b;" horiz-adv-x="477" 
d="M121 1462h234v-221h-119q6 -164 119 -201v-101q-119 28 -176.5 117t-57.5 245v161z" />
    <glyph glyph-name="quotedblleft" unicode="&#x201c;" horiz-adv-x="872" 
d="M139 972v167q0 137 53 220q63 97 169 124v-98q-111 -48 -112 -202h112v-211h-222zM513 972v172q0 142 61 228q60 84 160 113v-100q-113 -52 -112 -202h112v-211h-221z" />
    <glyph glyph-name="quotedblright" unicode="&#x201d;" horiz-adv-x="872" 
d="M734 1462v-168q0 -137 -53 -218q-62 -97 -168 -125v98q111 48 111 202h-111v211h221zM361 1462v-172q0 -142 -61 -228q-60 -84 -161 -113v100q113 52 113 202h-113v211h222z" />
    <glyph glyph-name="quotedblbase" unicode="&#x201e;" horiz-adv-x="872" 
d="M734 211v-167q0 -138 -53 -220q-62 -96 -168 -124v98q111 48 111 202h-111v211h221zM361 211v-172q0 -142 -61 -228q-60 -84 -161 -113v100q113 52 113 202h-113v211h222z" />
    <glyph glyph-name="dagger" unicode="&#x2020;" 
d="M1055 1040v-152h-405v-1300h-167v1300h-398v152h398v422h167v-422h405z" />
    <glyph glyph-name="daggerdbl" unicode="&#x2021;" 
d="M1055 1038v-152h-405v-696h405v-152h-405v-450h-167v450h-398v152h398v696h-398v152h398v424h167v-424h405z" />
    <glyph glyph-name="bullet" unicode="&#x2022;" horiz-adv-x="1024" 
d="M517 1052q120 0 208 -89q89 -90 89 -218q0 -127 -88 -216q-88 -90 -213 -90q-124 0 -212 89q-90 90 -90 217q0 131 89 218q91 89 217 89z" />
    <glyph glyph-name="ellipsis" unicode="&#x2026;" horiz-adv-x="2048" 
d="M707 228v-228h-240v228h240zM1143 228v-228h-240v228h240zM1578 228v-228h-240v228h240z" />
    <glyph glyph-name="perthousand" unicode="&#x2030;" horiz-adv-x="2351" 
d="M1348 1502l-968 -1574h-128l974 1574h122zM1201 673q142 0 219 -87.5t77 -249.5q0 -358 -298 -358q-302 0 -302 343q0 352 304 352zM1194 562q-148 0 -148 -244q0 -118 37 -173.5t115 -55.5q147 0 147 241q0 232 -151 232zM1933 674q146 0 223.5 -87.5t77.5 -251.5
q0 -174 -77.5 -266t-224.5 -92q-301 0 -301 344q0 189 89 275q80 78 213 78zM1930 563q-150 0 -150 -246q0 -227 154 -227q146 0 146 238q0 235 -150 235zM423 1458q144 0 221 -89t77 -255q0 -170 -79.5 -262.5t-226.5 -92.5q-145 0 -218 86q-79 92 -79 262q0 172 78 261.5
t227 89.5zM417 1346q-148 0 -148 -245q0 -228 150 -228q148 0 148 234q0 239 -150 239z" />
    <glyph glyph-name="guilsinglleft" unicode="&#x2039;" horiz-adv-x="530" 
d="M413 879v-177l-206 -159l206 -155v-176l-311 240v180z" />
    <glyph glyph-name="guilsinglright" unicode="&#x203a;" horiz-adv-x="530" 
d="M117 879l311 -247v-180l-311 -240v176l206 155l-206 159v177z" />
    <glyph glyph-name="exclamdbl" unicode="&#x203c;" horiz-adv-x="1026" 
d="M376 1462v-448l-50 -650h-95l-48 650v448h193zM386 206v-206h-215v206h215zM889 1462v-448l-50 -650h-95l-48 650v448h193zM899 206v-206h-215v206h215z" />
    <glyph glyph-name="uni203E" unicode="&#x203e;" horiz-adv-x="1097" 
d="M0 1738h1097v-139h-1097v139z" />
    <glyph glyph-name="slash.aalt" unicode="&#x2044;" horiz-adv-x="342" 
d="M649 1445l-832 -1445h-123l836 1445h119z" />
    <glyph glyph-name="franc" unicode="&#x20a3;" horiz-adv-x="1457" 
d="M1089 1435v-158h-768v-473h547v-146h-547v-658h-190v1435h958zM1487 835v-182q-38 3 -55 3q-140 0 -230 -92q-59 -61 -80 -145t-21 -263v-156h-174v804h162v-222q112 261 398 253z" />
    <glyph glyph-name="lira" unicode="&#x20a4;" horiz-adv-x="1120" 
d="M378 836h378v-124h-314q38 -76 48 -117h266v-124h-260q-10 -90 -85 -187q-39 -50 -90 -95q-38 -34 -57 -52q80 38 127 50.5t107 12.5q55 0 94 -8.5t159 -46.5q38 -12 87 -12q107 0 196 73l87 -135q-50 -46 -127 -73t-158 -27q-56 0 -92.5 8t-139.5 42q-115 39 -196 39
q-54 0 -95.5 -16t-116.5 -65l-95 145q97 72 146 139q74 102 78 208h-231v124h211q-13 36 -55 117h-156v124h87q-55 103 -55 221q0 198 163 317q121 88 308 88q299 0 425 -218q57 -100 56 -248h-178q-6 103 -41 173q-32 65 -102.5 103t-161.5 38q-126 0 -206.5 -70
t-80.5 -179q0 -95 70 -225z" />
    <glyph glyph-name="peseta" unicode="&#x20a7;" horiz-adv-x="1913" 
d="M143 1433h419q126 0 199 -17t135 -61q165 -118 165 -342q0 -251 -167 -366q-64 -44 -131.5 -59.5t-192.5 -15.5h-252v-572h-175v1433zM318 1275v-557h236q160 0 232 55q98 75 98 229q0 159 -115 230q-41 25 -92 34t-150 9h-209zM1297 572v-102h-120v-313q0 -49 8.5 -60
t44.5 -11q27 0 67 11v-108q-50 -6 -90 -6q-103 0 -135 49q-14 20 -17 49t-3 127v262h-102v102h102v164h125v-164h120zM1868 383h-126q-6 43 -20 61q-32 39 -115 39q-109 0 -109 -62q0 -28 25.5 -41t124.5 -34q128 -27 180 -61q63 -41 63 -119q0 -86 -72 -138.5t-191 -52.5
q-269 0 -272 219h123q6 -52 26 -74q36 -41 124 -41q60 0 97 21t37 56t-48 55q-24 10 -191 47q-154 35 -154 153q0 80 66 128t177 48q123 0 185.5 -50t69.5 -154z" />
    <glyph glyph-name="Euro" unicode="&#x20ac;" 
d="M163 654v7v41q0 15 2 71l1 7h-163l53 124h124q17 101 49 189q133 369 486 369q249 0 452 -159l-71 -162q-90 60 -139 89q-120 69 -245 69q-229 0 -317 -271q-22 -67 -31 -124h628l-55 -124h-590q-2 -55 -2 -83q0 -14 1 -43h537l-55 -124h-468q18 -103 60 -192
q51 -105 122 -151q74 -48 177 -48q85 0 151 24t226 112v-199q-45 -26 -55 -31q-147 -74 -336 -74q-445 0 -531 559h-171l53 124h107z" />
    <glyph glyph-name="uni2101" unicode="&#x2101;" horiz-adv-x="1840" 
d="M1517 1445l-832 -1445h-122l836 1445h118zM482 1428l321 -824h-120l-92 251h-346l-94 -251h-114l323 824h122zM559 943l-141 379l-141 -379h282zM1788 587h-104q-11 87 -60.5 127t-147.5 40q-86 0 -134.5 -36.5t-48.5 -100.5q0 -57 41 -82t182 -56q149 -32 205 -68
q99 -63 99 -174q0 -116 -85 -182.5t-235 -66.5q-195 0 -282 110q-53 66 -58 179h106q-1 -93 63 -145t178 -52q102 0 153 42t51 107q0 75 -86 115q-38 17 -151 43q-117 27 -143 35.5t-57 27.5q-85 52 -85 161t78 172t212 63q144 0 225 -67.5t84 -191.5z" />
    <glyph glyph-name="afii61248" unicode="&#x2105;" horiz-adv-x="1840" 
d="M1401 1445l-831 -1445h-123l836 1445h118zM804 913q-12 -153 -107 -240.5t-249 -87.5q-190 0 -293 134q-88 114 -88 294q0 193 107.5 311.5t282.5 118.5q170 0 266 -105q66 -71 74 -160h-109q-17 80 -80 126.5t-155 46.5q-146 0 -220 -120q-57 -91 -57 -217
q0 -155 75 -246t203 -91q104 0 167 61.5t75 174.5h108zM1393 846q169 0 278 -118q108 -118 108 -310q0 -170 -84 -283q-110 -147 -309 -147t-310 148q-83 112 -83 281q0 197 108 310q114 119 292 119zM1383 754q-121 0 -200 -88q-81 -89 -81 -246q0 -149 68 -237
q80 -103 218 -103q116 0 191 76q91 94 91 261q0 153 -79 246q-78 91 -208 91z" />
    <glyph glyph-name="afii61289" unicode="&#x2113;" horiz-adv-x="1024" 
d="M486 538q-60 -319 -60 -417q0 -49 34 -49q30 0 61.5 39.5t49.5 100.5l63 -28q-76 -220 -213 -220q-67 0 -105.5 48t-38.5 132q0 64 18 249l-111 -98l-34 55q14 11 47 47q65 66 113 121q70 375 162 609q97 245 241 245q60 0 97 -45.5t37 -119.5q0 -178 -129 -387
q-70 -112 -232 -282zM504 652q8 9 18 20q128 140 191 305q52 135 52 228q0 32 -14.5 53t-36.5 21q-54 0 -89 -92q-56 -146 -121 -535z" />
    <glyph glyph-name="uni2117" unicode="&#x2117;" horiz-adv-x="1670" 
d="M568 1170h348q136 0 204 -47q100 -70 100 -204q0 -151 -102 -220q-39 -26 -80 -35.5t-117 -9.5h-237v-359h-116v875zM684 1069v-321h223q95 0 138 32q59 43 59 132q0 91 -69 132q-42 25 -145 25h-206zM846 1496q205 0 389 -113t281 -304q83 -165 83 -348
q0 -216 -112 -400q-112 -183 -304 -281q-164 -84 -347 -84q-214 0 -398 112t-282 305q-84 164 -84 347q0 217 112 402q111 181 306 281q163 83 356 83zM829 1389q-175 0 -331 -97q-157 -97 -240 -262q-71 -141 -71 -299q0 -185 96 -344q96 -158 260 -243q138 -71 293 -71
q183 0 339 97q155 97 238 263q71 141 71 297q0 186 -95 346q-94 156 -258 241q-137 72 -302 72z" />
    <glyph glyph-name="trademark" unicode="&#x2122;" horiz-adv-x="2028" 
d="M886 1462v-108h-294v-725h-130v725h-295v108h719zM1863 1462v-833h-127l3 661l-263 -661h-111l-271 641l2 -641h-125v833h170l280 -681l268 681h174z" />
    <glyph glyph-name="Omega" unicode="&#x2126;" horiz-adv-x="1532" 
d="M83 0v158h392q-395 231 -395 641q0 336 252 547q182 152 421 152t421 -152q252 -211 252 -548q0 -409 -395 -640h392v-158h-573v147q143 79 229 181q164 194 164 440q0 274 -184 446q-132 124 -305 124q-174 0 -307 -124q-184 -172 -184 -445q0 -406 393 -622v-147h-573z
" />
    <glyph glyph-name="estimated" unicode="&#x212e;" horiz-adv-x="1229" 
d="M1090 513h-764v-217q31 -103 80 -147q80 -72 221 -72q245 0 342 214h90q-30 -96 -88 -164q-120 -140 -348 -140q-225 0 -351 146q-123 142 -123 388q0 262 136 408q131 141 341 141q173 0 296 -96q91 -70 128 -171.5t40 -289.5zM941 584v190q-18 50 -47 85
q-54 64 -117.5 92.5t-150.5 28.5q-140 0 -220 -85q-37 -39 -75 -120v-191h610z" />
    <glyph glyph-name="arrowleft" unicode="&#x2190;" horiz-adv-x="1462" 
d="M1433 796v-111h-1097q34 -42 74.5 -122.5t40.5 -105.5q0 -31 -32 -31q-18 0 -50 37q-116 132 -290 227q-50 27 -50 45q0 20 36 41q120 69 184.5 120t133.5 133q18 21 35 21q33 0 33 -33q0 -26 -33 -90t-82 -131h1097z" />
    <glyph glyph-name="arrowup" unicode="&#x2191;" horiz-adv-x="1462" 
d="M788 29h-111v1096q-40 -32 -121.5 -73t-106.5 -41q-30 0 -30 33q0 17 37 49q133 116 227 290q27 50 45 50q20 0 40 -36q64 -114 118.5 -182.5t134.5 -135.5q21 -18 21 -35q0 -33 -33 -33q-26 0 -90 33t-131 81v-1096z" />
    <glyph glyph-name="arrowright" unicode="&#x2192;" horiz-adv-x="1462" 
d="M29 682v111h1096q-33 42 -73.5 122.5t-40.5 105.5q0 30 33 30q17 0 49 -37q116 -133 290 -227q50 -27 50 -45q0 -20 -36 -40q-117 -67 -181.5 -118t-136.5 -135q-18 -21 -35 -21q-33 0 -33 33q0 26 33 89.5t81 131.5h-1096z" />
    <glyph glyph-name="arrowdown" unicode="&#x2193;" horiz-adv-x="1462" 
d="M673 1433h111v-1096q40 32 121.5 73t105.5 41q31 0 31 -33q0 -17 -37 -49q-130 -113 -227 -290q-27 -50 -45 -50q-20 0 -40 36q-61 109 -117 180t-136 138q-21 18 -21 35q0 33 33 33q26 0 90 -33t131 -81v1096z" />
    <glyph glyph-name="arrowboth" unicode="&#x2194;" horiz-adv-x="1462" 
d="M334 680q46 -62 81 -128.5t35 -93.5q0 -32 -33 -32q-13 0 -19.5 5.5t-32.5 35.5q-56 67 -122.5 117.5t-191.5 123.5q-22 13 -22 32q0 18 50 45q176 97 289 227q32 37 49 37q33 0 33 -31q0 -25 -40.5 -104t-75.5 -123h791q-34 44 -74 123.5t-40 104.5q0 30 33 30
q17 0 49 -37q114 -132 290 -227q50 -27 50 -45q0 -20 -36 -40q-117 -67 -182.5 -119t-135.5 -134q-18 -21 -35 -21q-33 0 -33 33q0 26 34.5 92t79.5 129h-791z" />
    <glyph glyph-name="arrowupdn" unicode="&#x2195;" horiz-adv-x="1462" 
d="M789 334q67 50 131 83.5t91 33.5q32 0 32 -33q0 -13 -5.5 -19.5t-35.5 -32.5q-120 -100 -241 -315q-12 -22 -32 -22q-18 0 -45 50q-95 174 -227 290q-37 32 -37 49q0 33 31 33q24 0 104 -41t123 -76v791q-40 -32 -121.5 -73t-106.5 -41q-30 0 -30 33q0 17 37 49
q133 116 227 290q27 50 45 50q20 0 40 -36q61 -109 117 -180t136 -138q21 -18 21 -35q0 -33 -33 -33q-26 0 -91 33.5t-130 80.5v-791z" />
    <glyph glyph-name="arrowupdnbse" unicode="&#x21a8;" horiz-adv-x="1462" 
d="M789 334q67 50 131 83.5t91 33.5q32 0 32 -33q0 -13 -5.5 -19.5t-35.5 -32.5q-120 -100 -241 -315q-12 -22 -32 -22q-18 0 -45 50q-95 174 -227 290q-37 32 -37 49q0 33 30 33q25 0 105 -41t123 -76v791q-40 -32 -121.5 -73t-105.5 -41q-31 0 -31 33q0 17 37 49
q133 116 227 290q27 50 45 50q20 0 40 -36q61 -109 117 -180t136 -138q21 -18 21 -35q0 -33 -33 -33q-26 0 -91 33.5t-130 80.5v-791zM443 -149h578v-94h-578v94z" />
    <glyph glyph-name="partialdiff" unicode="&#x2202;" horiz-adv-x="1047" 
d="M147 1324l22 145q186 -25 308 -77q273 -117 410 -389q107 -212 107 -474q0 -208 -87 -341q-71 -107 -184 -164q-97 -48 -207 -48q-164 0 -294 101q-72 56 -119 133q-69 118 -69 258q0 151 81 279q67 107 178 161q92 45 192 45q62 0 125.5 -18t102.5 -46q29 -22 94 -95
q-15 29 -73 164q-15 36 -62 96t-85 91q-87 72 -195.5 116t-244.5 63zM522 816q-48 0 -104.5 -20t-95.5 -50q-56 -45 -91 -121.5t-35 -157.5q0 -152 104 -255q93 -91 214 -91q109 0 197 74q118 99 118 280q0 173 -106 266q-88 75 -201 75z" />
    <glyph glyph-name="emptyset" unicode="&#x2205;" horiz-adv-x="1356" 
d="M962 1462l105 -55l-105 -194q248 -171 248 -446q0 -150 -80 -280q-70 -113 -182 -179q-128 -74 -283 -74q-100 0 -173 36l-137 -269l-107 54l134 268q-236 173 -236 442q0 141 67 261q77 138 217 211q116 61 251 61q88 0 177 -31zM550 378q72 -20 128 -20q180 0 302 132
q108 115 108 275q0 104 -47.5 194t-128.5 141zM801 1155q-60 19 -117 19q-197 0 -320 -148q-96 -115 -96 -259q0 -195 171 -332z" />
    <glyph glyph-name="Delta" unicode="&#x2206;" horiz-adv-x="1380" 
d="M20 0l577 1462h186l579 -1462h-1342zM254 158h870l-433 1110z" />
    <glyph glyph-name="product" unicode="&#x220f;" horiz-adv-x="1473" 
d="M61 1645h1348v-148h-162v-1898h162v-147h-490v147h164v1898h-696v-1898h161v-147h-487v147h163v1898h-163v148z" />
    <glyph glyph-name="summation" unicode="&#x2211;" horiz-adv-x="1260" 
d="M1239 1645v-508h-165l-17 340h-857l545 -887l-544 -972h876l10 344h172v-510h-1260v193l533 945l-533 865v190h1240z" />
    <glyph glyph-name="minus" unicode="&#x2212;" horiz-adv-x="1229" 
d="M139 787h951v-139h-951v139z" />
    <glyph glyph-name="fraction" unicode="&#x2215;" horiz-adv-x="342" 
d="M649 1445l-832 -1445h-123l836 1445h119z" />
    <glyph glyph-name="uni2218" unicode="&#x2218;" horiz-adv-x="1056" 
d="M530 1052q120 0 208 -89q89 -90 89 -218q0 -127 -88 -216q-88 -90 -213 -90q-124 0 -212 89q-90 90 -90 217q0 131 89 218q91 89 217 89zM524 948q-80 0 -138 -58q-59 -60 -59 -144q0 -85 59 -144q58 -59 140 -59t140 59q58 60 58 143q0 85 -58 144t-142 59z" />
    <glyph glyph-name="periodcentered" unicode="&#x2219;" horiz-adv-x="569" 
d="M405 659v-228h-240v228h240z" />
    <glyph glyph-name="radical" unicode="&#x221a;" horiz-adv-x="1032" 
d="M1248 1813v-152h-418l-486 -1661h-199l-182 636h-177v152h284l165 -594l462 1619h551z" />
    <glyph glyph-name="infinity" unicode="&#x221e;" horiz-adv-x="1554" 
d="M780 657q-165 -242 -367 -242q-167 0 -258 118q-68 89 -68 216q0 183 139 273q85 56 190 56q197 0 359 -242q162 242 367 242q169 0 260 -123q65 -87 65 -210q0 -159 -103 -250q-91 -81 -221 -81q-204 0 -363 243zM844 747q73 -115 139 -164.5t145 -49.5q95 0 153 68
q50 58 50 145q0 111 -78 170q-56 43 -126 43q-79 0 -142 -47.5t-141 -164.5zM710 745q-73 114 -139.5 164t-144.5 50q-95 0 -153 -68q-50 -58 -50 -144q0 -112 78 -171q56 -43 126 -43q79 0 141.5 47t141.5 165z" />
    <glyph glyph-name="intersection" unicode="&#x2229;" horiz-adv-x="1231" 
d="M1156 0h-181v694q0 205 -12.5 296t-48.5 148q-44 70 -119 113q-86 48 -179 48q-122 0 -221 -75q-57 -43 -86 -100t-41 -147q-12 -89 -12 -283v-694h-181v688q0 244 13 337q30 219 205 341q137 96 323 96q185 0 322 -96q175 -122 205 -341q13 -95 13 -337v-688z" />
    <glyph glyph-name="integral" unicode="&#x222b;" horiz-adv-x="1135" 
d="M185 -525l37 170q47 -23 86 -23q91 0 116 75q9 28 10 201v1269q1 180 3.5 217t15.5 81q24 83 99 131.5t180 48.5q61 0 143 -24l-37 -169q-47 22 -87 22q-89 0 -114 -75q-11 -32 -11 -148v-1317q0 -193 -8.5 -254t-42.5 -110q-81 -114 -287 -114q-55 0 -103 19z" />
    <glyph glyph-name="similar" unicode="&#x223c;" horiz-adv-x="1096" 
d="M122 396l-100 69q114 253 301 253q80 0 253 -85q93 -45 129 -58t71 -13q59 0 100 31t98 119l100 -69q-112 -250 -319 -250q-43 0 -88 16.5t-174 80.5q-116 57 -179 57q-54 0 -96.5 -33.5t-95.5 -117.5z" />
    <glyph glyph-name="uni2243" unicode="&#x2243;" horiz-adv-x="1096" 
d="M122 763l-100 69q114 253 301 253q81 0 253 -85q92 -45 128.5 -58t72.5 -13q59 0 100 31t97 119l100 -69q-112 -250 -319 -250q-43 0 -88.5 17t-173.5 80q-115 57 -179 57q-54 0 -96.5 -33.5t-95.5 -117.5zM73 523h950v-167h-950v167z" />
    <glyph glyph-name="approxequal" unicode="&#x2248;" horiz-adv-x="1214" 
d="M182 763l-100 69q114 253 301 253q81 0 253 -85q92 -45 128.5 -58t72.5 -13q59 0 100 31t97 119l100 -69q-112 -250 -319 -250q-43 0 -88.5 17t-173.5 80q-115 57 -179 57q-54 0 -96.5 -33.5t-95.5 -117.5zM182 377l-100 69q114 253 301 253q80 0 253 -85
q92 -45 128.5 -58t71.5 -13q59 0 100 31t98 119l100 -69q-112 -250 -319 -250q-44 0 -87 16t-175 81q-116 57 -179 57q-54 0 -97 -33.5t-95 -117.5z" />
    <glyph glyph-name="notequal" unicode="&#x2260;" horiz-adv-x="1214" 
d="M651 973l135 271l127 -56l-107 -215h277v-159h-344l-103 -210h447v-159h-508l-133 -268l-127 56l104 212h-287v159h348l104 210h-451v159h518z" />
    <glyph glyph-name="equivalence" unicode="&#x2261;" horiz-adv-x="1097" 
d="M73 1184h951v-167h-951v167zM73 815h951v-167h-951v167zM73 446h951v-167h-951v167z" />
    <glyph glyph-name="lessequal" unicode="&#x2264;" horiz-adv-x="1214" 
d="M1083 1316v-179l-743 -286l742 -285l1 -179l-951 383v163zM1083 324v-167h-951v167h951z" />
    <glyph glyph-name="greaterequal" unicode="&#x2265;" horiz-adv-x="1214" 
d="M132 387l1 179l742 285l-743 286v179l951 -383v-163zM132 157v167h951v-167h-951z" />
    <glyph glyph-name="dotmath" unicode="&#x22c5;" horiz-adv-x="569" 
d="M405 659v-228h-240v228h240z" />
    <glyph glyph-name="house" unicode="&#x2302;" horiz-adv-x="1647" 
d="M184 0v880l639 719l640 -719v-880h-1279zM296 112h1055v720l-528 591l-527 -591v-720z" />
    <glyph glyph-name="revlogicalnot" unicode="&#x2310;" horiz-adv-x="1097" 
d="M258 0h-185v612h951v-167h-766v-445z" />
    <glyph glyph-name="integraltp" unicode="&#x2320;" horiz-adv-x="1097" 
d="M644 -548h-192v1715q1 179 3.5 216.5t15.5 81.5q24 83 99 131.5t180 48.5q61 0 143 -24l-36 -169q-48 22 -88 22q-89 0 -114 -75q-11 -32 -11 -148v-1799z" />
    <glyph glyph-name="integralbt" unicode="&#x2321;" horiz-adv-x="1097" 
d="M452 1645h192v-1716q-1 -178 -3.5 -215t-15.5 -82q-24 -83 -99 -131.5t-179 -48.5q-61 0 -144 23l37 170q47 -22 87 -22q89 0 114 75q11 31 11 148v1799z" />
    <glyph glyph-name="SF100000" unicode="&#x2500;" horiz-adv-x="2193" 
d="M0 476v145h2193v-145h-2193z" />
    <glyph glyph-name="SF110000" unicode="&#x2502;" horiz-adv-x="2193" 
d="M1024 -548v2193h145v-2193h-145z" />
    <glyph glyph-name="SF010000" unicode="&#x250c;" horiz-adv-x="2193" 
d="M2193 621v-145h-1024v-1024h-145v1169h1169z" />
    <glyph glyph-name="SF030000" unicode="&#x2510;" horiz-adv-x="2193" 
d="M1024 476h-1024v145h1169v-1169h-145v1024z" />
    <glyph glyph-name="SF020000" unicode="&#x2514;" horiz-adv-x="2193" 
d="M1169 621h1024v-145h-1169v1169h145v-1024z" />
    <glyph glyph-name="SF040000" unicode="&#x2518;" horiz-adv-x="2193" 
d="M0 476v145h1024v1024h145v-1169h-1169z" />
    <glyph glyph-name="SF080000" unicode="&#x251c;" horiz-adv-x="2193" 
d="M1169 621h1024v-145h-1024v-1024h-145v2193h145v-1024z" />
    <glyph glyph-name="SF090000" unicode="&#x2524;" horiz-adv-x="2193" 
d="M1024 476h-1024v145h1024v1024h145v-2193h-145v1024z" />
    <glyph glyph-name="SF060000" unicode="&#x252c;" horiz-adv-x="2193" 
d="M1169 476v-1024h-145v1024h-1024v145h2193v-145h-1024z" />
    <glyph glyph-name="SF070000" unicode="&#x2534;" horiz-adv-x="2193" 
d="M1024 621v1024h145v-1024h1024v-145h-2193v145h1024z" />
    <glyph glyph-name="SF050000" unicode="&#x253c;" horiz-adv-x="2193" 
d="M1024 476h-1024v145h1024v1024h145v-1024h1024v-145h-1024v-1024h-145v1024z" />
    <glyph glyph-name="SF430000" unicode="&#x2550;" horiz-adv-x="2193" 
d="M0 331v145h2193v-145h-2193zM0 621v145h2193v-145h-2193z" />
    <glyph glyph-name="SF240000" unicode="&#x2551;" horiz-adv-x="2193" 
d="M880 -548v2193h145v-2193h-145zM1169 -548v2193h145v-2193h-145z" />
    <glyph glyph-name="SF510000" unicode="&#x2552;" horiz-adv-x="2193" 
d="M1024 -548v1314h1169v-145h-1024v-145h1024v-145h-1024v-879h-145z" />
    <glyph glyph-name="SF520000" unicode="&#x2553;" horiz-adv-x="2193" 
d="M1170 476h-145v-1024h-145v1169h1314v-145h-879v-1024h-145v1024z" />
    <glyph glyph-name="SF390000" unicode="&#x2554;" horiz-adv-x="2193" 
d="M1025 621v-1169h-145v1314h1314v-145h-1169zM1315 331v-879h-145v1024h1024v-145h-879z" />
    <glyph glyph-name="SF220000" unicode="&#x2555;" horiz-adv-x="2193" 
d="M1024 331h-1024v145h1024v145h-1024v145h1169v-1314h-145v879z" />
    <glyph glyph-name="SF210000" unicode="&#x2556;" horiz-adv-x="2193" 
d="M1024 476v-1024h-145v1024h-879v145h1314v-1169h-145v1024h-145z" />
    <glyph glyph-name="SF250000" unicode="&#x2557;" horiz-adv-x="2193" 
d="M1169 621h-1169v145h1314v-1314h-145v1169zM879 331h-879v145h1024v-1024h-145v879z" />
    <glyph glyph-name="SF500000" unicode="&#x2558;" horiz-adv-x="2193" 
d="M1024 1645h145v-879h1024v-145h-1024v-145h1024v-145h-1169v1314z" />
    <glyph glyph-name="SF490000" unicode="&#x2559;" horiz-adv-x="2193" 
d="M1170 621v1024h145v-1024h879v-145h-1314v1169h145v-1024h145z" />
    <glyph glyph-name="SF380000" unicode="&#x255a;" horiz-adv-x="2193" 
d="M1025 476h1169v-145h-1314v1314h145v-1169zM1315 766h879v-145h-1024v1024h145v-879z" />
    <glyph glyph-name="SF280000" unicode="&#x255b;" horiz-adv-x="2193" 
d="M1024 766v879h145v-1314h-1169v145h1024v145h-1024v145h1024z" />
    <glyph glyph-name="SF270000" unicode="&#x255c;" horiz-adv-x="2193" 
d="M1024 621h145v1024h145v-1169h-1314v145h879v1024h145v-1024z" />
    <glyph glyph-name="SF260000" unicode="&#x255d;" horiz-adv-x="2193" 
d="M1169 476v1169h145v-1314h-1314v145h1169zM879 766v879h145v-1024h-1024v145h879z" />
    <glyph glyph-name="SF360000" unicode="&#x255e;" horiz-adv-x="2193" 
d="M1024 1645h145v-879h1024v-145h-1024v-145h1024v-145h-1024v-879h-145v2193z" />
    <glyph glyph-name="SF370000" unicode="&#x255f;" horiz-adv-x="2193" 
d="M1315 476v-1024h-145v2193h145v-1024h879v-145h-879zM1025 -548h-145v2193h145v-2193z" />
    <glyph glyph-name="SF420000" unicode="&#x2560;" horiz-adv-x="2193" 
d="M880 -548v2193h145v-2193h-145zM1315 766h879v-145h-1024v1024h145v-879zM1315 331v-879h-145v1024h1024v-145h-879z" />
    <glyph glyph-name="SF190000" unicode="&#x2561;" horiz-adv-x="2193" 
d="M1024 766v879h145v-2193h-145v879h-1024v145h1024v145h-1024v145h1024z" />
    <glyph glyph-name="SF200000" unicode="&#x2562;" horiz-adv-x="2193" 
d="M879 476h-879v145h879v1024h145v-2193h-145v1024zM1169 -548v2193h145v-2193h-145z" />
    <glyph glyph-name="SF230000" unicode="&#x2563;" horiz-adv-x="2193" 
d="M1314 -548h-145v2193h145v-2193zM879 766v879h145v-1024h-1024v145h879zM879 331h-879v145h1024v-1024h-145v879z" />
    <glyph glyph-name="SF470000" unicode="&#x2564;" horiz-adv-x="2193" 
d="M0 766h2193v-145h-2193v145zM1024 331h-1024v145h2193v-145h-1024v-879h-145v879z" />
    <glyph glyph-name="SF480000" unicode="&#x2565;" horiz-adv-x="2193" 
d="M880 476h-880v145h2193v-145h-879v-1024h-145v1024h-144v-1024h-145v1024z" />
    <glyph glyph-name="SF410000" unicode="&#x2566;" horiz-adv-x="2193" 
d="M0 766h2193v-145h-2193v145zM1314 331v-879h-145v1024h1024v-145h-879zM880 331h-880v145h1025v-1024h-145v879z" />
    <glyph glyph-name="SF450000" unicode="&#x2567;" horiz-adv-x="2193" 
d="M0 331v145h2193v-145h-2193zM1024 766v879h145v-879h1024v-145h-2193v145h1024z" />
    <glyph glyph-name="SF460000" unicode="&#x2568;" horiz-adv-x="2193" 
d="M0 476v145h880v1024h145v-1024h144v1024h145v-1024h879v-145h-2193z" />
    <glyph glyph-name="SF400000" unicode="&#x2569;" horiz-adv-x="2193" 
d="M0 331v145h2193v-145h-2193zM1314 766h879v-145h-1024v1024h145v-879zM880 766v879h145v-1024h-1025v145h880z" />
    <glyph glyph-name="SF540000" unicode="&#x256a;" horiz-adv-x="2193" 
d="M1024 476v145h-1024v145h1024v879h145v-879h1024v-145h-1024v-145h1024v-145h-1024v-879h-145v879h-1024v145h1024z" />
    <glyph glyph-name="SF530000" unicode="&#x256b;" horiz-adv-x="2193" 
d="M880 476h-880v145h880v1024h145v-1024h144v1024h145v-1024h879v-145h-879v-1024h-145v1024h-144v-1024h-145v1024z" />
    <glyph glyph-name="SF440000" unicode="&#x256c;" horiz-adv-x="2193" 
d="M1314 766h879v-145h-1024v1024h145v-879zM880 766v879h145v-1024h-1025v145h880zM1314 331v-879h-145v1024h1024v-145h-879zM880 331h-880v145h1025v-1024h-145v879z" />
    <glyph glyph-name="upblock" unicode="&#x2580;" horiz-adv-x="2193" 
d="M0 548v1097h2193v-1097h-2193z" />
    <glyph glyph-name="dnblock" unicode="&#x2584;" horiz-adv-x="2193" 
d="M0 -548v1096h2193v-1096h-2193z" />
    <glyph glyph-name="block" unicode="&#x2588;" horiz-adv-x="2193" 
d="M0 -548v2193h2193v-2193h-2193z" />
    <glyph glyph-name="lfblock" unicode="&#x258c;" horiz-adv-x="2193" 
d="M0 -548v2193h1097v-2193h-1097z" />
    <glyph glyph-name="rtblock" unicode="&#x2590;" horiz-adv-x="2193" 
d="M1097 -548v2193h1097v-2193h-1097z" />
    <glyph glyph-name="ltshade" unicode="&#x2591;" horiz-adv-x="2193" 
d="M0 1645h219v-219h-219v219zM439 1645h219v-219h-219v219zM1755 1645h219v-219h-219v219zM877 1645h219v-219h-219v219zM1316 1645h219v-219h-219v219zM0 1206h219v-219h-219v219zM0 768h219v-219h-219v219zM0 329h219v-219h-219v219zM0 -110h219v-219h-219v219zM439 1206
h219v-219h-219v219zM439 768h219v-219h-219v219zM439 329h219v-219h-219v219zM439 -110h219v-219h-219v219zM877 1206h219v-219h-219v219zM877 768h219v-219h-219v219zM877 329h219v-219h-219v219zM877 -110h219v-219h-219v219zM1316 1206h219v-219h-219v219zM1316 768h219
v-219h-219v219zM1316 329h219v-219h-219v219zM1316 -110h219v-219h-219v219zM1755 1206h219v-219h-219v219zM1755 768h219v-219h-219v219zM1755 329h219v-219h-219v219zM1755 -110h219v-219h-219v219z" />
    <glyph glyph-name="shade" unicode="&#x2592;" horiz-adv-x="2193" 
d="M0 1645h219v-219h-219v219zM439 1645h219v-219h-219v219zM1755 1645h219v-219h-219v219zM877 1645h219v-219h-219v219zM1316 1645h219v-219h-219v219zM219 1426h219v-219h-219v219zM658 1426h219v-219h-219v219zM1097 1426h219v-219h-219v219zM1536 1426h219v-219h-219
v219zM1974 1426h219v-219h-219v219zM0 -110h219v-219h-219v219zM439 -110h219v-219h-219v219zM1755 -110h219v-219h-219v219zM877 -110h219v-219h-219v219zM1316 -110h219v-219h-219v219zM219 -329h219v-219h-219v219zM658 -329h219v-219h-219v219zM1097 -329h219v-219h-219
v219zM1536 -329h219v-219h-219v219zM1974 -329h219v-219h-219v219zM0 329h219v-219h-219v219zM439 329h219v-219h-219v219zM1755 329h219v-219h-219v219zM877 329h219v-219h-219v219zM1316 329h219v-219h-219v219zM219 109h219v-219h-219v219zM658 109h219v-219h-219v219z
M1097 109h219v-219h-219v219zM1536 109h219v-219h-219v219zM1974 109h219v-219h-219v219zM0 768h219v-219h-219v219zM439 768h219v-219h-219v219zM1755 768h219v-219h-219v219zM877 768h219v-219h-219v219zM1316 768h219v-219h-219v219zM219 548h219v-219h-219v219zM658 548
h219v-219h-219v219zM1097 548h219v-219h-219v219zM1536 548h219v-219h-219v219zM1974 548h219v-219h-219v219zM0 1206h219v-219h-219v219zM439 1206h219v-219h-219v219zM1755 1206h219v-219h-219v219zM877 1206h219v-219h-219v219zM1316 1206h219v-219h-219v219zM219 987
h219v-219h-219v219zM658 987h219v-219h-219v219zM1097 987h219v-219h-219v219zM1536 987h219v-219h-219v219zM1974 987h219v-219h-219v219z" />
    <glyph glyph-name="dkshade" unicode="&#x2593;" horiz-adv-x="2193" 
d="M2193 -548h-2193v219h219v219h-219v219h219v220h-219v219h219v220h-219v219h219v220h-219v219h219v219h219v-219h220v219h219v-219h220v219h219v-219h220v219h219v-219h219v219h219v-2193zM1974 1207h-219v-220h219v220zM1536 1207h-220v-220h220v220zM1097 1207h-220
v-220h220v220zM658 1207h-220v-220h220v220zM1974 768h-219v-220h219v220zM1536 768h-220v-220h220v220zM1097 768h-220v-220h220v220zM658 768h-220v-220h220v220zM1974 329h-219v-220h219v220zM1536 329h-220v-220h220v220zM1097 329h-220v-220h220v220zM658 329h-220
v-220h220v220zM1974 -110h-219v-219h219v219zM1536 -110h-220v-219h220v219zM1097 -110h-220v-219h220v219zM658 -110h-220v-219h220v219z" />
    <glyph glyph-name="filledbox" unicode="&#x25a0;" horiz-adv-x="1462" 
d="M1462 0h-1462v1462h1462v-1462z" />
    <glyph glyph-name="filledrect" unicode="&#x25ac;" horiz-adv-x="1462" 
d="M1462 731v-731h-1462v731h1462z" />
    <glyph glyph-name="triagup" unicode="&#x25b2;" horiz-adv-x="1462" 
d="M1389 146h-1316l658 1231z" />
    <glyph glyph-name="triagrt" unicode="&#x25ba;" horiz-adv-x="1462" 
d="M1395 739l-1241 -439v877z" />
    <glyph glyph-name="triagdn" unicode="&#x25bc;" horiz-adv-x="1462" 
d="M73 1316h1316l-658 -1231z" />
    <glyph glyph-name="triaglf" unicode="&#x25c4;" horiz-adv-x="1462" 
d="M68 739l1241 438v-877z" />
    <glyph glyph-name="lozenge" unicode="&#x25ca;" horiz-adv-x="1214" 
d="M607 1520l570 -788l-570 -788l-569 788zM607 1326l-432 -594l432 -594l432 594z" />
    <glyph glyph-name="circle" unicode="&#x25cb;" horiz-adv-x="1462" 
d="M732 1293q235 0 403 -164q167 -164 167 -397q0 -231 -165 -395q-168 -168 -405 -168q-240 0 -407 167q-165 165 -165 404q0 152 84 286q82 132 227 205q122 62 261 62zM732 1192q-195 0 -334 -136q-136 -133 -136 -329q0 -185 136 -320q137 -137 332 -137q196 0 334 137
q136 136 136 325q0 91 -36.5 177t-100.5 148q-141 135 -331 135z" />
    <glyph glyph-name="invbullet" unicode="&#x25d8;" horiz-adv-x="1462" 
d="M0 0v1462h1462v-1462h-1462zM728 1037q-120 0 -209 -89t-89 -217q0 -127 90 -217q88 -89 211 -89q125 0 213 90q88 89 88 215q0 130 -89 218q-90 89 -215 89z" />
    <glyph glyph-name="invcircle" unicode="&#x25d9;" horiz-adv-x="1462" 
d="M732 1192q192 0 330 -135q137 -134 137 -325q0 -189 -135 -325q-138 -137 -333 -137q-196 0 -333 137q-135 135 -135 332q0 87 36.5 172t99.5 145q142 136 333 136zM1462 0h-1462v1462h1462v-1462zM733 1292q-238 0 -407 -165q-166 -163 -166 -401q0 -151 83 -286
q84 -137 228 -209q122 -62 260 -62q238 0 406 168q165 164 165 395q0 158 -84 294q-83 132 -228 205q-121 61 -257 61z" />
    <glyph glyph-name="openbullet" unicode="&#x25e6;" horiz-adv-x="1056" 
d="M530 1052q120 0 208 -89q89 -90 89 -218q0 -127 -88 -216q-88 -90 -213 -90q-124 0 -212 89q-90 90 -90 217q0 131 89 218q91 89 217 89zM524 948q-80 0 -138 -58q-59 -60 -59 -144q0 -85 59 -144q58 -59 140 -59t140 59q58 60 58 143q0 85 -58 144t-142 59z" />
    <glyph glyph-name="smileface" unicode="&#x263a;" horiz-adv-x="1462" 
d="M526 1021q39 0 67 -28.5t28 -67.5q0 -40 -28.5 -68.5t-67.5 -28.5q-41 0 -69 28.5t-28 68.5t28.5 68t69.5 28zM952 1022q39 0 67 -28.5t28 -68.5t-28.5 -68.5t-68.5 -28.5t-68.5 28.5t-28.5 69.5q0 40 28.5 68t70.5 28zM1184 816q-9 -133 -33 -209.5t-78 -144.5
q-121 -153 -341 -153q-239 0 -361 181q-43 64 -62.5 133.5t-28.5 192.5q17 -72 35.5 -111.5t55.5 -82.5q135 -155 361 -155q227 0 361 155q37 43 55.5 82.5t35.5 111.5zM742 1426q178 0 336 -93q162 -95 254 -254q93 -160 93 -347q0 -186 -93 -348q-93 -161 -254 -254
t-348 -93q-186 0 -347 93q-162 93 -254 254q-93 162 -93 353q0 300 230 510q196 179 476 179zM722 1334q-155 0 -292 -81q-140 -83 -220 -221q-81 -139 -81 -300q0 -162 81 -302q80 -140 220 -220q140 -81 301 -81q162 0 302 81t220 220q81 141 81 306q0 260 -200 443
q-170 155 -412 155z" />
    <glyph glyph-name="invsmileface" unicode="&#x263b;" horiz-adv-x="1462" 
d="M742 1426q178 0 336 -93q162 -95 254 -254q93 -160 93 -347q0 -186 -93 -348q-93 -161 -254 -254t-348 -93q-186 0 -347 93q-162 93 -254 254q-93 162 -93 353q0 300 230 510q196 179 476 179zM523 1021q-39 0 -67 -28.5t-28 -67.5q0 -40 28 -68.5t69 -28.5q40 0 68 28.5
t28 68.5t-28.5 68t-69.5 28zM949 1022q-40 0 -68 -28.5t-28 -68.5q0 -41 28.5 -69.5t68.5 -28.5t68.5 28.5t28.5 69.5t-28.5 69t-69.5 28zM1184 816q-17 -72 -35.5 -111.5t-55.5 -82.5q-134 -155 -361 -155q-226 0 -361 155q-37 43 -55.5 82.5t-35.5 111.5
q10 -134 34 -210.5t77 -143.5q122 -153 341 -153q240 0 361 181q44 65 63 134.5t28 191.5z" />
    <glyph glyph-name="sun" unicode="&#x263c;" horiz-adv-x="1462" 
d="M349 1037l-164 163l78 77l164 -164q113 88 249 105v230h111v-231q142 -18 249 -103l163 163l78 -77l-164 -163q83 -107 103 -249h231v-113h-231q-19 -139 -103 -248l164 -163l-78 -77l-163 164q-111 -86 -249 -104v-231h-111v231q-127 14 -250 103l-163 -163l-78 77
l163 163q-84 108 -101 248h-231v113h230q19 138 103 249zM726 1082q-150 0 -255 -116q-90 -100 -90 -234q0 -156 116 -260q100 -89 234 -89q156 0 260 115q90 99 90 236q0 152 -116 258q-98 90 -239 90z" />
    <glyph glyph-name="female" unicode="&#x2640;" horiz-adv-x="1462" 
d="M676 689q-99 15 -178 73q-76 56 -119 142t-43 182q0 166 116 285q115 116 277 116q164 0 280 -116q117 -118 117 -284q0 -131 -77 -238q-97 -134 -268 -161v-229h358v-94h-358v-365h-105v365h-353v94h353v230zM728 1385q-117 0 -203 -86q-87 -86 -87 -211q0 -124 87 -211
q86 -86 206 -86q121 0 206 87q86 87 86 209q0 126 -86 212q-88 86 -209 86z" />
    <glyph glyph-name="male" unicode="&#x2642;" horiz-adv-x="1462" 
d="M916 762q79 -106 79 -240q0 -165 -115 -283q-115 -117 -279 -117q-163 0 -278 116q-118 118 -118 285t117 285q116 116 279 116q135 0 245 -86l331 330q-115 27 -233 89q-47 24 -47 51q0 26 29 26q12 0 44 -6q98 -20 182 -20q120 0 232 30q13 3 21 3q23 0 23 -23
q0 -8 -11 -49q-23 -83 -23 -192q0 -97 20 -185q7 -30 7 -43q0 -30 -27 -30q-14 0 -22 7.5t-29 38.5q-65 99 -93 230zM598 822q-118 0 -204 -86q-87 -87 -87 -211t87 -211q86 -86 206 -86q122 0 207 87q86 87 86 209q0 126 -86 212q-88 86 -209 86z" />
    <glyph glyph-name="spade" unicode="&#x2660;" horiz-adv-x="1462" 
d="M236 0v41q153 28 225.5 62t135.5 107q115 135 123 349q-19 -42 -29 -60q-37 -63 -105 -107q-85 -56 -183 -56q-105 0 -181 76q-83 82 -83 198q0 99 51 177q65 99 177 192q312 253 360 525q45 -130 69 -179q34 -70 91.5 -138t169.5 -170q123 -111 167 -165
q99 -122 99 -246q0 -96 -58 -169q-80 -100 -210 -100q-96 0 -169 53t-137 169q9 -129 38.5 -209.5t91.5 -147.5q61 -65 136 -98t230 -63v-41h-1009z" />
    <glyph glyph-name="club" unicode="&#x2663;" horiz-adv-x="1462" 
d="M1230 0h-999v41q195 35 275 91q109 75 157.5 184t52.5 285q-49 -83 -74 -115q-54 -69 -132 -112q-93 -52 -188 -52q-139 0 -235 110q-81 93 -81 223q0 138 89 235q82 87 200 87q45 0 71 -8.5t118 -53.5q-78 115 -78 218q0 131 96 223q94 91 229 91q131 0 224 -87
q100 -93 100 -227q0 -105 -78 -218q90 43 118 52.5t72 9.5q126 0 209 -99q80 -95 80 -223q0 -151 -105 -248q-92 -86 -216 -86q-79 0 -164.5 42.5t-141.5 109.5q-29 35 -83 128q3 -143 30 -230q40 -129 155 -221q51 -41 112 -63t187 -46v-41z" />
    <glyph glyph-name="heart" unicode="&#x2665;" horiz-adv-x="1462" 
d="M729 -23q-38 145 -105 262q-55 95 -99 159.5t-204 280.5q-97 132 -134 199q-64 118 -64 228q0 128 84 213q82 82 200 82q164 0 262 -149q31 -46 60 -135q32 113 84 174q97 112 237 112q133 0 219 -99q71 -82 71 -188q0 -110 -53 -221t-188 -282q-313 -390 -370 -636z" />
    <glyph glyph-name="diamond" unicode="&#x2666;" horiz-adv-x="1462" 
d="M729 1520q80 -145 260.5 -399.5t297.5 -387.5q-52 -57 -286 -370q-143 -192 -272 -419q-49 102 -194 309t-334 448l-26 32q50 60 279 362q154 204 275 425z" />
    <glyph glyph-name="musicalnote" unicode="&#x266a;" horiz-adv-x="1462" 
d="M670 342v1120h100v-133q27 -35 147 -179q199 -238 199 -492q0 -205 -125 -356h-61q72 169 72 326q0 96 -33 181.5t-91 141.5q-52 50 -108 58v-667q0 -134 -63 -222q-41 -58 -105 -95q-76 -44 -164 -44q-71 0 -111.5 35.5t-40.5 97.5q0 54 30 109.5t77 89.5q73 53 159 53
q60 0 118 -24z" />
    <glyph glyph-name="musicalnotedbl" unicode="&#x266b;" horiz-adv-x="1462" 
d="M472 1414l835 -123v-978q0 -148 -63 -236q-45 -65 -117 -102.5t-149 -37.5q-71 0 -113 36t-42 97q0 55 29.5 109.5t77.5 90.5q71 53 160 53q60 0 117 -24v804l-635 96v-763q0 -148 -63 -236q-45 -65 -117 -102.5t-149 -37.5q-71 0 -113 36t-42 97q0 55 29.5 109.5
t77.5 90.5q71 53 160 53q60 0 117 -24v992z" />
    <glyph glyph-name="glyph172" 
 />
    <glyph glyph-name="glyph210" horiz-adv-x="569" 
 />
    <glyph glyph-name="Commaaccent" horiz-adv-x="1097" 
d="M643 -132v-142q0 -226 -190 -246v73q92 22 101 134h-101v181h190z" />
    <glyph glyph-name="Macron" horiz-adv-x="1097" 
d="M893 1768v-126h-690v126h690z" />
    <glyph glyph-name="Ogonek" horiz-adv-x="1097" 
d="M943 0h110q-122 -91 -122 -177q0 -47 40.5 -77t104.5 -30q34 0 87 16l1 -95q-70 -22 -126 -22q-110 0 -174 55q-58 50 -58 126q0 103 137 204z" />
    <glyph glyph-name="Cedilla" horiz-adv-x="1097" 
d="M636 0l-93 -126q47 9 72 9q74 0 123.5 -40.5t49.5 -101.5q0 -84 -68 -136t-178 -52q-81 0 -199 42l35 77q71 -30 147 -30q47 0 76 23.5t29 61.5q0 34 -29 54.5t-74 20.5q-30 0 -79 -13l-33 37l132 174h89z" />
    <glyph glyph-name="Hungarumlaut" horiz-adv-x="1097" 
d="M967 1857l-196 -278h-129l123 278h202zM630 1857l-195 -278h-129l123 278h201z" />
    <glyph glyph-name="Tilde" horiz-adv-x="1097" 
d="M898 1841q-14 -110 -69 -170.5t-141 -60.5q-49 0 -138 34q-123 46 -158 46q-69 0 -96 -92h-98q13 109 69 168.5t145 59.5q43 0 77 -10t146 -55q30 -12 63 -12q76 0 99 92h101z" />
    <glyph glyph-name="commareversed" horiz-adv-x="1097" 
d="M439 1243v142q0 226 190 247v-74q-90 -22 -101 -134h101v-181h-190z" />
    <glyph glyph-name="dieresis.alt" horiz-adv-x="1097" 
d="M784 1450v-208h-186v208h186zM499 1450v-208h-186v208h186z" />
    <glyph glyph-name="comma.high" horiz-adv-x="1097" 
d="M877 1462v-142q0 -226 -190 -246v73q92 22 101 134h-101v181h190z" />
    <glyph glyph-name="commaaccent" horiz-adv-x="569" 
d="M375 -132v-142q0 -226 -190 -246v73q92 22 101 134h-101v181h190z" />
    <glyph glyph-name="percent.frac" horiz-adv-x="1841" 
d="M370 1462q193 0 266 -158q45 -97 45 -306q0 -175 -45 -273q-72 -158 -266 -158q-202 0 -274 157q-43 95 -43 279q0 209 44 303q74 156 273 156zM364 1358q-100 0 -140.5 -78.5t-40.5 -272.5q0 -145 26 -221q38 -114 161 -114q97 0 139 78t42 258q0 158 -26 236
q-38 114 -161 114zM1401 1445l-831 -1445h-123l836 1445h118zM1477 877q194 0 266 -158q45 -97 45 -307q0 -174 -44 -272q-72 -158 -266 -158q-202 0 -274 157q-43 95 -43 278q0 210 44 304q74 156 272 156zM1471 773q-99 0 -139.5 -78.5t-40.5 -272.5q0 -145 25 -221
q38 -114 161 -114q97 0 139 78.5t42 259.5q0 156 -26 234q-39 114 -161 114z" />
    <glyph glyph-name="Dieresis" horiz-adv-x="1097" 
d="M868 1818v-202h-190v202h190zM418 1818v-202h-190v202h190z" />
    <glyph glyph-name="Dotaccent" horiz-adv-x="1097" 
d="M643 1818v-202h-190v202h190z" />
    <glyph glyph-name="Ring" horiz-adv-x="1097" 
d="M551 2016q99 0 169 -77q60 -67 60 -156q0 -104 -77 -173q-66 -60 -156 -60q-104 0 -173 77q-60 66 -60 158q0 100 77 171q66 60 160 60zM542 1911q-52 0 -89 -38t-37 -90q0 -53 37.5 -90.5t90.5 -37.5q54 0 92.5 37.5t38.5 91.5q0 53 -39 90t-94 37z" />
    <glyph glyph-name="Acute" horiz-adv-x="1097" 
d="M849 1857l-254 -278h-143l167 278h230z" />
    <glyph glyph-name="Grave" horiz-adv-x="1097" 
d="M248 1857h230l167 -278h-143z" />
    <glyph glyph-name="Circumflex" horiz-adv-x="1097" 
d="M871 1582h-198l-130 178l-138 -178h-179l212 272h218z" />
    <glyph glyph-name="Caron" horiz-adv-x="1097" 
d="M226 1854h198l130 -178l138 178h179l-212 -272h-218z" />
    <glyph glyph-name="Breve" horiz-adv-x="1097" 
d="M867 1872q-10 -105 -59 -172q-86 -118 -264 -118q-179 0 -263 121q-48 69 -51 169h103q38 -150 220 -150q89 0 139 35.5t73 114.5h102z" />
    <glyph glyph-name="Dieresis.alt" horiz-adv-x="1097" 
d="M803 1818v-202h-190v202h190zM484 1818v-202h-190v202h190z" />
    <glyph glyph-name="Comma.high" horiz-adv-x="1097" 
d="M907 1462v-157q0 -89 -11.5 -134.5t-42.5 -78.5q-45 -50 -151 -63v74q74 20 93 53q22 36 22 110h-115v196h205z" />
    </font>
</defs>
</svg>
